M48
;Layer_Color=9474304
;FILE_FORMAT=4:4
METRIC,LZ
;TYPE=PLATED
T03F00S00C0.1500
T04F00S00C0.2000
;TYPE=NON_PLATED
%
T03
X00539408Y00050429
X00532195Y00090007
X00535517Y00115986
X0051308Y0012954
X0049086Y00107855
X00565112Y00114733
X00583045Y00104501
X00603562
X0059182Y0008255
X00631521Y00123157
X0052451Y0014859
X00441844Y0025906
X0044704Y0026924
X00433501Y00266804
T04
X00066Y00056
X00086
X00131Y00046
X00051Y00106
X00031
X00156279Y00096237
X00176Y00076
X00186Y00056
X00216
X00241Y00066
X00276Y00076
Y00056
X00281Y00026
X00236Y00016
X00156
X00201Y00086
X00211Y00126
X00271Y00106
X00291
X00316Y00116
X00336Y00096
Y00076
X00356069Y00076274
X00371Y00126
X00411Y00106
X00426Y00116
X00441Y00126
X00461
Y00106
X00441
X00476Y00116
X00491Y00086
X00521Y00066
X00481Y00046
X00411Y00026
X00576Y00016
X00591Y00066
X00611001Y00086
X00616001Y00116
X00626001Y00136
X00641001Y00106
Y00066
X00666001Y00076
X00591Y00126
X00566Y00136
X00541Y00146
X00546Y00176
X00601Y00146
X00636001Y00196
X00656001
X00669Y00188
Y00222
X00691001Y00226
X00681001Y00286
X0062412Y00290037
X00624269Y00255539
X00566Y00256
X00536
X00521Y00186
X00506Y00196
X00456
Y00216
X00446Y00236
X00416
X00401Y00226
X00386Y00236
X00366
X00326
X00306
X00281Y00226
X00261Y00266
X00246Y00276
X00231Y00326
X00181Y00306
Y00286
Y00266
X00161
X00146Y00276
X00181Y00246
X00156Y00336
X00346
X00366
X00361Y00306
X00381
X00416Y00316
X00476
X00396Y00256
X00431Y00206
X00441Y00146
X00461
X00486Y00156
X00376
X00361Y00146
X00371Y00186
X00321Y00166
X00286Y00156
X00241Y00166
X00321Y00266
X00336Y00316
X00116Y00216
X00071Y00206
X00051Y00186
Y00166
M30
