M48
;Layer_Color=9474304
;FILE_FORMAT=4:4
METRIC,LZ
;TYPE=PLATED
T03F00S00C0.1500
;TYPE=NON_PLATED
%
T03
X00074302Y00016868
X00170312Y00009706
X00365576Y00080773
X00368625Y00084211
X00362275
X00359442Y0013544
X00355358
X003175Y00135962
Y0013081
X00400871Y00121987
X00404905Y00121748
X00441Y00057
X00440982Y00051646
X00440964Y00046292
X00440946Y00040939
X00629623Y0008255
X00575955Y00142577
X0057224
Y00146292
X00575955
X00550148Y0018171
X00550402Y00185484
X0054629Y00185539
X005461Y0018161
X00603639Y0018415
X00608707
Y00188841
Y00193533
X00639566Y00224053
X0064389Y00222973
Y00227056
Y0023114
X00672726Y00295788
X0067691Y0029591
X0048949Y0025727
X00484733Y00257237
X00484766Y0025248
X00489523Y00252513
X00459651Y00252356
Y00246836
X00454131
X00454173Y00252482
X0043688Y0020701
X00498355Y002034
Y0019939
Y0019538
Y0019137
X00354Y00176
X00349Y00209
X0033655Y0020955
X00359558Y00222507
X0036339
X00378488Y00151258
X0033782Y00151634
X003302
X003683Y003048
X00368443Y00309089
X0040767Y00319428
Y0032385
X00189176Y00287821
Y00283502
X0009017Y002032
X0008509
M30
