M48
;Layer_Color=9474304
;FILE_FORMAT=4:4
METRIC,LZ
;TYPE=PLATED
T01F00S00C0.1000
T03F00S00C0.1500
;TYPE=NON_PLATED
%
T01
X0058001Y0012192
X0058401
Y0012992
Y0013392
X0058001
Y0012992
T03
X00237265Y00036605
X00223552Y00054649
X0034189Y00096876
X00423827Y00101545
X0041656Y0010922
X00526763Y00138448
X00530859Y00138539
X00534956Y00138629
X00539052Y00138719
X005334Y0008001
X0053721Y000762
X0054102Y0007239
X0054483Y0006858
X0054226Y00088794
X00542345Y00092846
X00607064Y00076877
X006109Y00076984
X0061055Y00065857
X006146
X00618649
X00622698
X0063246Y0010287
X00611953Y00106526
Y00111119
X00629601Y00139558
X00635
X00640399
X00645798
X0062357Y0018691
X0059944Y0017176
X0058285Y0017399
X00561259Y00177766
X00572761Y00154308
X0058547Y0015113
X00554736Y00147512
X00502975Y00152316
X00493365Y00154072
X00485959Y0022636
X00458871Y0020842
X00398194Y00215593
X00391869Y00240694
X00381Y0024003
X0042164Y0024765
X0034036Y0022987
X003556Y0019554
X0033917Y00180876
X0032893Y001905
X0030607Y0017653
X0031128Y0030815
X0031928
X0032728
X0033528
X0047879Y003048
X0048895Y0030734
X004826Y0031623
X00413645Y0014434
M30
