M48
;Layer_Color=9474304
;FILE_FORMAT=4:4
METRIC,LZ
;TYPE=PLATED
T01F00S00C0.1000
T03F00S00C0.1500
;TYPE=NON_PLATED
%
T01
X005836Y00263988
X0058685Y00270487
X0059985
X0061261Y00270601
X0061935Y00270736
X0062585Y00270487
Y00278237
X0061935
X0061285Y00284737
X0060635
Y00278237
X0059985Y00284737
X0059335Y00278237
X0058685Y00284737
X005791
X0059335Y00292487
X0052959Y0017399
X0031496Y0026035
X003Y00269
X00280414Y00307685
T03
X003937Y0002413
X00567747Y00057913
X00579716Y0008437
X00584361Y00082323
X00587432Y0007689
X0059524Y00236142
X005969Y0024257
X0060452Y0025273
X0061976Y002413
X00662488Y00194785
X0067437Y0018542
X0051181Y0023495
X0047625Y0022733
X0046228Y001905
X0046736Y0016764
X0035814Y0018669
X00391462Y00223598
X00506939Y00277974
X0032258Y0033147
X00218797Y00311815
M30
