M48
;Layer_Color=9474304
;FILE_FORMAT=4:4
METRIC,LZ
;TYPE=PLATED
T01F00S00C0.1000
T03F00S00C0.1500
T04F00S00C0.2000
;TYPE=NON_PLATED
%
T01
X00498281Y00230571
T03
X0015113Y0009398
X0022606
X00396296Y00141237
X00583817Y00141798
X0058293Y00145712
X00587231
X0047881Y00193701
X00481177Y00217796
X00440076Y00195648
X00428202Y00155691
X0035599Y00189011
X003048Y002032
X0032004Y0022479
X0030226Y001651
X0030353Y0032512
X00266701Y00308044
X0015118Y00280105
X00440898Y00265353
T04
X00344951Y00279009
M30
