G04*
G04 #@! TF.GenerationSoftware,Altium Limited,Altium Designer,25.3.3 (18)*
G04*
G04 Layer_Physical_Order=4*
G04 Layer_Color=16440176*
%FSLAX44Y44*%
%MOMM*%
G71*
G04*
G04 #@! TF.SameCoordinates,351A8BA8-0CC1-4D67-9F25-149D158D4AE5*
G04*
G04*
G04 #@! TF.FilePolarity,Positive*
G04*
G01*
G75*
%ADD10C,0.1000*%
%ADD11C,0.2000*%
%ADD13C,0.2540*%
%ADD15C,0.2000*%
%ADD17C,0.1500*%
%ADD18C,0.1200*%
%ADD53C,0.2260*%
%ADD79C,0.1690*%
%ADD160C,2.0000*%
%ADD166C,0.5000*%
%ADD169C,0.3000*%
%ADD175C,0.1465*%
%ADD178R,1.5240X1.5240*%
%ADD179C,1.5240*%
%ADD180C,0.6500*%
%ADD181C,0.7500*%
%ADD182C,0.6200*%
%ADD183C,1.9000*%
%ADD184R,1.9000X1.9000*%
%ADD185R,1.5000X1.5000*%
%ADD186C,1.5000*%
%ADD187O,1.8000X1.0000*%
%ADD188O,2.2000X1.0000*%
%ADD189R,0.8500X0.8500*%
%ADD190C,0.8500*%
%ADD191C,5.5000*%
%ADD192C,0.3000*%
%ADD193C,0.4000*%
%ADD194C,0.5000*%
%ADD195C,0.6000*%
%ADD196C,0.2500*%
%ADD217C,0.1500*%
%ADD218C,0.1500*%
G36*
X241323Y331517D02*
X241046Y331198D01*
X240803Y330880D01*
X240591Y330561D01*
X240413Y330243D01*
X240266Y329924D01*
X240153Y329605D01*
X240071Y329287D01*
X240023Y328968D01*
X240006Y328649D01*
X238006D01*
X237990Y328968D01*
X237941Y329287D01*
X237860Y329605D01*
X237746Y329924D01*
X237600Y330243D01*
X237421Y330561D01*
X237210Y330880D01*
X236966Y331198D01*
X236690Y331517D01*
X236381Y331835D01*
X241631D01*
X241323Y331517D01*
D02*
G37*
G36*
X231450Y331669D02*
X231129Y331377D01*
X230842Y331081D01*
X230588Y330782D01*
X230368Y330480D01*
X230182Y330173D01*
X230030Y329864D01*
X229912Y329551D01*
X229828Y329234D01*
X229777Y328914D01*
X229760Y328590D01*
X227760Y328727D01*
X227745Y329039D01*
X227698Y329356D01*
X227621Y329676D01*
X227512Y329999D01*
X227373Y330326D01*
X227202Y330656D01*
X227001Y330990D01*
X226769Y331328D01*
X226505Y331669D01*
X226211Y332014D01*
X231450Y331669D01*
D02*
G37*
G36*
X482565Y314730D02*
X482479Y314726D01*
X482389Y314710D01*
X482296Y314682D01*
X482200Y314643D01*
X482101Y314590D01*
X481998Y314527D01*
X481892Y314451D01*
X481782Y314363D01*
X481553Y314151D01*
X480509Y315228D01*
X480621Y315344D01*
X480810Y315567D01*
X480886Y315672D01*
X480951Y315775D01*
X481005Y315874D01*
X481046Y315969D01*
X481076Y316061D01*
X481094Y316150D01*
X481100Y316235D01*
X482565Y314730D01*
D02*
G37*
G36*
X328033Y310188D02*
X328057Y309897D01*
X328078Y309768D01*
X328105Y309650D01*
X328138Y309543D01*
X328177Y309446D01*
X328222Y309360D01*
X328273Y309285D01*
X328330Y309221D01*
X326230D01*
X326287Y309285D01*
X326338Y309360D01*
X326383Y309446D01*
X326422Y309543D01*
X326455Y309650D01*
X326482Y309768D01*
X326503Y309897D01*
X326518Y310037D01*
X326530Y310349D01*
X328030D01*
X328033Y310188D01*
D02*
G37*
G36*
X337365Y309175D02*
X337253Y309058D01*
X337065Y308836D01*
X336989Y308730D01*
X336924Y308627D01*
X336872Y308528D01*
X336831Y308432D01*
X336802Y308340D01*
X336785Y308251D01*
X336780Y308165D01*
X335295Y309650D01*
X335381Y309655D01*
X335470Y309672D01*
X335562Y309701D01*
X335658Y309742D01*
X335757Y309794D01*
X335860Y309859D01*
X335966Y309935D01*
X336076Y310023D01*
X336305Y310235D01*
X337365Y309175D01*
D02*
G37*
G36*
X487879Y306290D02*
X487815Y306347D01*
X487740Y306398D01*
X487654Y306443D01*
X487557Y306482D01*
X487450Y306515D01*
X487332Y306542D01*
X487203Y306563D01*
X487063Y306578D01*
X486751Y306590D01*
Y308090D01*
X486912Y308093D01*
X487203Y308117D01*
X487332Y308138D01*
X487450Y308165D01*
X487557Y308198D01*
X487654Y308237D01*
X487740Y308282D01*
X487815Y308333D01*
X487879Y308390D01*
Y306290D01*
D02*
G37*
G36*
X320273Y307015D02*
X320222Y306940D01*
X320177Y306854D01*
X320138Y306757D01*
X320105Y306650D01*
X320078Y306532D01*
X320057Y306403D01*
X320042Y306263D01*
X320030Y305951D01*
X318530D01*
X318527Y306112D01*
X318503Y306403D01*
X318482Y306532D01*
X318455Y306650D01*
X318422Y306757D01*
X318383Y306854D01*
X318338Y306940D01*
X318287Y307015D01*
X318230Y307079D01*
X320330D01*
X320273Y307015D01*
D02*
G37*
G36*
X519430Y300990D02*
X539558D01*
X539941Y300066D01*
X522775Y282900D01*
X522544D01*
X521257Y282367D01*
X520273Y281383D01*
X519740Y280096D01*
Y278704D01*
X519803Y278552D01*
X519553Y277817D01*
X519221Y277454D01*
X518636Y277469D01*
X517868Y278237D01*
Y286306D01*
X517655Y287379D01*
X517047Y288288D01*
X507443Y297893D01*
X506533Y298500D01*
X505460Y298714D01*
X477906D01*
X477322Y299641D01*
X477332Y299714D01*
X478175Y300277D01*
X479198Y301300D01*
X479486D01*
X480773Y301833D01*
X481757Y302817D01*
X482205Y303898D01*
X482324Y304121D01*
X483290Y304624D01*
X483731Y304536D01*
X486804D01*
X486967Y304373D01*
X488254Y303840D01*
X489646D01*
X490933Y304373D01*
X491917Y305357D01*
X492450Y306644D01*
Y308036D01*
X491917Y309323D01*
X490933Y310307D01*
X489646Y310840D01*
X488254D01*
X486967Y310307D01*
X486804Y310144D01*
X484893D01*
X483303Y311733D01*
X483301Y312038D01*
X483535Y312806D01*
X483562Y312840D01*
X484583Y313263D01*
X485567Y314247D01*
X486100Y315534D01*
Y316926D01*
X485567Y318213D01*
X484583Y319197D01*
X483296Y319730D01*
X481904D01*
X480617Y319197D01*
X479633Y318213D01*
X479103Y316934D01*
X474925D01*
X473852Y316720D01*
X472943Y316113D01*
X471588Y314758D01*
X403584D01*
X377269Y341073D01*
X376359Y341680D01*
X375286Y341894D01*
X350520D01*
X349447Y341680D01*
X348537Y341073D01*
X325297Y317833D01*
X324690Y316923D01*
X324476Y315850D01*
Y310296D01*
X324313Y310133D01*
X323780Y308846D01*
Y307454D01*
X324313Y306167D01*
X325297Y305183D01*
X326584Y304650D01*
X327976D01*
X329263Y305183D01*
X330247Y306167D01*
X330780Y307454D01*
Y308846D01*
X330247Y310133D01*
X330084Y310296D01*
Y314689D01*
X351681Y336286D01*
X374125D01*
X399497Y310914D01*
X399083Y309914D01*
X392551D01*
X377909Y324557D01*
X376999Y325164D01*
X375926Y325378D01*
X349704D01*
X348631Y325164D01*
X347721Y324557D01*
X334815Y311650D01*
X334584D01*
X333297Y311117D01*
X332313Y310133D01*
X331780Y308846D01*
Y307454D01*
X332313Y306167D01*
X333297Y305183D01*
X334584Y304650D01*
X335976D01*
X337263Y305183D01*
X338247Y306167D01*
X338780Y307454D01*
Y307685D01*
X350865Y319770D01*
X374765D01*
X388471Y306064D01*
X388057Y305064D01*
X381797D01*
X380724Y304850D01*
X379814Y304243D01*
X374286Y298714D01*
X328821D01*
X322084Y305451D01*
Y306004D01*
X322247Y306167D01*
X322780Y307454D01*
Y308846D01*
X322247Y310133D01*
X321263Y311117D01*
X319976Y311650D01*
X318584D01*
X317297Y311117D01*
X316313Y310133D01*
X315780Y308846D01*
Y307454D01*
X316313Y306167D01*
X316476Y306004D01*
Y304290D01*
X316690Y303217D01*
X317297Y302307D01*
X325677Y293927D01*
X326587Y293320D01*
X327660Y293106D01*
X375447D01*
X376520Y293320D01*
X377430Y293927D01*
X382958Y299456D01*
X425006D01*
X425591Y298529D01*
X425581Y298456D01*
X424737Y297893D01*
X417939Y291094D01*
X384416D01*
X384253Y291257D01*
X382966Y291790D01*
X381574D01*
X380287Y291257D01*
X379303Y290273D01*
X378770Y288986D01*
Y287594D01*
X379303Y286307D01*
X380287Y285323D01*
X381574Y284790D01*
X382966D01*
X384253Y285323D01*
X384416Y285486D01*
X419100D01*
X420173Y285700D01*
X421083Y286307D01*
X427881Y293106D01*
X504299D01*
X512260Y285144D01*
Y277076D01*
X512474Y276003D01*
X513082Y275093D01*
X514902Y273272D01*
X514902Y273272D01*
X515479Y272696D01*
X515065Y271695D01*
X497170D01*
X493854Y275012D01*
X492862Y275675D01*
X491691Y275908D01*
X491691Y275908D01*
X430977D01*
X429806Y275675D01*
X428814Y275012D01*
X428814Y275012D01*
X417283Y263481D01*
X315895D01*
X315606Y263600D01*
X314314D01*
X313119Y263105D01*
X312205Y262191D01*
X312014Y261729D01*
X311153Y260869D01*
X274317D01*
X231819Y303367D01*
Y328770D01*
X231825Y328810D01*
X231856Y328926D01*
X231904Y329052D01*
X231973Y329193D01*
X232068Y329350D01*
X232193Y329522D01*
X232352Y329710D01*
X232547Y329910D01*
X232822Y330160D01*
X232927Y330302D01*
X233353Y330728D01*
X234006Y331171D01*
X234660Y330728D01*
X234817Y330571D01*
X234917Y330416D01*
X235187Y330138D01*
X235385Y329910D01*
X235549Y329695D01*
X235680Y329497D01*
X235781Y329317D01*
X235856Y329154D01*
X235908Y329009D01*
X235941Y328880D01*
X235948Y328835D01*
Y325994D01*
X235948Y325994D01*
X236180Y324823D01*
X236843Y323831D01*
X245494Y315180D01*
X245494Y315180D01*
X246486Y314517D01*
X247657Y314284D01*
X247657Y314284D01*
X252390D01*
X270550Y296124D01*
Y281735D01*
X270550Y281735D01*
X270783Y280564D01*
X271446Y279572D01*
X282180Y268837D01*
X282180Y268837D01*
X283173Y268174D01*
X284101Y267989D01*
X285253Y266837D01*
X286245Y266174D01*
X287416Y265941D01*
X298892D01*
X299354Y265750D01*
X300646D01*
X301841Y266245D01*
X302755Y267159D01*
X303250Y268354D01*
Y269646D01*
X302755Y270841D01*
X301841Y271755D01*
X300646Y272250D01*
X299354D01*
X298892Y272059D01*
X288683D01*
X287579Y273163D01*
X286948Y273584D01*
X286725Y274611D01*
X286761Y274811D01*
X286967Y275017D01*
X287500Y276304D01*
Y277696D01*
X286967Y278983D01*
X285983Y279967D01*
X284696Y280500D01*
X283304D01*
X282017Y279967D01*
X281567Y279517D01*
X280224Y279445D01*
X276667Y283002D01*
Y297391D01*
X276667Y297391D01*
X276434Y298562D01*
X275772Y299554D01*
X275771Y299554D01*
X255820Y319506D01*
X254827Y320169D01*
X253657Y320402D01*
X253657Y320402D01*
X248924D01*
X242065Y327261D01*
Y328835D01*
X242072Y328879D01*
X242105Y329009D01*
X242157Y329155D01*
X242231Y329317D01*
X242333Y329497D01*
X242464Y329695D01*
X242628Y329910D01*
X242826Y330138D01*
X242955Y330271D01*
X243541Y330453D01*
X244122Y330502D01*
X245443Y329181D01*
X247736Y328231D01*
Y334514D01*
Y340796D01*
X245443Y339846D01*
X243674Y338077D01*
X243591Y338060D01*
X242264Y339388D01*
X240150Y340263D01*
X237863D01*
X235749Y339388D01*
X234660Y338298D01*
X234006Y337856D01*
X233353Y338298D01*
X232264Y339388D01*
X230150Y340263D01*
X227863D01*
X225749Y339388D01*
X224132Y337771D01*
X223256Y335657D01*
Y333370D01*
X224132Y331256D01*
X224612Y330776D01*
X224660Y330690D01*
X224922Y330383D01*
X225121Y330126D01*
X225287Y329885D01*
X225421Y329662D01*
X225526Y329458D01*
X225605Y329274D01*
X225659Y329111D01*
X225694Y328967D01*
X225701Y328918D01*
Y302100D01*
X225701Y302100D01*
X225934Y300930D01*
X226597Y299937D01*
X270887Y255647D01*
X270887Y255647D01*
X271880Y254984D01*
X273050Y254751D01*
X273050Y254751D01*
X312420D01*
X312420Y254751D01*
X313591Y254984D01*
X314583Y255647D01*
X316299Y257363D01*
X418549D01*
X418550Y257363D01*
X419720Y257596D01*
X420713Y258259D01*
X432244Y269790D01*
X490424D01*
X492511Y267703D01*
X492128Y266779D01*
X488264D01*
X488231Y266801D01*
X487060Y267034D01*
X481797D01*
X481797Y267034D01*
X480627Y266801D01*
X479634Y266138D01*
X479634Y266138D01*
X476905Y263409D01*
X434340D01*
X434340Y263409D01*
X433170Y263176D01*
X432177Y262513D01*
X432177Y262513D01*
X420723Y251058D01*
X419657Y250617D01*
X418673Y249633D01*
X418140Y248346D01*
Y246954D01*
X418673Y245667D01*
X419657Y244683D01*
X420944Y244150D01*
X422336D01*
X423623Y244683D01*
X424607Y245667D01*
X425048Y246733D01*
X435607Y257291D01*
X478172D01*
X478172Y257291D01*
X479342Y257524D01*
X480309Y258170D01*
X480437Y258137D01*
X481233Y257671D01*
Y256541D01*
X481766Y255254D01*
X482178Y254842D01*
X481799Y254463D01*
X481266Y253176D01*
Y251784D01*
X481799Y250498D01*
X482784Y249513D01*
X484070Y248980D01*
X485462D01*
X486749Y249513D01*
X487161Y249925D01*
X487540Y249546D01*
X488827Y249013D01*
X490219D01*
X491506Y249546D01*
X492490Y250531D01*
X493023Y251817D01*
Y253209D01*
X492490Y254496D01*
X492078Y254908D01*
X492457Y255287D01*
X492990Y256574D01*
Y257966D01*
X492457Y259253D01*
X491538Y260172D01*
X491567Y260485D01*
X491830Y261171D01*
X511427D01*
X511730Y260172D01*
X511433Y259973D01*
X497251Y245791D01*
X470212D01*
X470212Y245791D01*
X469042Y245558D01*
X468049Y244895D01*
X464136Y240982D01*
X411330D01*
X411330Y240982D01*
X410159Y240749D01*
X409167Y240086D01*
X404078Y234997D01*
X385242D01*
X385242Y234997D01*
X384071Y234764D01*
X383079Y234101D01*
X383079Y234101D01*
X369770Y220793D01*
X369107Y219800D01*
X368874Y218630D01*
X368874Y218630D01*
Y205321D01*
X364051Y200498D01*
X363388Y199506D01*
X363155Y198335D01*
X363155Y198335D01*
Y174110D01*
X354646Y165600D01*
X326430D01*
X313337Y178693D01*
X312345Y179356D01*
X311174Y179589D01*
X311174Y179589D01*
X307831D01*
X306766Y180030D01*
X305374D01*
X304087Y179497D01*
X303103Y178513D01*
X302570Y177226D01*
Y175834D01*
X303103Y174547D01*
X304087Y173563D01*
X305374Y173030D01*
X306766D01*
X307831Y173471D01*
X309907D01*
X323000Y160379D01*
X323992Y159716D01*
X325163Y159483D01*
X355913D01*
X355913Y159483D01*
X357084Y159716D01*
X358076Y160379D01*
X368377Y170680D01*
X369040Y171672D01*
X369273Y172843D01*
Y197068D01*
X374096Y201891D01*
X374096Y201891D01*
X374759Y202883D01*
X374992Y204054D01*
Y217363D01*
X386509Y228880D01*
X405345D01*
X405345Y228880D01*
X406516Y229113D01*
X407508Y229776D01*
X412597Y234864D01*
X465403D01*
X465403Y234864D01*
X466573Y235097D01*
X467566Y235760D01*
X471479Y239674D01*
X498518D01*
X498518Y239674D01*
X499688Y239906D01*
X500681Y240569D01*
X514863Y254751D01*
X533633D01*
X533633Y254751D01*
X534804Y254984D01*
X535796Y255647D01*
X552578Y272429D01*
X561340D01*
X562510Y272661D01*
X562831Y272875D01*
X563784Y272938D01*
X575367D01*
X575750Y272015D01*
X574573Y270838D01*
X563840D01*
X562864Y270644D01*
X562038Y270091D01*
X561166Y269220D01*
X560737Y268819D01*
X560591Y268699D01*
X560169Y268615D01*
X559177Y267952D01*
X547622Y256397D01*
X545567D01*
X545567Y256397D01*
X544397Y256165D01*
X543404Y255502D01*
X543404Y255501D01*
X506949Y219046D01*
X495387D01*
X494217Y218813D01*
X493224Y218150D01*
X493224Y218150D01*
X486553Y211479D01*
X460633D01*
X459568Y211920D01*
X458175D01*
X456889Y211388D01*
X455904Y210403D01*
X455372Y209116D01*
Y207724D01*
X455904Y206438D01*
X456889Y205453D01*
X458175Y204920D01*
X459568D01*
X460633Y205362D01*
X487820D01*
X487820Y205362D01*
X488991Y205594D01*
X489983Y206257D01*
X496654Y212929D01*
X508216D01*
X508216Y212929D01*
X509386Y213161D01*
X510379Y213824D01*
X546834Y250280D01*
X548889D01*
X548890Y250280D01*
X550060Y250513D01*
X551052Y251176D01*
X563503Y263626D01*
X564166Y264619D01*
X564241Y264996D01*
X564871Y265715D01*
X564896Y265740D01*
X568658D01*
X568927Y265275D01*
X569027Y264740D01*
X563717Y259430D01*
X519143Y214856D01*
X518535Y213946D01*
X518321Y212873D01*
Y171942D01*
X518535Y170868D01*
X519143Y169959D01*
X524811Y164291D01*
X525720Y163683D01*
X526793Y163470D01*
X535309D01*
X536382Y163683D01*
X537292Y164291D01*
X539919Y166918D01*
X540527Y167828D01*
X540741Y168901D01*
Y177806D01*
X540527Y178879D01*
X539919Y179789D01*
X534171Y185537D01*
Y187872D01*
X535171Y188071D01*
X535512Y187247D01*
X536497Y186263D01*
X537783Y185730D01*
X539176D01*
X540462Y186263D01*
X541447Y187247D01*
X541903Y188350D01*
X544764Y191210D01*
X549025D01*
X550098Y191424D01*
X551007Y192031D01*
X555543Y196567D01*
X556150Y197477D01*
X556364Y198550D01*
Y220181D01*
X563249Y227066D01*
X584831D01*
X588038Y223859D01*
X588947Y223251D01*
X590020Y223038D01*
X601288D01*
X602361Y223251D01*
X603271Y223859D01*
X609588Y230176D01*
X609840Y230553D01*
X610840Y230250D01*
Y215857D01*
X601477Y206494D01*
X601477Y206494D01*
X583776Y188793D01*
X560495D01*
X559422Y188579D01*
X558512Y187971D01*
X554741Y184200D01*
X553893Y184766D01*
X553902Y184788D01*
Y186180D01*
X553369Y187467D01*
X552384Y188451D01*
X551098Y188984D01*
X549706D01*
X548419Y188451D01*
X548373Y188405D01*
X548273Y188506D01*
X546986Y189039D01*
X545594D01*
X544307Y188506D01*
X543323Y187521D01*
X542790Y186235D01*
Y184842D01*
X543256Y183716D01*
X543133Y183593D01*
X542600Y182306D01*
Y180914D01*
X543133Y179627D01*
X544117Y178643D01*
X545404Y178110D01*
X546796D01*
X548083Y178643D01*
X548177Y178738D01*
X549452Y178210D01*
X550844D01*
X552130Y178743D01*
X552435Y179047D01*
X553435Y178633D01*
Y176893D01*
X538256Y161713D01*
X522870D01*
X521797Y161500D01*
X520887Y160892D01*
X506475Y146480D01*
X505868Y145571D01*
X505654Y144498D01*
Y129889D01*
X495409Y119644D01*
X459631D01*
X456395Y122881D01*
X455485Y123488D01*
X454412Y123702D01*
X415371D01*
X414298Y123488D01*
X413388Y122881D01*
X406341Y115834D01*
X358044D01*
X356971Y115620D01*
X356061Y115013D01*
X341425Y100376D01*
X341194D01*
X339907Y99844D01*
X338923Y98859D01*
X338390Y97573D01*
Y96180D01*
X338923Y94894D01*
X339907Y93909D01*
X341194Y93376D01*
X342586D01*
X343873Y93909D01*
X344857Y94894D01*
X345390Y96180D01*
Y96411D01*
X359205Y110226D01*
X407503D01*
X408576Y110440D01*
X409485Y111047D01*
X416532Y118094D01*
X453251D01*
X456487Y114857D01*
X457397Y114250D01*
X458470Y114036D01*
X496570D01*
X497643Y114250D01*
X498553Y114857D01*
X510441Y126745D01*
X511048Y127655D01*
X511262Y128728D01*
Y143336D01*
X524031Y156105D01*
X539417D01*
X540490Y156319D01*
X541400Y156927D01*
X558222Y173748D01*
X558498Y174163D01*
X558503Y174166D01*
X559501Y173863D01*
Y139750D01*
X559501Y139750D01*
X559734Y138580D01*
X560397Y137587D01*
X564082Y133903D01*
X563699Y132979D01*
X559880D01*
X559880Y132979D01*
X558709Y132746D01*
X557717Y132083D01*
X540097Y114463D01*
X539434Y113470D01*
X539201Y112300D01*
X539201Y112300D01*
Y94403D01*
X538845Y93542D01*
Y92149D01*
X539201Y91289D01*
Y90556D01*
X538760Y89491D01*
Y88098D01*
X539293Y86812D01*
X540277Y85827D01*
X541564Y85294D01*
X542956D01*
X544243Y85827D01*
X545227Y86812D01*
X545760Y88098D01*
Y89491D01*
X545319Y90556D01*
Y90880D01*
X545845Y92149D01*
Y93542D01*
X545319Y94812D01*
Y111033D01*
X561147Y126861D01*
X579216D01*
X579387Y126790D01*
X580633D01*
X581783Y127267D01*
X582010Y127493D01*
X582237Y127267D01*
X583387Y126790D01*
X584633D01*
X584805Y126861D01*
X602873D01*
X618779Y110955D01*
Y106063D01*
X609408Y96693D01*
X608745Y95700D01*
X608513Y94530D01*
X608513Y94530D01*
Y80466D01*
X607084D01*
X606639Y80377D01*
X606368D01*
X606117Y80274D01*
X605718Y80194D01*
X605380Y79968D01*
X605081Y79844D01*
X604853Y79616D01*
X604561Y79421D01*
X604365Y79128D01*
X604097Y78860D01*
X603951Y78509D01*
X603787Y78263D01*
X603729Y77973D01*
X603564Y77574D01*
Y77142D01*
X603515Y76897D01*
X603564Y76653D01*
Y76181D01*
X603745Y75745D01*
X603787Y75532D01*
X603908Y75351D01*
X604097Y74895D01*
X604446Y74546D01*
X604561Y74374D01*
X604732Y74259D01*
X605081Y73910D01*
X605537Y73721D01*
X605718Y73600D01*
X605932Y73558D01*
X606368Y73377D01*
X606840D01*
X607084Y73329D01*
X610813D01*
X611593Y73484D01*
X611596D01*
X611598Y73485D01*
X612179Y73600D01*
X612670Y73929D01*
X612882Y74017D01*
X613044Y74179D01*
X613336Y74374D01*
X613532Y74666D01*
X613867Y75001D01*
X614048Y75439D01*
X614110Y75532D01*
X614132Y75641D01*
X614399Y76288D01*
Y76767D01*
X614630Y77926D01*
X614630Y77927D01*
Y93263D01*
X624001Y102633D01*
X624664Y103626D01*
X624897Y104796D01*
X624897Y104796D01*
Y112222D01*
X624897Y112222D01*
X624664Y113393D01*
X624001Y114385D01*
X624001Y114385D01*
X606303Y132083D01*
X605311Y132746D01*
X604140Y132979D01*
X604140Y132979D01*
X588631D01*
X588248Y133903D01*
X591874Y137529D01*
X591874Y137529D01*
X592537Y138521D01*
X592770Y139691D01*
X592770Y139692D01*
Y146889D01*
X592770Y146889D01*
X592537Y148059D01*
X591874Y149052D01*
X591874Y149052D01*
X588878Y152047D01*
X588437Y153113D01*
X587453Y154097D01*
X586166Y154630D01*
X584774D01*
X583487Y154097D01*
X582503Y153113D01*
X581970Y151826D01*
Y150434D01*
X582503Y149147D01*
X583487Y148163D01*
X584553Y147722D01*
X586652Y145622D01*
Y140958D01*
X582289Y136595D01*
X582237Y136573D01*
X581253Y136933D01*
X581046Y137139D01*
X580054Y137802D01*
X578883Y138035D01*
X578883Y138035D01*
X568601D01*
X565619Y141017D01*
Y174432D01*
X577693D01*
X579717Y172408D01*
X579883Y172007D01*
X580868Y171023D01*
X582154Y170490D01*
X583546D01*
X584833Y171023D01*
X585817Y172007D01*
X586350Y173294D01*
Y174686D01*
X585817Y175973D01*
X584833Y176957D01*
X584432Y177123D01*
X581432Y180124D01*
X580350Y180847D01*
X579074Y181100D01*
X562356D01*
X561955Y181266D01*
X561152D01*
X560738Y182266D01*
X561656Y183185D01*
X584937D01*
X586010Y183398D01*
X586920Y184006D01*
X605443Y202529D01*
X605443Y202529D01*
X615626Y212713D01*
X615701Y212825D01*
X616701Y212521D01*
Y208858D01*
X616701Y208858D01*
X616934Y207687D01*
X617597Y206695D01*
X637893Y186399D01*
Y176347D01*
X637835Y176206D01*
Y174813D01*
X638367Y173527D01*
X639352Y172542D01*
X640638Y172010D01*
X642031D01*
X643317Y172542D01*
X644302Y173527D01*
X644834Y174813D01*
Y176206D01*
X644302Y177492D01*
X644010Y177783D01*
Y187666D01*
X643778Y188836D01*
X643115Y189829D01*
X643115Y189829D01*
X622819Y210125D01*
Y232201D01*
X623819Y232615D01*
X626403Y230031D01*
Y215882D01*
X626616Y214809D01*
X627224Y213899D01*
X660076Y181047D01*
Y145691D01*
X660290Y144618D01*
X660897Y143709D01*
X665123Y139483D01*
Y84585D01*
X660897Y80360D01*
X660897Y80360D01*
X631341Y50804D01*
X543161D01*
X526983Y66983D01*
X526073Y67590D01*
X525000Y67804D01*
X437000D01*
X435927Y67590D01*
X435017Y66983D01*
X415289Y47254D01*
X245110D01*
X244037Y47040D01*
X243127Y46433D01*
X236800Y40105D01*
X236569D01*
X235282Y39572D01*
X234298Y38588D01*
X233765Y37301D01*
Y35909D01*
X234298Y34622D01*
X235282Y33638D01*
X236569Y33105D01*
X237961D01*
X239248Y33638D01*
X240232Y34622D01*
X240765Y35909D01*
Y36140D01*
X246271Y41646D01*
X416450D01*
X417523Y41860D01*
X418433Y42467D01*
X438161Y62196D01*
X523839D01*
X540017Y46017D01*
X540927Y45410D01*
X542000Y45196D01*
X632503D01*
X633576Y45410D01*
X634485Y46017D01*
X664863Y76395D01*
X664863Y76395D01*
X669909Y81441D01*
X670517Y82351D01*
X670730Y83424D01*
Y140645D01*
X670517Y141718D01*
X669909Y142627D01*
X665684Y146853D01*
Y150735D01*
X666631Y151056D01*
X666802Y150832D01*
X668378Y149624D01*
X670212Y148864D01*
X672180Y148605D01*
X676910D01*
Y156210D01*
Y163815D01*
X672180D01*
X670212Y163556D01*
X668378Y162796D01*
X666802Y161588D01*
X666631Y161364D01*
X665684Y161685D01*
Y182209D01*
X665470Y183281D01*
X664863Y184191D01*
X632010Y217043D01*
Y231192D01*
X631797Y232265D01*
X631189Y233175D01*
X628717Y235647D01*
X628778Y235991D01*
X629869Y236414D01*
X630378Y236024D01*
X632212Y235264D01*
X634180Y235005D01*
X636910D01*
Y242610D01*
Y250215D01*
X634180D01*
X632212Y249956D01*
X630378Y249196D01*
X629163Y248264D01*
X628163Y248727D01*
Y249326D01*
X627949Y250399D01*
X627342Y251309D01*
X624804Y253847D01*
Y261276D01*
X625786Y262258D01*
X626345Y262147D01*
X627259Y261232D01*
X628453Y260738D01*
X629746D01*
X630941Y261232D01*
X631790Y262081D01*
X632350Y262116D01*
X632910Y262081D01*
X633759Y261232D01*
X634954Y260738D01*
X636247D01*
X637441Y261232D01*
X638355Y262147D01*
X638850Y263341D01*
Y264634D01*
X638355Y265828D01*
X637441Y266743D01*
X636247Y267237D01*
X635111D01*
X634800Y267664D01*
X634620Y268161D01*
X635105Y268647D01*
X635600Y269841D01*
Y271134D01*
X635105Y272328D01*
X634191Y273243D01*
X632996Y273737D01*
X631703D01*
X630509Y273243D01*
X629595Y272328D01*
X629506Y272114D01*
X628424Y272114D01*
X628393Y272187D01*
X628057Y272523D01*
X627705Y273403D01*
X627933Y273953D01*
X628205Y274360D01*
X628399Y275336D01*
Y276552D01*
X628559Y276938D01*
X629641D01*
X629807Y276538D01*
X630651Y275694D01*
X631753Y275238D01*
X632947D01*
X634049Y275694D01*
X634893Y276538D01*
X635350Y277641D01*
Y278834D01*
X634893Y279937D01*
X634049Y280781D01*
X633977Y280811D01*
X633977Y281893D01*
X634191Y281982D01*
X635105Y282896D01*
X635600Y284091D01*
Y285384D01*
X635172Y286417D01*
X635573Y287417D01*
X636877D01*
X637278Y286417D01*
X636850Y285384D01*
Y284091D01*
X637345Y282896D01*
X638193Y282048D01*
X638228Y281487D01*
X638193Y280927D01*
X637345Y280078D01*
X636850Y278884D01*
Y277591D01*
X637345Y276397D01*
X638259Y275482D01*
X639454Y274988D01*
X640747D01*
X641941Y275482D01*
X642855Y276397D01*
X643350Y277591D01*
Y278884D01*
X642855Y280078D01*
X642007Y280927D01*
X641972Y281487D01*
X642007Y282048D01*
X642855Y282896D01*
X643350Y284091D01*
Y285384D01*
X643220Y285697D01*
X643810Y286836D01*
X644200Y286916D01*
X650954Y280161D01*
Y218732D01*
X651168Y217659D01*
X651775Y216749D01*
X659684Y208841D01*
Y196931D01*
X659521Y196767D01*
X658988Y195481D01*
Y194088D01*
X659521Y192802D01*
X660505Y191817D01*
X661792Y191285D01*
X663184D01*
X664471Y191817D01*
X665455Y192802D01*
X665988Y194088D01*
Y195481D01*
X665455Y196767D01*
X665292Y196931D01*
Y210002D01*
X665078Y211075D01*
X664471Y211985D01*
X656562Y219893D01*
Y279195D01*
X657486Y279578D01*
X658542Y278522D01*
Y232735D01*
X658755Y231662D01*
X659363Y230752D01*
X671566Y218549D01*
Y187566D01*
X671403Y187403D01*
X670870Y186116D01*
Y184724D01*
X671403Y183437D01*
X672387Y182453D01*
X673674Y181920D01*
X675066D01*
X676353Y182453D01*
X677337Y183437D01*
X677870Y184724D01*
Y186116D01*
X677337Y187403D01*
X677174Y187566D01*
Y219710D01*
X676960Y220783D01*
X676353Y221693D01*
X664149Y233896D01*
Y239682D01*
X665149Y239881D01*
X665594Y238808D01*
X666802Y237232D01*
X668378Y236024D01*
X670212Y235264D01*
X672180Y235005D01*
X676910D01*
Y242610D01*
Y250215D01*
X674377D01*
X674109Y251215D01*
X675120Y251799D01*
X676415Y253094D01*
X677331Y254680D01*
X677805Y256448D01*
Y258280D01*
X677331Y260049D01*
X676415Y261635D01*
X675120Y262929D01*
X673534Y263845D01*
X671765Y264319D01*
X670931D01*
X670732Y265319D01*
X671450Y265616D01*
X672434Y266601D01*
X672967Y267887D01*
Y269280D01*
X672434Y270566D01*
X671450Y271551D01*
X670163Y272084D01*
X668771D01*
X667485Y271551D01*
X666500Y270566D01*
X665967Y269280D01*
Y267887D01*
X666500Y266601D01*
X667485Y265616D01*
X668771Y265084D01*
X668923D01*
X669055Y264084D01*
X668165Y263845D01*
X666579Y262929D01*
X665284Y261635D01*
X665149Y261401D01*
X664149Y261669D01*
Y279323D01*
X663936Y280396D01*
X663328Y281306D01*
X662418Y281914D01*
X662362Y281925D01*
X662022Y282251D01*
X653934Y290340D01*
X654500Y291187D01*
X654870Y291034D01*
X656859D01*
X658696Y291796D01*
X660103Y293202D01*
X660864Y295040D01*
Y297029D01*
X660103Y298867D01*
X658979Y299990D01*
X659380Y300990D01*
X699770D01*
X700000Y300085D01*
Y20320D01*
X680720Y0D01*
X18824Y3D01*
X-0Y16552D01*
X-1Y136003D01*
X706Y136710D01*
X48161D01*
X48633Y137183D01*
X50052Y135765D01*
X72820D01*
X72870Y135715D01*
X73790Y136636D01*
X92502D01*
X93149Y137283D01*
X93920D01*
X94393Y136810D01*
X104759Y147176D01*
X105242Y147659D01*
X105590Y147659D01*
X105590Y147758D01*
X104852Y148497D01*
X94269Y159080D01*
X84564Y149376D01*
X74487D01*
X74313Y149550D01*
Y151267D01*
X52090D01*
X50870Y150047D01*
X42563D01*
X41765Y150845D01*
Y151102D01*
X28684D01*
X28646Y151064D01*
X26551Y153159D01*
X-1D01*
X-3Y330983D01*
X17667Y350003D01*
X519430Y350005D01*
Y300990D01*
D02*
G37*
G36*
X478735Y303301D02*
X478648Y303298D01*
X478558Y303283D01*
X478465Y303256D01*
X478369Y303217D01*
X478269Y303165D01*
X478166Y303102D01*
X478060Y303027D01*
X477950Y302939D01*
X477721Y302727D01*
X476693Y303821D01*
X476805Y303937D01*
X476995Y304159D01*
X477072Y304265D01*
X477137Y304367D01*
X477191Y304466D01*
X477234Y304561D01*
X477264Y304653D01*
X477283Y304741D01*
X477290Y304825D01*
X478735Y303301D01*
D02*
G37*
G36*
X579601Y301894D02*
X579439Y301730D01*
X578747Y300951D01*
X578737Y300920D01*
X577920Y301737D01*
X577951Y301747D01*
X577997Y301775D01*
X578058Y301819D01*
X578224Y301958D01*
X578582Y302293D01*
X578894Y302601D01*
X579601Y301894D01*
D02*
G37*
G36*
X547456Y296109D02*
X547507Y296104D01*
X547695Y296096D01*
X548965Y296084D01*
Y295084D01*
X547436Y295054D01*
Y296115D01*
X547456Y296109D01*
D02*
G37*
G36*
X594353Y292420D02*
X594364Y292361D01*
X594384Y292299D01*
X594411Y292235D01*
X594446Y292169D01*
X594489Y292101D01*
X594540Y292030D01*
X594599Y291957D01*
X594740Y291804D01*
X594033Y291097D01*
X593955Y291172D01*
X593807Y291297D01*
X593736Y291348D01*
X593668Y291391D01*
X593602Y291426D01*
X593538Y291453D01*
X593476Y291473D01*
X593417Y291484D01*
X593360Y291487D01*
X594350Y292477D01*
X594353Y292420D01*
D02*
G37*
G36*
X383405Y289283D02*
X383480Y289232D01*
X383566Y289187D01*
X383663Y289148D01*
X383770Y289115D01*
X383888Y289088D01*
X384017Y289067D01*
X384157Y289052D01*
X384469Y289040D01*
Y287540D01*
X384308Y287537D01*
X384017Y287513D01*
X383888Y287492D01*
X383770Y287465D01*
X383663Y287432D01*
X383566Y287393D01*
X383480Y287348D01*
X383405Y287297D01*
X383341Y287240D01*
Y289340D01*
X383405Y289283D01*
D02*
G37*
G36*
X547157Y287886D02*
X547207Y287881D01*
X547396Y287873D01*
X548666Y287862D01*
Y286862D01*
X547136Y286831D01*
Y287892D01*
X547157Y287886D01*
D02*
G37*
G36*
X606852Y286096D02*
X606868Y285902D01*
X606882Y285816D01*
X606900Y285737D01*
X606922Y285666D01*
X606948Y285602D01*
X606978Y285544D01*
X607012Y285494D01*
X607050Y285452D01*
X605650D01*
X605688Y285494D01*
X605722Y285544D01*
X605752Y285602D01*
X605778Y285666D01*
X605800Y285737D01*
X605818Y285816D01*
X605832Y285902D01*
X605842Y285995D01*
X605850Y286203D01*
X606850D01*
X606852Y286096D01*
D02*
G37*
G36*
X612244Y286053D02*
X612393Y285927D01*
X612463Y285876D01*
X612532Y285833D01*
X612598Y285798D01*
X612662Y285771D01*
X612723Y285752D01*
X612783Y285741D01*
X612840Y285737D01*
X611850Y284747D01*
X611847Y284804D01*
X611835Y284864D01*
X611816Y284925D01*
X611789Y284989D01*
X611754Y285056D01*
X611711Y285124D01*
X611660Y285195D01*
X611601Y285268D01*
X611460Y285420D01*
X612167Y286127D01*
X612244Y286053D01*
D02*
G37*
G36*
X578494D02*
X578643Y285927D01*
X578713Y285876D01*
X578782Y285833D01*
X578848Y285798D01*
X578912Y285771D01*
X578973Y285752D01*
X579033Y285741D01*
X579090Y285737D01*
X578100Y284747D01*
X578097Y284804D01*
X578085Y284864D01*
X578066Y284925D01*
X578039Y284989D01*
X578004Y285056D01*
X577961Y285124D01*
X577910Y285195D01*
X577851Y285268D01*
X577710Y285420D01*
X578417Y286127D01*
X578494Y286053D01*
D02*
G37*
G36*
X599840Y283737D02*
X599783Y283734D01*
X599724Y283723D01*
X599662Y283703D01*
X599598Y283676D01*
X599532Y283641D01*
X599463Y283598D01*
X599393Y283547D01*
X599320Y283489D01*
X599167Y283347D01*
X598460Y284054D01*
X598535Y284132D01*
X598660Y284280D01*
X598711Y284351D01*
X598754Y284419D01*
X598789Y284485D01*
X598816Y284549D01*
X598835Y284611D01*
X598847Y284670D01*
X598850Y284727D01*
X599840Y283737D01*
D02*
G37*
G36*
X586837Y283487D02*
X586733Y283484D01*
X586630Y283471D01*
X586529Y283450D01*
X586429Y283419D01*
X586331Y283379D01*
X586235Y283330D01*
X586139Y283272D01*
X586046Y283205D01*
X585954Y283129D01*
X585863Y283043D01*
X585156Y283750D01*
X585241Y283841D01*
X585317Y283933D01*
X585385Y284027D01*
X585443Y284122D01*
X585492Y284219D01*
X585532Y284317D01*
X585562Y284417D01*
X585584Y284518D01*
X585597Y284621D01*
X585600Y284725D01*
X586837Y283487D01*
D02*
G37*
G36*
X653758Y281712D02*
X653008Y280961D01*
X652997Y280980D01*
X652966Y281020D01*
X652839Y281159D01*
X651948Y282064D01*
X652656Y282771D01*
X653758Y281712D01*
D02*
G37*
G36*
X549794Y282012D02*
X549844Y282007D01*
X550033Y281998D01*
X551302Y281987D01*
Y280987D01*
X549773Y280957D01*
Y282018D01*
X549794Y282012D01*
D02*
G37*
G36*
X525325Y280425D02*
X525213Y280308D01*
X525025Y280086D01*
X524949Y279980D01*
X524884Y279877D01*
X524832Y279778D01*
X524791Y279682D01*
X524762Y279590D01*
X524745Y279501D01*
X524740Y279415D01*
X523255Y280900D01*
X523341Y280905D01*
X523430Y280922D01*
X523522Y280951D01*
X523618Y280992D01*
X523717Y281044D01*
X523820Y281109D01*
X523926Y281185D01*
X524036Y281273D01*
X524265Y281485D01*
X525325Y280425D01*
D02*
G37*
G36*
X661346Y280073D02*
X660595Y279323D01*
X660585Y279342D01*
X660553Y279381D01*
X660426Y279520D01*
X659536Y280425D01*
X660243Y281133D01*
X661346Y280073D01*
D02*
G37*
G36*
X593340Y277237D02*
X593283Y277234D01*
X593223Y277223D01*
X593162Y277204D01*
X593098Y277176D01*
X593032Y277141D01*
X592963Y277098D01*
X592892Y277048D01*
X592819Y276989D01*
X592667Y276847D01*
X591960Y277554D01*
X592034Y277632D01*
X592160Y277780D01*
X592211Y277851D01*
X592254Y277919D01*
X592289Y277985D01*
X592316Y278049D01*
X592335Y278111D01*
X592346Y278170D01*
X592350Y278228D01*
X593340Y277237D01*
D02*
G37*
G36*
X619440Y277241D02*
X619387Y277233D01*
X619330Y277217D01*
X619272Y277194D01*
X619210Y277163D01*
X619146Y277125D01*
X619079Y277080D01*
X619009Y277027D01*
X618862Y276898D01*
X618784Y276823D01*
X617995Y277448D01*
X618069Y277526D01*
X618193Y277674D01*
X618242Y277745D01*
X618282Y277814D01*
X618314Y277881D01*
X618337Y277946D01*
X618352Y278009D01*
X618358Y278069D01*
X618356Y278128D01*
X619440Y277241D01*
D02*
G37*
G36*
X626512Y277481D02*
X626478Y277430D01*
X626448Y277373D01*
X626422Y277309D01*
X626400Y277237D01*
X626382Y277159D01*
X626368Y277073D01*
X626358Y276979D01*
X626350Y276772D01*
X625350D01*
X625348Y276879D01*
X625332Y277073D01*
X625318Y277159D01*
X625300Y277237D01*
X625278Y277309D01*
X625252Y277373D01*
X625222Y277430D01*
X625188Y277481D01*
X625150Y277523D01*
X626550D01*
X626512Y277481D01*
D02*
G37*
G36*
X607012D02*
X606978Y277430D01*
X606948Y277373D01*
X606922Y277309D01*
X606900Y277237D01*
X606882Y277159D01*
X606868Y277073D01*
X606858Y276979D01*
X606850Y276772D01*
X605850D01*
X605848Y276879D01*
X605832Y277073D01*
X605818Y277159D01*
X605800Y277237D01*
X605778Y277309D01*
X605752Y277373D01*
X605722Y277430D01*
X605688Y277481D01*
X605650Y277523D01*
X607050D01*
X607012Y277481D01*
D02*
G37*
G36*
X562106Y276156D02*
X562200Y276120D01*
X562328Y276089D01*
X562492Y276062D01*
X562924Y276021D01*
X563833Y275989D01*
X564206Y275987D01*
Y274988D01*
X563833Y274985D01*
X562328Y274886D01*
X562200Y274855D01*
X562106Y274819D01*
X562047Y274780D01*
Y276195D01*
X562106Y276156D01*
D02*
G37*
G36*
X620069Y271626D02*
X620075Y271588D01*
X620106Y271451D01*
X620126Y271394D01*
X620149Y271345D01*
X620174Y271303D01*
X619382Y271457D01*
X619011D01*
X619017Y271478D01*
X619022Y271527D01*
X618800Y271570D01*
X618846Y271606D01*
X618887Y271650D01*
X618923Y271702D01*
X618955Y271762D01*
X618981Y271829D01*
X619003Y271905D01*
X619020Y271988D01*
X619032Y272080D01*
X619034Y272108D01*
X619042Y272986D01*
X620042D01*
X620069Y271626D01*
D02*
G37*
G36*
X612004Y271917D02*
X612152Y271791D01*
X612223Y271740D01*
X612291Y271698D01*
X612358Y271663D01*
X612422Y271635D01*
X612483Y271616D01*
X612543Y271605D01*
X612600Y271601D01*
X611610Y270611D01*
X611606Y270669D01*
X611595Y270728D01*
X611576Y270790D01*
X611549Y270854D01*
X611514Y270920D01*
X611471Y270988D01*
X611420Y271059D01*
X611361Y271132D01*
X611220Y271285D01*
X611927Y271992D01*
X612004Y271917D01*
D02*
G37*
G36*
X586840Y269487D02*
X586783Y269484D01*
X586723Y269473D01*
X586662Y269454D01*
X586598Y269426D01*
X586532Y269391D01*
X586463Y269348D01*
X586393Y269297D01*
X586320Y269239D01*
X586167Y269097D01*
X585460Y269804D01*
X585534Y269882D01*
X585660Y270030D01*
X585711Y270101D01*
X585754Y270169D01*
X585789Y270235D01*
X585816Y270299D01*
X585835Y270361D01*
X585847Y270420D01*
X585850Y270477D01*
X586840Y269487D01*
D02*
G37*
G36*
X600531Y269749D02*
X600514Y269715D01*
X600499Y269670D01*
X600486Y269617D01*
X600475Y269553D01*
X600459Y269396D01*
X600451Y269200D01*
X600450Y269087D01*
X599250D01*
X599249Y269200D01*
X599225Y269553D01*
X599214Y269617D01*
X599201Y269670D01*
X599186Y269715D01*
X599169Y269749D01*
X599150Y269773D01*
X600550D01*
X600531Y269749D01*
D02*
G37*
G36*
X563720Y267462D02*
X563458Y267197D01*
X562464Y266063D01*
X562395Y265949D01*
X562354Y265858D01*
X562340Y265788D01*
X561339Y266789D01*
X561409Y266803D01*
X561500Y266844D01*
X561613Y266913D01*
X561748Y267010D01*
X562083Y267286D01*
X562748Y267907D01*
X563013Y268169D01*
X563720Y267462D01*
D02*
G37*
G36*
X578541Y263992D02*
X577482Y262889D01*
X576731Y263640D01*
X576750Y263651D01*
X576789Y263682D01*
X576928Y263810D01*
X577834Y264699D01*
X578541Y263992D01*
D02*
G37*
G36*
X583588Y262738D02*
X583484Y262734D01*
X583381Y262722D01*
X583279Y262700D01*
X583180Y262669D01*
X583082Y262629D01*
X582985Y262580D01*
X582890Y262522D01*
X582796Y262455D01*
X582704Y262379D01*
X582613Y262294D01*
X581906Y263001D01*
X581992Y263091D01*
X582068Y263183D01*
X582135Y263277D01*
X582193Y263372D01*
X582242Y263469D01*
X582282Y263567D01*
X582313Y263667D01*
X582334Y263768D01*
X582347Y263871D01*
X582350Y263975D01*
X583588Y262738D01*
D02*
G37*
G36*
X615453Y260376D02*
X614394Y259274D01*
X613643Y260024D01*
X613662Y260035D01*
X613701Y260067D01*
X613841Y260194D01*
X614746Y261084D01*
X615453Y260376D01*
D02*
G37*
G36*
X585647Y258550D02*
X584588Y257447D01*
X583837Y258197D01*
X583856Y258208D01*
X583895Y258240D01*
X584034Y258367D01*
X584940Y259257D01*
X585647Y258550D01*
D02*
G37*
G36*
X605025Y254905D02*
X605042Y254769D01*
X605070Y254637D01*
X605108Y254508D01*
X605158Y254382D01*
X605218Y254259D01*
X605289Y254139D01*
X605372Y254023D01*
X605466Y253911D01*
X605570Y253801D01*
X603470D01*
X603574Y253911D01*
X603668Y254023D01*
X603750Y254139D01*
X603822Y254259D01*
X603882Y254382D01*
X603932Y254508D01*
X603970Y254637D01*
X603998Y254769D01*
X604015Y254905D01*
X604020Y255044D01*
X605020D01*
X605025Y254905D01*
D02*
G37*
G36*
X423774Y248370D02*
X423140Y247665D01*
X421655Y249150D01*
X421675Y249156D01*
X421706Y249175D01*
X421748Y249207D01*
X421866Y249308D01*
X422239Y249664D01*
X422360Y249784D01*
X423774Y248370D01*
D02*
G37*
G36*
X595825Y244500D02*
X595935Y244409D01*
X596047Y244328D01*
X596162Y244259D01*
X596278Y244200D01*
X596395Y244152D01*
X596515Y244115D01*
X596637Y244089D01*
X596760Y244074D01*
X596885Y244070D01*
X595400Y242585D01*
X595396Y242710D01*
X595381Y242833D01*
X595355Y242955D01*
X595318Y243074D01*
X595270Y243192D01*
X595211Y243308D01*
X595142Y243423D01*
X595061Y243535D01*
X594970Y243645D01*
X594867Y243754D01*
X595716Y244603D01*
X595825Y244500D01*
D02*
G37*
G36*
X608355Y242769D02*
X606855Y242103D01*
X606853Y242243D01*
X606824Y242586D01*
X606807Y242675D01*
X606786Y242751D01*
X606761Y242815D01*
X606732Y242866D01*
X606699Y242904D01*
X606663Y242930D01*
X608329Y243466D01*
X608355Y242769D01*
D02*
G37*
G36*
X620801Y240210D02*
X620792Y240175D01*
X620784Y240123D01*
X620773Y239968D01*
X620760Y239453D01*
X620760Y239282D01*
X618760D01*
X618710Y240229D01*
X620810D01*
X620801Y240210D01*
D02*
G37*
G36*
X594251Y238091D02*
X594473Y237904D01*
X594580Y237830D01*
X594683Y237767D01*
X594783Y237717D01*
X594880Y237679D01*
X594973Y237653D01*
X595064Y237640D01*
X595151Y237639D01*
X593741Y236082D01*
X593732Y236166D01*
X593712Y236253D01*
X593680Y236344D01*
X593637Y236438D01*
X593582Y236536D01*
X593515Y236638D01*
X593437Y236743D01*
X593247Y236965D01*
X593135Y237081D01*
X594134Y238203D01*
X594251Y238091D01*
D02*
G37*
G36*
X576351Y237012D02*
X576449Y236936D01*
X576553Y236868D01*
X576664Y236810D01*
X576781Y236760D01*
X576905Y236720D01*
X577035Y236688D01*
X577171Y236666D01*
X577314Y236652D01*
X577463Y236648D01*
Y235448D01*
X577314Y235443D01*
X577171Y235430D01*
X577035Y235408D01*
X576905Y235376D01*
X576781Y235335D01*
X576664Y235286D01*
X576553Y235227D01*
X576449Y235160D01*
X576351Y235084D01*
X576260Y234998D01*
Y237098D01*
X576351Y237012D01*
D02*
G37*
G36*
X459961Y209461D02*
X459996Y209452D01*
X460048Y209445D01*
X460204Y209433D01*
X460718Y209421D01*
X460890Y209420D01*
Y207420D01*
X459943Y207370D01*
Y209470D01*
X459961Y209461D01*
D02*
G37*
G36*
X575170Y259162D02*
X544698Y228691D01*
X544146Y227864D01*
X543952Y226888D01*
Y213547D01*
X541562Y211157D01*
X537937D01*
X536961Y210963D01*
X536134Y210411D01*
X524929Y199205D01*
X524221Y199387D01*
X523929Y199588D01*
Y211712D01*
X567682Y255465D01*
X572304Y260086D01*
X574787D01*
X575170Y259162D01*
D02*
G37*
G36*
X538989Y198097D02*
X538960Y198109D01*
X538914Y198120D01*
X538853Y198130D01*
X538685Y198146D01*
X538314Y198159D01*
X537989Y198162D01*
X537486Y199662D01*
X537630Y199665D01*
X537881Y199689D01*
X537988Y199709D01*
X538082Y199736D01*
X538163Y199769D01*
X538232Y199808D01*
X538288Y199853D01*
X538332Y199904D01*
X538363Y199960D01*
X538989Y198097D01*
D02*
G37*
G36*
X663241Y196822D02*
X663265Y196532D01*
X663286Y196403D01*
X663313Y196285D01*
X663346Y196177D01*
X663385Y196081D01*
X663430Y195995D01*
X663481Y195920D01*
X663538Y195856D01*
X661438D01*
X661495Y195920D01*
X661546Y195995D01*
X661591Y196081D01*
X661630Y196177D01*
X661663Y196285D01*
X661690Y196403D01*
X661711Y196532D01*
X661726Y196672D01*
X661738Y196984D01*
X663238D01*
X663241Y196822D01*
D02*
G37*
G36*
X540613Y189964D02*
X540499Y189847D01*
X540223Y189525D01*
X540153Y189427D01*
X540093Y189333D01*
X540044Y189244D01*
X540006Y189160D01*
X539979Y189080D01*
X539963Y189005D01*
X538734Y190708D01*
X538821Y190700D01*
X538912Y190705D01*
X539005Y190724D01*
X539102Y190756D01*
X539203Y190801D01*
X539306Y190859D01*
X539413Y190930D01*
X539523Y191015D01*
X539636Y191113D01*
X539752Y191225D01*
X540613Y189964D01*
D02*
G37*
G36*
X675123Y187458D02*
X675147Y187167D01*
X675168Y187038D01*
X675195Y186920D01*
X675228Y186813D01*
X675267Y186716D01*
X675312Y186630D01*
X675363Y186555D01*
X675420Y186491D01*
X673320D01*
X673377Y186555D01*
X673428Y186630D01*
X673473Y186716D01*
X673512Y186813D01*
X673545Y186920D01*
X673572Y187038D01*
X673593Y187167D01*
X673608Y187307D01*
X673620Y187619D01*
X675120D01*
X675123Y187458D01*
D02*
G37*
G36*
X641953Y177607D02*
X641997Y177001D01*
X642013Y176930D01*
X642032Y176875D01*
X642053Y176836D01*
X642076Y176813D01*
X640046Y176278D01*
X639952Y176991D01*
X641952Y177777D01*
X641953Y177607D01*
D02*
G37*
G36*
X307160Y177570D02*
X307195Y177562D01*
X307247Y177554D01*
X307402Y177542D01*
X307917Y177530D01*
X308088Y177530D01*
Y175530D01*
X307141Y175480D01*
Y177580D01*
X307160Y177570D01*
D02*
G37*
G36*
X528694Y175599D02*
X528786Y175522D01*
X528880Y175455D01*
X528975Y175397D01*
X529071Y175348D01*
X529170Y175308D01*
X529269Y175278D01*
X529370Y175256D01*
X529473Y175243D01*
X529577Y175240D01*
X528340Y174002D01*
X528337Y174107D01*
X528324Y174209D01*
X528302Y174311D01*
X528271Y174410D01*
X528232Y174509D01*
X528183Y174605D01*
X528125Y174701D01*
X528058Y174794D01*
X527981Y174886D01*
X527896Y174977D01*
X528603Y175684D01*
X528694Y175599D01*
D02*
G37*
G36*
X586976Y151095D02*
X586995Y151064D01*
X587027Y151022D01*
X587128Y150904D01*
X587483Y150532D01*
X587604Y150410D01*
X586190Y148996D01*
X585485Y149630D01*
X586970Y151115D01*
X586976Y151095D01*
D02*
G37*
G36*
X343975Y97901D02*
X343863Y97785D01*
X343675Y97563D01*
X343599Y97457D01*
X343534Y97354D01*
X343482Y97255D01*
X343441Y97159D01*
X343412Y97066D01*
X343395Y96977D01*
X343390Y96891D01*
X341905Y98376D01*
X341991Y98382D01*
X342080Y98398D01*
X342172Y98427D01*
X342268Y98468D01*
X342367Y98521D01*
X342470Y98585D01*
X342576Y98661D01*
X342686Y98750D01*
X342915Y98962D01*
X343975Y97901D01*
D02*
G37*
G36*
X543261Y94763D02*
X543306Y94033D01*
X543319Y93996D01*
X543332Y93975D01*
X541236Y93856D01*
X541241Y93870D01*
X541245Y93901D01*
X541248Y93950D01*
X541260Y94611D01*
X541260Y94782D01*
X543260Y94934D01*
X543261Y94763D01*
D02*
G37*
G36*
X543332Y91717D02*
X543319Y91696D01*
X543306Y91658D01*
X543261Y90928D01*
X543260Y90808D01*
X543310Y89866D01*
X541210D01*
X541219Y89884D01*
X541228Y89919D01*
X541236Y89971D01*
X541247Y90127D01*
X541259Y90641D01*
X541260Y90812D01*
X542536D01*
X541260Y90910D01*
X541260Y91081D01*
X541248Y91741D01*
X541245Y91790D01*
X541241Y91821D01*
X541236Y91835D01*
X543332Y91717D01*
D02*
G37*
G36*
X612571Y79225D02*
X612307Y77504D01*
X610441Y78412D01*
X610465Y78429D01*
X610488Y78463D01*
X610507Y78514D01*
X610524Y78582D01*
X610539Y78667D01*
X610550Y78769D01*
X610566Y79024D01*
X610571Y79348D01*
X612571Y79225D01*
D02*
G37*
G36*
X239350Y37630D02*
X239238Y37513D01*
X239050Y37291D01*
X238974Y37185D01*
X238909Y37083D01*
X238857Y36983D01*
X238816Y36887D01*
X238787Y36795D01*
X238770Y36706D01*
X238765Y36620D01*
X237280Y38105D01*
X237366Y38110D01*
X237455Y38127D01*
X237547Y38156D01*
X237643Y38197D01*
X237743Y38249D01*
X237845Y38314D01*
X237951Y38390D01*
X238061Y38478D01*
X238290Y38690D01*
X239350Y37630D01*
D02*
G37*
%LPC*%
G36*
X250276Y340796D02*
Y335784D01*
X255289D01*
X254339Y338077D01*
X252569Y339846D01*
X250276Y340796D01*
D02*
G37*
G36*
X329392Y338000D02*
X328000D01*
X326714Y337467D01*
X325729Y336483D01*
X325196Y335196D01*
Y335175D01*
X325096Y335058D01*
X324196Y334589D01*
X323276Y334970D01*
X321884D01*
X320597Y334437D01*
X319613Y333453D01*
X319172Y332387D01*
X306843Y320059D01*
X285000D01*
X285000Y320059D01*
X283829Y319826D01*
X282837Y319163D01*
X278251Y314577D01*
X277588Y313585D01*
X277355Y312414D01*
X277355Y312414D01*
Y307685D01*
X277588Y306514D01*
X278251Y305522D01*
X279244Y304859D01*
X280414Y304626D01*
X281585Y304859D01*
X282577Y305522D01*
X283240Y306514D01*
X283473Y307685D01*
Y311147D01*
X286267Y313941D01*
X308110D01*
X308110Y313941D01*
X309280Y314174D01*
X310273Y314837D01*
X323497Y328062D01*
X324563Y328503D01*
X325547Y329487D01*
X326080Y330774D01*
Y330795D01*
X326180Y330912D01*
X327080Y331381D01*
X328000Y331000D01*
X329392D01*
X330679Y331533D01*
X331663Y332517D01*
X332196Y333804D01*
Y335196D01*
X331663Y336483D01*
X330679Y337467D01*
X329392Y338000D01*
D02*
G37*
G36*
X487840Y336990D02*
X482320D01*
Y331470D01*
X487840D01*
Y336990D01*
D02*
G37*
G36*
X292696Y336500D02*
X291304D01*
X290017Y335967D01*
X289033Y334983D01*
X288500Y333696D01*
Y332304D01*
X289033Y331017D01*
X290017Y330033D01*
X291304Y329500D01*
X292696D01*
X293983Y330033D01*
X294967Y331017D01*
X295500Y332304D01*
Y333696D01*
X294967Y334983D01*
X293983Y335967D01*
X292696Y336500D01*
D02*
G37*
G36*
X301706Y336230D02*
X300314D01*
X299028Y335698D01*
X298043Y334713D01*
X297510Y333427D01*
Y332034D01*
X298043Y330748D01*
X299028Y329763D01*
X300314Y329230D01*
X301706D01*
X302993Y329763D01*
X303977Y330748D01*
X304510Y332034D01*
Y333427D01*
X303977Y334713D01*
X302993Y335698D01*
X301706Y336230D01*
D02*
G37*
G36*
X255289Y333243D02*
X250276D01*
Y328231D01*
X252569Y329181D01*
X254339Y330951D01*
X255289Y333243D01*
D02*
G37*
G36*
X495900Y336990D02*
X490380D01*
Y330200D01*
Y323410D01*
X495900D01*
Y323865D01*
X496731Y324420D01*
X497867Y323950D01*
X500353D01*
X502650Y324902D01*
X504408Y326660D01*
X505360Y328957D01*
Y331443D01*
X504408Y333740D01*
X502650Y335499D01*
X500353Y336450D01*
X497867D01*
X496731Y335980D01*
X495900Y336535D01*
Y336990D01*
D02*
G37*
G36*
X487840Y328930D02*
X482320D01*
Y323410D01*
X487840D01*
Y328930D01*
D02*
G37*
G36*
X35384Y347540D02*
X34290D01*
Y318770D01*
X63060D01*
Y319864D01*
X62320Y324534D01*
X60859Y329031D01*
X58713Y333244D01*
X55933Y337070D01*
X52590Y340413D01*
X48764Y343192D01*
X44551Y345339D01*
X40054Y346800D01*
X35384Y347540D01*
D02*
G37*
G36*
X31750D02*
X30656D01*
X25986Y346800D01*
X21489Y345339D01*
X17276Y343192D01*
X13450Y340413D01*
X10107Y337070D01*
X7327Y333244D01*
X5181Y329031D01*
X3720Y324534D01*
X2980Y319864D01*
Y318770D01*
X31750D01*
Y347540D01*
D02*
G37*
G36*
X463620Y340430D02*
X440620D01*
Y317430D01*
X463620D01*
Y340430D01*
D02*
G37*
G36*
X428234D02*
X425206D01*
X422281Y339646D01*
X419659Y338132D01*
X417518Y335991D01*
X416004Y333369D01*
X415220Y330444D01*
Y327416D01*
X416004Y324491D01*
X417518Y321869D01*
X419659Y319728D01*
X422281Y318214D01*
X425206Y317430D01*
X428234D01*
X431159Y318214D01*
X433781Y319728D01*
X435922Y321869D01*
X437436Y324491D01*
X438220Y327416D01*
Y330444D01*
X437436Y333369D01*
X435922Y335991D01*
X433781Y338132D01*
X431159Y339646D01*
X428234Y340430D01*
D02*
G37*
G36*
X408366Y327350D02*
X406974D01*
X405687Y326817D01*
X404703Y325833D01*
X404170Y324546D01*
Y323154D01*
X404703Y321867D01*
X404931Y321639D01*
X404703Y321410D01*
X404170Y320124D01*
Y318731D01*
X404703Y317445D01*
X405687Y316460D01*
X406974Y315928D01*
X408366D01*
X409653Y316460D01*
X410637Y317445D01*
X411170Y318731D01*
Y320124D01*
X410637Y321410D01*
X410409Y321639D01*
X410637Y321867D01*
X411170Y323154D01*
Y324546D01*
X410637Y325833D01*
X409653Y326817D01*
X408366Y327350D01*
D02*
G37*
G36*
X272280Y318680D02*
X270888D01*
X269602Y318148D01*
X268617Y317163D01*
X268084Y315877D01*
Y314484D01*
X268617Y313198D01*
X269602Y312213D01*
X270888Y311680D01*
X272280D01*
X273567Y312213D01*
X274551Y313198D01*
X275084Y314484D01*
Y315877D01*
X274551Y317163D01*
X273567Y318148D01*
X272280Y318680D01*
D02*
G37*
G36*
X369139Y312589D02*
X367747D01*
X366460Y312056D01*
X365476Y311071D01*
X364943Y309785D01*
Y308393D01*
X365476Y307106D01*
X365566Y307016D01*
X365333Y306783D01*
X364800Y305496D01*
Y304104D01*
X365333Y302817D01*
X366317Y301833D01*
X367604Y301300D01*
X368996D01*
X370283Y301833D01*
X371267Y302817D01*
X371800Y304104D01*
Y305496D01*
X371267Y306783D01*
X371177Y306873D01*
X371410Y307106D01*
X371943Y308393D01*
Y309785D01*
X371410Y311071D01*
X370425Y312056D01*
X369139Y312589D01*
D02*
G37*
G36*
X294696Y311500D02*
X293304D01*
X292017Y310967D01*
X291033Y309983D01*
X290500Y308696D01*
Y307910D01*
X289247D01*
X287960Y307377D01*
X286976Y306392D01*
X286443Y305106D01*
Y303714D01*
X286976Y302427D01*
X287960Y301443D01*
X289247Y300910D01*
X290639D01*
X291925Y301443D01*
X292910Y302427D01*
X293443Y303714D01*
Y304500D01*
X294696D01*
X295983Y305033D01*
X296967Y306017D01*
X297500Y307304D01*
Y308696D01*
X296967Y309983D01*
X295983Y310967D01*
X294696Y311500D01*
D02*
G37*
G36*
X677606Y299410D02*
X676214D01*
X674927Y298877D01*
X674757Y298706D01*
X674708Y298755D01*
X673422Y299288D01*
X672029D01*
X670743Y298755D01*
X669758Y297771D01*
X669225Y296484D01*
Y295092D01*
X669758Y293805D01*
X670743Y292821D01*
X672029Y292288D01*
X673422D01*
X674708Y292821D01*
X674879Y292992D01*
X674927Y292943D01*
X676214Y292410D01*
X677606D01*
X678893Y292943D01*
X679877Y293927D01*
X680410Y295214D01*
Y296606D01*
X679877Y297893D01*
X678893Y298877D01*
X677606Y299410D01*
D02*
G37*
G36*
X263806Y298550D02*
X262414D01*
X261127Y298017D01*
X260143Y297033D01*
X259610Y295746D01*
Y294470D01*
X258500D01*
Y295696D01*
X257967Y296983D01*
X256983Y297967D01*
X255696Y298500D01*
X254304D01*
X253017Y297967D01*
X252033Y296983D01*
X251500Y295696D01*
Y294304D01*
X252033Y293017D01*
X253017Y292033D01*
X254304Y291500D01*
X255530D01*
Y290274D01*
X256063Y288987D01*
X257047Y288003D01*
X258334Y287470D01*
X259726D01*
X261013Y288003D01*
X261997Y288987D01*
X262530Y290274D01*
Y291550D01*
X263806D01*
X265093Y292083D01*
X266077Y293067D01*
X266610Y294354D01*
Y295746D01*
X266077Y297033D01*
X265093Y298017D01*
X263806Y298550D01*
D02*
G37*
G36*
X212786Y296870D02*
X211394D01*
X210107Y296337D01*
X209123Y295353D01*
X208590Y294066D01*
Y292674D01*
X209123Y291387D01*
X210107Y290403D01*
X211394Y289870D01*
X212786D01*
X214073Y290403D01*
X215057Y291387D01*
X215590Y292674D01*
Y294066D01*
X215057Y295353D01*
X214073Y296337D01*
X212786Y296870D01*
D02*
G37*
G36*
X63060Y316230D02*
X34290D01*
Y287460D01*
X35384D01*
X40054Y288200D01*
X44551Y289661D01*
X48764Y291807D01*
X52590Y294587D01*
X55933Y297930D01*
X58713Y301756D01*
X60859Y305969D01*
X62320Y310466D01*
X63060Y315136D01*
Y316230D01*
D02*
G37*
G36*
X31750D02*
X2980D01*
Y315136D01*
X3720Y310466D01*
X5181Y305969D01*
X7327Y301756D01*
X10107Y297930D01*
X13450Y294587D01*
X17276Y291807D01*
X21489Y289661D01*
X25986Y288200D01*
X30656Y287460D01*
X31750D01*
Y316230D01*
D02*
G37*
G36*
X294726Y289500D02*
X293334D01*
X292047Y288967D01*
X291063Y287983D01*
X290530Y286696D01*
Y285304D01*
X291063Y284017D01*
X292047Y283033D01*
X293334Y282500D01*
X294726D01*
X296013Y283033D01*
X296997Y284017D01*
X297530Y285304D01*
Y286696D01*
X296997Y287983D01*
X296013Y288967D01*
X294726Y289500D01*
D02*
G37*
G36*
X189872Y291321D02*
X188480D01*
X187194Y290788D01*
X186209Y289804D01*
X185676Y288517D01*
Y287125D01*
X186209Y285839D01*
X186386Y285662D01*
X186209Y285484D01*
X185676Y284198D01*
Y282806D01*
X186209Y281519D01*
X187194Y280534D01*
X188480Y280002D01*
X189872D01*
X191159Y280534D01*
X192143Y281519D01*
X192676Y282806D01*
Y284198D01*
X192143Y285484D01*
X191966Y285662D01*
X192143Y285839D01*
X192676Y287125D01*
Y288517D01*
X192143Y289804D01*
X191159Y290788D01*
X189872Y291321D01*
D02*
G37*
G36*
X685226Y281630D02*
X683834D01*
X682547Y281097D01*
X681563Y280113D01*
X681030Y278826D01*
Y277434D01*
X681563Y276147D01*
X682547Y275163D01*
X683834Y274630D01*
X685226D01*
X686513Y275163D01*
X687497Y276147D01*
X688030Y277434D01*
Y278826D01*
X687497Y280113D01*
X686513Y281097D01*
X685226Y281630D01*
D02*
G37*
G36*
X311976Y311650D02*
X310584D01*
X309298Y311117D01*
X308313Y310133D01*
X307780Y308846D01*
Y307454D01*
X308313Y306167D01*
X308476Y306004D01*
Y302130D01*
X308690Y301057D01*
X309297Y300147D01*
X326259Y283186D01*
X326259Y283186D01*
X339378Y270067D01*
X340287Y269459D01*
X341360Y269246D01*
X416132D01*
X417205Y269459D01*
X418115Y270067D01*
X433534Y285486D01*
X459462D01*
X459876Y284486D01*
X459313Y283923D01*
X458780Y282636D01*
Y281244D01*
X459313Y279957D01*
X460297Y278973D01*
X461584Y278440D01*
X462976D01*
X464263Y278973D01*
X465247Y279957D01*
X465780Y281244D01*
Y282636D01*
X465247Y283923D01*
X464684Y284486D01*
X465098Y285486D01*
X487060D01*
X487060Y285486D01*
X490718D01*
X500213Y275991D01*
X501122Y275383D01*
X502195Y275170D01*
X504793D01*
X504957Y275007D01*
X506243Y274474D01*
X507635D01*
X508922Y275007D01*
X509906Y275991D01*
X510439Y277278D01*
Y278670D01*
X509906Y279956D01*
X508922Y280941D01*
X507635Y281474D01*
X506243D01*
X504957Y280941D01*
X504793Y280778D01*
X503357D01*
X493862Y290273D01*
X492952Y290880D01*
X491879Y291094D01*
X487060D01*
X487060Y291094D01*
X432372D01*
X431299Y290880D01*
X430390Y290273D01*
X414971Y274854D01*
X342522D01*
X330224Y287151D01*
X330224Y287151D01*
X314084Y303291D01*
Y306004D01*
X314247Y306167D01*
X314780Y307454D01*
Y308846D01*
X314247Y310133D01*
X313263Y311117D01*
X311976Y311650D01*
D02*
G37*
G36*
X305584Y280993D02*
X303993D01*
X302523Y280384D01*
X301397Y279258D01*
X300789Y277788D01*
Y276197D01*
X301397Y274727D01*
X302523Y273602D01*
X303993Y272993D01*
X305584D01*
X307054Y273602D01*
X308180Y274727D01*
X308789Y276197D01*
Y277788D01*
X308180Y279258D01*
X307054Y280384D01*
X305584Y280993D01*
D02*
G37*
G36*
X325916Y279590D02*
X324324D01*
X322854Y278981D01*
X321729Y277856D01*
X321120Y276386D01*
Y274794D01*
X321729Y273324D01*
X322854Y272199D01*
X324324Y271590D01*
X325916D01*
X327386Y272199D01*
X328511Y273324D01*
X329120Y274794D01*
Y276386D01*
X328511Y277856D01*
X327386Y278981D01*
X325916Y279590D01*
D02*
G37*
G36*
X692085Y264319D02*
X690254D01*
X688485Y263845D01*
X686899Y262929D01*
X685604Y261635D01*
X684689Y260049D01*
X684215Y258280D01*
Y256448D01*
X684689Y254680D01*
X685604Y253094D01*
X686899Y251799D01*
X688485Y250883D01*
X690254Y250409D01*
X692085D01*
X693854Y250883D01*
X695440Y251799D01*
X696735Y253094D01*
X697651Y254680D01*
X698125Y256448D01*
Y258280D01*
X697651Y260049D01*
X696735Y261635D01*
X695440Y262929D01*
X693854Y263845D01*
X692085Y264319D01*
D02*
G37*
G36*
X642180Y250215D02*
X639450D01*
Y243880D01*
X649618D01*
X649526Y244578D01*
X648766Y246413D01*
X647558Y247988D01*
X645983Y249196D01*
X644148Y249956D01*
X642180Y250215D01*
D02*
G37*
G36*
X684180D02*
X679450D01*
Y243880D01*
X691618D01*
X691526Y244578D01*
X690766Y246413D01*
X689558Y247988D01*
X687982Y249196D01*
X686148Y249956D01*
X684180Y250215D01*
D02*
G37*
G36*
X454869Y255982D02*
X453477D01*
X452190Y255450D01*
X451206Y254465D01*
X450673Y253179D01*
Y251786D01*
X451206Y250500D01*
X452025Y249680D01*
X451163Y248818D01*
X450631Y247532D01*
Y246140D01*
X451163Y244853D01*
X452148Y243869D01*
X453434Y243336D01*
X454827D01*
X456113Y243869D01*
X456891Y244646D01*
X457668Y243869D01*
X458955Y243336D01*
X460347D01*
X461634Y243869D01*
X462618Y244853D01*
X463151Y246140D01*
Y247532D01*
X462618Y248818D01*
X461841Y249596D01*
X462618Y250373D01*
X463151Y251660D01*
Y253052D01*
X462618Y254339D01*
X461634Y255323D01*
X460347Y255856D01*
X458955D01*
X457668Y255323D01*
X456975Y254630D01*
X456155Y255450D01*
X454869Y255982D01*
D02*
G37*
G36*
X381696Y243530D02*
X380304D01*
X379017Y242997D01*
X378785Y242764D01*
X334956D01*
X334956Y242764D01*
X333785Y242532D01*
X332793Y241868D01*
X323434Y232510D01*
X322771Y231518D01*
X322538Y230347D01*
X322538Y230347D01*
Y206833D01*
X322538Y206833D01*
X322771Y205663D01*
X323434Y204671D01*
X334761Y193344D01*
Y187785D01*
X334761Y187785D01*
X334994Y186614D01*
X335657Y185622D01*
X336111Y185167D01*
Y182638D01*
X335670Y181572D01*
Y180180D01*
X336203Y178893D01*
X337188Y177909D01*
X338474Y177376D01*
X338554D01*
X338936Y176452D01*
X336738Y174254D01*
X331361D01*
X318213Y187403D01*
X317303Y188010D01*
X316230Y188224D01*
X295420D01*
X294347Y188010D01*
X293437Y187403D01*
X268839Y162804D01*
X224770D01*
X223697Y162590D01*
X222787Y161983D01*
X152957Y92153D01*
X152350Y91243D01*
X152136Y90170D01*
Y75563D01*
X152350Y74490D01*
X152957Y73581D01*
X156545Y69992D01*
Y69762D01*
X157078Y68475D01*
X158063Y67491D01*
X159349Y66958D01*
X160742D01*
X162028Y67491D01*
X163013Y68475D01*
X163545Y69762D01*
Y71154D01*
X163013Y72440D01*
X162028Y73425D01*
X160742Y73958D01*
X160511D01*
X157744Y76725D01*
Y89009D01*
X225931Y157196D01*
X270000D01*
X271073Y157410D01*
X271983Y158017D01*
X296581Y182616D01*
X315069D01*
X328217Y169467D01*
X329127Y168860D01*
X330200Y168646D01*
X337900D01*
X338973Y168860D01*
X339882Y169467D01*
X354301Y183886D01*
X355994D01*
X356157Y183723D01*
X357444Y183190D01*
X358836D01*
X360123Y183723D01*
X361107Y184707D01*
X361640Y185994D01*
Y187386D01*
X361107Y188673D01*
X360123Y189657D01*
X358836Y190190D01*
X357444D01*
X356157Y189657D01*
X355994Y189494D01*
X353139D01*
X352066Y189280D01*
X351157Y188673D01*
X343594Y181110D01*
X342670Y181493D01*
Y181572D01*
X342229Y182638D01*
Y186434D01*
X342229Y186434D01*
X341996Y187605D01*
X341333Y188597D01*
X341333Y188597D01*
X340879Y189052D01*
Y194610D01*
X340879Y194611D01*
X340646Y195781D01*
X339983Y196773D01*
X328656Y208100D01*
Y229080D01*
X336223Y236647D01*
X380022D01*
X380304Y236530D01*
X381696D01*
X382983Y237063D01*
X383967Y238047D01*
X384500Y239334D01*
Y240726D01*
X383967Y242013D01*
X382983Y242997D01*
X381696Y243530D01*
D02*
G37*
G36*
X385919Y253544D02*
X330750D01*
X329677Y253330D01*
X328768Y252723D01*
X314345Y238300D01*
X313737Y237390D01*
X313523Y236317D01*
Y203103D01*
X313737Y202030D01*
X314345Y201120D01*
X325430Y190035D01*
Y189804D01*
X325963Y188517D01*
X326947Y187533D01*
X328234Y187000D01*
X329626D01*
X330913Y187533D01*
X331897Y188517D01*
X332430Y189804D01*
Y191196D01*
X331897Y192483D01*
X330913Y193467D01*
X329626Y194000D01*
X329395D01*
X319131Y204264D01*
Y235156D01*
X331912Y247936D01*
X384758D01*
X388912Y243783D01*
Y242687D01*
X388902Y242677D01*
X388369Y241390D01*
Y239998D01*
X388902Y238711D01*
X389886Y237727D01*
X391173Y237194D01*
X392565D01*
X393852Y237727D01*
X394836Y238711D01*
X395369Y239998D01*
Y241390D01*
X394836Y242677D01*
X394520Y242993D01*
Y244944D01*
X394306Y246017D01*
X393698Y246927D01*
X387902Y252723D01*
X386992Y253330D01*
X385919Y253544D01*
D02*
G37*
G36*
X691618Y241340D02*
X679450D01*
Y235005D01*
X684180D01*
X686148Y235264D01*
X687982Y236024D01*
X689558Y237232D01*
X690766Y238808D01*
X691526Y240642D01*
X691618Y241340D01*
D02*
G37*
G36*
X512506Y238450D02*
X511114D01*
X509827Y237917D01*
X508843Y236933D01*
X508669Y236512D01*
X474026D01*
X472960Y236300D01*
X472056Y235696D01*
X468784Y232424D01*
X432791D01*
X431725Y232212D01*
X430821Y231608D01*
X425598Y226384D01*
X393626D01*
X393444Y226566D01*
X392158Y227099D01*
X390765D01*
X389479Y226566D01*
X388494Y225581D01*
X387962Y224295D01*
Y224038D01*
X380447Y216524D01*
X379843Y215620D01*
X379631Y214554D01*
Y199288D01*
X372856Y192513D01*
X372252Y191609D01*
X372040Y190543D01*
Y168608D01*
X325598Y122166D01*
X219710D01*
X218644Y121954D01*
X217740Y121350D01*
X158434Y62044D01*
X151968D01*
X150902Y61832D01*
X149999Y61228D01*
X127359Y38589D01*
X126756Y37685D01*
X126543Y36619D01*
Y14555D01*
X126756Y13489D01*
X127359Y12585D01*
X135564Y4380D01*
X136468Y3776D01*
X137534Y3564D01*
X150863D01*
X151929Y3776D01*
X152833Y4380D01*
X166350Y17897D01*
X225813D01*
X239330Y4380D01*
X240234Y3776D01*
X241300Y3564D01*
X328883D01*
X329949Y3776D01*
X330853Y4380D01*
X352464Y25991D01*
X364196D01*
X364773Y24992D01*
X364359Y24274D01*
X363885Y22506D01*
Y20674D01*
X364359Y18906D01*
X365275Y17320D01*
X366570Y16025D01*
X368156Y15109D01*
X369924Y14635D01*
X371756D01*
X373525Y15109D01*
X375111Y16025D01*
X376405Y17320D01*
X377321Y18906D01*
X377795Y20674D01*
Y20795D01*
X378465Y21344D01*
X391536D01*
X391717Y21163D01*
X393004Y20630D01*
X394396D01*
X395683Y21163D01*
X396667Y22147D01*
X397200Y23434D01*
Y24826D01*
X396667Y26113D01*
X395683Y27097D01*
X394396Y27630D01*
X393004D01*
X391717Y27097D01*
X391536Y26916D01*
X379618D01*
X375787Y30747D01*
X374883Y31351D01*
X373817Y31563D01*
X351310D01*
X350244Y31351D01*
X349340Y30747D01*
X327729Y9136D01*
X242454D01*
X228937Y22653D01*
X228033Y23257D01*
X226967Y23469D01*
X204725D01*
X204154Y24469D01*
X204500Y25304D01*
Y26696D01*
X203967Y27983D01*
X202983Y28967D01*
X201696Y29500D01*
X200304D01*
X199017Y28967D01*
X198033Y27983D01*
X197500Y26696D01*
Y25304D01*
X197846Y24469D01*
X197275Y23469D01*
X165196D01*
X164129Y23257D01*
X163226Y22653D01*
X149709Y9136D01*
X138688D01*
X132115Y15709D01*
Y35465D01*
X153122Y56473D01*
X159588D01*
X160655Y56685D01*
X161558Y57288D01*
X220864Y116594D01*
X326752D01*
X327818Y116806D01*
X328722Y117410D01*
X376796Y165484D01*
X377400Y166388D01*
X377612Y167454D01*
Y189389D01*
X384387Y196164D01*
X384991Y197068D01*
X385203Y198134D01*
Y213400D01*
X391902Y220098D01*
X392158D01*
X393444Y220631D01*
X393626Y220813D01*
X426752D01*
X427818Y221025D01*
X428722Y221629D01*
X433945Y226852D01*
X436132D01*
X436331Y225852D01*
X435441Y225483D01*
X434006Y224049D01*
X433230Y222174D01*
Y220145D01*
X434006Y218271D01*
X435441Y216836D01*
X437315Y216060D01*
X439344D01*
X441219Y216836D01*
X442653Y218271D01*
X443430Y220145D01*
Y222174D01*
X442653Y224049D01*
X441219Y225483D01*
X440328Y225852D01*
X440527Y226852D01*
X469938D01*
X471004Y227064D01*
X471908Y227668D01*
X475180Y230940D01*
X510184D01*
X511250Y231152D01*
X511697Y231450D01*
X512506D01*
X513793Y231983D01*
X514777Y232967D01*
X515310Y234254D01*
Y235646D01*
X514777Y236933D01*
X513793Y237917D01*
X512506Y238450D01*
D02*
G37*
G36*
X364086Y226007D02*
X362694D01*
X361474Y225502D01*
X360254Y226007D01*
X358862D01*
X357575Y225474D01*
X356590Y224490D01*
X356058Y223203D01*
Y221811D01*
X356590Y220525D01*
X357575Y219540D01*
X358862Y219007D01*
X360254D01*
X361474Y219512D01*
X362694Y219007D01*
X364086D01*
X365373Y219540D01*
X366357Y220525D01*
X366890Y221811D01*
Y223203D01*
X366357Y224490D01*
X365373Y225474D01*
X364086Y226007D01*
D02*
G37*
G36*
X649618Y241340D02*
X639450D01*
Y235005D01*
X641499D01*
X641736Y234483D01*
X641805Y234005D01*
X640923Y233123D01*
X640390Y231836D01*
Y230444D01*
X640923Y229157D01*
X640982Y229098D01*
X640923Y229039D01*
X640390Y227752D01*
Y227638D01*
X640263Y227553D01*
X638870D01*
X637584Y227020D01*
X636599Y226035D01*
X636066Y224749D01*
Y223357D01*
X636599Y222070D01*
X637584Y221086D01*
X638870Y220553D01*
X640263D01*
X641039Y220874D01*
X641907Y220005D01*
X643194Y219473D01*
X644586D01*
X645873Y220005D01*
X646857Y220990D01*
X647390Y222276D01*
Y223669D01*
X646857Y224955D01*
X646798Y225014D01*
X646857Y225074D01*
X647390Y226360D01*
Y227752D01*
X646857Y229039D01*
X646798Y229098D01*
X646857Y229157D01*
X647390Y230444D01*
Y231836D01*
X646857Y233123D01*
X645873Y234107D01*
X644920Y234502D01*
X644872Y235564D01*
X645983Y236024D01*
X647558Y237232D01*
X648766Y238808D01*
X649526Y240642D01*
X649618Y241340D01*
D02*
G37*
G36*
X598866Y220670D02*
X597474D01*
X596187Y220137D01*
X595203Y219153D01*
X594670Y217866D01*
Y216474D01*
X595203Y215187D01*
X596187Y214203D01*
X597474Y213670D01*
X598866D01*
X600153Y214203D01*
X601137Y215187D01*
X601670Y216474D01*
Y217866D01*
X601137Y219153D01*
X600153Y220137D01*
X598866Y220670D01*
D02*
G37*
G36*
X337246Y213050D02*
X335854D01*
X334567Y212517D01*
X333583Y211533D01*
X333050Y210246D01*
Y208854D01*
X333583Y207567D01*
X334567Y206583D01*
X335854Y206050D01*
X337246D01*
X338533Y206583D01*
X339517Y207567D01*
X340050Y208854D01*
Y210246D01*
X339517Y211533D01*
X338533Y212517D01*
X337246Y213050D01*
D02*
G37*
G36*
X90866Y206700D02*
X89474D01*
X88187Y206167D01*
X87630Y205610D01*
X87073Y206167D01*
X85786Y206700D01*
X84394D01*
X83107Y206167D01*
X82123Y205183D01*
X81590Y203896D01*
Y202504D01*
X82123Y201217D01*
X83107Y200233D01*
X84394Y199700D01*
X85786D01*
X87073Y200233D01*
X87630Y200790D01*
X88187Y200233D01*
X89474Y199700D01*
X90866D01*
X92153Y200233D01*
X93137Y201217D01*
X93670Y202504D01*
Y203896D01*
X93137Y205183D01*
X92153Y206167D01*
X90866Y206700D01*
D02*
G37*
G36*
X349696Y212500D02*
X348304D01*
X347017Y211967D01*
X346033Y210983D01*
X345500Y209696D01*
Y208304D01*
X346033Y207017D01*
X347017Y206033D01*
X348304Y205500D01*
X349696D01*
X350983Y206033D01*
X351967Y207017D01*
X352500Y208304D01*
Y209696D01*
X351967Y210983D01*
X350983Y211967D01*
X349696Y212500D01*
D02*
G37*
G36*
X437576Y210510D02*
X436184D01*
X434897Y209977D01*
X433913Y208993D01*
X433380Y207706D01*
Y206314D01*
X433913Y205027D01*
X434897Y204043D01*
X436184Y203510D01*
X437576D01*
X438863Y204043D01*
X439847Y205027D01*
X440380Y206314D01*
Y207706D01*
X439847Y208993D01*
X438863Y209977D01*
X437576Y210510D01*
D02*
G37*
G36*
X617916Y202890D02*
X616524D01*
X615237Y202357D01*
X614253Y201373D01*
X613720Y200086D01*
Y198694D01*
X614253Y197407D01*
X615237Y196423D01*
X616524Y195890D01*
X617916D01*
X619203Y196423D01*
X620187Y197407D01*
X620720Y198694D01*
Y200086D01*
X620187Y201373D01*
X619203Y202357D01*
X617916Y202890D01*
D02*
G37*
G36*
X68305Y204390D02*
X66315D01*
X64478Y203629D01*
X63071Y202222D01*
X62310Y200385D01*
Y198395D01*
X63071Y196558D01*
X64478Y195151D01*
X66315Y194390D01*
X68305D01*
X70142Y195151D01*
X71549Y196558D01*
X72310Y198395D01*
Y200385D01*
X71549Y202222D01*
X70142Y203629D01*
X68305Y204390D01*
D02*
G37*
G36*
X341056Y233370D02*
X339664D01*
X338377Y232837D01*
X337393Y231853D01*
X336860Y230566D01*
Y229174D01*
X337393Y227887D01*
X338377Y226903D01*
X339443Y226462D01*
X354941Y210963D01*
Y205267D01*
X353437Y203763D01*
X352774Y202771D01*
X352541Y201600D01*
X352541Y201600D01*
Y197301D01*
X352100Y196236D01*
Y194844D01*
X352633Y193557D01*
X353617Y192573D01*
X354904Y192040D01*
X356296D01*
X357583Y192573D01*
X358567Y193557D01*
X359100Y194844D01*
Y196236D01*
X358659Y197301D01*
Y200333D01*
X360163Y201837D01*
X360163Y201837D01*
X360826Y202829D01*
X361059Y204000D01*
Y212230D01*
X360826Y213401D01*
X360163Y214393D01*
X360163Y214393D01*
X343768Y230787D01*
X343327Y231853D01*
X342343Y232837D01*
X341056Y233370D01*
D02*
G37*
G36*
X499051Y206900D02*
X497659D01*
X496372Y206367D01*
X495387Y205383D01*
X494855Y204096D01*
Y202704D01*
X495387Y201418D01*
X495410Y201395D01*
X495387Y201373D01*
X494855Y200086D01*
Y198694D01*
X495387Y197407D01*
X495410Y197385D01*
X495387Y197362D01*
X494855Y196076D01*
Y194684D01*
X495387Y193397D01*
X495410Y193375D01*
X495387Y193352D01*
X494855Y192066D01*
Y190674D01*
X495387Y189387D01*
X496372Y188403D01*
X497659Y187870D01*
X499051D01*
X500337Y188403D01*
X501322Y189387D01*
X501855Y190674D01*
Y192066D01*
X501322Y193352D01*
X501299Y193375D01*
X501322Y193397D01*
X501855Y194684D01*
Y196076D01*
X501322Y197362D01*
X501299Y197385D01*
X501322Y197407D01*
X501855Y198694D01*
Y200086D01*
X501322Y201373D01*
X501299Y201395D01*
X501322Y201418D01*
X501855Y202704D01*
Y204096D01*
X501322Y205383D01*
X500337Y206367D01*
X499051Y206900D01*
D02*
G37*
G36*
X609403Y197033D02*
X608011D01*
X606724Y196500D01*
X605740Y195515D01*
X605207Y194229D01*
Y192837D01*
X605740Y191550D01*
X606103Y191187D01*
X605740Y190824D01*
X605207Y189538D01*
Y188371D01*
X604653Y187831D01*
X604335Y187650D01*
X602942D01*
X601656Y187117D01*
X600671Y186133D01*
X600139Y184846D01*
Y183454D01*
X600671Y182167D01*
X601656Y181183D01*
X602942Y180650D01*
X604335D01*
X605621Y181183D01*
X606173Y181734D01*
X606724Y181183D01*
X608011Y180650D01*
X609403D01*
X610690Y181183D01*
X611674Y182167D01*
X612207Y183454D01*
Y184846D01*
X611674Y186133D01*
X611311Y186496D01*
X611674Y186859D01*
X612207Y188145D01*
Y189538D01*
X611674Y190824D01*
X611311Y191187D01*
X611674Y191550D01*
X612207Y192837D01*
Y194229D01*
X611674Y195515D01*
X610690Y196500D01*
X609403Y197033D01*
D02*
G37*
G36*
X398345Y185260D02*
X396316D01*
X394441Y184484D01*
X393007Y183049D01*
X392230Y181175D01*
Y179146D01*
X393007Y177271D01*
X394441Y175837D01*
X396316Y175060D01*
X398345D01*
X400219Y175837D01*
X401654Y177271D01*
X402430Y179146D01*
Y181175D01*
X401654Y183049D01*
X400219Y184484D01*
X398345Y185260D01*
D02*
G37*
G36*
X624266Y190410D02*
X622874D01*
X621587Y189877D01*
X620603Y188893D01*
X620070Y187606D01*
Y186214D01*
X620511Y185149D01*
Y182877D01*
X612453Y174819D01*
X601201D01*
X600136Y175260D01*
X598744D01*
X597457Y174727D01*
X596473Y173743D01*
X595940Y172456D01*
Y171064D01*
X596473Y169777D01*
X597457Y168793D01*
X598744Y168260D01*
X600136D01*
X601201Y168701D01*
X613720D01*
X613720Y168701D01*
X614890Y168934D01*
X615883Y169597D01*
X625733Y179447D01*
X626396Y180439D01*
X626629Y181610D01*
X626629Y181610D01*
Y185149D01*
X627070Y186214D01*
Y187606D01*
X626537Y188893D01*
X625553Y189877D01*
X624266Y190410D01*
D02*
G37*
G36*
X354696Y179500D02*
X353304D01*
X352017Y178967D01*
X351033Y177983D01*
X350500Y176696D01*
Y175304D01*
X351033Y174017D01*
X352017Y173033D01*
X353304Y172500D01*
X354696D01*
X355983Y173033D01*
X356967Y174017D01*
X357500Y175304D01*
Y176696D01*
X356967Y177983D01*
X355983Y178967D01*
X354696Y179500D01*
D02*
G37*
G36*
X218797Y315383D02*
X218452Y315315D01*
X218101D01*
X217776Y315180D01*
X217431Y315112D01*
X217139Y314916D01*
X216814Y314782D01*
X216566Y314533D01*
X216274Y314338D01*
X216078Y314046D01*
X215830Y313797D01*
X215695Y313472D01*
X215500Y313180D01*
X215431Y312836D01*
X215297Y312511D01*
Y312159D01*
X215228Y311815D01*
Y299203D01*
X215500Y297837D01*
X216274Y296680D01*
X217431Y295522D01*
Y288000D01*
X217703Y286634D01*
X218477Y285477D01*
X227431Y276522D01*
Y205000D01*
X227703Y203634D01*
X228477Y202477D01*
X262477Y168477D01*
X262769Y168281D01*
X263017Y168033D01*
X263342Y167898D01*
X263634Y167703D01*
X263979Y167635D01*
X264304Y167500D01*
X264655D01*
X265000Y167431D01*
X265345Y167500D01*
X265696D01*
X266021Y167635D01*
X266366Y167703D01*
X266658Y167898D01*
X266983Y168033D01*
X267231Y168281D01*
X267523Y168477D01*
X267719Y168769D01*
X267967Y169017D01*
X268102Y169342D01*
X268297Y169634D01*
X268365Y169979D01*
X268500Y170304D01*
Y170655D01*
X268569Y171000D01*
X268500Y171345D01*
Y171696D01*
X268365Y172021D01*
X268297Y172366D01*
X268102Y172658D01*
X267967Y172983D01*
X267719Y173231D01*
X267523Y173523D01*
X234569Y206478D01*
Y278000D01*
X234297Y279366D01*
X233523Y280523D01*
X224569Y289478D01*
Y297000D01*
X224297Y298366D01*
X223523Y299523D01*
X222366Y300681D01*
Y311815D01*
X222297Y312159D01*
Y312511D01*
X222162Y312836D01*
X222094Y313180D01*
X221899Y313472D01*
X221764Y313797D01*
X221516Y314046D01*
X221320Y314338D01*
X221028Y314533D01*
X220780Y314782D01*
X220455Y314916D01*
X220163Y315112D01*
X219818Y315180D01*
X219493Y315315D01*
X219142D01*
X218797Y315383D01*
D02*
G37*
G36*
X594360Y163079D02*
X594360Y163079D01*
X577850D01*
X577850Y163079D01*
X576679Y162846D01*
X575687Y162183D01*
X571098Y157594D01*
X570926Y157337D01*
X570778Y157275D01*
X569794Y156291D01*
X569261Y155005D01*
Y153612D01*
X569794Y152326D01*
X570778Y151341D01*
X572065Y150808D01*
X573457D01*
X574743Y151341D01*
X575728Y152326D01*
X576261Y153612D01*
Y154105D01*
X579117Y156961D01*
X593093D01*
X629401Y120653D01*
Y104631D01*
X628960Y103566D01*
Y102174D01*
X629493Y100887D01*
X630477Y99903D01*
X631764Y99370D01*
X633156D01*
X634443Y99903D01*
X635427Y100887D01*
X635960Y102174D01*
Y103566D01*
X635519Y104631D01*
Y121920D01*
X635519Y121920D01*
X635286Y123091D01*
X634623Y124083D01*
X596523Y162183D01*
X595531Y162846D01*
X594360Y163079D01*
D02*
G37*
G36*
X486655Y229860D02*
X485262D01*
X483976Y229327D01*
X482991Y228343D01*
X482458Y227056D01*
Y225664D01*
X482865Y224682D01*
X482868Y224648D01*
Y223943D01*
X480454Y221529D01*
X453675D01*
X452602Y221316D01*
X451693Y220708D01*
X444847Y213863D01*
X444240Y212953D01*
X444026Y211880D01*
Y206661D01*
X444026Y206661D01*
Y202279D01*
X444026Y202279D01*
Y184419D01*
X444240Y183346D01*
X444847Y182436D01*
X456816Y170468D01*
Y165890D01*
X456652Y165727D01*
X456120Y164441D01*
Y163048D01*
X456652Y161762D01*
X457637Y160777D01*
X458923Y160245D01*
X460316D01*
X461602Y160777D01*
X462587Y161762D01*
X463120Y163048D01*
Y164441D01*
X462587Y165727D01*
X462424Y165890D01*
Y171629D01*
X462210Y172702D01*
X461602Y173612D01*
X449634Y185580D01*
Y202279D01*
X449634Y202279D01*
Y206661D01*
X449634Y206661D01*
Y210719D01*
X454837Y215921D01*
X481615D01*
X482688Y216135D01*
X483598Y216743D01*
X487654Y220799D01*
X488262Y221709D01*
X488475Y222782D01*
Y223927D01*
X488926Y224377D01*
X489459Y225664D01*
Y227056D01*
X488926Y228343D01*
X487941Y229327D01*
X486655Y229860D01*
D02*
G37*
G36*
X684180Y163815D02*
X679450D01*
Y157480D01*
X691618D01*
X691526Y158178D01*
X690766Y160012D01*
X689558Y161588D01*
X687982Y162796D01*
X686148Y163556D01*
X684180Y163815D01*
D02*
G37*
G36*
X642180D02*
X639450D01*
Y157480D01*
X649618D01*
X649526Y158178D01*
X648766Y160012D01*
X647558Y161588D01*
X645983Y162796D01*
X644148Y163556D01*
X642180Y163815D01*
D02*
G37*
G36*
X636910D02*
X634180D01*
X632212Y163556D01*
X630378Y162796D01*
X628802Y161588D01*
X627594Y160012D01*
X626834Y158178D01*
X626742Y157480D01*
X636910D01*
Y163815D01*
D02*
G37*
G36*
X338516Y155134D02*
X337124D01*
X335837Y154601D01*
X334853Y153616D01*
X334551Y152888D01*
X333469D01*
X333167Y153616D01*
X332183Y154601D01*
X330896Y155134D01*
X329504D01*
X328217Y154601D01*
X327233Y153616D01*
X326700Y152330D01*
Y150937D01*
X327233Y149651D01*
X328217Y148666D01*
X329504Y148134D01*
X330896D01*
X332183Y148666D01*
X333167Y149651D01*
X333469Y150379D01*
X334551D01*
X334853Y149651D01*
X335837Y148666D01*
X337124Y148134D01*
X338516D01*
X339803Y148666D01*
X340787Y149651D01*
X341320Y150937D01*
Y152330D01*
X340787Y153616D01*
X339803Y154601D01*
X338516Y155134D01*
D02*
G37*
G36*
X552855Y151910D02*
X552855Y151910D01*
X524822D01*
X524822Y151910D01*
X523652Y151677D01*
X522659Y151014D01*
X522659Y151014D01*
X515997Y144351D01*
X515334Y143359D01*
X515101Y142189D01*
X515101Y142188D01*
Y121917D01*
X501958Y108774D01*
X456859D01*
X450938Y114695D01*
X449945Y115358D01*
X448775Y115591D01*
X448775Y115591D01*
X419873D01*
X419873Y115591D01*
X418702Y115358D01*
X417710Y114695D01*
X417710Y114695D01*
X415643Y112628D01*
X414577Y112187D01*
X413593Y111203D01*
X413060Y109916D01*
Y108524D01*
X413593Y107237D01*
X414577Y106253D01*
X415864Y105720D01*
X417256D01*
X418543Y106253D01*
X419527Y107237D01*
X419968Y108303D01*
X421139Y109474D01*
X447508D01*
X453429Y103552D01*
X454422Y102889D01*
X455592Y102656D01*
X455593Y102656D01*
X503225D01*
X503225Y102656D01*
X504396Y102889D01*
X505388Y103552D01*
X520323Y118487D01*
X520323Y118487D01*
X520986Y119479D01*
X521219Y120650D01*
Y140921D01*
X526089Y145792D01*
X551588D01*
X551710Y145670D01*
X551768Y145529D01*
X552753Y144544D01*
X554039Y144012D01*
X555432D01*
X556718Y144544D01*
X557703Y145529D01*
X558236Y146816D01*
Y148208D01*
X557703Y149494D01*
X556718Y150479D01*
X555432Y151012D01*
X555020D01*
X555018Y151014D01*
X554026Y151677D01*
X552855Y151910D01*
D02*
G37*
G36*
X576651Y149792D02*
X575259D01*
X574098Y149311D01*
X572936Y149792D01*
X571544D01*
X570257Y149259D01*
X569273Y148274D01*
X568740Y146988D01*
Y145596D01*
X569221Y144434D01*
X568740Y143273D01*
Y141881D01*
X569273Y140594D01*
X570257Y139610D01*
X571544Y139077D01*
X572936D01*
X574098Y139558D01*
X575259Y139077D01*
X576651D01*
X577938Y139610D01*
X578922Y140594D01*
X579455Y141881D01*
Y143273D01*
X578974Y144434D01*
X579455Y145596D01*
Y146988D01*
X578922Y148274D01*
X577938Y149259D01*
X576651Y149792D01*
D02*
G37*
G36*
X398890Y219093D02*
X397498D01*
X396212Y218560D01*
X395227Y217575D01*
X394694Y216289D01*
Y214897D01*
X394860Y214496D01*
Y199575D01*
X381771Y186486D01*
X381048Y185404D01*
X380794Y184129D01*
Y161505D01*
X381048Y160229D01*
X381771Y159148D01*
X389028Y151891D01*
X390109Y151168D01*
X391385Y150914D01*
X429373D01*
X436327Y143961D01*
X437408Y143238D01*
X438684Y142984D01*
X470168D01*
X471444Y143238D01*
X472526Y143961D01*
X491601Y163036D01*
X496459D01*
X499641Y159854D01*
Y153413D01*
X499475Y153012D01*
Y151620D01*
X500008Y150333D01*
X500993Y149349D01*
X502279Y148816D01*
X503672D01*
X504958Y149349D01*
X505942Y150333D01*
X506475Y151620D01*
Y153012D01*
X506309Y153413D01*
Y161235D01*
X506056Y162511D01*
X505333Y163592D01*
X500198Y168727D01*
X499116Y169450D01*
X497840Y169704D01*
X490220D01*
X488944Y169450D01*
X487863Y168727D01*
X468787Y149652D01*
X440065D01*
X433111Y156606D01*
X432030Y157329D01*
X430754Y157583D01*
X392766D01*
X387463Y162886D01*
Y182748D01*
X400552Y195837D01*
X401274Y196918D01*
X401528Y198194D01*
Y214496D01*
X401694Y214897D01*
Y216289D01*
X401161Y217575D01*
X400177Y218560D01*
X398890Y219093D01*
D02*
G37*
G36*
X691618Y154940D02*
X679450D01*
Y148605D01*
X684180D01*
X686148Y148864D01*
X687982Y149624D01*
X689558Y150832D01*
X690766Y152408D01*
X691526Y154242D01*
X691618Y154940D01*
D02*
G37*
G36*
X649618D02*
X639450D01*
Y148605D01*
X642180D01*
X644148Y148864D01*
X645983Y149624D01*
X647558Y150832D01*
X648766Y152408D01*
X649526Y154242D01*
X649618Y154940D01*
D02*
G37*
G36*
X636910D02*
X626742D01*
X626834Y154242D01*
X627594Y152408D01*
X628802Y150832D01*
X630378Y149624D01*
X632212Y148864D01*
X634180Y148605D01*
X636910D01*
Y154940D01*
D02*
G37*
G36*
X379185Y154758D02*
X377792D01*
X376506Y154225D01*
X375521Y153241D01*
X374988Y151954D01*
Y150562D01*
X375521Y149276D01*
X376506Y148291D01*
X377792Y147758D01*
X379185D01*
X380471Y148291D01*
X381455Y149276D01*
X381988Y150562D01*
Y151954D01*
X381455Y153241D01*
X380471Y154225D01*
X379185Y154758D01*
D02*
G37*
G36*
X399421Y146050D02*
X399421Y146050D01*
X389522D01*
X389522Y146050D01*
X388351Y145817D01*
X387359Y145154D01*
X386674Y144470D01*
X386654D01*
X385367Y143937D01*
X384383Y142953D01*
X383850Y141666D01*
Y140274D01*
X384383Y138987D01*
X385367Y138003D01*
X386654Y137470D01*
X388046D01*
X389333Y138003D01*
X390317Y138987D01*
X390652Y139796D01*
X390789Y139932D01*
X398154D01*
X411061Y127025D01*
X411061Y127025D01*
X412054Y126362D01*
X413224Y126129D01*
X489112D01*
X489112Y126129D01*
X490283Y126362D01*
X491275Y127025D01*
X492189Y127939D01*
X492601D01*
X493887Y128472D01*
X494872Y129456D01*
X495405Y130743D01*
Y132135D01*
X494872Y133422D01*
X493887Y134406D01*
X492601Y134939D01*
X491208D01*
X489922Y134406D01*
X488937Y133422D01*
X488879Y133280D01*
X487845Y132247D01*
X414491D01*
X401584Y145154D01*
X400591Y145817D01*
X399421Y146050D01*
D02*
G37*
G36*
X494061Y157572D02*
X492669D01*
X491382Y157039D01*
X490398Y156054D01*
X490232Y155654D01*
X475767Y141189D01*
X421512D01*
X416778Y145922D01*
X416613Y146323D01*
X415628Y147307D01*
X414342Y147840D01*
X412949D01*
X411663Y147307D01*
X410678Y146323D01*
X410145Y145036D01*
Y143644D01*
X410678Y142358D01*
X411663Y141373D01*
X412063Y141207D01*
X417773Y135497D01*
X418855Y134775D01*
X420131Y134521D01*
X477148D01*
X478424Y134775D01*
X479506Y135497D01*
X494947Y150939D01*
X495348Y151105D01*
X496332Y152089D01*
X496865Y153376D01*
Y154768D01*
X496332Y156054D01*
X495348Y157039D01*
X494061Y157572D01*
D02*
G37*
G36*
X360138Y138940D02*
X358746D01*
X357459Y138407D01*
X357400Y138348D01*
X357340Y138407D01*
X356054Y138940D01*
X354662D01*
X353375Y138407D01*
X352391Y137423D01*
X351858Y136136D01*
Y134744D01*
X352391Y133458D01*
X353375Y132473D01*
X354662Y131940D01*
X356054D01*
X357340Y132473D01*
X357400Y132533D01*
X357459Y132473D01*
X358746Y131940D01*
X360138D01*
X361424Y132473D01*
X362409Y133458D01*
X362942Y134744D01*
Y136136D01*
X362409Y137423D01*
X361424Y138407D01*
X360138Y138940D01*
D02*
G37*
G36*
X318196Y139462D02*
X316804D01*
X315517Y138929D01*
X314533Y137944D01*
X314000Y136658D01*
Y135266D01*
X314533Y133979D01*
X315126Y133386D01*
X314533Y132793D01*
X314000Y131506D01*
Y130114D01*
X314533Y128827D01*
X315517Y127843D01*
X316804Y127310D01*
X318196D01*
X319483Y127843D01*
X320467Y128827D01*
X321000Y130114D01*
Y131506D01*
X320467Y132793D01*
X319874Y133386D01*
X320467Y133979D01*
X321000Y135266D01*
Y136658D01*
X320467Y137944D01*
X319483Y138929D01*
X318196Y139462D01*
D02*
G37*
G36*
X401567Y125487D02*
X400175D01*
X398889Y124955D01*
X397904Y123970D01*
X397371Y122684D01*
Y121291D01*
X397904Y120005D01*
X398889Y119020D01*
X400175Y118488D01*
X401567D01*
X402733Y118970D01*
X402922Y118781D01*
X404209Y118248D01*
X405601D01*
X406888Y118781D01*
X407872Y119765D01*
X408405Y121052D01*
Y122444D01*
X407872Y123730D01*
X406888Y124715D01*
X405601Y125248D01*
X404209D01*
X403043Y124765D01*
X402854Y124955D01*
X401567Y125487D01*
D02*
G37*
G36*
X584010Y125489D02*
X580010D01*
X578644Y125217D01*
X577487Y124443D01*
X576713Y123286D01*
X576441Y121920D01*
X576713Y120554D01*
X577487Y119397D01*
X578644Y118623D01*
X580010Y118351D01*
X582532D01*
X596881Y104003D01*
X598038Y103229D01*
X599404Y102957D01*
X611953D01*
X612297Y103026D01*
X612649D01*
X612974Y103160D01*
X613318Y103229D01*
X613610Y103424D01*
X613935Y103559D01*
X614184Y103807D01*
X614476Y104003D01*
X614671Y104295D01*
X614920Y104543D01*
X615054Y104868D01*
X615250Y105160D01*
X615318Y105505D01*
X615453Y105830D01*
Y106181D01*
X615521Y106526D01*
Y111119D01*
X615453Y111464D01*
Y111815D01*
X615318Y112140D01*
X615250Y112485D01*
X615054Y112777D01*
X614920Y113102D01*
X614671Y113350D01*
X614476Y113642D01*
X614184Y113838D01*
X613935Y114086D01*
X613610Y114221D01*
X613318Y114416D01*
X612974Y114485D01*
X612649Y114619D01*
X612297D01*
X611953Y114688D01*
X611608Y114619D01*
X611256D01*
X610932Y114485D01*
X610587Y114416D01*
X610295Y114221D01*
X609970Y114086D01*
X609721Y113838D01*
X609429Y113642D01*
X609234Y113350D01*
X608985Y113102D01*
X608851Y112777D01*
X608656Y112485D01*
X608587Y112140D01*
X608453Y111815D01*
Y111464D01*
X608384Y111119D01*
Y110095D01*
X600882D01*
X586533Y124443D01*
X585376Y125217D01*
X584010Y125489D01*
D02*
G37*
G36*
X369321Y87711D02*
X367929D01*
X366642Y87178D01*
X366103Y86639D01*
X365450Y86301D01*
X364797Y86639D01*
X364258Y87178D01*
X362971Y87711D01*
X361579D01*
X360292Y87178D01*
X359308Y86194D01*
X358775Y84907D01*
Y83515D01*
X359308Y82228D01*
X360292Y81244D01*
X361579Y80711D01*
X362076D01*
Y80077D01*
X362609Y78791D01*
X363593Y77806D01*
X364880Y77274D01*
X366272D01*
X367559Y77806D01*
X368543Y78791D01*
X369076Y80077D01*
Y80711D01*
X369321D01*
X370607Y81244D01*
X371592Y82228D01*
X372125Y83515D01*
Y84907D01*
X371592Y86194D01*
X370607Y87178D01*
X369321Y87711D01*
D02*
G37*
G36*
X145893Y87963D02*
X144302D01*
X142832Y87354D01*
X141706Y86229D01*
X141097Y84759D01*
Y83167D01*
X141706Y81697D01*
X142832Y80572D01*
X144302Y79963D01*
X145893D01*
X147363Y80572D01*
X148489Y81697D01*
X149097Y83167D01*
Y84759D01*
X148489Y86229D01*
X147363Y87354D01*
X145893Y87963D01*
D02*
G37*
G36*
X630319Y86050D02*
X628927D01*
X627640Y85517D01*
X626656Y84533D01*
X626123Y83246D01*
Y81854D01*
X626656Y80567D01*
X627640Y79583D01*
X628927Y79050D01*
X630319D01*
X631605Y79583D01*
X632590Y80567D01*
X633123Y81854D01*
Y83246D01*
X632590Y84533D01*
X631605Y85517D01*
X630319Y86050D01*
D02*
G37*
G36*
X306696Y85500D02*
X305304D01*
X304017Y84967D01*
X303033Y83983D01*
X302500Y82696D01*
Y81304D01*
X303033Y80017D01*
X304017Y79033D01*
X305304Y78500D01*
X306696D01*
X307983Y79033D01*
X308967Y80017D01*
X309500Y81304D01*
Y82696D01*
X308967Y83983D01*
X307983Y84967D01*
X306696Y85500D01*
D02*
G37*
G36*
X568386Y78430D02*
X566994D01*
X565707Y77897D01*
X564723Y76913D01*
X564190Y75626D01*
Y74234D01*
X564723Y72947D01*
X565707Y71963D01*
X566994Y71430D01*
X568386D01*
X569673Y71963D01*
X570657Y72947D01*
X571190Y74234D01*
Y75626D01*
X570657Y76913D01*
X569673Y77897D01*
X568386Y78430D01*
D02*
G37*
G36*
X558226Y74620D02*
X556834D01*
X555547Y74087D01*
X554563Y73103D01*
X554030Y71816D01*
Y70424D01*
X554563Y69137D01*
X555547Y68153D01*
X556834Y67620D01*
X558226D01*
X559513Y68153D01*
X560497Y69137D01*
X561030Y70424D01*
Y71816D01*
X560497Y73103D01*
X559513Y74087D01*
X558226Y74620D01*
D02*
G37*
G36*
X539052Y143307D02*
X527721D01*
X525965Y142958D01*
X524477Y141964D01*
X523482Y140475D01*
X523133Y138719D01*
X523263Y138065D01*
Y137752D01*
X523383Y137462D01*
X523482Y136963D01*
X523765Y136540D01*
X523796Y136466D01*
X523853Y136408D01*
X524477Y135475D01*
X525965Y134480D01*
X526271Y134419D01*
Y82550D01*
X526621Y80795D01*
X527615Y79306D01*
X530156Y76766D01*
X530493Y76540D01*
X543557Y63147D01*
X543568Y63139D01*
X543575Y63129D01*
X543894Y62916D01*
X544213Y62696D01*
X544226Y62694D01*
X544236Y62687D01*
X544614Y62612D01*
X544991Y62532D01*
X545004Y62534D01*
X545017Y62531D01*
X545394Y62607D01*
X545774Y62677D01*
X545784Y62684D01*
X545797Y62687D01*
X546117Y62900D01*
X546441Y63111D01*
X546448Y63122D01*
X546459Y63129D01*
X550042Y66712D01*
X550262Y67041D01*
X550481Y67365D01*
X550482Y67370D01*
X550484Y67373D01*
X550560Y67757D01*
X550639Y68145D01*
X550638Y68150D01*
X550639Y68154D01*
X550563Y68537D01*
X550487Y68926D01*
X550485Y68930D01*
X550484Y68934D01*
X550265Y69262D01*
X550048Y69590D01*
X536943Y82808D01*
X536644Y83254D01*
X535448Y84451D01*
Y134131D01*
X539052D01*
X540808Y134480D01*
X542297Y135475D01*
X543291Y136963D01*
X543641Y138719D01*
X543291Y140475D01*
X542297Y141964D01*
X540808Y142958D01*
X539052Y143307D01*
D02*
G37*
G36*
X645371Y144573D02*
X630028D01*
X628272Y144224D01*
X626784Y143229D01*
X625789Y141741D01*
X625440Y139985D01*
X625789Y138229D01*
X626784Y136741D01*
X628272Y135746D01*
X630028Y135397D01*
X641210D01*
Y86754D01*
X624901Y70445D01*
X610550D01*
X608794Y70096D01*
X607306Y69101D01*
X606311Y67613D01*
X605962Y65857D01*
X606311Y64101D01*
X607306Y62613D01*
X608794Y61618D01*
X610550Y61269D01*
X626802D01*
X628558Y61618D01*
X630046Y62613D01*
X649043Y81609D01*
X650037Y83098D01*
X650387Y84854D01*
Y139558D01*
X650037Y141313D01*
X649043Y142802D01*
X648615Y143229D01*
X647127Y144224D01*
X645371Y144573D01*
D02*
G37*
G36*
X177435Y65043D02*
X176043D01*
X174757Y64510D01*
X173772Y63525D01*
X173239Y62239D01*
Y60847D01*
X173772Y59560D01*
X174757Y58576D01*
X176043Y58043D01*
X177435D01*
X178722Y58576D01*
X179706Y59560D01*
X180239Y60847D01*
Y62239D01*
X179706Y63525D01*
X178722Y64510D01*
X177435Y65043D01*
D02*
G37*
G36*
X434250Y107441D02*
X432858D01*
X431571Y106908D01*
X430587Y105924D01*
X430054Y104637D01*
Y103245D01*
X430495Y102180D01*
Y94461D01*
X393703Y57669D01*
X243116D01*
X241946Y57436D01*
X240953Y56773D01*
X240953Y56773D01*
X233149Y48969D01*
X174899D01*
X173728Y48736D01*
X172736Y48073D01*
X172736Y48073D01*
X147111Y22448D01*
X146641D01*
X145171Y21839D01*
X144046Y20714D01*
X143437Y19244D01*
Y17652D01*
X144046Y16182D01*
X145171Y15057D01*
X146641Y14448D01*
X148232D01*
X149702Y15057D01*
X150828Y16182D01*
X151437Y17652D01*
Y18120D01*
X151447Y18132D01*
X176166Y42851D01*
X234416D01*
X234416Y42851D01*
X235587Y43084D01*
X236579Y43747D01*
X244383Y51551D01*
X394970D01*
X394970Y51551D01*
X396141Y51784D01*
X397133Y52447D01*
X435717Y91031D01*
X435717Y91031D01*
X436380Y92023D01*
X436613Y93194D01*
X436612Y93194D01*
Y102180D01*
X437054Y103245D01*
Y104637D01*
X436521Y105924D01*
X435536Y106908D01*
X434250Y107441D01*
D02*
G37*
G36*
X424523Y105045D02*
X423131D01*
X421844Y104512D01*
X420860Y103528D01*
X420327Y102241D01*
Y102010D01*
X393511Y75194D01*
X229870D01*
X228797Y74980D01*
X227887Y74373D01*
X221569Y68054D01*
X220961Y67145D01*
X220748Y66072D01*
Y56795D01*
X220585Y56631D01*
X220052Y55345D01*
Y53953D01*
X220585Y52666D01*
X221569Y51682D01*
X222855Y51149D01*
X224248D01*
X225534Y51682D01*
X226519Y52666D01*
X227052Y53953D01*
Y55345D01*
X226519Y56631D01*
X226356Y56795D01*
Y64910D01*
X231031Y69586D01*
X394672D01*
X395745Y69800D01*
X396655Y70407D01*
X424292Y98045D01*
X424523D01*
X425810Y98578D01*
X426794Y99563D01*
X427327Y100849D01*
Y102241D01*
X426794Y103528D01*
X425810Y104512D01*
X424523Y105045D01*
D02*
G37*
G36*
X94895Y58065D02*
X92905D01*
X91068Y57303D01*
X89661Y55897D01*
X88900Y54059D01*
Y52070D01*
X89661Y50232D01*
X91068Y48826D01*
X92905Y48065D01*
X94895D01*
X96732Y48826D01*
X98139Y50232D01*
X98900Y52070D01*
Y54059D01*
X98139Y55897D01*
X96732Y57303D01*
X94895Y58065D01*
D02*
G37*
G36*
X460388Y52160D02*
X460320D01*
Y43270D01*
X469210D01*
Y43338D01*
X468518Y45922D01*
X467180Y48238D01*
X465288Y50130D01*
X462972Y51468D01*
X460388Y52160D01*
D02*
G37*
G36*
X457780D02*
X457712D01*
X455128Y51468D01*
X452812Y50130D01*
X450920Y48238D01*
X449582Y45922D01*
X448890Y43338D01*
Y43270D01*
X457780D01*
Y52160D01*
D02*
G37*
G36*
X441696Y60500D02*
X440304D01*
X439017Y59967D01*
X438033Y58983D01*
X437500Y57696D01*
Y56304D01*
X438033Y55017D01*
X438718Y54332D01*
X438015Y53629D01*
X437482Y52342D01*
Y50950D01*
X438015Y49664D01*
X438700Y48978D01*
X437997Y48275D01*
X437464Y46989D01*
Y45596D01*
X437997Y44310D01*
X438682Y43624D01*
X437979Y42921D01*
X437446Y41635D01*
Y40242D01*
X437979Y38956D01*
X438963Y37971D01*
X440250Y37438D01*
X441642D01*
X442928Y37971D01*
X443913Y38956D01*
X444446Y40242D01*
Y41635D01*
X443913Y42921D01*
X443228Y43606D01*
X443931Y44310D01*
X444464Y45596D01*
Y46989D01*
X443931Y48275D01*
X443246Y48960D01*
X443949Y49664D01*
X444482Y50950D01*
Y52342D01*
X443949Y53629D01*
X443264Y54314D01*
X443967Y55017D01*
X444500Y56304D01*
Y57696D01*
X443967Y58983D01*
X442983Y59967D01*
X441696Y60500D01*
D02*
G37*
G36*
X669114Y63060D02*
X668020D01*
Y34290D01*
X696790D01*
Y35384D01*
X696050Y40054D01*
X694589Y44551D01*
X692442Y48764D01*
X689663Y52590D01*
X686320Y55933D01*
X682494Y58713D01*
X678281Y60859D01*
X673784Y62320D01*
X669114Y63060D01*
D02*
G37*
G36*
X665480D02*
X664386D01*
X659716Y62320D01*
X655219Y60859D01*
X651006Y58713D01*
X647180Y55933D01*
X643837Y52590D01*
X641058Y48764D01*
X638911Y44551D01*
X637450Y40054D01*
X636710Y35384D01*
Y34290D01*
X665480D01*
Y63060D01*
D02*
G37*
G36*
X35384D02*
X34290D01*
Y34290D01*
X63060D01*
Y35384D01*
X62320Y40054D01*
X60859Y44551D01*
X58713Y48764D01*
X55933Y52590D01*
X52590Y55933D01*
X48764Y58713D01*
X44551Y60859D01*
X40054Y62320D01*
X35384Y63060D01*
D02*
G37*
G36*
X31750D02*
X30656D01*
X25986Y62320D01*
X21489Y60859D01*
X17276Y58713D01*
X13450Y55933D01*
X10107Y52590D01*
X7327Y48764D01*
X5181Y44551D01*
X3720Y40054D01*
X2980Y35384D01*
Y34290D01*
X31750D01*
Y63060D01*
D02*
G37*
G36*
X518620Y51620D02*
X499380D01*
Y33352D01*
X499323Y33285D01*
X498380Y32827D01*
X496587Y33863D01*
X494171Y34510D01*
X491669D01*
X489253Y33863D01*
X487087Y32612D01*
X485318Y30843D01*
X484067Y28677D01*
X483420Y26261D01*
Y23759D01*
X484067Y21343D01*
X485318Y19177D01*
X487087Y17408D01*
X489253Y16157D01*
X491669Y15510D01*
X494171D01*
X496587Y16157D01*
X498753Y17408D01*
X500522Y19177D01*
X501772Y21343D01*
X502420Y23759D01*
Y26261D01*
X501772Y28677D01*
X500522Y30843D01*
X499985Y31380D01*
X500399Y32380D01*
X518620D01*
Y51620D01*
D02*
G37*
G36*
X469210Y40730D02*
X459050D01*
X448890D01*
Y40662D01*
X449582Y38078D01*
X450920Y35762D01*
X452812Y33870D01*
X455128Y32532D01*
X457712Y31840D01*
X457880D01*
Y26280D01*
X477960D01*
Y35050D01*
X467770D01*
X467346Y36050D01*
X468518Y38078D01*
X469210Y40662D01*
Y40730D01*
D02*
G37*
G36*
X422556Y38705D02*
X420724D01*
X418955Y38231D01*
X417369Y37315D01*
X416075Y36021D01*
X415159Y34434D01*
X414685Y32666D01*
Y30834D01*
X415159Y29065D01*
X416075Y27480D01*
X417369Y26185D01*
X418955Y25269D01*
X420724Y24795D01*
X422556D01*
X424324Y25269D01*
X425910Y26185D01*
X427205Y27480D01*
X428121Y29065D01*
X428595Y30834D01*
Y32666D01*
X428121Y34434D01*
X427205Y36021D01*
X425910Y37315D01*
X424324Y38231D01*
X422556Y38705D01*
D02*
G37*
G36*
X297180Y25332D02*
X294887Y24382D01*
X293775Y23271D01*
X292381Y23250D01*
X291707Y23925D01*
X289594Y24800D01*
X287306D01*
X285193Y23925D01*
X284103Y22835D01*
X283450Y22392D01*
X282797Y22835D01*
X281707Y23925D01*
X279594Y24800D01*
X277306D01*
X275193Y23925D01*
X273575Y22307D01*
X272700Y20194D01*
Y17906D01*
X273575Y15793D01*
X275193Y14175D01*
X277306Y13300D01*
X279594D01*
X281707Y14175D01*
X282797Y15265D01*
X283450Y15708D01*
X284103Y15265D01*
X285193Y14175D01*
X287306Y13300D01*
X289594D01*
X291707Y14175D01*
X292381Y14850D01*
X293775Y14829D01*
X294887Y13718D01*
X297180Y12768D01*
Y19050D01*
Y25332D01*
D02*
G37*
G36*
X299720D02*
Y20320D01*
X304732D01*
X303782Y22613D01*
X302013Y24382D01*
X299720Y25332D01*
D02*
G37*
G36*
X477960Y23740D02*
X469190D01*
Y14970D01*
X477960D01*
Y23740D01*
D02*
G37*
G36*
X466650D02*
X457880D01*
Y14970D01*
X466650D01*
Y23740D01*
D02*
G37*
G36*
X623611Y36486D02*
X620583D01*
X617658Y35702D01*
X615036Y34188D01*
X612895Y32047D01*
X611381Y29425D01*
X610597Y26500D01*
Y23472D01*
X611381Y20547D01*
X612895Y17925D01*
X615036Y15784D01*
X617658Y14270D01*
X620583Y13486D01*
X623611D01*
X626536Y14270D01*
X629158Y15784D01*
X631300Y17925D01*
X632813Y20547D01*
X633597Y23472D01*
Y26500D01*
X632813Y29425D01*
X631300Y32047D01*
X629158Y34188D01*
X626536Y35702D01*
X623611Y36486D01*
D02*
G37*
G36*
X608197D02*
X585197D01*
Y13486D01*
X608197D01*
Y36486D01*
D02*
G37*
G36*
X74998Y20368D02*
X73606D01*
X72319Y19835D01*
X71335Y18850D01*
X70802Y17564D01*
Y16171D01*
X71335Y14885D01*
X72319Y13901D01*
X73606Y13368D01*
X74998D01*
X76284Y13901D01*
X77269Y14885D01*
X77802Y16171D01*
Y17564D01*
X77269Y18850D01*
X76284Y19835D01*
X74998Y20368D01*
D02*
G37*
G36*
X304732Y17780D02*
X299720D01*
Y12768D01*
X302013Y13718D01*
X303782Y15487D01*
X304732Y17780D01*
D02*
G37*
G36*
X564124Y35630D02*
X561096D01*
X558171Y34846D01*
X555549Y33332D01*
X553408Y31191D01*
X551894Y28569D01*
X551110Y25644D01*
Y22616D01*
X551894Y19691D01*
X553408Y17069D01*
X555549Y14928D01*
X558171Y13414D01*
X561096Y12630D01*
X564124D01*
X567049Y13414D01*
X569671Y14928D01*
X571812Y17069D01*
X573326Y19691D01*
X574110Y22616D01*
Y25644D01*
X573326Y28569D01*
X571812Y31191D01*
X569671Y33332D01*
X567049Y34846D01*
X564124Y35630D01*
D02*
G37*
G36*
X548710D02*
X525710D01*
Y12630D01*
X548710D01*
Y35630D01*
D02*
G37*
G36*
X379845Y16585D02*
X378452D01*
X377166Y16052D01*
X376181Y15067D01*
X375649Y13781D01*
Y12388D01*
X376181Y11102D01*
X377166Y10118D01*
X378452Y9585D01*
X379845D01*
X381131Y10118D01*
X382116Y11102D01*
X382649Y12388D01*
Y13781D01*
X382116Y15067D01*
X381131Y16052D01*
X379845Y16585D01*
D02*
G37*
G36*
X171008Y13205D02*
X169615D01*
X168329Y12673D01*
X167345Y11688D01*
X166812Y10402D01*
Y9009D01*
X167345Y7723D01*
X168329Y6738D01*
X169615Y6206D01*
X171008D01*
X172294Y6738D01*
X173279Y7723D01*
X173812Y9009D01*
Y10402D01*
X173279Y11688D01*
X172294Y12673D01*
X171008Y13205D01*
D02*
G37*
G36*
X422556Y18385D02*
X420724D01*
X418955Y17911D01*
X417369Y16995D01*
X416075Y15701D01*
X415159Y14115D01*
X414685Y12346D01*
Y10514D01*
X415159Y8745D01*
X416075Y7160D01*
X417369Y5865D01*
X418955Y4949D01*
X420724Y4475D01*
X422556D01*
X424324Y4949D01*
X425910Y5865D01*
X427205Y7160D01*
X428121Y8745D01*
X428595Y10514D01*
Y12346D01*
X428121Y14115D01*
X427205Y15701D01*
X425910Y16995D01*
X424324Y17911D01*
X422556Y18385D01*
D02*
G37*
G36*
X696790Y31750D02*
X668020D01*
Y2980D01*
X669114D01*
X673784Y3720D01*
X678281Y5181D01*
X682494Y7327D01*
X686320Y10107D01*
X689663Y13450D01*
X692442Y17276D01*
X694589Y21489D01*
X696050Y25986D01*
X696790Y30656D01*
Y31750D01*
D02*
G37*
G36*
X665480D02*
X636710D01*
Y30656D01*
X637450Y25986D01*
X638911Y21489D01*
X641058Y17276D01*
X643837Y13450D01*
X647180Y10107D01*
X651006Y7327D01*
X655219Y5181D01*
X659716Y3720D01*
X664386Y2980D01*
X665480D01*
Y31750D01*
D02*
G37*
G36*
X63060D02*
X34290D01*
Y2980D01*
X35384D01*
X40054Y3720D01*
X44551Y5181D01*
X48764Y7327D01*
X52590Y10107D01*
X55933Y13450D01*
X58713Y17276D01*
X60859Y21489D01*
X62320Y25986D01*
X63060Y30656D01*
Y31750D01*
D02*
G37*
G36*
X31750D02*
X2980D01*
Y30656D01*
X3720Y25986D01*
X5181Y21489D01*
X7327Y17276D01*
X10107Y13450D01*
X13450Y10107D01*
X17276Y7327D01*
X21489Y5181D01*
X25986Y3720D01*
X30656Y2980D01*
X31750D01*
Y31750D01*
D02*
G37*
%LPD*%
G36*
X322565Y329970D02*
X322545Y329964D01*
X322514Y329945D01*
X322472Y329913D01*
X322354Y329812D01*
X321982Y329456D01*
X321860Y329336D01*
X320446Y330750D01*
X321080Y331455D01*
X322565Y329970D01*
D02*
G37*
G36*
X312273Y307015D02*
X312222Y306940D01*
X312177Y306854D01*
X312138Y306757D01*
X312105Y306650D01*
X312078Y306532D01*
X312057Y306403D01*
X312042Y306263D01*
X312030Y305951D01*
X310530D01*
X310527Y306112D01*
X310503Y306403D01*
X310482Y306532D01*
X310455Y306650D01*
X310422Y306757D01*
X310383Y306854D01*
X310338Y306940D01*
X310287Y307015D01*
X310230Y307079D01*
X312330D01*
X312273Y307015D01*
D02*
G37*
G36*
X505868Y276924D02*
X505804Y276981D01*
X505729Y277032D01*
X505643Y277077D01*
X505546Y277116D01*
X505439Y277149D01*
X505321Y277176D01*
X505192Y277197D01*
X505052Y277212D01*
X504740Y277224D01*
Y278724D01*
X504901Y278727D01*
X505192Y278751D01*
X505321Y278772D01*
X505439Y278799D01*
X505546Y278832D01*
X505643Y278871D01*
X505729Y278916D01*
X505804Y278967D01*
X505868Y279024D01*
Y276924D01*
D02*
G37*
G36*
X380181Y238773D02*
X379396Y238706D01*
X378761Y240706D01*
X378931Y240707D01*
X379537Y240748D01*
X379609Y240763D01*
X379665Y240781D01*
X379704Y240801D01*
X379727Y240823D01*
X380181Y238773D01*
D02*
G37*
G36*
X357069Y185640D02*
X357005Y185697D01*
X356930Y185748D01*
X356844Y185793D01*
X356747Y185832D01*
X356640Y185865D01*
X356522Y185892D01*
X356393Y185913D01*
X356253Y185928D01*
X355941Y185940D01*
Y187440D01*
X356102Y187443D01*
X356393Y187467D01*
X356522Y187488D01*
X356640Y187515D01*
X356747Y187548D01*
X356844Y187587D01*
X356930Y187632D01*
X357005Y187683D01*
X357069Y187740D01*
Y185640D01*
D02*
G37*
G36*
X340220Y181947D02*
X338120D01*
X338130Y181966D01*
X338138Y182001D01*
X338146Y182053D01*
X338158Y182208D01*
X338170Y182723D01*
X338170Y182894D01*
X340170D01*
X340220Y181947D01*
D02*
G37*
G36*
X159137Y72431D02*
X159359Y72243D01*
X159465Y72166D01*
X159568Y72102D01*
X159667Y72049D01*
X159763Y72009D01*
X159856Y71980D01*
X159945Y71963D01*
X160030Y71958D01*
X158546Y70473D01*
X158540Y70559D01*
X158524Y70648D01*
X158495Y70740D01*
X158454Y70836D01*
X158401Y70935D01*
X158337Y71038D01*
X158260Y71144D01*
X158172Y71253D01*
X157960Y71482D01*
X159021Y72543D01*
X159137Y72431D01*
D02*
G37*
G36*
X392469Y242809D02*
X392496Y242521D01*
X392520Y242393D01*
X392550Y242278D01*
X392588Y242173D01*
X392631Y242079D01*
X392682Y241997D01*
X392740Y241926D01*
X392804Y241867D01*
X390715Y241652D01*
X390763Y241718D01*
X390805Y241794D01*
X390843Y241882D01*
X390876Y241980D01*
X390903Y242088D01*
X390926Y242207D01*
X390943Y242337D01*
X390963Y242629D01*
X390966Y242792D01*
X392466Y242970D01*
X392469Y242809D01*
D02*
G37*
G36*
X328022Y192473D02*
X328244Y192285D01*
X328350Y192209D01*
X328453Y192144D01*
X328552Y192092D01*
X328648Y192051D01*
X328740Y192022D01*
X328829Y192005D01*
X328915Y192000D01*
X327430Y190515D01*
X327425Y190601D01*
X327408Y190690D01*
X327379Y190782D01*
X327338Y190878D01*
X327286Y190977D01*
X327221Y191080D01*
X327145Y191186D01*
X327057Y191296D01*
X326845Y191525D01*
X327905Y192585D01*
X328022Y192473D01*
D02*
G37*
G36*
X392600Y224588D02*
X392678Y224534D01*
X392766Y224487D01*
X392864Y224445D01*
X392973Y224410D01*
X393092Y224382D01*
X393221Y224359D01*
X393361Y224344D01*
X393671Y224331D01*
Y222866D01*
X393511Y222863D01*
X393221Y222838D01*
X393092Y222815D01*
X392973Y222787D01*
X392864Y222752D01*
X392766Y222710D01*
X392678Y222663D01*
X392600Y222609D01*
X392533Y222549D01*
Y224648D01*
X392600Y224588D01*
D02*
G37*
G36*
X391447Y222099D02*
X391356Y222094D01*
X391263Y222077D01*
X391167Y222048D01*
X391069Y222008D01*
X390967Y221956D01*
X390863Y221892D01*
X390756Y221816D01*
X390646Y221729D01*
X390418Y221519D01*
X389382Y222554D01*
X389493Y222670D01*
X389679Y222892D01*
X389755Y222999D01*
X389819Y223104D01*
X389871Y223205D01*
X389911Y223304D01*
X389940Y223400D01*
X389957Y223493D01*
X389962Y223584D01*
X391447Y222099D01*
D02*
G37*
G36*
X392629Y23080D02*
X392561Y23140D01*
X392484Y23194D01*
X392396Y23242D01*
X392297Y23283D01*
X392189Y23318D01*
X392070Y23347D01*
X391940Y23369D01*
X391801Y23385D01*
X391491Y23398D01*
Y24862D01*
X391651Y24866D01*
X391940Y24891D01*
X392070Y24913D01*
X392189Y24942D01*
X392297Y24977D01*
X392396Y25018D01*
X392484Y25066D01*
X392561Y25120D01*
X392629Y25180D01*
Y23080D01*
D02*
G37*
G36*
X341866Y229835D02*
X341885Y229804D01*
X341917Y229762D01*
X342018Y229644D01*
X342374Y229272D01*
X342494Y229150D01*
X341080Y227736D01*
X340375Y228370D01*
X341860Y229855D01*
X341866Y229835D01*
D02*
G37*
G36*
X356650Y196611D02*
X354550D01*
X354560Y196629D01*
X354568Y196665D01*
X354576Y196717D01*
X354588Y196872D01*
X354599Y197387D01*
X354600Y197558D01*
X356600D01*
X356650Y196611D01*
D02*
G37*
G36*
X624610Y185821D02*
X624602Y185785D01*
X624594Y185733D01*
X624582Y185578D01*
X624571Y185063D01*
X624570Y184892D01*
X622570D01*
X622520Y185839D01*
X624620D01*
X624610Y185821D01*
D02*
G37*
G36*
X600530Y172800D02*
X600565Y172792D01*
X600617Y172784D01*
X600772Y172772D01*
X601287Y172760D01*
X601458Y172760D01*
Y170760D01*
X600511Y170710D01*
Y172810D01*
X600530Y172800D01*
D02*
G37*
G36*
X574777Y155533D02*
X574658Y155412D01*
X574315Y155025D01*
X574263Y154953D01*
X574225Y154891D01*
X574200Y154838D01*
X574188Y154796D01*
X574190Y154763D01*
X572335Y155747D01*
X573393Y156977D01*
X574777Y155533D01*
D02*
G37*
G36*
X633510Y103941D02*
X631410D01*
X631419Y103960D01*
X631428Y103995D01*
X631436Y104047D01*
X631447Y104202D01*
X631460Y104717D01*
X631460Y104888D01*
X633460D01*
X633510Y103941D01*
D02*
G37*
G36*
X486784Y225108D02*
X486715Y225054D01*
X486654Y224988D01*
X486599Y224911D01*
X486552Y224821D01*
X486512Y224720D01*
X486480Y224606D01*
X486454Y224481D01*
X486436Y224344D01*
X486425Y224194D01*
X486422Y224033D01*
X484922Y224376D01*
X484920Y224540D01*
X484890Y224963D01*
X484872Y225082D01*
X484824Y225286D01*
X484795Y225372D01*
X484761Y225446D01*
X484723Y225509D01*
X486784Y225108D01*
D02*
G37*
G36*
X460373Y165782D02*
X460397Y165492D01*
X460418Y165363D01*
X460445Y165245D01*
X460478Y165137D01*
X460517Y165041D01*
X460562Y164955D01*
X460613Y164880D01*
X460670Y164816D01*
X458570D01*
X458627Y164880D01*
X458678Y164955D01*
X458723Y165041D01*
X458762Y165137D01*
X458795Y165245D01*
X458822Y165363D01*
X458843Y165492D01*
X458858Y165632D01*
X458870Y165944D01*
X460370D01*
X460373Y165782D01*
D02*
G37*
G36*
X418694Y109940D02*
X418060Y109235D01*
X416575Y110720D01*
X416595Y110726D01*
X416626Y110745D01*
X416668Y110777D01*
X416786Y110878D01*
X417159Y111234D01*
X417280Y111354D01*
X418694Y109940D01*
D02*
G37*
G36*
X389485Y141540D02*
X388847Y140879D01*
X387471Y142465D01*
X387497Y142470D01*
X387533Y142487D01*
X387580Y142518D01*
X387638Y142561D01*
X387785Y142686D01*
X388085Y142970D01*
X388206Y143090D01*
X389485Y141540D01*
D02*
G37*
G36*
X491507Y129993D02*
X491475Y129993D01*
X491432Y129981D01*
X491380Y129955D01*
X491318Y129916D01*
X491246Y129863D01*
X491072Y129718D01*
X490859Y129519D01*
X490738Y129399D01*
X489879Y131369D01*
X490450Y131807D01*
X491507Y129993D01*
D02*
G37*
G36*
X548600Y68154D02*
X545017Y64571D01*
X530541Y79412D01*
X535182Y81687D01*
X548600Y68154D01*
D02*
G37*
G36*
X434594Y102851D02*
X434586Y102816D01*
X434578Y102764D01*
X434566Y102609D01*
X434554Y102094D01*
X434554Y101923D01*
X432554D01*
X432504Y102870D01*
X434604D01*
X434594Y102851D01*
D02*
G37*
G36*
X150217Y19814D02*
X150068Y19659D01*
X149817Y19363D01*
X149715Y19222D01*
X149629Y19085D01*
X149559Y18952D01*
X149504Y18824D01*
X149466Y18701D01*
X149443Y18582D01*
X149437Y18468D01*
X147457Y20448D01*
X147571Y20455D01*
X147690Y20477D01*
X147813Y20516D01*
X147941Y20570D01*
X148073Y20640D01*
X148210Y20726D01*
X148351Y20828D01*
X148497Y20946D01*
X148803Y21228D01*
X150217Y19814D01*
D02*
G37*
G36*
X423812Y100045D02*
X423726Y100040D01*
X423637Y100023D01*
X423545Y99994D01*
X423449Y99953D01*
X423349Y99901D01*
X423247Y99837D01*
X423141Y99760D01*
X423031Y99672D01*
X422802Y99460D01*
X421742Y100520D01*
X421854Y100637D01*
X422042Y100859D01*
X422118Y100965D01*
X422183Y101068D01*
X422235Y101167D01*
X422276Y101263D01*
X422305Y101355D01*
X422322Y101444D01*
X422327Y101530D01*
X423812Y100045D01*
D02*
G37*
G36*
X224305Y56687D02*
X224329Y56396D01*
X224350Y56267D01*
X224377Y56149D01*
X224410Y56042D01*
X224449Y55945D01*
X224494Y55859D01*
X224545Y55784D01*
X224602Y55720D01*
X222502D01*
X222559Y55784D01*
X222610Y55859D01*
X222655Y55945D01*
X222694Y56042D01*
X222727Y56149D01*
X222754Y56267D01*
X222775Y56396D01*
X222790Y56536D01*
X222802Y56848D01*
X224302D01*
X224305Y56687D01*
D02*
G37*
%LPC*%
G36*
X539536Y222670D02*
X538144D01*
X536857Y222137D01*
X535873Y221153D01*
X535340Y219866D01*
Y218474D01*
X535873Y217187D01*
X536857Y216203D01*
X538144Y215670D01*
X539536D01*
X540823Y216203D01*
X541807Y217187D01*
X542340Y218474D01*
Y219866D01*
X541807Y221153D01*
X540823Y222137D01*
X539536Y222670D01*
D02*
G37*
%LPD*%
D10*
X622593Y286504D02*
X626056Y289966D01*
X644754D02*
X653758Y280962D01*
X626056Y289966D02*
X644754D01*
X579247Y302247D02*
X600494D01*
X577990Y300990D02*
X579247Y302247D01*
X600494D02*
X609258Y293482D01*
X609758Y273454D02*
Y279818D01*
Y273454D02*
X612610Y270601D01*
X622350Y267980D02*
Y271836D01*
X625850Y275336D01*
Y278237D01*
X590600Y275487D02*
X593350Y278237D01*
X561340Y275487D02*
X590600D01*
X580390Y273050D02*
X592835D01*
X575629Y268289D02*
X580390Y273050D01*
X592835D02*
X596919Y277134D01*
X609258Y288329D02*
Y293482D01*
Y288329D02*
X612850Y284737D01*
X606350D02*
Y291540D01*
X546906Y295585D02*
X602306D01*
X606350Y291540D01*
X526550Y177030D02*
X529590Y173990D01*
X596532Y272392D02*
X598793Y274653D01*
X601015D01*
X603199Y276837D01*
X593350Y292487D02*
X596472Y289365D01*
X600210D01*
X603199Y276837D02*
Y286377D01*
X600210Y289365D02*
X603199Y286377D01*
X583838Y257447D02*
X591151Y264761D01*
X593270D01*
X596532Y268023D01*
Y272392D01*
X582062Y268221D02*
X584583D01*
X586850Y270487D01*
X576732Y262890D02*
X582062Y268221D01*
X619542Y274186D02*
X622593Y277238D01*
Y286504D01*
X616090Y281361D02*
X618843Y284114D01*
X611301Y281361D02*
X616090D01*
X618843Y284114D02*
Y286842D01*
X609758Y279818D02*
X611301Y281361D01*
X603321Y271672D02*
X606350Y274702D01*
X603321Y262694D02*
Y271672D01*
X563840Y268289D02*
X575629D01*
X596919Y277134D02*
Y281806D01*
X599850Y284737D01*
X546501Y212491D02*
Y226888D01*
X542618Y208608D02*
X546501Y212491D01*
Y226888D02*
X583600Y263988D01*
X537937Y208608D02*
X542618D01*
X526550Y177030D02*
Y197222D01*
X537937Y208608D01*
X576476Y287362D02*
X579100Y284737D01*
X546606Y287362D02*
X576476D01*
X613644Y259274D02*
X622350Y267980D01*
X646029Y294640D02*
X661345Y279323D01*
X626642Y294640D02*
X646029D01*
X618843Y286842D02*
X626642Y294640D01*
X561340Y265789D02*
X563840Y268289D01*
X604520Y256596D02*
X616038Y268113D01*
Y274783D02*
X619350Y278096D01*
X616038Y268113D02*
Y274783D01*
X619350Y278096D02*
Y278237D01*
X606350Y274702D02*
Y278237D01*
X549243Y281487D02*
X583600D01*
X586850Y284737D01*
X604520Y252730D02*
Y256596D01*
X619542Y270927D02*
Y274186D01*
D11*
X308110Y317000D02*
X322580Y331470D01*
X285000Y317000D02*
X308110D01*
X273609Y281735D02*
Y297391D01*
Y281735D02*
X284343Y271000D01*
X285416D01*
X287416Y269000D02*
X300000D01*
X285416Y271000D02*
X287416Y269000D01*
X280414Y312414D02*
X285000Y317000D01*
X280414Y307685D02*
Y312414D01*
X355600Y195540D02*
Y201600D01*
X358000Y204000D01*
Y212230D01*
X340360Y229870D02*
X358000Y212230D01*
X253657Y317343D02*
X273609Y297391D01*
X239006Y325994D02*
X247657Y317343D01*
X253657D01*
X239006Y325994D02*
Y334514D01*
X413224Y129188D02*
X489112D01*
X518160Y120650D02*
Y142189D01*
X243116Y54610D02*
X394970D01*
X433554Y93194D01*
X465403Y237923D02*
X470212Y242732D01*
X411330Y237923D02*
X465403D01*
X470212Y242732D02*
X498518D01*
X325163Y162542D02*
X355913D01*
X366214Y172843D02*
Y198335D01*
X355913Y162542D02*
X366214Y172843D01*
Y198335D02*
X371933Y204054D01*
Y218630D02*
X385242Y231938D01*
X371933Y204054D02*
Y218630D01*
X495387Y215987D02*
X508216D01*
X545567Y253339D01*
X548890D01*
X498518Y242732D02*
X513233Y257447D01*
X228760Y302100D02*
X273050Y257810D01*
X312420D01*
X314960Y260350D01*
X405345Y231938D02*
X411330Y237923D01*
X562560Y139750D02*
X567334Y134976D01*
X561259Y177496D02*
Y177766D01*
X562560Y139750D02*
Y176195D01*
X561259Y177496D02*
X562560Y176195D01*
X572761Y154579D02*
X573261Y155079D01*
Y155431D02*
X577850Y160020D01*
X573261Y155079D02*
Y155431D01*
X572761Y154308D02*
Y154579D01*
X611571Y77926D02*
Y94530D01*
X610900Y77255D02*
X611571Y77926D01*
Y94530D02*
X621838Y104796D01*
X610900Y76984D02*
Y77255D01*
X607064Y76877D02*
X607117Y76931D01*
X640952Y175892D02*
Y187666D01*
X619760Y208858D02*
X640952Y187666D01*
X234416Y45910D02*
X243116Y54610D01*
X339170Y180876D02*
Y186434D01*
X337820Y187785D02*
X339170Y186434D01*
X337820Y187785D02*
Y194611D01*
X311174Y176530D02*
X325163Y162542D01*
X147437Y18448D02*
X174899Y45910D01*
X234416D01*
X430977Y272849D02*
X487060D01*
X491691D01*
X418550Y260422D02*
X430977Y272849D01*
X491691D02*
X495648Y268892D01*
X314960Y260422D02*
X418550D01*
X481797Y263975D02*
X487060D01*
X434340Y260350D02*
X478172D01*
X481797Y263975D01*
X421640Y247650D02*
X434340Y260350D01*
X542260Y112300D02*
X559880Y129920D01*
X542260Y88794D02*
Y112300D01*
X584010Y129920D02*
X604140D01*
X621838Y112222D01*
Y104796D02*
Y112222D01*
X632460Y102870D02*
Y121920D01*
X524822Y148851D02*
X552855D01*
X518160Y142189D02*
X524822Y148851D01*
X503225Y105715D02*
X518160Y120650D01*
X578883Y134976D02*
X579940Y133920D01*
X567334Y134976D02*
X578883D01*
X579940Y133920D02*
X580010D01*
X559880Y129920D02*
X580010D01*
X577850Y160020D02*
X594360D01*
X513233Y257447D02*
X513596Y257810D01*
X533633D01*
X551311Y275487D01*
X585470Y151130D02*
X589711Y146889D01*
Y139691D02*
Y146889D01*
X584010Y133990D02*
X589711Y139691D01*
X399421Y142991D02*
X413224Y129188D01*
X489112D02*
X491363Y131439D01*
X416560Y109220D02*
X419873Y112533D01*
X448775D02*
X455592Y105715D01*
X419873Y112533D02*
X448775D01*
X433554Y93194D02*
Y103941D01*
X387350Y140970D02*
X387500D01*
X389522Y142991D01*
X399421D01*
X455592Y105715D02*
X503225D01*
X554194Y147512D02*
X554736D01*
X552855Y148851D02*
X554194Y147512D01*
X619760Y208858D02*
Y241300D01*
X640952Y175892D02*
X641335Y175510D01*
X228760Y302100D02*
Y334267D01*
X491363Y131439D02*
X491904D01*
X594360Y160020D02*
X632460Y121920D01*
X584010Y133920D02*
Y133990D01*
X385242Y231938D02*
X405345D01*
X325597Y206833D02*
Y230347D01*
Y206833D02*
X337820Y194611D01*
X325597Y230347D02*
X334956Y239706D01*
X380676D01*
X228760Y334267D02*
X229006Y334514D01*
X548890Y253339D02*
X561340Y265789D01*
X306070Y176530D02*
X311174D01*
X487820Y208420D02*
X495387Y215987D01*
X380676Y239706D02*
X381000Y240030D01*
X551311Y275487D02*
X561340D01*
X458871Y208420D02*
X487820D01*
X613720Y171760D02*
X623570Y181610D01*
Y186910D01*
X599440Y171760D02*
X613720D01*
D13*
X438684Y146318D02*
X470168D01*
X430754Y154249D02*
X438684Y146318D01*
X391385Y154249D02*
X430754D01*
X420131Y137855D02*
X477148D01*
X470168Y146318D02*
X490220Y166370D01*
X477148Y137855D02*
X493365Y154072D01*
X413645Y144340D02*
X420131Y137855D01*
X398194Y198194D02*
Y215593D01*
X384129Y161505D02*
Y184129D01*
X398194Y198194D01*
X561259Y177766D02*
X579074D01*
X582850Y173990D01*
X384129Y161505D02*
X391385Y154249D01*
X497840Y166370D02*
X502975Y161235D01*
X490220Y166370D02*
X497840D01*
X502975Y152316D02*
Y161235D01*
D15*
X609600Y298987D02*
D03*
X616100D02*
D03*
X593350Y292487D02*
D03*
X586850Y270487D02*
D03*
X612850Y292487D02*
D03*
X583600Y298987D02*
D03*
X590100D02*
D03*
X593350Y278237D02*
D03*
X599850Y270487D02*
D03*
X612610Y270601D02*
D03*
X619350Y292487D02*
D03*
X593350Y270487D02*
D03*
X606350Y284737D02*
D03*
X619350Y270736D02*
D03*
X586809Y292395D02*
D03*
X596600Y298987D02*
D03*
X599850Y292487D02*
D03*
X625850Y278237D02*
D03*
X612850D02*
D03*
X599850D02*
D03*
X586850D02*
D03*
X632350D02*
D03*
X619350D02*
D03*
X612850Y284737D02*
D03*
X606350Y278237D02*
D03*
X599850Y284737D02*
D03*
X625850Y270487D02*
D03*
X579100Y278237D02*
D03*
Y284737D02*
D03*
D17*
X295420Y185420D02*
X316230D01*
X224770Y160000D02*
X270000D01*
X295420Y185420D01*
X154940Y90170D02*
X224770Y160000D01*
X316327Y236317D02*
X330750Y250740D01*
X385919D01*
X391716Y244944D01*
X437000Y65000D02*
X525000D01*
X245110Y44450D02*
X416450D01*
X437000Y65000D01*
X454412Y120898D02*
X458470Y116840D01*
X415371Y120898D02*
X454412D01*
X508458Y128728D02*
Y144498D01*
X496570Y116840D02*
X508458Y128728D01*
X341890Y96876D02*
X358044Y113030D01*
X407503D01*
X632503Y48000D02*
X662880Y78377D01*
X542000Y48000D02*
X632503D01*
X525000Y65000D02*
X542000Y48000D01*
X481615Y218725D02*
X485672Y222782D01*
Y226073D02*
X485959Y226360D01*
X485672Y222782D02*
Y226073D01*
X544830Y300990D02*
X577990D01*
X625359Y235040D02*
X629207Y231192D01*
X622000Y252685D02*
X625359Y249326D01*
Y235040D02*
Y249326D01*
X622000Y252685D02*
Y262437D01*
X625850Y266287D02*
Y270487D01*
X622000Y262437D02*
X625850Y266287D01*
X543602Y194014D02*
X549025D01*
X538818Y189230D02*
X543602Y194014D01*
X629207Y215882D02*
Y231192D01*
Y215882D02*
X662880Y182209D01*
X394672Y72390D02*
X423827Y101545D01*
X229870Y72390D02*
X394672D01*
X223552Y66072D02*
X229870Y72390D01*
X154940Y75563D02*
Y90170D01*
X353139Y186690D02*
X358140D01*
X337900Y171450D02*
X353139Y186690D01*
X330200Y171450D02*
X337900D01*
X154940Y75563D02*
X160046Y70458D01*
X316230Y185420D02*
X330200Y171450D01*
X487060Y263975D02*
X531731D01*
X487060Y288290D02*
X491879D01*
X502195Y277974D01*
X426720Y295910D02*
X487060D01*
X505460D01*
X419100Y288290D02*
X426720Y295910D01*
X505460D02*
X515064Y286306D01*
X588746Y254000D02*
X589756Y252990D01*
X586740Y254000D02*
X588746D01*
X588124Y243153D02*
X595135Y236142D01*
X577026Y244286D02*
X586740Y254000D01*
X572798Y246408D02*
X583838Y257447D01*
X572798Y245165D02*
Y246408D01*
Y245165D02*
X573676Y244286D01*
X577026D01*
X584490Y244032D02*
Y245274D01*
X585369Y243153D02*
X588124D01*
X584490Y244032D02*
X585369Y243153D01*
X584490Y245274D02*
X589756Y250540D01*
Y252990D01*
X535309Y166273D02*
X537937Y168901D01*
X526793Y166273D02*
X535309D01*
X539272Y198912D02*
X539750Y199390D01*
X537486Y198912D02*
X539272D01*
X537937Y168901D02*
Y177806D01*
X531367Y184375D02*
X537937Y177806D01*
X531367Y192793D02*
X537486Y198912D01*
X531367Y184375D02*
Y192793D01*
X571142Y262890D02*
X576732D01*
X565700Y257447D02*
X571142Y262890D01*
X521125Y171942D02*
X526793Y166273D01*
X521125Y171942D02*
Y212873D01*
X565700Y257447D01*
X335280Y308150D02*
X349704Y322574D01*
X375926D01*
X391390Y307110D01*
X549025Y194014D02*
X553560Y198550D01*
X538479Y189230D02*
X538818D01*
X539417Y158909D02*
X556239Y175731D01*
Y181733D01*
X560495Y185989D01*
X508458Y144498D02*
X522870Y158909D01*
X539417D01*
X402422Y311954D02*
X472749D01*
X350520Y339090D02*
X375286D01*
X402422Y311954D01*
X662880Y145691D02*
X667926Y140645D01*
X662880Y145691D02*
Y182209D01*
X667926Y83424D02*
Y140645D01*
X553560Y198550D02*
Y221342D01*
X327280Y315850D02*
X350520Y339090D01*
X553560Y221342D02*
X562088Y229870D01*
X653758Y218732D02*
Y280962D01*
X662488Y194785D02*
Y210002D01*
X653758Y218732D02*
X662488Y210002D01*
X661345Y232735D02*
X674370Y219710D01*
Y185420D02*
Y219710D01*
X662880Y78377D02*
Y78377D01*
X667926Y83424D01*
X495648Y268892D02*
X528137D01*
X546606Y287362D01*
X515064Y277076D02*
X516885Y275255D01*
X515064Y277076D02*
Y286306D01*
X407503Y113030D02*
X415371Y120898D01*
X459620Y163745D02*
Y171629D01*
X446830Y184419D02*
X459620Y171629D01*
X237265Y36605D02*
X245110Y44450D01*
X613644Y214695D02*
Y257447D01*
X603460Y204512D02*
X613644Y214695D01*
X603460Y204512D02*
Y204512D01*
X613644Y257447D02*
Y259274D01*
X458470Y116840D02*
X496570D01*
X391716Y240847D02*
X391869Y240694D01*
X391716Y240847D02*
Y244944D01*
X316327Y203103D02*
X328930Y190500D01*
X316327Y203103D02*
Y236317D01*
X327660Y295910D02*
X375447D01*
X319280Y304290D02*
X327660Y295910D01*
X319280Y304290D02*
Y308150D01*
X327280D02*
Y315850D01*
X223552Y54649D02*
Y66072D01*
X375447Y295910D02*
X381797Y302260D01*
X472749Y311954D02*
X474925Y314130D01*
X536331Y285010D02*
X546906Y295585D01*
X661345Y232735D02*
Y279323D01*
X523240Y279400D02*
X544830Y300990D01*
X560495Y185989D02*
X584937D01*
X603460Y204512D01*
X601288Y225842D02*
X607605Y232158D01*
X590020Y225842D02*
X601288D01*
X585992Y229870D02*
X590020Y225842D01*
X607605Y232158D02*
Y243665D01*
X562088Y229870D02*
X585992D01*
X531731Y263975D02*
X549243Y281487D01*
X381797Y302260D02*
X476193D01*
X391390Y307110D02*
X473619D01*
X382270Y288290D02*
X419100D01*
X476193Y302260D02*
X478733Y304800D01*
X480471Y314130D02*
X482571Y316230D01*
X483731Y307340D02*
X488950D01*
X474925Y314130D02*
X480471D01*
X473619Y307110D02*
X476599Y310090D01*
X480981D01*
X482571Y316230D02*
X482600D01*
X480981Y310090D02*
X483731Y307340D01*
X478733Y304800D02*
X478790D01*
X311280Y302130D02*
X328242Y285168D01*
X502195Y277974D02*
X506939D01*
X446830Y206661D02*
Y211880D01*
X453675Y218725D01*
X481615D01*
X607222Y244048D02*
X607605Y243665D01*
X311280Y302130D02*
Y308150D01*
X446830Y184419D02*
Y202279D01*
X619350Y270736D02*
X619542Y270927D01*
D18*
X598170Y250748D02*
Y257543D01*
Y250748D02*
X602082Y246836D01*
Y235715D02*
Y246836D01*
X598170Y257543D02*
X603321Y262694D01*
X591029Y230872D02*
X597239D01*
X602082Y235715D01*
X594119Y245351D02*
Y260022D01*
Y245351D02*
X596900Y242570D01*
X594119Y260022D02*
X599850Y265753D01*
X579457Y236048D02*
X585853D01*
X591029Y230872D01*
X579457Y236048D02*
X579457Y236048D01*
X575188Y236048D02*
X579457D01*
X599850Y265753D02*
Y270487D01*
D53*
X580010Y121920D02*
D03*
X584010D02*
D03*
X580010Y133920D02*
D03*
X584010D02*
D03*
X580010Y129920D02*
D03*
X584010D02*
D03*
D79*
X280414Y307685D02*
D03*
D160*
X666750Y323850D02*
D03*
D166*
X618649Y65857D02*
X626802D01*
X645798Y84854D02*
Y139558D01*
X626802Y65857D02*
X645798Y84854D01*
X635000Y139985D02*
X640399D01*
X645371D01*
X630028D02*
X635000D01*
X645371D02*
X645798Y139558D01*
X531040Y138719D02*
X539052D01*
X527721D02*
X531040D01*
X530859Y82550D02*
Y138539D01*
Y82550D02*
X533400Y80010D01*
X530859Y138539D02*
X531040Y138719D01*
X618307Y65857D02*
X618649D01*
X614600D02*
X618307D01*
X610550D02*
X614600D01*
D169*
X218797Y299203D02*
Y311815D01*
X221000Y288000D02*
Y297000D01*
X218797Y299203D02*
X221000Y297000D01*
Y288000D02*
X231000Y278000D01*
Y205000D02*
Y278000D01*
Y205000D02*
X265000Y171000D01*
X607084Y76897D02*
X610813D01*
X580010Y121920D02*
X584010D01*
X611953Y106526D02*
Y111119D01*
X584010Y121920D02*
X599404Y106526D01*
X611953D01*
D175*
X129329Y36619D02*
X151968Y59258D01*
X129329Y14555D02*
Y36619D01*
Y14555D02*
X137534Y6350D01*
X151968Y59258D02*
X159588D01*
X382417Y214554D02*
X391462Y223598D01*
X374826Y190543D02*
X382417Y198134D01*
Y214554D01*
X374826Y167454D02*
Y190543D01*
X426752Y223598D02*
X432791Y229638D01*
X469938D02*
X474026Y233726D01*
X432791Y229638D02*
X469938D01*
X511409Y234950D02*
X511810D01*
X474026Y233726D02*
X510184D01*
X511409Y234950D01*
X391462Y223598D02*
X426752D01*
X219710Y119380D02*
X326752D01*
X159588Y59258D02*
X219710Y119380D01*
X351310Y28777D02*
X373817D01*
X378465Y24130D01*
X393700D01*
X328883Y6350D02*
X351310Y28777D01*
X241300Y6350D02*
X328883D01*
X326752Y119380D02*
X374826Y167454D01*
X150863Y6350D02*
X165196Y20683D01*
X226967D02*
X241300Y6350D01*
X165196Y20683D02*
X226967D01*
X137534Y6350D02*
X150863D01*
D178*
X509000Y42000D02*
D03*
D179*
X459050D02*
D03*
D180*
X421640Y31750D02*
D03*
Y11430D02*
D03*
X370840Y21590D02*
D03*
X681010Y308164D02*
D03*
X670850Y257364D02*
D03*
X691170D02*
D03*
D181*
X278450Y19050D02*
D03*
X288450D02*
D03*
X298450D02*
D03*
X229006Y334514D02*
D03*
X239006D02*
D03*
X249006D02*
D03*
D182*
X438330Y221160D02*
D03*
X397330Y180160D02*
D03*
D183*
X426720Y328930D02*
D03*
X622097Y24986D02*
D03*
X562610Y24130D02*
D03*
D184*
X452120Y328930D02*
D03*
X596697Y24986D02*
D03*
X537210Y24130D02*
D03*
D185*
X467920Y25010D02*
D03*
D186*
X492920D02*
D03*
D187*
X638180Y156210D02*
D03*
Y242610D02*
D03*
D188*
X678180Y156210D02*
D03*
Y242610D02*
D03*
D189*
X489110Y330200D02*
D03*
D190*
X499110D02*
D03*
D191*
X33020Y33020D02*
D03*
Y317500D02*
D03*
X666750Y33020D02*
D03*
D192*
X294000Y308000D02*
D03*
X289943Y304410D02*
D03*
X292000Y333000D02*
D03*
X301010Y332730D02*
D03*
X328696Y334500D02*
D03*
X284000Y277000D02*
D03*
X354000Y176000D02*
D03*
X696001Y266000D02*
D03*
Y186000D02*
D03*
Y146000D02*
D03*
X686001Y126000D02*
D03*
X696001Y106000D02*
D03*
X686001Y86000D02*
D03*
X696001Y66000D02*
D03*
X676001D02*
D03*
X656001D02*
D03*
X646001Y6000D02*
D03*
X626001Y86000D02*
D03*
X576000Y26000D02*
D03*
X566000Y6000D02*
D03*
X546000Y246000D02*
D03*
Y86000D02*
D03*
X556000Y66000D02*
D03*
X546000Y6000D02*
D03*
X526000Y206000D02*
D03*
Y6000D02*
D03*
X506000Y326000D02*
D03*
Y206000D02*
D03*
X516000Y146000D02*
D03*
X506000Y86000D02*
D03*
X516000Y26000D02*
D03*
X506000Y6000D02*
D03*
X496000Y226000D02*
D03*
Y186000D02*
D03*
X486000Y6000D02*
D03*
X466000Y246000D02*
D03*
X476000Y186000D02*
D03*
X466000Y86000D02*
D03*
Y6000D02*
D03*
X446000Y246000D02*
D03*
Y86000D02*
D03*
Y6000D02*
D03*
X426000Y246000D02*
D03*
Y46000D02*
D03*
X436000Y26000D02*
D03*
X416000Y186000D02*
D03*
Y66000D02*
D03*
X386000Y126000D02*
D03*
X396000Y106000D02*
D03*
X386000Y6000D02*
D03*
X366000Y246000D02*
D03*
Y6000D02*
D03*
X356000Y266000D02*
D03*
X346000Y246000D02*
D03*
X356000Y226000D02*
D03*
X346000Y126000D02*
D03*
Y86000D02*
D03*
X356000Y66000D02*
D03*
X346000Y6000D02*
D03*
X336000Y106000D02*
D03*
X316000Y146000D02*
D03*
X296000Y226000D02*
D03*
X286000Y206000D02*
D03*
Y166000D02*
D03*
Y86000D02*
D03*
X296000Y66000D02*
D03*
X266000Y326000D02*
D03*
X276000Y266000D02*
D03*
Y186000D02*
D03*
Y146000D02*
D03*
X266000Y86000D02*
D03*
X276000Y66000D02*
D03*
X246000Y246000D02*
D03*
Y126000D02*
D03*
Y86000D02*
D03*
X236000Y266000D02*
D03*
Y226000D02*
D03*
X226000Y206000D02*
D03*
X236000Y186000D02*
D03*
Y146000D02*
D03*
X226000Y126000D02*
D03*
Y86000D02*
D03*
X236000Y26000D02*
D03*
X216000Y266000D02*
D03*
X206000Y246000D02*
D03*
X216000Y226000D02*
D03*
Y186000D02*
D03*
Y66000D02*
D03*
Y26000D02*
D03*
X206000Y6000D02*
D03*
X196000Y306000D02*
D03*
Y266000D02*
D03*
Y186000D02*
D03*
Y66000D02*
D03*
Y26000D02*
D03*
X186000Y6000D02*
D03*
X166000Y286000D02*
D03*
Y246000D02*
D03*
Y86000D02*
D03*
Y46000D02*
D03*
X176000Y26000D02*
D03*
X166000Y6000D02*
D03*
X146000Y286000D02*
D03*
Y246000D02*
D03*
X156000Y226000D02*
D03*
X146000Y126000D02*
D03*
X156000Y106000D02*
D03*
Y66000D02*
D03*
X146000Y46000D02*
D03*
X126000Y326000D02*
D03*
Y286000D02*
D03*
X136000Y266000D02*
D03*
X126000Y246000D02*
D03*
X136000Y186000D02*
D03*
X126000Y166000D02*
D03*
X136000Y146000D02*
D03*
X126000Y126000D02*
D03*
X136000Y106000D02*
D03*
X126000Y86000D02*
D03*
X136000Y26000D02*
D03*
X126000Y6000D02*
D03*
X106000Y326000D02*
D03*
X116000Y266000D02*
D03*
Y226000D02*
D03*
X106000Y206000D02*
D03*
Y166000D02*
D03*
X116000Y146000D02*
D03*
X106000Y86000D02*
D03*
X116000Y66000D02*
D03*
X106000Y46000D02*
D03*
X116000Y26000D02*
D03*
X106000Y6000D02*
D03*
X96000Y306000D02*
D03*
Y266000D02*
D03*
X86000Y246000D02*
D03*
X96000Y226000D02*
D03*
Y106000D02*
D03*
Y66000D02*
D03*
X86000Y46000D02*
D03*
Y6000D02*
D03*
X66000Y326000D02*
D03*
X76000Y306000D02*
D03*
X66000Y246000D02*
D03*
Y166000D02*
D03*
Y46000D02*
D03*
X76000Y26000D02*
D03*
X46000Y286000D02*
D03*
X56000Y66000D02*
D03*
X36000Y186000D02*
D03*
X26000Y166000D02*
D03*
X16000Y226000D02*
D03*
X6000Y206000D02*
D03*
X16000Y186000D02*
D03*
Y106000D02*
D03*
Y66000D02*
D03*
X271584Y315180D02*
D03*
X349000Y209000D02*
D03*
X294030Y286000D02*
D03*
X259030Y290970D02*
D03*
X263110Y295050D02*
D03*
X255000Y295000D02*
D03*
X306000Y82000D02*
D03*
X265000Y171000D02*
D03*
X218797Y311815D02*
D03*
X49365Y152881D02*
D03*
X268750Y250976D02*
D03*
X90276Y157937D02*
D03*
X38228Y160715D02*
D03*
X31501Y158404D02*
D03*
X31442Y152964D02*
D03*
X38374Y152876D02*
D03*
X30974Y128981D02*
D03*
X36590Y128805D02*
D03*
X45511Y126465D02*
D03*
X53466Y128717D02*
D03*
X70869Y129390D02*
D03*
X78678Y126056D02*
D03*
X86809Y129595D02*
D03*
X101454Y140924D02*
D03*
X54925Y152829D02*
D03*
X44094Y151645D02*
D03*
X34828Y134951D02*
D03*
X56574Y134191D02*
D03*
X87288Y154302D02*
D03*
X72231Y152829D02*
D03*
X64142Y153022D02*
D03*
X67434Y134191D02*
D03*
X89302Y135025D02*
D03*
X94710Y135912D02*
D03*
X106368Y147335D02*
D03*
X103731Y152139D02*
D03*
X99856Y156014D02*
D03*
X95794Y159692D02*
D03*
X108969Y119059D02*
D03*
X123466Y105295D02*
D03*
X153780Y235999D02*
D03*
X140329Y220887D02*
D03*
X125930Y206645D02*
D03*
X111609Y192562D02*
D03*
X96949Y178575D02*
D03*
X284001Y264581D02*
D03*
X81835Y152206D02*
D03*
X90731Y29015D02*
D03*
X567747Y57913D02*
D03*
X579716Y84370D02*
D03*
X584361Y82323D02*
D03*
X587432Y76890D02*
D03*
X383668Y136019D02*
D03*
X392996Y136559D02*
D03*
X381003Y143222D02*
D03*
X491490Y123190D02*
D03*
X485140Y135890D02*
D03*
X492760Y138430D02*
D03*
X499110Y133350D02*
D03*
X546869Y132821D02*
D03*
X462280Y267970D02*
D03*
X476250Y227330D02*
D03*
X440982Y51646D02*
D03*
X440964Y46292D02*
D03*
X440946Y40939D02*
D03*
X441000Y57000D02*
D03*
X201000Y26000D02*
D03*
X485959Y226360D02*
D03*
X359442Y135440D02*
D03*
X355358D02*
D03*
X643890Y231140D02*
D03*
Y222973D02*
D03*
Y227056D02*
D03*
X557530Y71120D02*
D03*
X567690Y74930D02*
D03*
X362275Y84211D02*
D03*
X368625D02*
D03*
X365576Y80773D02*
D03*
X341890Y96876D02*
D03*
X358140Y186690D02*
D03*
X339170Y180876D02*
D03*
X160046Y70458D02*
D03*
X322580Y331470D02*
D03*
X176739Y61543D02*
D03*
X212090Y293370D02*
D03*
X462280Y281940D02*
D03*
X379149Y13085D02*
D03*
X393700Y24130D02*
D03*
X391462Y223598D02*
D03*
X595240Y236142D02*
D03*
X539750Y199390D02*
D03*
X538840Y219170D02*
D03*
X617220Y199390D02*
D03*
X676910Y295910D02*
D03*
X189176Y287821D02*
D03*
Y283502D02*
D03*
X90170Y203200D02*
D03*
X85090D02*
D03*
X368443Y309089D02*
D03*
X407670Y323850D02*
D03*
Y319428D02*
D03*
X363390Y222507D02*
D03*
X317500Y130810D02*
D03*
Y135962D02*
D03*
X330200Y151634D02*
D03*
X337820D02*
D03*
X378488Y151258D02*
D03*
X404905Y121748D02*
D03*
X400871Y121987D02*
D03*
X459651Y252356D02*
D03*
X454173Y252482D02*
D03*
X459651Y246836D02*
D03*
X454131D02*
D03*
X484766Y252480D02*
D03*
X484733Y257237D02*
D03*
X489490Y257270D02*
D03*
X542345Y92846D02*
D03*
X607064Y76877D02*
D03*
X610900Y76984D02*
D03*
X632460Y102870D02*
D03*
X611953Y106526D02*
D03*
Y111119D02*
D03*
X498355Y203400D02*
D03*
Y195380D02*
D03*
Y199390D02*
D03*
X550148Y181710D02*
D03*
X550402Y185484D02*
D03*
X546290Y185539D02*
D03*
X546100Y181610D02*
D03*
X561259Y177766D02*
D03*
X526763Y138448D02*
D03*
X530859Y138539D02*
D03*
X534956Y138629D02*
D03*
X539052Y138719D02*
D03*
X533400Y80010D02*
D03*
X537210Y76200D02*
D03*
X541020Y72390D02*
D03*
X645798Y139558D02*
D03*
X640399D02*
D03*
X635000D02*
D03*
X629601D02*
D03*
X610550Y65857D02*
D03*
X622698D02*
D03*
X618649D02*
D03*
X614600D02*
D03*
X629623Y82550D02*
D03*
X572240Y142577D02*
D03*
X575955D02*
D03*
Y146292D02*
D03*
X572240D02*
D03*
X572761Y154308D02*
D03*
X608707Y193533D02*
D03*
X603639Y184150D02*
D03*
X608707Y188841D02*
D03*
X639566Y224053D02*
D03*
X433554Y103941D02*
D03*
X459620Y163745D02*
D03*
X641335Y175510D02*
D03*
X493365Y154072D02*
D03*
X608707Y184150D02*
D03*
X502975Y152316D02*
D03*
X511810Y234950D02*
D03*
X585470Y151130D02*
D03*
X237265Y36605D02*
D03*
X398194Y215593D02*
D03*
X391869Y240694D02*
D03*
X359558Y222507D02*
D03*
X336550Y209550D02*
D03*
X662488Y194785D02*
D03*
X674370Y185420D02*
D03*
X340360Y229870D02*
D03*
X542260Y88794D02*
D03*
X544830Y68580D02*
D03*
X489523Y252513D02*
D03*
X669467Y268584D02*
D03*
X684530Y278130D02*
D03*
X619760Y241300D02*
D03*
X672726Y295788D02*
D03*
X413645Y144340D02*
D03*
X170312Y9706D02*
D03*
X74302Y16868D02*
D03*
X306070Y176530D02*
D03*
X382270Y288290D02*
D03*
X554736Y147512D02*
D03*
X223552Y54649D02*
D03*
X498355Y191370D02*
D03*
X575188Y236048D02*
D03*
X423827Y101545D02*
D03*
X458871Y208420D02*
D03*
X491904Y131439D02*
D03*
X381000Y240030D02*
D03*
X488950Y307340D02*
D03*
X482600Y316230D02*
D03*
X506939Y277974D02*
D03*
X436880Y207010D02*
D03*
X416560Y109220D02*
D03*
X387350Y140970D02*
D03*
X596900Y242570D02*
D03*
X311280Y308150D02*
D03*
X523240Y279400D02*
D03*
X582850Y173990D02*
D03*
X598170Y217170D02*
D03*
X538479Y189230D02*
D03*
X604520Y252730D02*
D03*
X328930Y190500D02*
D03*
X599440Y171760D02*
D03*
X319280Y308150D02*
D03*
X327280D02*
D03*
X335280D02*
D03*
X478790Y304800D02*
D03*
X623570Y186910D02*
D03*
X421640Y247650D02*
D03*
X368300Y304800D02*
D03*
X355600Y195540D02*
D03*
D193*
X511000Y56000D02*
D03*
X691001Y296000D02*
D03*
Y276000D02*
D03*
Y136000D02*
D03*
Y76000D02*
D03*
X676001Y266000D02*
D03*
X666001Y286000D02*
D03*
X646001Y206000D02*
D03*
Y186000D02*
D03*
X651001Y76000D02*
D03*
X636001Y86000D02*
D03*
X616001Y186000D02*
D03*
Y146000D02*
D03*
X571000Y36000D02*
D03*
X551000Y96000D02*
D03*
Y16000D02*
D03*
X526000Y246000D02*
D03*
X491000Y196000D02*
D03*
X436000Y246000D02*
D03*
X426000Y66000D02*
D03*
X396000Y326000D02*
D03*
X401000Y96000D02*
D03*
Y36000D02*
D03*
X386000Y86000D02*
D03*
X376000Y246000D02*
D03*
Y6000D02*
D03*
X366000Y66000D02*
D03*
X361000Y176000D02*
D03*
X356000Y6000D02*
D03*
X346000Y186000D02*
D03*
X336000Y266000D02*
D03*
Y246000D02*
D03*
Y6000D02*
D03*
X326000Y126000D02*
D03*
Y106000D02*
D03*
Y86000D02*
D03*
X321000Y316000D02*
D03*
X311000Y216000D02*
D03*
X306000Y106000D02*
D03*
X296000Y86000D02*
D03*
X291000Y236000D02*
D03*
X286000Y66000D02*
D03*
X266000D02*
D03*
X246000Y306000D02*
D03*
X251000Y256000D02*
D03*
X236000Y286000D02*
D03*
X231000Y36000D02*
D03*
X226000Y6000D02*
D03*
X206000Y306000D02*
D03*
Y286000D02*
D03*
X201000Y36000D02*
D03*
X191000Y316000D02*
D03*
Y296000D02*
D03*
X161000Y76000D02*
D03*
X146000Y106000D02*
D03*
X61000Y236000D02*
D03*
Y216000D02*
D03*
X51000Y276000D02*
D03*
X41000Y236000D02*
D03*
Y216000D02*
D03*
Y176000D02*
D03*
X31000Y276000D02*
D03*
X21000Y176000D02*
D03*
Y116000D02*
D03*
X6000Y286000D02*
D03*
Y266000D02*
D03*
Y166000D02*
D03*
Y126000D02*
D03*
Y106000D02*
D03*
X686001Y206000D02*
D03*
Y186000D02*
D03*
X691001Y116000D02*
D03*
Y96000D02*
D03*
X676001Y106000D02*
D03*
Y86000D02*
D03*
X631001Y56000D02*
D03*
X626001Y6000D02*
D03*
X621001Y96000D02*
D03*
Y76000D02*
D03*
X606001Y166000D02*
D03*
Y6000D02*
D03*
X586001D02*
D03*
X551000Y36000D02*
D03*
X531000Y216000D02*
D03*
X526000Y46000D02*
D03*
X516000Y306000D02*
D03*
X521000Y116000D02*
D03*
Y16000D02*
D03*
X511000Y336000D02*
D03*
Y156000D02*
D03*
X496000Y306000D02*
D03*
X491000Y56000D02*
D03*
X466000Y326000D02*
D03*
X471000Y56000D02*
D03*
X451000Y96000D02*
D03*
X436000Y186000D02*
D03*
Y86000D02*
D03*
X441000Y16000D02*
D03*
X431000Y36000D02*
D03*
X421000Y216000D02*
D03*
X406000Y6000D02*
D03*
X391000Y216000D02*
D03*
X386000Y106000D02*
D03*
X371000Y96000D02*
D03*
X356000Y246000D02*
D03*
X361000Y196000D02*
D03*
X351000Y96000D02*
D03*
X346000Y66000D02*
D03*
X336000Y286000D02*
D03*
Y226000D02*
D03*
X341000Y116000D02*
D03*
X326000Y66000D02*
D03*
X306000Y286000D02*
D03*
X291000Y36000D02*
D03*
X271000Y16000D02*
D03*
X211000Y336000D02*
D03*
X191000D02*
D03*
X171000Y256000D02*
D03*
Y56000D02*
D03*
X131000Y336000D02*
D03*
X121000Y256000D02*
D03*
Y56000D02*
D03*
X101000Y336000D02*
D03*
X91000Y236000D02*
D03*
X81000Y216000D02*
D03*
X76000Y186000D02*
D03*
Y46000D02*
D03*
X71000Y336000D02*
D03*
X66000Y6000D02*
D03*
X61000Y196000D02*
D03*
X41000Y96000D02*
D03*
X21000D02*
D03*
X6000Y246000D02*
D03*
X11000Y216000D02*
D03*
Y196000D02*
D03*
X6000Y86000D02*
D03*
Y66000D02*
D03*
X166000Y326000D02*
D03*
X146000D02*
D03*
X136000Y286000D02*
D03*
X131000Y316000D02*
D03*
X116000Y326000D02*
D03*
X121000Y276000D02*
D03*
X106000Y286000D02*
D03*
Y266000D02*
D03*
Y246000D02*
D03*
X101000Y316000D02*
D03*
Y96000D02*
D03*
X91000Y296000D02*
D03*
Y276000D02*
D03*
Y256000D02*
D03*
X81000Y316000D02*
D03*
X76000Y266000D02*
D03*
Y246000D02*
D03*
X81000Y96000D02*
D03*
X76000Y66000D02*
D03*
X71000Y296000D02*
D03*
X61000Y176000D02*
D03*
Y116000D02*
D03*
Y96000D02*
D03*
Y76000D02*
D03*
X41000D02*
D03*
X21000Y236000D02*
D03*
Y76000D02*
D03*
X413481Y337972D02*
D03*
X384836Y336754D02*
D03*
X437082Y317466D02*
D03*
X145098Y83963D02*
D03*
X325120Y275590D02*
D03*
X304789Y276993D02*
D03*
X147437Y18448D02*
D03*
X563880Y236220D02*
D03*
D194*
X584040Y223280D02*
D03*
X574040D02*
D03*
X564040D02*
D03*
X584040Y213280D02*
D03*
X574040D02*
D03*
X564040D02*
D03*
X584040Y203280D02*
D03*
X574040D02*
D03*
X564040D02*
D03*
X584040Y193280D02*
D03*
X574040D02*
D03*
X564040D02*
D03*
D195*
X143687Y66871D02*
D03*
X156179Y302271D02*
D03*
X118555Y302271D02*
D03*
X86349Y167609D02*
D03*
Y116809D02*
D03*
X86319Y78679D02*
D03*
X156210Y51240D02*
D03*
X467360Y167640D02*
D03*
X462280Y190500D02*
D03*
X552763Y267622D02*
D03*
X93900Y53065D02*
D03*
X655864Y296034D02*
D03*
X67310Y199390D02*
D03*
D196*
X647543Y299715D02*
D03*
X642203Y299653D02*
D03*
X300000Y269000D02*
D03*
X529590Y173990D02*
D03*
X314960Y260350D02*
D03*
X632350Y284737D02*
D03*
X629100Y263988D02*
D03*
X635600D02*
D03*
X607222Y244048D02*
D03*
X640100Y278237D02*
D03*
X586850Y284737D02*
D03*
X583600Y263988D02*
D03*
X622600Y298987D02*
D03*
X629100D02*
D03*
X593350Y284737D02*
D03*
X625850D02*
D03*
X640100D02*
D03*
X632350Y270487D02*
D03*
D217*
X432372Y288290D02*
X487060D01*
X416132Y272050D02*
X432372Y288290D01*
X341360Y272050D02*
X416132D01*
X328242Y285168D02*
X341360Y272050D01*
D218*
X518030Y274110D02*
X525431D01*
X516885Y275255D02*
X518030Y274110D01*
X525431D02*
X536331Y285010D01*
X446830Y202279D02*
Y206661D01*
M02*
