G04*
G04 #@! TF.GenerationSoftware,Altium Limited,Altium Designer,26.9.1 (10)*
G04*
G04 Layer_Color=16711935*
G04 Board_Origin=10000000|10000000*
%FSLAX44Y44*%
%MOMM*%
G71*
G04*
G04 #@! TF.SameCoordinates,4D60E3E7-F363-4ECC-824F-F87D10AF92CA*
G04*
G04*
G04 #@! TF.FilePolarity,Negative*
G04*
G01*
G75*
%ADD83R,0.2900X0.3000*%
%ADD84R,4.3000X1.4500*%
%ADD88R,0.7200X0.7700*%
%ADD89R,0.6950X0.4700*%
%ADD93R,0.4900X0.5100*%
%ADD96R,1.0700X0.7304*%
%ADD98R,0.5100X0.4900*%
%ADD99R,0.4300X0.3900*%
%ADD101R,0.3900X0.4300*%
%ADD102R,0.6900X0.6700*%
%ADD103R,0.8200X0.6700*%
%ADD106R,0.6700X0.8200*%
%ADD116C,0.2960*%
%ADD117R,0.5200X0.6700*%
%ADD122R,0.6700X0.6900*%
%ADD125R,0.7700X0.7700*%
%ADD128R,0.7304X1.3400*%
%ADD129R,0.7304X1.0700*%
%ADD130R,2.2700X0.9200*%
%ADD134R,0.3700X0.6700*%
%ADD142C,0.2390*%
%ADD146R,1.5940X1.5940*%
%ADD147C,1.5940*%
%ADD148C,0.7200*%
%ADD149C,0.8200*%
%ADD150C,0.4200*%
%ADD151C,1.9700*%
%ADD152R,1.9700X1.9700*%
%ADD153R,1.5700X1.5700*%
%ADD154C,1.5700*%
%ADD155O,1.8700X1.0700*%
%ADD156O,2.2700X1.0700*%
%ADD157R,0.8900X0.8900*%
%ADD158C,0.8900*%
%ADD159C,5.5700*%
%ADD160C,2.0000*%
%ADD239R,1.0000X1.0000*%
%ADD240R,4.1999X1.7000*%
%ADD252R,0.2900X0.3000*%
%ADD253R,0.8200X1.0100*%
%ADD254R,2.2700X1.1200*%
%ADD255R,1.1200X1.1200*%
%ADD256R,0.5000X0.5000*%
%ADD257R,0.9000X0.9000*%
G04:AMPARAMS|DCode=258|XSize=0.77mm|YSize=1.27mm|CornerRadius=0mm|HoleSize=0mm|Usage=FLASHONLY|Rotation=315.000|XOffset=0mm|YOffset=0mm|HoleType=Round|Shape=Rectangle|*
%AMROTATEDRECTD258*
4,1,4,-0.7213,-0.1768,0.1768,0.7213,0.7213,0.1768,-0.1768,-0.7213,-0.7213,-0.1768,0.0*
%
%ADD258ROTATEDRECTD258*%

G04:AMPARAMS|DCode=259|XSize=0.77mm|YSize=1.27mm|CornerRadius=0mm|HoleSize=0mm|Usage=FLASHONLY|Rotation=45.000|XOffset=0mm|YOffset=0mm|HoleType=Round|Shape=Rectangle|*
%AMROTATEDRECTD259*
4,1,4,0.1768,-0.7213,-0.7213,0.1768,-0.1768,0.7213,0.7213,-0.1768,0.1768,-0.7213,0.0*
%
%ADD259ROTATEDRECTD259*%

%ADD260R,0.9700X0.7200*%
G04:AMPARAMS|DCode=261|XSize=2.07mm|YSize=1.07mm|CornerRadius=0mm|HoleSize=0mm|Usage=FLASHONLY|Rotation=135.000|XOffset=0mm|YOffset=0mm|HoleType=Round|Shape=Rectangle|*
%AMROTATEDRECTD261*
4,1,4,1.1102,-0.3536,0.3536,-1.1102,-1.1102,0.3536,-0.3536,1.1102,1.1102,-0.3536,0.0*
%
%ADD261ROTATEDRECTD261*%

%ADD262R,1.3200X0.6700*%
%ADD263R,0.6700X1.2200*%
G04:AMPARAMS|DCode=264|XSize=0.51mm|YSize=0.49mm|CornerRadius=0mm|HoleSize=0mm|Usage=FLASHONLY|Rotation=315.000|XOffset=0mm|YOffset=0mm|HoleType=Round|Shape=Rectangle|*
%AMROTATEDRECTD264*
4,1,4,-0.3536,0.0071,-0.0071,0.3536,0.3536,-0.0071,0.0071,-0.3536,-0.3536,0.0071,0.0*
%
%ADD264ROTATEDRECTD264*%

%ADD265C,0.8570*%
%ADD266R,0.6400X1.2200*%
%ADD267R,1.0700X0.4700*%
%ADD268R,0.5700X0.5700*%
%ADD269R,1.1700X0.5700*%
%ADD270R,2.9656X1.1622*%
%ADD271R,1.7718X0.7304*%
%ADD272R,1.6200X0.6700*%
%ADD273R,1.8700X1.2700*%
%ADD274R,0.5800X0.3900*%
%ADD275R,0.3900X0.5800*%
%ADD276R,3.4700X4.0700*%
G36*
X33926Y226870D02*
X58781D01*
Y251725D01*
X33926Y226870D01*
D02*
G37*
G36*
X16730Y280920D02*
Y263920D01*
X58731D01*
Y280920D01*
X16730D01*
D02*
G37*
G36*
X325120Y52705D02*
X330200D01*
Y56515D01*
X325120D01*
Y52705D01*
D02*
G37*
G36*
X335280D02*
X340360D01*
Y56515D01*
X335280D01*
Y52705D01*
D02*
G37*
G36*
X382016Y50165D02*
X387096D01*
Y53975D01*
X382016D01*
Y50165D01*
D02*
G37*
G36*
X392176D02*
X397256D01*
Y53975D01*
X392176D01*
Y50165D01*
D02*
G37*
G36*
X538780Y64665D02*
X543860D01*
Y68475D01*
X538780D01*
Y64665D01*
D02*
G37*
G36*
X574040Y69215D02*
X568960D01*
Y65405D01*
X574040D01*
Y69215D01*
D02*
G37*
G36*
X429895Y111760D02*
Y106680D01*
X433705D01*
Y111760D01*
X429895D01*
D02*
G37*
G36*
X488950Y271145D02*
X494030D01*
Y274955D01*
X488950D01*
Y271145D01*
D02*
G37*
D83*
X619761Y188170D02*
D03*
D84*
X21000Y115260D02*
D03*
Y171760D02*
D03*
D88*
X354420Y307340D02*
D03*
X340920D02*
D03*
X278794Y326733D02*
D03*
X292294D02*
D03*
X288690Y285750D02*
D03*
X275190D02*
D03*
X571900Y46990D02*
D03*
X558400D02*
D03*
D89*
X537200Y148461D02*
D03*
X545440D02*
D03*
X308300Y331470D02*
D03*
X316540D02*
D03*
D93*
X219000Y323400D02*
D03*
Y316600D02*
D03*
X259080Y301850D02*
D03*
Y295050D02*
D03*
X469900Y299190D02*
D03*
Y305990D02*
D03*
X496570Y224790D02*
D03*
Y231590D02*
D03*
X241300Y308610D02*
D03*
Y315410D02*
D03*
X411480Y102050D02*
D03*
Y95250D02*
D03*
D96*
X431800Y114427D02*
D03*
Y104013D02*
D03*
D98*
X538480Y157480D02*
D03*
X545280D02*
D03*
X401770Y336550D02*
D03*
X394970D02*
D03*
D99*
X623844Y247518D02*
D03*
X618244D02*
D03*
D101*
X628000Y111200D02*
D03*
Y116800D02*
D03*
Y93200D02*
D03*
Y98800D02*
D03*
X609600Y242310D02*
D03*
Y247910D02*
D03*
D102*
X372290Y82759D02*
D03*
Y73559D02*
D03*
X78919Y132706D02*
D03*
Y141906D02*
D03*
X45550Y132706D02*
D03*
Y141906D02*
D03*
D103*
X162980Y10160D02*
D03*
X151980D02*
D03*
X579000Y133880D02*
D03*
X590000D02*
D03*
X72791Y210740D02*
D03*
X61791D02*
D03*
D106*
X438150Y55030D02*
D03*
Y44030D02*
D03*
D116*
X387539Y87749D02*
D03*
X391539D02*
D03*
X387539Y91749D02*
D03*
X391539D02*
D03*
D117*
X545393Y6247D02*
D03*
X554893D02*
D03*
D122*
X401800Y74930D02*
D03*
X411000D02*
D03*
D125*
X361000Y71000D02*
D03*
Y82979D02*
D03*
D128*
X486283Y273050D02*
D03*
X496697D02*
D03*
X536113Y66570D02*
D03*
X546527D02*
D03*
D129*
X566293Y67310D02*
D03*
X576707D02*
D03*
X379222Y52070D02*
D03*
X389636D02*
D03*
X400050D02*
D03*
X322326Y54610D02*
D03*
X332740D02*
D03*
X343154D02*
D03*
D130*
X315270Y316970D02*
D03*
Y296470D02*
D03*
D134*
X614760Y185420D02*
D03*
X624760D02*
D03*
D142*
X283914Y311185D02*
D03*
X280414D02*
D03*
X276914D02*
D03*
X283914Y307685D02*
D03*
X280414D02*
D03*
X276914D02*
D03*
X283914Y304185D02*
D03*
X280414D02*
D03*
X276914D02*
D03*
X283914Y300685D02*
D03*
X280414D02*
D03*
X276914D02*
D03*
D146*
X509000Y42000D02*
D03*
D147*
X459050D02*
D03*
D148*
X421640Y31750D02*
D03*
Y11430D02*
D03*
X370840Y21590D02*
D03*
X681010Y308164D02*
D03*
X670850Y257364D02*
D03*
X691170D02*
D03*
D149*
X278450Y19050D02*
D03*
X288450D02*
D03*
X298450D02*
D03*
X229006Y334514D02*
D03*
X239006D02*
D03*
X249006D02*
D03*
D150*
X438330Y221160D02*
D03*
X397330Y180160D02*
D03*
D151*
X426720Y328930D02*
D03*
X622097Y24986D02*
D03*
X562610Y24130D02*
D03*
D152*
X452120Y328930D02*
D03*
X596697Y24986D02*
D03*
X537210Y24130D02*
D03*
D153*
X467920Y25010D02*
D03*
D154*
X492920D02*
D03*
D155*
X638180Y156210D02*
D03*
Y242610D02*
D03*
D156*
X678180Y156210D02*
D03*
Y242610D02*
D03*
D157*
X489110Y330200D02*
D03*
D158*
X499110D02*
D03*
D159*
X33020Y33020D02*
D03*
Y317500D02*
D03*
X666750Y33020D02*
D03*
D160*
Y323850D02*
D03*
D239*
X51952Y233600D02*
D03*
D240*
X37730Y272419D02*
D03*
D252*
X619761Y182670D02*
D03*
D253*
X272950Y274191D02*
D03*
X286950D02*
D03*
D254*
X15240Y129020D02*
D03*
Y158520D02*
D03*
D255*
X30490Y143770D02*
D03*
D256*
X593350Y270487D02*
D03*
X599850D02*
D03*
X606350D02*
D03*
X612850D02*
D03*
X619350D02*
D03*
X625850D02*
D03*
X632350D02*
D03*
X640100Y284737D02*
D03*
Y278237D02*
D03*
X632350Y292487D02*
D03*
X625850D02*
D03*
X619350D02*
D03*
X606350D02*
D03*
X599850D02*
D03*
X586850D02*
D03*
X579100Y284737D02*
D03*
Y278237D02*
D03*
X646600Y306487D02*
D03*
Y316487D02*
D03*
Y326487D02*
D03*
X634600Y337993D02*
D03*
X624600D02*
D03*
X614600D02*
D03*
X604600D02*
D03*
X594600D02*
D03*
X584600D02*
D03*
X572600Y326487D02*
D03*
Y316487D02*
D03*
Y306487D02*
D03*
X583600Y263988D02*
D03*
X590100D02*
D03*
X596600D02*
D03*
X603100D02*
D03*
X609600D02*
D03*
X616100D02*
D03*
X622600D02*
D03*
X629100D02*
D03*
X635600D02*
D03*
X646600Y274987D02*
D03*
Y281488D02*
D03*
Y287987D02*
D03*
X635600Y298987D02*
D03*
X629100D02*
D03*
X622600D02*
D03*
X616100D02*
D03*
X609600D02*
D03*
X603100D02*
D03*
X596600D02*
D03*
X590100D02*
D03*
X583600D02*
D03*
X572600Y287987D02*
D03*
Y281488D02*
D03*
Y274987D02*
D03*
X632350Y278237D02*
D03*
X625850D02*
D03*
X619350D02*
D03*
X612850D02*
D03*
X606350D02*
D03*
X599850D02*
D03*
X593350D02*
D03*
X586850D02*
D03*
Y284737D02*
D03*
X593350D02*
D03*
X599850D02*
D03*
X606350D02*
D03*
X612850D02*
D03*
X619350D02*
D03*
X625850D02*
D03*
X632350D02*
D03*
X612850Y292487D02*
D03*
X586850Y270487D02*
D03*
X593350Y292487D02*
D03*
D257*
X644600Y335987D02*
D03*
X574600D02*
D03*
X644600Y265988D02*
D03*
Y296987D02*
D03*
X574600D02*
D03*
Y265988D02*
D03*
D258*
X95410Y173009D02*
D03*
X109778Y187377D02*
D03*
X124147Y201746D02*
D03*
X138515Y216114D02*
D03*
X181620Y259219D02*
D03*
X167252Y244851D02*
D03*
X152884Y230483D02*
D03*
X349267Y149680D02*
D03*
X334898Y135312D02*
D03*
X320530Y120943D02*
D03*
X306162Y106575D02*
D03*
X291793Y92206D02*
D03*
X277425Y77838D02*
D03*
X263056Y63470D02*
D03*
X248688Y49101D02*
D03*
X234320Y34733D02*
D03*
X210357Y287956D02*
D03*
X195989Y273588D02*
D03*
D259*
X95842Y149324D02*
D03*
X233966Y288386D02*
D03*
X320177Y202176D02*
D03*
X248335Y274018D02*
D03*
X305808Y216544D02*
D03*
X262703Y259649D02*
D03*
X277071Y245281D02*
D03*
X291440Y230912D02*
D03*
X334545Y187807D02*
D03*
X348913Y173439D02*
D03*
X210789Y34377D02*
D03*
X196421Y48745D02*
D03*
X182053Y63114D02*
D03*
X167684Y77482D02*
D03*
X153316Y91851D02*
D03*
X138947Y106219D02*
D03*
X124579Y120587D02*
D03*
X110211Y134956D02*
D03*
D260*
X552750Y91070D02*
D03*
Y105570D02*
D03*
X595930Y60590D02*
D03*
Y75090D02*
D03*
D261*
X241003Y27867D02*
D03*
X255806Y42144D02*
D03*
X329370Y112215D02*
D03*
X343200Y127089D02*
D03*
D262*
X584840Y158010D02*
D03*
X563840Y167560D02*
D03*
Y148460D02*
D03*
D263*
X581960Y96210D02*
D03*
X591560Y118210D02*
D03*
X572360D02*
D03*
D264*
X201425Y297473D02*
D03*
X196617Y302281D02*
D03*
D265*
X408940Y15240D02*
D03*
Y27940D02*
D03*
X396240Y15240D02*
D03*
Y27940D02*
D03*
X383540Y15240D02*
D03*
Y27940D02*
D03*
X687359Y295464D02*
D03*
X674660D02*
D03*
X687359Y282764D02*
D03*
X674660D02*
D03*
X687360Y270064D02*
D03*
X674660D02*
D03*
D266*
X55320Y143510D02*
D03*
X69620D02*
D03*
D267*
X602440Y227330D02*
D03*
X545640Y201930D02*
D03*
Y214630D02*
D03*
X602440Y201930D02*
D03*
Y214630D02*
D03*
Y189230D02*
D03*
X545640Y227330D02*
D03*
Y189230D02*
D03*
D268*
X574040Y208280D02*
D03*
D269*
X20231Y210740D02*
D03*
X43231D02*
D03*
D270*
X683025Y68160D02*
D03*
Y142660D02*
D03*
D271*
X649525Y86660D02*
D03*
Y99160D02*
D03*
Y111660D02*
D03*
Y124160D02*
D03*
D272*
X649870Y214390D02*
D03*
Y204390D02*
D03*
Y194390D02*
D03*
Y184390D02*
D03*
D273*
X688620Y227390D02*
D03*
Y171390D02*
D03*
D274*
X392510Y326390D02*
D03*
X402510D02*
D03*
D275*
X461010Y295990D02*
D03*
Y305990D02*
D03*
D276*
X574038Y208286D02*
D03*
M02*
