G04*
G04 #@! TF.GenerationSoftware,Altium Limited,Altium Designer,26.9.1 (10)*
G04*
G04 Layer_Color=128*
G04 Board_Origin=10000000|10000000*
%FSLAX44Y44*%
%MOMM*%
G71*
G04*
G04 #@! TF.SameCoordinates,4D60E3E7-F363-4ECC-824F-F87D10AF92CA*
G04*
G04*
G04 #@! TF.FilePolarity,Positive*
G04*
G01*
G75*
%ADD19R,0.1900X0.2500*%
%ADD21R,4.2000X1.3500*%
%ADD25R,0.6500X0.7000*%
%ADD26R,0.6250X0.4000*%
%ADD30R,0.4200X0.4400*%
%ADD33R,1.0000X0.6604*%
%ADD35R,0.4400X0.4200*%
%ADD36R,0.3600X0.3200*%
%ADD38R,0.3200X0.3600*%
%ADD39R,0.6200X0.6000*%
%ADD40R,0.7500X0.6000*%
%ADD43R,0.6000X0.7500*%
%ADD53C,0.2260*%
%ADD54R,0.4500X0.6000*%
%ADD59R,0.6000X0.6200*%
%ADD62R,0.7000X0.7000*%
%ADD65R,0.6604X1.2700*%
%ADD66R,0.6604X1.0000*%
%ADD67R,2.2000X0.8500*%
%ADD71R,0.3000X0.6000*%
%ADD79C,0.1690*%
%ADD223R,0.7500X0.9400*%
%ADD224R,2.2000X1.0500*%
%ADD225R,1.0500X1.0500*%
%ADD226R,0.4000X0.4000*%
%ADD227R,0.8000X0.8000*%
G04:AMPARAMS|DCode=228|XSize=0.7mm|YSize=1.2mm|CornerRadius=0mm|HoleSize=0mm|Usage=FLASHONLY|Rotation=315.000|XOffset=0mm|YOffset=0mm|HoleType=Round|Shape=Rectangle|*
%AMROTATEDRECTD228*
4,1,4,-0.6718,-0.1768,0.1768,0.6718,0.6718,0.1768,-0.1768,-0.6718,-0.6718,-0.1768,0.0*
%
%ADD228ROTATEDRECTD228*%

G04:AMPARAMS|DCode=229|XSize=0.7mm|YSize=1.2mm|CornerRadius=0mm|HoleSize=0mm|Usage=FLASHONLY|Rotation=45.000|XOffset=0mm|YOffset=0mm|HoleType=Round|Shape=Rectangle|*
%AMROTATEDRECTD229*
4,1,4,0.1768,-0.6718,-0.6718,0.1768,-0.1768,0.6718,0.6718,-0.1768,0.1768,-0.6718,0.0*
%
%ADD229ROTATEDRECTD229*%

%ADD230R,0.9000X0.6500*%
G04:AMPARAMS|DCode=231|XSize=2mm|YSize=1mm|CornerRadius=0mm|HoleSize=0mm|Usage=FLASHONLY|Rotation=135.000|XOffset=0mm|YOffset=0mm|HoleType=Round|Shape=Rectangle|*
%AMROTATEDRECTD231*
4,1,4,1.0607,-0.3536,0.3536,-1.0607,-1.0607,0.3536,-0.3536,1.0607,1.0607,-0.3536,0.0*
%
%ADD231ROTATEDRECTD231*%

%ADD232R,1.2500X0.6000*%
%ADD233R,0.6000X1.1500*%
G04:AMPARAMS|DCode=234|XSize=0.44mm|YSize=0.42mm|CornerRadius=0mm|HoleSize=0mm|Usage=FLASHONLY|Rotation=315.000|XOffset=0mm|YOffset=0mm|HoleType=Round|Shape=Rectangle|*
%AMROTATEDRECTD234*
4,1,4,-0.3041,0.0071,-0.0071,0.3041,0.3041,-0.0071,0.0071,-0.3041,-0.3041,0.0071,0.0*
%
%ADD234ROTATEDRECTD234*%

%ADD236R,0.5700X1.1500*%
%ADD237R,1.0000X0.4000*%
%ADD239R,1.0000X1.0000*%
%ADD240R,4.1999X1.7000*%
%ADD241R,1.1000X0.5000*%
%ADD242R,2.8956X1.0922*%
%ADD243R,1.7018X0.6604*%
%ADD244R,1.5500X0.6000*%
%ADD245R,1.8000X1.2000*%
%ADD246R,0.5100X0.3200*%
%ADD247R,0.3200X0.5100*%
%ADD277R,0.9301X1.1301*%
%ADD278R,0.9301X1.1300*%
%ADD279R,0.9300X1.1301*%
%ADD280R,0.9300X1.1300*%
%ADD281R,0.7259X1.0499*%
G36*
X33926Y226870D02*
X58781D01*
Y251725D01*
X33926Y226870D01*
D02*
G37*
G36*
X16730Y280920D02*
Y263920D01*
X58731D01*
Y280920D01*
X16730D01*
D02*
G37*
D19*
X619760Y182920D02*
D03*
Y187920D02*
D03*
D21*
X21000Y115260D02*
D03*
Y171760D02*
D03*
D25*
X354420Y307340D02*
D03*
X340920D02*
D03*
X278794Y326733D02*
D03*
X292294D02*
D03*
X288690Y285750D02*
D03*
X275190D02*
D03*
X571900Y46990D02*
D03*
X558400D02*
D03*
D26*
X537200Y148461D02*
D03*
X545440D02*
D03*
X308300Y331470D02*
D03*
X316540D02*
D03*
D30*
X219000Y323400D02*
D03*
Y316600D02*
D03*
X259080Y301850D02*
D03*
Y295050D02*
D03*
X469900Y299190D02*
D03*
Y305990D02*
D03*
X496570Y224790D02*
D03*
Y231590D02*
D03*
X241300Y308610D02*
D03*
Y315410D02*
D03*
X411480Y102050D02*
D03*
Y95250D02*
D03*
D33*
X431800Y114427D02*
D03*
Y104013D02*
D03*
D35*
X538480Y157480D02*
D03*
X545280D02*
D03*
X401770Y336550D02*
D03*
X394970D02*
D03*
D36*
X623844Y247518D02*
D03*
X618244D02*
D03*
D38*
X628000Y111200D02*
D03*
Y116800D02*
D03*
Y93200D02*
D03*
Y98800D02*
D03*
X609600Y242310D02*
D03*
Y247910D02*
D03*
D39*
X372290Y82759D02*
D03*
Y73559D02*
D03*
X78919Y132706D02*
D03*
Y141906D02*
D03*
X45550Y132706D02*
D03*
Y141906D02*
D03*
D40*
X162980Y10160D02*
D03*
X151980D02*
D03*
X579000Y133880D02*
D03*
X590000D02*
D03*
X72791Y210740D02*
D03*
X61791D02*
D03*
D43*
X438150Y55030D02*
D03*
Y44030D02*
D03*
D53*
X387539Y87749D02*
D03*
X391539D02*
D03*
X387539Y91749D02*
D03*
X391539D02*
D03*
D54*
X545393Y6247D02*
D03*
X554893D02*
D03*
D59*
X401800Y74930D02*
D03*
X411000D02*
D03*
D62*
X361000Y71000D02*
D03*
Y82979D02*
D03*
D65*
X486283Y273050D02*
D03*
X496697D02*
D03*
X536113Y66570D02*
D03*
X546527D02*
D03*
D66*
X566293Y67310D02*
D03*
X576707D02*
D03*
X379222Y52070D02*
D03*
X389636D02*
D03*
X400050D02*
D03*
X322326Y54610D02*
D03*
X332740D02*
D03*
X343154D02*
D03*
D67*
X315270Y316970D02*
D03*
Y296470D02*
D03*
D71*
X614760Y185420D02*
D03*
X624760D02*
D03*
D79*
X283914Y311185D02*
D03*
X280414D02*
D03*
X276914D02*
D03*
X283914Y307685D02*
D03*
X280414D02*
D03*
X276914D02*
D03*
X283914Y304185D02*
D03*
X280414D02*
D03*
X276914D02*
D03*
X283914Y300685D02*
D03*
X280414D02*
D03*
X276914D02*
D03*
D223*
X272950Y274191D02*
D03*
X286950D02*
D03*
D224*
X15240Y129020D02*
D03*
Y158520D02*
D03*
D225*
X30490Y143770D02*
D03*
D226*
X593350Y270487D02*
D03*
X599850D02*
D03*
X606350D02*
D03*
X612850D02*
D03*
X619350D02*
D03*
X625850D02*
D03*
X632350D02*
D03*
X640100Y284737D02*
D03*
Y278237D02*
D03*
X632350Y292487D02*
D03*
X625850D02*
D03*
X619350D02*
D03*
X606350D02*
D03*
X599850D02*
D03*
X586850D02*
D03*
X579100Y284737D02*
D03*
Y278237D02*
D03*
X646600Y306487D02*
D03*
Y316487D02*
D03*
Y326487D02*
D03*
X634600Y337993D02*
D03*
X624600D02*
D03*
X614600D02*
D03*
X604600D02*
D03*
X594600D02*
D03*
X584600D02*
D03*
X572600Y326487D02*
D03*
Y316487D02*
D03*
Y306487D02*
D03*
X583600Y263988D02*
D03*
X590100D02*
D03*
X596600D02*
D03*
X603100D02*
D03*
X609600D02*
D03*
X616100D02*
D03*
X622600D02*
D03*
X629100D02*
D03*
X635600D02*
D03*
X646600Y274987D02*
D03*
Y281488D02*
D03*
Y287987D02*
D03*
X635600Y298987D02*
D03*
X629100D02*
D03*
X622600D02*
D03*
X616100D02*
D03*
X609600D02*
D03*
X603100D02*
D03*
X596600D02*
D03*
X590100D02*
D03*
X583600D02*
D03*
X572600Y287987D02*
D03*
Y281488D02*
D03*
Y274987D02*
D03*
X632350Y278237D02*
D03*
X625850D02*
D03*
X619350D02*
D03*
X612850D02*
D03*
X606350D02*
D03*
X599850D02*
D03*
X593350D02*
D03*
X586850D02*
D03*
Y284737D02*
D03*
X593350D02*
D03*
X599850D02*
D03*
X606350D02*
D03*
X612850D02*
D03*
X619350D02*
D03*
X625850D02*
D03*
X632350D02*
D03*
X612850Y292487D02*
D03*
X586850Y270487D02*
D03*
X593350Y292487D02*
D03*
D227*
X644600Y335987D02*
D03*
X574600D02*
D03*
X644600Y265988D02*
D03*
Y296987D02*
D03*
X574600D02*
D03*
Y265988D02*
D03*
D228*
X95410Y173009D02*
D03*
X109778Y187377D02*
D03*
X124147Y201746D02*
D03*
X138515Y216114D02*
D03*
X181620Y259219D02*
D03*
X167252Y244851D02*
D03*
X152884Y230483D02*
D03*
X349267Y149680D02*
D03*
X334898Y135312D02*
D03*
X320530Y120943D02*
D03*
X306162Y106575D02*
D03*
X291793Y92206D02*
D03*
X277425Y77838D02*
D03*
X263056Y63470D02*
D03*
X248688Y49101D02*
D03*
X234320Y34733D02*
D03*
X210357Y287956D02*
D03*
X195989Y273588D02*
D03*
D229*
X95842Y149324D02*
D03*
X233966Y288386D02*
D03*
X320177Y202176D02*
D03*
X248335Y274018D02*
D03*
X305808Y216544D02*
D03*
X262703Y259649D02*
D03*
X277071Y245281D02*
D03*
X291440Y230912D02*
D03*
X334545Y187807D02*
D03*
X348913Y173439D02*
D03*
X210789Y34377D02*
D03*
X196421Y48745D02*
D03*
X182053Y63114D02*
D03*
X167684Y77482D02*
D03*
X153316Y91851D02*
D03*
X138947Y106219D02*
D03*
X124579Y120587D02*
D03*
X110211Y134956D02*
D03*
D230*
X552750Y91070D02*
D03*
Y105570D02*
D03*
X595930Y60590D02*
D03*
Y75090D02*
D03*
D231*
X241003Y27867D02*
D03*
X255806Y42144D02*
D03*
X329370Y112215D02*
D03*
X343200Y127089D02*
D03*
D232*
X584840Y158010D02*
D03*
X563840Y167560D02*
D03*
Y148460D02*
D03*
D233*
X581960Y96210D02*
D03*
X591560Y118210D02*
D03*
X572360D02*
D03*
D234*
X201425Y297473D02*
D03*
X196617Y302281D02*
D03*
D236*
X55320Y143510D02*
D03*
X69620D02*
D03*
D237*
X602440Y227330D02*
D03*
X545640Y201930D02*
D03*
Y214630D02*
D03*
X602440Y201930D02*
D03*
Y214630D02*
D03*
Y189230D02*
D03*
X545640Y227330D02*
D03*
Y189230D02*
D03*
D239*
X51952Y233600D02*
D03*
D240*
X37730Y272419D02*
D03*
D241*
X20231Y210740D02*
D03*
X43231D02*
D03*
D242*
X683025Y68160D02*
D03*
Y142660D02*
D03*
D243*
X649525Y86660D02*
D03*
Y99160D02*
D03*
Y111660D02*
D03*
Y124160D02*
D03*
D244*
X649870Y214390D02*
D03*
Y204390D02*
D03*
Y194390D02*
D03*
Y184390D02*
D03*
D245*
X688620Y227390D02*
D03*
Y171390D02*
D03*
D246*
X392510Y326390D02*
D03*
X402510D02*
D03*
D247*
X461010Y295990D02*
D03*
Y305990D02*
D03*
D277*
X585336Y221576D02*
D03*
X562745D02*
D03*
D278*
X585336Y208279D02*
D03*
Y194984D02*
D03*
X562745Y208279D02*
D03*
Y194984D02*
D03*
D279*
X574040Y221576D02*
D03*
D280*
Y208279D02*
D03*
Y194984D02*
D03*
D281*
X37627Y143771D02*
D03*
M02*
