G04*
G04 #@! TF.GenerationSoftware,Altium Limited,Altium Designer,26.9.1 (10)*
G04*
G04 Layer_Physical_Order=3*
G04 Layer_Color=36540*
G04 Board_Origin=10000000|10000000*
%FSLAX44Y44*%
%MOMM*%
G71*
G04*
G04 #@! TF.SameCoordinates,4D60E3E7-F363-4ECC-824F-F87D10AF92CA*
G04*
G04*
G04 #@! TF.FilePolarity,Positive*
G04*
G01*
G75*
%ADD10C,0.1000*%
%ADD11C,0.2000*%
%ADD15C,0.2000*%
%ADD17C,0.1500*%
%ADD18C,0.1200*%
%ADD53C,0.2260*%
%ADD79C,0.1690*%
%ADD160C,2.0000*%
%ADD167C,0.1460*%
%ADD169C,0.3000*%
%ADD178R,1.5240X1.5240*%
%ADD179C,1.5240*%
%ADD180C,0.6500*%
%ADD181C,0.7500*%
%ADD182C,0.6200*%
%ADD183C,1.9000*%
%ADD184R,1.9000X1.9000*%
%ADD185R,1.5000X1.5000*%
%ADD186C,1.5000*%
%ADD187O,1.8000X1.0000*%
%ADD188O,2.2000X1.0000*%
%ADD189R,0.8500X0.8500*%
%ADD190C,0.8500*%
%ADD191C,5.5000*%
%ADD192C,0.3000*%
%ADD193C,0.4000*%
%ADD194C,0.5000*%
%ADD195C,0.6000*%
%ADD196C,0.2500*%
%ADD217C,0.1500*%
G36*
X304620Y326161D02*
X304655Y326152D01*
X304707Y326144D01*
X304862Y326133D01*
X305377Y326120D01*
X305548Y326120D01*
Y324120D01*
X304601Y324070D01*
Y326170D01*
X304620Y326161D01*
D02*
G37*
G36*
X304212Y323784D02*
X304188Y323763D01*
X304166Y323725D01*
X304146Y323670D01*
X304129Y323599D01*
X304115Y323511D01*
X304094Y323287D01*
X304084Y322996D01*
X304082Y322825D01*
X302082Y322788D01*
X302208Y324411D01*
X304212Y323784D01*
D02*
G37*
G36*
X271569Y316680D02*
X270084Y315195D01*
X270078Y315215D01*
X270059Y315246D01*
X270028Y315288D01*
X269926Y315407D01*
X269571Y315779D01*
X269450Y315900D01*
X270864Y317314D01*
X271569Y316680D01*
D02*
G37*
G36*
X267791Y309085D02*
X267826Y309076D01*
X267878Y309069D01*
X268034Y309057D01*
X268548Y309045D01*
X268719Y309044D01*
Y307044D01*
X267772Y306994D01*
Y309094D01*
X267791Y309085D01*
D02*
G37*
G36*
X519430Y349686D02*
Y303256D01*
X497565D01*
X496394Y303023D01*
X495402Y302360D01*
X492761Y299719D01*
X474742D01*
X464959Y309503D01*
X463966Y310166D01*
X462796Y310399D01*
X462796Y310399D01*
X403857D01*
X386973Y327283D01*
X385981Y327946D01*
X384810Y328179D01*
X384810Y328179D01*
X305291D01*
X304226Y328620D01*
X303004D01*
X302834Y328620D01*
X302463Y329544D01*
X302626Y329611D01*
X302993Y329763D01*
X303977Y330748D01*
X304510Y332034D01*
Y333427D01*
X303977Y334713D01*
X302993Y335698D01*
X301706Y336230D01*
X300314D01*
X299028Y335698D01*
X298043Y334713D01*
X297510Y333427D01*
Y332034D01*
X298043Y330748D01*
X299028Y329763D01*
X300314Y329230D01*
X301536D01*
X301706Y329230D01*
X302077Y328307D01*
X301914Y328239D01*
X301547Y328087D01*
X300563Y327103D01*
X300030Y325816D01*
Y324705D01*
X300024Y324672D01*
X300024Y324672D01*
Y322349D01*
X295733Y318059D01*
X284456D01*
X283285Y317826D01*
X282293Y317163D01*
X282293Y317163D01*
X276233Y311103D01*
X273500D01*
X273301Y312103D01*
X273567Y312213D01*
X274551Y313198D01*
X275084Y314484D01*
Y315877D01*
X274551Y317163D01*
X273567Y318148D01*
X272502Y318589D01*
X271349Y319741D01*
X270357Y320404D01*
X269186Y320637D01*
X269186Y320637D01*
X236298D01*
X235128Y320404D01*
X234135Y319741D01*
X211173Y296778D01*
X210107Y296337D01*
X209123Y295353D01*
X208590Y294066D01*
Y292674D01*
X209123Y291387D01*
X210107Y290403D01*
X211394Y289870D01*
X212786D01*
X214073Y290403D01*
X215057Y291387D01*
X215498Y292453D01*
X237565Y314520D01*
X267919D01*
X268176Y314263D01*
X268617Y313198D01*
X269602Y312213D01*
X269867Y312103D01*
X269668Y311103D01*
X268463D01*
X267397Y311544D01*
X266005D01*
X264718Y311012D01*
X263734Y310027D01*
X263201Y308741D01*
Y307348D01*
X263734Y306062D01*
X264718Y305077D01*
X266005Y304544D01*
X267397D01*
X268463Y304986D01*
X277500D01*
X277500Y304986D01*
X278671Y305219D01*
X279663Y305882D01*
X285723Y311941D01*
X291756D01*
X291986Y311083D01*
X291992Y310941D01*
X291033Y309983D01*
X290500Y308696D01*
Y307910D01*
X289247D01*
X287960Y307377D01*
X286976Y306392D01*
X286443Y305106D01*
Y303714D01*
X286276Y303464D01*
X237160D01*
X236087Y303250D01*
X235177Y302642D01*
X209962Y277427D01*
X157822D01*
X154680Y280570D01*
Y280801D01*
X154147Y282087D01*
X153162Y283072D01*
X151876Y283605D01*
X150484D01*
X149197Y283072D01*
X148213Y282087D01*
X147680Y280801D01*
Y279408D01*
X148213Y278122D01*
X149197Y277137D01*
X150484Y276605D01*
X150715D01*
X154678Y272641D01*
X155588Y272033D01*
X156661Y271820D01*
X211124D01*
X212197Y272033D01*
X213106Y272641D01*
X238321Y297856D01*
X251600D01*
X251980Y296856D01*
X251500Y295696D01*
Y294304D01*
X252033Y293017D01*
X253017Y292033D01*
X254304Y291500D01*
X255530D01*
Y290274D01*
X256063Y288987D01*
X257047Y288003D01*
X258334Y287470D01*
X259726D01*
X261013Y288003D01*
X261997Y288987D01*
X262530Y290274D01*
Y291550D01*
X263806D01*
X265093Y292083D01*
X266077Y293067D01*
X266610Y294354D01*
Y295746D01*
X266150Y296856D01*
X266560Y297856D01*
X349341D01*
X360890Y286307D01*
X361800Y285700D01*
X362873Y285486D01*
X380124D01*
X380287Y285323D01*
X381574Y284790D01*
X382966D01*
X384253Y285323D01*
X385237Y286307D01*
X385770Y287594D01*
Y288986D01*
X385237Y290273D01*
X384253Y291257D01*
X382966Y291790D01*
X381574D01*
X380287Y291257D01*
X380124Y291094D01*
X364034D01*
X352486Y302642D01*
X351576Y303250D01*
X350503Y303464D01*
X294630D01*
X293916Y304464D01*
X293929Y304500D01*
X294696D01*
X295983Y305033D01*
X296967Y306017D01*
X297500Y307304D01*
Y308696D01*
X296967Y309983D01*
X296008Y310941D01*
X296014Y311083D01*
X296244Y311941D01*
X297000D01*
X297000Y311941D01*
X298171Y312174D01*
X299163Y312837D01*
X305245Y318920D01*
X305908Y319912D01*
X306141Y321082D01*
X306141Y321082D01*
Y322061D01*
X383543D01*
X400427Y305177D01*
X400427Y305177D01*
X401419Y304514D01*
X402590Y304281D01*
X461529D01*
X471312Y294498D01*
X471312Y294497D01*
X472305Y293834D01*
X473475Y293601D01*
X494028D01*
X494028Y293601D01*
X495199Y293834D01*
X496191Y294497D01*
X498831Y297138D01*
X573746D01*
X578488Y292396D01*
X578488Y292396D01*
X578683Y292266D01*
X578380Y291266D01*
X573564D01*
X571416Y293414D01*
X571408Y293453D01*
X570745Y294446D01*
X569753Y295109D01*
X568582Y295342D01*
X504889D01*
X503718Y295109D01*
X502726Y294446D01*
X502726Y294446D01*
X499629Y291349D01*
X471683D01*
X468769Y294263D01*
X467776Y294926D01*
X466606Y295159D01*
X466606Y295159D01*
X400050D01*
X400050Y295159D01*
X398880Y294926D01*
X397887Y294263D01*
X397887Y294263D01*
X386083Y282459D01*
X357866D01*
X345162Y295163D01*
X344169Y295826D01*
X342999Y296059D01*
X342999Y296059D01*
X273950D01*
X272780Y295826D01*
X271787Y295163D01*
X161667Y185043D01*
X161004Y184051D01*
X160771Y182880D01*
X160771Y182880D01*
Y124457D01*
X148967Y112653D01*
X148304Y111660D01*
X148071Y110490D01*
X148071Y110490D01*
Y95741D01*
X147630Y94676D01*
Y93284D01*
X148163Y91997D01*
X149147Y91013D01*
X150434Y90480D01*
X151826D01*
X153113Y91013D01*
X154097Y91997D01*
X154630Y93284D01*
Y94676D01*
X154189Y95741D01*
Y109223D01*
X165993Y121027D01*
X165993Y121027D01*
X166656Y122020D01*
X166889Y123190D01*
X166889Y123190D01*
Y181613D01*
X275217Y289941D01*
X291786D01*
X292016Y289083D01*
X292022Y288941D01*
X291063Y287983D01*
X290530Y286696D01*
Y285304D01*
X291063Y284017D01*
X292047Y283033D01*
X293334Y282500D01*
X294726D01*
X296013Y283033D01*
X296997Y284017D01*
X297530Y285304D01*
Y286696D01*
X296997Y287983D01*
X296038Y288941D01*
X296044Y289083D01*
X296274Y289941D01*
X341732D01*
X354436Y277237D01*
X354436Y277237D01*
X355428Y276574D01*
X356599Y276341D01*
X356599Y276341D01*
X387350D01*
X387350Y276341D01*
X388521Y276574D01*
X389513Y277237D01*
X401317Y289041D01*
X465339D01*
X468253Y286127D01*
X469245Y285464D01*
X470416Y285231D01*
X470416Y285231D01*
X500896D01*
X500896Y285231D01*
X502066Y285464D01*
X503059Y286127D01*
X506156Y289224D01*
X511079D01*
X511378Y288593D01*
X511383Y288224D01*
X510917Y287913D01*
X510917Y287913D01*
X500122Y277117D01*
X422649D01*
X421478Y276885D01*
X420486Y276222D01*
X420486Y276221D01*
X408266Y264001D01*
X340416D01*
X339246Y263769D01*
X338253Y263106D01*
X338253Y263105D01*
X302637Y227489D01*
X301974Y226497D01*
X301741Y225326D01*
X301741Y225326D01*
Y204961D01*
X301300Y203896D01*
Y202504D01*
X301833Y201217D01*
X302817Y200233D01*
X304104Y199700D01*
X305496D01*
X306783Y200233D01*
X307767Y201217D01*
X308300Y202504D01*
Y203896D01*
X307859Y204961D01*
Y224059D01*
X341683Y257884D01*
X409533D01*
X409533Y257884D01*
X410703Y258117D01*
X411696Y258780D01*
X423916Y271000D01*
X501389D01*
X501389Y271000D01*
X502559Y271233D01*
X503551Y271896D01*
X514347Y282691D01*
X520167D01*
X520582Y281691D01*
X520273Y281383D01*
X519832Y280317D01*
X506733Y267219D01*
X481330D01*
X480159Y266986D01*
X479167Y266323D01*
X478333Y265489D01*
X452762D01*
X451592Y265256D01*
X450600Y264593D01*
X438527Y252520D01*
X437864Y251528D01*
X437631Y250357D01*
X437631Y250357D01*
Y241297D01*
X424055Y227721D01*
X423392Y226729D01*
X423159Y225558D01*
X423159Y225558D01*
Y201464D01*
X423159Y201464D01*
X423392Y200293D01*
X424055Y199301D01*
X429871Y193485D01*
X430863Y192822D01*
X432034Y192589D01*
X432034Y192589D01*
X438314D01*
X439380Y192148D01*
X440772D01*
X442058Y192681D01*
X443043Y193665D01*
X443576Y194952D01*
Y196344D01*
X443043Y197631D01*
X442058Y198615D01*
X440772Y199148D01*
X439380D01*
X438314Y198707D01*
X433301D01*
X429277Y202731D01*
Y224291D01*
X442853Y237867D01*
X443516Y238860D01*
X443749Y240030D01*
Y249090D01*
X454030Y259371D01*
X479600D01*
X479600Y259371D01*
X480770Y259604D01*
X480985Y259747D01*
X481017Y259725D01*
X481679Y259008D01*
X481233Y257933D01*
Y256541D01*
X481766Y255254D01*
X482178Y254842D01*
X481799Y254463D01*
X481266Y253176D01*
Y251784D01*
X481799Y250498D01*
X482784Y249513D01*
X484070Y248980D01*
X485462D01*
X486749Y249513D01*
X487161Y249925D01*
X487540Y249546D01*
X488827Y249013D01*
X490219D01*
X491506Y249546D01*
X492490Y250531D01*
X493023Y251817D01*
Y253209D01*
X492490Y254496D01*
X492078Y254908D01*
X492457Y255287D01*
X492990Y256574D01*
Y257966D01*
X492457Y259253D01*
X491609Y260101D01*
X491732Y260744D01*
X491915Y261101D01*
X508000D01*
X508000Y261101D01*
X509170Y261334D01*
X510163Y261997D01*
X524157Y275992D01*
X525223Y276433D01*
X526207Y277417D01*
X526740Y278704D01*
Y280096D01*
X526207Y281383D01*
X525899Y281691D01*
X526313Y282691D01*
X564230D01*
X564867Y281950D01*
X564666Y281246D01*
X564518Y281041D01*
X563988D01*
X562915Y280828D01*
X562005Y280220D01*
X560434Y278649D01*
X541020D01*
X541020Y278649D01*
X539850Y278416D01*
X538857Y277753D01*
X505532Y244428D01*
X471294D01*
X471294Y244428D01*
X470123Y244195D01*
X469131Y243532D01*
X469131Y243532D01*
X447247Y221648D01*
X446584Y220656D01*
X446351Y219485D01*
X446351Y219485D01*
Y192039D01*
X426281Y171969D01*
X423742D01*
X423741Y171969D01*
X422571Y171736D01*
X421579Y171073D01*
X421579Y171073D01*
X394990Y144484D01*
X394314Y144204D01*
X393329Y143219D01*
X392796Y141933D01*
Y140541D01*
X393329Y139254D01*
X394314Y138270D01*
X395600Y137737D01*
X396992D01*
X398279Y138270D01*
X399263Y139254D01*
X399796Y140541D01*
Y140639D01*
X425009Y165851D01*
X427548D01*
X427548Y165851D01*
X428718Y166084D01*
X429711Y166747D01*
X451573Y188609D01*
X452236Y189601D01*
X452469Y190772D01*
X452469Y190772D01*
Y218218D01*
X472561Y238310D01*
X506799D01*
X506799Y238310D01*
X507970Y238543D01*
X508962Y239206D01*
X542287Y272531D01*
X561340D01*
X562510Y272764D01*
X563503Y273427D01*
X564166Y274419D01*
X564174Y274458D01*
X565149Y275434D01*
X569969D01*
X570272Y274434D01*
X569538Y273943D01*
X558185Y262590D01*
X549433D01*
X548262Y262357D01*
X547270Y261694D01*
X547270Y261694D01*
X545186Y259610D01*
X545186Y259610D01*
X504534Y218959D01*
X495300D01*
X495300Y218959D01*
X494129Y218726D01*
X493137Y218063D01*
X482046Y206972D01*
X476424D01*
X476423Y206972D01*
X475253Y206739D01*
X474261Y206076D01*
X474261Y206076D01*
X427284Y159100D01*
X426219Y158658D01*
X425235Y157674D01*
X424702Y156387D01*
Y154995D01*
X425235Y153709D01*
X426219Y152724D01*
X427505Y152191D01*
X428898D01*
X430184Y152724D01*
X431169Y153709D01*
X431610Y154774D01*
X477691Y200854D01*
X483313D01*
X483313Y200854D01*
X484484Y201087D01*
X485476Y201750D01*
X496567Y212841D01*
X505801D01*
X505801Y212841D01*
X506972Y213074D01*
X507964Y213737D01*
X549512Y255285D01*
X549512Y255285D01*
X550700Y256472D01*
X559452D01*
X559452Y256472D01*
X560622Y256705D01*
X561615Y257368D01*
X573223Y268976D01*
X579299D01*
X579633Y267992D01*
X579160Y267483D01*
X579159Y267483D01*
X578220Y266077D01*
X577890Y264419D01*
X577274Y263802D01*
X575616Y263472D01*
X574210Y262533D01*
X574210Y262533D01*
X574210Y262533D01*
X573270Y261127D01*
X572940Y259469D01*
X573270Y257811D01*
X573031Y257233D01*
X572134Y257055D01*
X570728Y256115D01*
X570728Y256115D01*
X570752Y256091D01*
X568670Y254009D01*
X567736D01*
X566761Y253815D01*
X565934Y253262D01*
X565270Y252599D01*
X555434D01*
X554459Y252405D01*
X553632Y251852D01*
X537038Y235258D01*
X536485Y234431D01*
X536291Y233456D01*
Y221611D01*
X536220Y221500D01*
X535873Y221153D01*
X535340Y219866D01*
Y218474D01*
X535873Y217187D01*
X536857Y216203D01*
X538144Y215670D01*
X539536D01*
X540823Y216203D01*
X541807Y217187D01*
X542340Y218474D01*
Y219866D01*
X541807Y221153D01*
X541460Y221500D01*
X541389Y221611D01*
Y232400D01*
X556490Y247501D01*
X566326D01*
X567302Y247695D01*
X568129Y248248D01*
X568792Y248911D01*
X569726D01*
X570702Y249105D01*
X571529Y249658D01*
X573792Y251921D01*
X574818Y250895D01*
X574818Y250895D01*
X574794Y250871D01*
X576200Y249931D01*
X577858Y249602D01*
X579516Y249931D01*
X580922Y250871D01*
X580922Y250871D01*
X580922Y250871D01*
X581861Y252277D01*
X582146Y253708D01*
X582271Y253759D01*
X583929Y253430D01*
X585588Y253759D01*
X586994Y254699D01*
X586994Y254699D01*
X586994Y254699D01*
X587933Y256105D01*
X588209Y257493D01*
X588614Y258028D01*
X589149Y258433D01*
X590537Y258709D01*
X591943Y259648D01*
X591943Y259648D01*
X591943Y259648D01*
X592883Y261054D01*
X593213Y262712D01*
X592883Y264371D01*
X591943Y265777D01*
X591919Y265752D01*
X589771Y267900D01*
X590684Y268813D01*
X590807Y268788D01*
X591650Y267944D01*
X592753Y267487D01*
X593946D01*
X595035Y267938D01*
X600983D01*
X601958Y268132D01*
X602785Y268685D01*
X604410Y270310D01*
X605537Y270144D01*
X605737Y269692D01*
X595295Y259250D01*
X595295Y259250D01*
X592558Y256512D01*
X592005Y255685D01*
X591811Y254710D01*
Y250960D01*
X591772D01*
X592121Y249204D01*
X592586Y248509D01*
X592051Y247509D01*
X586360D01*
Y247548D01*
X584604Y247199D01*
X583116Y246204D01*
X582121Y244716D01*
X581772Y242960D01*
X582121Y241204D01*
X583116Y239716D01*
X583498Y239460D01*
Y238460D01*
X583116Y238204D01*
X582121Y236716D01*
X581772Y234960D01*
X582121Y233204D01*
X583116Y231716D01*
X584604Y230721D01*
X586360Y230372D01*
Y230372D01*
X587330Y230300D01*
X587806Y229411D01*
X587341Y228716D01*
X586992Y226960D01*
X587341Y225204D01*
X588336Y223716D01*
X589824Y222721D01*
X591580Y222372D01*
X591811Y221467D01*
Y220980D01*
X592005Y220005D01*
X592558Y219178D01*
X593879Y217856D01*
X593879Y217856D01*
X594641Y217094D01*
X594670Y216965D01*
Y216474D01*
X595203Y215187D01*
X596187Y214203D01*
X597474Y213670D01*
X598866D01*
X600153Y214203D01*
X601137Y215187D01*
X601670Y216474D01*
Y217866D01*
X601137Y219153D01*
X600153Y220137D01*
X598866Y220670D01*
X598375D01*
X598246Y220699D01*
X597484Y221461D01*
X597484Y221461D01*
X596974Y221971D01*
X596948Y222960D01*
X596948D01*
X596599Y224716D01*
X596134Y225411D01*
X596669Y226411D01*
X602360D01*
Y226372D01*
X604116Y226721D01*
X605604Y227716D01*
X606599Y229204D01*
X606948Y230960D01*
X606599Y232716D01*
X605604Y234204D01*
X604838Y234716D01*
X604534Y235716D01*
X605529Y237204D01*
X605878Y238960D01*
X605652Y240098D01*
X606528Y240817D01*
X606576Y240798D01*
X607869D01*
X609063Y241292D01*
X609606Y241835D01*
X610606Y241421D01*
Y220871D01*
X588987Y199252D01*
X588379Y198342D01*
X588166Y197269D01*
Y193786D01*
X566459Y172079D01*
X465150D01*
X464077Y171866D01*
X463168Y171258D01*
X459154Y167244D01*
X458923D01*
X457637Y166712D01*
X456652Y165727D01*
X456120Y164441D01*
Y163048D01*
X456652Y161762D01*
X457637Y160777D01*
X458923Y160245D01*
X460316D01*
X461602Y160777D01*
X462587Y161762D01*
X463120Y163048D01*
Y163279D01*
X466312Y166471D01*
X567620D01*
X568693Y166685D01*
X569603Y167293D01*
X587881Y185571D01*
X588803Y185079D01*
X588652Y184319D01*
Y169819D01*
X583687Y164854D01*
X470604D01*
X469531Y164641D01*
X468621Y164033D01*
X431562Y126973D01*
X430954Y126064D01*
X430741Y124991D01*
Y106078D01*
X430587Y105924D01*
X430054Y104637D01*
Y103245D01*
X430587Y101958D01*
X431571Y100974D01*
X432858Y100441D01*
X434250D01*
X435536Y100974D01*
X436521Y101958D01*
X437054Y103245D01*
Y104637D01*
X436521Y105924D01*
X436348Y106096D01*
Y123829D01*
X471766Y159247D01*
X584848D01*
X585921Y159460D01*
X586831Y160068D01*
X593438Y166675D01*
X594046Y167585D01*
X594259Y168658D01*
Y183157D01*
X600177Y189075D01*
X600785Y189984D01*
X600998Y191057D01*
Y195713D01*
X620393Y215107D01*
X621000Y216017D01*
X621214Y217090D01*
Y256641D01*
X621339Y256771D01*
X623210Y258643D01*
X624417Y258675D01*
X627108Y255984D01*
X627108Y255984D01*
X628858Y254234D01*
X629685Y253681D01*
X630661Y253487D01*
X631824D01*
X632709Y253210D01*
X633039Y251552D01*
X633426Y250972D01*
X633013Y250062D01*
X632212Y249956D01*
X630378Y249196D01*
X628802Y247988D01*
X627594Y246413D01*
X626834Y244578D01*
X626742Y243880D01*
X638180D01*
Y242610D01*
X639450D01*
Y235005D01*
X641499D01*
X641736Y234483D01*
X641805Y234005D01*
X640923Y233123D01*
X640390Y231836D01*
Y230444D01*
X640923Y229157D01*
X640982Y229098D01*
X640923Y229039D01*
X640390Y227752D01*
Y227638D01*
X640263Y227553D01*
X638870D01*
X637584Y227020D01*
X636599Y226035D01*
X636066Y224749D01*
Y223357D01*
X636599Y222070D01*
X637584Y221086D01*
X638870Y220553D01*
X640263D01*
X641039Y220874D01*
X641907Y220005D01*
X643194Y219473D01*
X644586D01*
X645873Y220005D01*
X646857Y220990D01*
X647171Y221748D01*
X648171Y221549D01*
Y219976D01*
X644614Y216419D01*
X643488D01*
X641933Y217974D01*
X641975Y218016D01*
X640143Y219240D01*
X637981Y219670D01*
X635819Y219240D01*
X633987Y218016D01*
X633987Y218016D01*
X633987Y218016D01*
X633987Y218016D01*
X633463Y217232D01*
X632762Y216183D01*
X632332Y214022D01*
X632762Y211860D01*
X633764Y210361D01*
X633043Y209640D01*
X631544Y210642D01*
X629382Y211072D01*
X627221Y210642D01*
X626214Y209969D01*
X626172Y209941D01*
X625388Y209417D01*
X625388Y209417D01*
X624164Y207585D01*
X623734Y205423D01*
X624164Y203262D01*
X625388Y201429D01*
X625388Y201429D01*
X626138Y200764D01*
X626503Y200399D01*
X626088Y199399D01*
X620816D01*
X620749Y199466D01*
X620720Y199595D01*
Y200086D01*
X620187Y201373D01*
X619203Y202357D01*
X617916Y202890D01*
X616524D01*
X615237Y202357D01*
X614253Y201373D01*
X613720Y200086D01*
Y198694D01*
X614253Y197407D01*
X615237Y196423D01*
X616524Y195890D01*
X617015D01*
X617144Y195861D01*
X617958Y195048D01*
X618785Y194495D01*
X619760Y194301D01*
X628650D01*
X629626Y194495D01*
X630452Y195048D01*
X630806Y195401D01*
X630848Y195359D01*
X632073Y197192D01*
X632503Y199353D01*
X632073Y201515D01*
X631069Y203017D01*
X631846Y203654D01*
X634668Y200832D01*
X634668Y200832D01*
X634626Y200790D01*
X636458Y199566D01*
X638620Y199136D01*
X640781Y199566D01*
X642614Y200790D01*
X642614Y200790D01*
X643137Y201573D01*
X643166Y201617D01*
X643838Y202623D01*
X644268Y204784D01*
X643838Y206946D01*
X642614Y208778D01*
X642572Y208736D01*
X639749Y211559D01*
X640387Y212335D01*
X641889Y211332D01*
X644051Y210902D01*
X646212Y211332D01*
X648045Y212556D01*
X648003Y212598D01*
X651037Y215632D01*
X651961Y215250D01*
Y205999D01*
X604700Y158738D01*
X604092Y157829D01*
X603879Y156756D01*
Y130185D01*
X590538Y116845D01*
X577991D01*
X569663Y125173D01*
X568753Y125780D01*
X567680Y125994D01*
X530751D01*
X515063Y141683D01*
X514153Y142290D01*
X513080Y142504D01*
X504053D01*
X498376Y148181D01*
X497466Y148789D01*
X496393Y149002D01*
X473010D01*
X471937Y148789D01*
X471027Y148181D01*
X445057Y122211D01*
X444450Y121301D01*
X444236Y120228D01*
Y106003D01*
X431352Y93119D01*
X390395D01*
X349804Y133711D01*
Y150801D01*
X368762Y169759D01*
X369370Y170669D01*
X369583Y171742D01*
Y185068D01*
X369370Y186141D01*
X368762Y187051D01*
X364818Y190994D01*
X363909Y191602D01*
X362836Y191815D01*
X358880D01*
X358024Y192755D01*
X358042Y193032D01*
X358567Y193557D01*
X359100Y194844D01*
Y196236D01*
X358567Y197523D01*
X357583Y198507D01*
X356296Y199040D01*
X354904D01*
X353617Y198507D01*
X352633Y197523D01*
X352100Y196236D01*
Y194844D01*
X352633Y193557D01*
X353456Y192734D01*
X353614Y192518D01*
X353548Y191519D01*
X353022Y190994D01*
X352490Y189708D01*
Y188315D01*
X353022Y187029D01*
X354007Y186044D01*
X355294Y185511D01*
X356686D01*
X357972Y186044D01*
X358136Y186208D01*
X361674D01*
X363975Y183907D01*
Y172903D01*
X345017Y153945D01*
X344410Y153035D01*
X344196Y151962D01*
Y132549D01*
X344410Y131476D01*
X345017Y130567D01*
X387251Y88333D01*
X388161Y87725D01*
X389234Y87511D01*
X432514D01*
X433587Y87725D01*
X434496Y88333D01*
X449023Y102859D01*
X449630Y103769D01*
X449844Y104841D01*
Y119067D01*
X474171Y143394D01*
X495232D01*
X500909Y137717D01*
X501819Y137110D01*
X502892Y136896D01*
X511919D01*
X527607Y121207D01*
X528517Y120600D01*
X529590Y120386D01*
X566519D01*
X574847Y112058D01*
X575756Y111450D01*
X576829Y111237D01*
X591700D01*
X592773Y111450D01*
X593683Y112058D01*
X608665Y127041D01*
X609273Y127950D01*
X609487Y129024D01*
Y155594D01*
X656493Y202600D01*
X657101Y203510D01*
X657314Y204583D01*
X657101Y205656D01*
X657068Y205704D01*
X657059Y206175D01*
Y222048D01*
X657983Y222431D01*
X660073Y220341D01*
Y183224D01*
X651996Y175147D01*
X651333Y174155D01*
X651100Y172984D01*
X651100Y172984D01*
Y92484D01*
X626604Y67988D01*
X625463Y68042D01*
X624681Y68824D01*
X623395Y69357D01*
X622002D01*
X620716Y68824D01*
X620674Y68782D01*
X620632Y68824D01*
X619345Y69357D01*
X617953D01*
X616666Y68824D01*
X616624Y68782D01*
X616582Y68824D01*
X615296Y69357D01*
X613903D01*
X612617Y68824D01*
X612575Y68782D01*
X612533Y68824D01*
X611246Y69357D01*
X609854D01*
X608568Y68824D01*
X607583Y67840D01*
X607050Y66553D01*
Y65161D01*
X607583Y63875D01*
X608568Y62890D01*
X609854Y62357D01*
X611246D01*
X612533Y62890D01*
X612575Y62932D01*
X612617Y62890D01*
X613903Y62357D01*
X615296D01*
X616582Y62890D01*
X616624Y62932D01*
X616666Y62890D01*
X617953Y62357D01*
X619345D01*
X619710Y62508D01*
X620277Y61661D01*
X615341Y56725D01*
X545201D01*
X524239Y77687D01*
X523247Y78350D01*
X522076Y78583D01*
X522076Y78583D01*
X418466D01*
X417295Y78350D01*
X416303Y77687D01*
X416303Y77687D01*
X412795Y74179D01*
X354327D01*
X305319Y123187D01*
Y162041D01*
X312239D01*
X312239Y162041D01*
X313410Y162274D01*
X314402Y162937D01*
X324397Y172932D01*
X324397Y172932D01*
X325060Y173924D01*
X325293Y175095D01*
Y182537D01*
X329847Y187092D01*
X330913Y187533D01*
X331897Y188517D01*
X332430Y189804D01*
Y191196D01*
X331897Y192483D01*
X330913Y193467D01*
X329626Y194000D01*
X328234D01*
X326947Y193467D01*
X325963Y192483D01*
X325522Y191417D01*
X320071Y185967D01*
X319408Y184975D01*
X319175Y183804D01*
X319175Y183804D01*
Y176362D01*
X310972Y168159D01*
X304021D01*
X302956Y168600D01*
X301564D01*
X300277Y168067D01*
X299293Y167083D01*
X298760Y165796D01*
Y164404D01*
X299201Y163339D01*
Y121920D01*
X299201Y121920D01*
X299434Y120750D01*
X300097Y119757D01*
X350897Y68957D01*
X351889Y68294D01*
X353060Y68061D01*
X414062D01*
X414062Y68061D01*
X415233Y68294D01*
X416225Y68957D01*
X419733Y72465D01*
X520809D01*
X541771Y51504D01*
X541771Y51504D01*
X542763Y50841D01*
X543934Y50608D01*
X543934Y50608D01*
X616608D01*
X616609Y50608D01*
X617779Y50841D01*
X618771Y51504D01*
X656322Y89054D01*
X656985Y90047D01*
X657218Y91217D01*
X657218Y91217D01*
Y171717D01*
X665294Y179794D01*
X665957Y180786D01*
X666190Y181957D01*
Y221248D01*
X665957Y222418D01*
X665294Y223410D01*
X664302Y224073D01*
X664263Y224081D01*
X661354Y226990D01*
Y232966D01*
X662278Y233349D01*
X671677Y223949D01*
Y179860D01*
X659507Y167690D01*
X658844Y166698D01*
X658611Y165527D01*
X658611Y165527D01*
Y126247D01*
Y80523D01*
X623707Y45618D01*
X538164D01*
X516620Y67163D01*
X515627Y67826D01*
X514457Y68059D01*
X514457Y68059D01*
X437110D01*
X435939Y67826D01*
X434947Y67163D01*
X429263Y61479D01*
X346707D01*
X271606Y136579D01*
X271517Y136691D01*
X271396Y136870D01*
X271294Y137049D01*
X271209Y137232D01*
X271140Y137421D01*
X271085Y137620D01*
X271045Y137831D01*
X271029Y137974D01*
Y156213D01*
X300035Y185219D01*
X310197D01*
X310198Y185219D01*
X311368Y185452D01*
X312360Y186115D01*
X323847Y197601D01*
X333488D01*
X338280Y192808D01*
Y189962D01*
X337007Y188689D01*
X336344Y187697D01*
X336111Y186527D01*
X336111Y186527D01*
Y182638D01*
X335670Y181572D01*
Y180180D01*
X336203Y178893D01*
X337188Y177909D01*
X338474Y177376D01*
X339866D01*
X341153Y177909D01*
X342137Y178893D01*
X342670Y180180D01*
Y181572D01*
X342229Y182638D01*
Y185260D01*
X343502Y186532D01*
X343502Y186533D01*
X344165Y187525D01*
X344398Y188696D01*
Y194075D01*
X344398Y194075D01*
X344165Y195246D01*
X343502Y196238D01*
X343502Y196238D01*
X336917Y202823D01*
X335925Y203486D01*
X334754Y203719D01*
X334754Y203719D01*
X322580D01*
X321409Y203486D01*
X320417Y202823D01*
X308930Y191336D01*
X298768D01*
X298768Y191336D01*
X297597Y191103D01*
X296605Y190440D01*
X265807Y159643D01*
X265144Y158651D01*
X264911Y157480D01*
X264911Y157480D01*
Y137974D01*
X264895Y137831D01*
X264855Y137620D01*
X264800Y137421D01*
X264731Y137232D01*
X264646Y137049D01*
X264544Y136870D01*
X264423Y136691D01*
X264334Y136579D01*
X225143Y97388D01*
X224077Y96947D01*
X223093Y95963D01*
X222560Y94676D01*
Y93284D01*
X223093Y91997D01*
X224077Y91013D01*
X225364Y90480D01*
X226756D01*
X228043Y91013D01*
X229027Y91997D01*
X229468Y93063D01*
X267970Y131564D01*
X343277Y56257D01*
X343277Y56257D01*
X344269Y55594D01*
X345440Y55361D01*
X430530D01*
X430530Y55361D01*
X431701Y55594D01*
X432693Y56257D01*
X438377Y61941D01*
X513190D01*
X534735Y40396D01*
X535727Y39733D01*
X536898Y39501D01*
X536898Y39501D01*
X624973D01*
X624974Y39501D01*
X626144Y39733D01*
X627136Y40396D01*
X663833Y77093D01*
X664496Y78085D01*
X664729Y79256D01*
Y126247D01*
Y151966D01*
X665020Y152114D01*
X665729Y152232D01*
X666802Y150832D01*
X668378Y149624D01*
X670212Y148864D01*
X672180Y148605D01*
X676910D01*
Y156210D01*
Y163815D01*
X672180D01*
X670212Y163556D01*
X668378Y162796D01*
X666802Y161588D01*
X665729Y160188D01*
X665020Y160306D01*
X664729Y160454D01*
Y164260D01*
X676899Y176431D01*
X677562Y177423D01*
X677795Y178593D01*
Y224856D01*
X677562Y226026D01*
X676899Y227019D01*
X675907Y227682D01*
X675868Y227689D01*
X668784Y234773D01*
X669351Y235621D01*
X670212Y235264D01*
X672180Y235005D01*
X676910D01*
Y242610D01*
Y250215D01*
X674377D01*
X674109Y251215D01*
X675120Y251799D01*
X676415Y253094D01*
X677331Y254680D01*
X677805Y256448D01*
Y258280D01*
X677331Y260049D01*
X676415Y261635D01*
X675120Y262929D01*
X673534Y263845D01*
X671765Y264319D01*
X670931D01*
X670732Y265319D01*
X671450Y265616D01*
X672434Y266601D01*
X672967Y267887D01*
Y269280D01*
X672434Y270566D01*
X671450Y271551D01*
X670163Y272084D01*
X668771D01*
X667485Y271551D01*
X666500Y270566D01*
X665967Y269280D01*
Y267887D01*
X666500Y266601D01*
X667485Y265616D01*
X668771Y265084D01*
X668923D01*
X669055Y264084D01*
X668165Y263845D01*
X666579Y262929D01*
X666228Y262579D01*
X666105Y262577D01*
X665195Y262959D01*
X664831Y266650D01*
X663640Y270576D01*
X661706Y274194D01*
X659103Y277365D01*
X659103Y277365D01*
X658363Y278039D01*
X649683Y286720D01*
X648773Y287328D01*
X647700Y287541D01*
X641824D01*
X640747Y287987D01*
X639454D01*
X638259Y287493D01*
X637345Y286578D01*
X636850Y285384D01*
Y284091D01*
X637345Y282896D01*
X638193Y282048D01*
X638228Y281487D01*
X638193Y280927D01*
X637345Y280078D01*
X636850Y278884D01*
Y278756D01*
X635850Y278342D01*
X635344Y278848D01*
X634893Y279937D01*
X634049Y280781D01*
X633977Y280811D01*
X633977Y281893D01*
X634191Y281982D01*
X635105Y282896D01*
X635600Y284091D01*
Y285384D01*
X635105Y286578D01*
X634191Y287493D01*
X632996Y287987D01*
X631703D01*
X630509Y287493D01*
X629660Y286644D01*
X629100Y286609D01*
X628540Y286644D01*
X627691Y287493D01*
X626497Y287987D01*
X625204D01*
X624009Y287493D01*
X623095Y286578D01*
X622600Y285384D01*
Y285092D01*
X619605Y282097D01*
X619053Y281270D01*
X618858Y280295D01*
Y277372D01*
X617935Y276989D01*
X615687Y279237D01*
X615672Y279310D01*
X615621Y279387D01*
X615393Y279937D01*
X615183Y280147D01*
X615152Y281531D01*
X621153Y287532D01*
X621705Y288359D01*
X621899Y289334D01*
Y290802D01*
X622350Y291891D01*
Y293084D01*
X622412Y293176D01*
X624126D01*
X625326Y291976D01*
X626153Y291423D01*
X627128Y291229D01*
X646804D01*
X661706Y276328D01*
X662533Y275775D01*
X663508Y275581D01*
X682088D01*
X682200Y275510D01*
X682547Y275163D01*
X683834Y274630D01*
X685226D01*
X686513Y275163D01*
X687497Y276147D01*
X688030Y277434D01*
Y278826D01*
X687497Y280113D01*
X686513Y281097D01*
X685226Y281630D01*
X683834D01*
X682547Y281097D01*
X682200Y280750D01*
X682088Y280679D01*
X664564D01*
X655209Y290034D01*
X655623Y291034D01*
X656859D01*
X658696Y291796D01*
X660103Y293202D01*
X660864Y295040D01*
Y297029D01*
X660103Y298867D01*
X658979Y299990D01*
X659380Y300990D01*
X699770D01*
X700003Y300086D01*
Y21127D01*
X680720Y0D01*
X18167Y3D01*
X-1075Y19245D01*
X-669Y136016D01*
X8Y136739D01*
X333Y136739D01*
X48306D01*
X48779Y137211D01*
X50197Y135793D01*
X72965D01*
X73014Y135743D01*
X73935Y136664D01*
X92647D01*
X93294Y137311D01*
X94065D01*
X94538Y136838D01*
X104904Y147204D01*
X105387Y147687D01*
X105735Y147687D01*
X105735Y147787D01*
X104997Y148525D01*
X94414Y159108D01*
X84709Y149404D01*
X74632D01*
X74458Y149578D01*
Y151295D01*
X52235D01*
X51015Y150075D01*
X42708D01*
X41910Y150873D01*
Y151130D01*
X28829D01*
X28791Y151092D01*
X26696Y153188D01*
X391Y153188D01*
X-367Y153747D01*
X-606Y154146D01*
X5Y330090D01*
X17235Y350006D01*
X518723Y350393D01*
X519430Y349686D01*
D02*
G37*
G36*
X214224Y294090D02*
X213590Y293385D01*
X212105Y294870D01*
X212125Y294876D01*
X212156Y294895D01*
X212198Y294927D01*
X212316Y295028D01*
X212689Y295383D01*
X212810Y295504D01*
X214224Y294090D01*
D02*
G37*
G36*
X601240Y293171D02*
X601166Y293093D01*
X601040Y292945D01*
X600989Y292874D01*
X600946Y292806D01*
X600911Y292740D01*
X600884Y292676D01*
X600865Y292614D01*
X600854Y292554D01*
X600850Y292497D01*
X599860Y293487D01*
X599917Y293491D01*
X599977Y293502D01*
X600038Y293521D01*
X600102Y293548D01*
X600168Y293584D01*
X600237Y293626D01*
X600308Y293677D01*
X600381Y293736D01*
X600533Y293878D01*
X601240Y293171D01*
D02*
G37*
G36*
X612840Y291487D02*
X612783Y291484D01*
X612723Y291473D01*
X612662Y291453D01*
X612598Y291426D01*
X612532Y291391D01*
X612463Y291348D01*
X612393Y291297D01*
X612319Y291239D01*
X612167Y291097D01*
X611460Y291804D01*
X611534Y291882D01*
X611660Y292030D01*
X611711Y292101D01*
X611754Y292169D01*
X611789Y292235D01*
X611816Y292299D01*
X611835Y292361D01*
X611847Y292420D01*
X611850Y292477D01*
X612840Y291487D01*
D02*
G37*
G36*
X620012Y291730D02*
X619978Y291680D01*
X619948Y291623D01*
X619922Y291559D01*
X619900Y291487D01*
X619882Y291409D01*
X619868Y291322D01*
X619858Y291229D01*
X619850Y291021D01*
X618850D01*
X618848Y291129D01*
X618832Y291322D01*
X618818Y291409D01*
X618800Y291487D01*
X618778Y291559D01*
X618752Y291623D01*
X618722Y291680D01*
X618688Y291730D01*
X618650Y291773D01*
X620050D01*
X620012Y291730D01*
D02*
G37*
G36*
X381199Y287240D02*
X381135Y287297D01*
X381060Y287348D01*
X380974Y287393D01*
X380877Y287432D01*
X380770Y287465D01*
X380652Y287492D01*
X380523Y287513D01*
X380383Y287528D01*
X380071Y287540D01*
Y289040D01*
X380232Y289043D01*
X380523Y289067D01*
X380652Y289088D01*
X380770Y289115D01*
X380877Y289148D01*
X380974Y289187D01*
X381060Y289232D01*
X381135Y289283D01*
X381199Y289340D01*
Y287240D01*
D02*
G37*
G36*
X641023Y285589D02*
X641066Y285567D01*
X641121Y285549D01*
X641189Y285532D01*
X641268Y285519D01*
X641464Y285499D01*
X641709Y285489D01*
X641850Y285487D01*
Y283987D01*
X641709Y283986D01*
X641268Y283956D01*
X641189Y283942D01*
X641121Y283926D01*
X641066Y283907D01*
X641023Y283886D01*
X640993Y283862D01*
Y285612D01*
X641023Y285589D01*
D02*
G37*
G36*
X632337Y283487D02*
X632233Y283484D01*
X632131Y283471D01*
X632029Y283450D01*
X631930Y283419D01*
X631831Y283379D01*
X631735Y283330D01*
X631640Y283272D01*
X631546Y283205D01*
X631454Y283129D01*
X631363Y283043D01*
X630656Y283750D01*
X630741Y283841D01*
X630817Y283933D01*
X630885Y284027D01*
X630943Y284122D01*
X630992Y284219D01*
X631031Y284317D01*
X631062Y284417D01*
X631084Y284518D01*
X631096Y284621D01*
X631100Y284725D01*
X632337Y283487D01*
D02*
G37*
G36*
X625838D02*
X625733Y283484D01*
X625631Y283471D01*
X625529Y283450D01*
X625430Y283419D01*
X625331Y283379D01*
X625235Y283330D01*
X625140Y283272D01*
X625046Y283205D01*
X624954Y283129D01*
X624863Y283043D01*
X624156Y283750D01*
X624241Y283841D01*
X624318Y283933D01*
X624385Y284027D01*
X624443Y284122D01*
X624492Y284219D01*
X624532Y284317D01*
X624562Y284417D01*
X624584Y284518D01*
X624597Y284621D01*
X624600Y284725D01*
X625838Y283487D01*
D02*
G37*
G36*
X594154Y283769D02*
X594090Y283687D01*
X594034Y283600D01*
X593985Y283508D01*
X593943Y283410D01*
X593910Y283307D01*
X593884Y283199D01*
X593865Y283085D01*
X593853Y282966D01*
X593850Y282842D01*
X592850D01*
X592846Y282966D01*
X592835Y283085D01*
X592816Y283199D01*
X592790Y283307D01*
X592756Y283410D01*
X592715Y283508D01*
X592666Y283600D01*
X592610Y283687D01*
X592546Y283769D01*
X592475Y283845D01*
X594225D01*
X594154Y283769D01*
D02*
G37*
G36*
X152685Y280004D02*
X152702Y279915D01*
X152731Y279822D01*
X152771Y279726D01*
X152824Y279627D01*
X152888Y279524D01*
X152965Y279419D01*
X153053Y279309D01*
X153265Y279080D01*
X152204Y278019D01*
X152088Y278131D01*
X151866Y278320D01*
X151760Y278396D01*
X151657Y278460D01*
X151558Y278513D01*
X151462Y278554D01*
X151370Y278583D01*
X151280Y278600D01*
X151195Y278605D01*
X152680Y280090D01*
X152685Y280004D01*
D02*
G37*
G36*
X641023Y279089D02*
X641066Y279067D01*
X641121Y279049D01*
X641189Y279032D01*
X641268Y279019D01*
X641464Y278999D01*
X641709Y278989D01*
X641850Y278987D01*
X641850Y277487D01*
X641709Y277486D01*
X641268Y277456D01*
X641189Y277442D01*
X641121Y277426D01*
X641066Y277407D01*
X641023Y277386D01*
X640993Y277362D01*
X640993Y279112D01*
X641023Y279089D01*
D02*
G37*
G36*
X523225Y277900D02*
X523205Y277894D01*
X523174Y277875D01*
X523132Y277843D01*
X523014Y277742D01*
X522641Y277386D01*
X522520Y277266D01*
X521106Y278680D01*
X521740Y279385D01*
X523225Y277900D01*
D02*
G37*
G36*
X683459Y277080D02*
X683349Y277185D01*
X683237Y277278D01*
X683120Y277360D01*
X683001Y277432D01*
X682878Y277493D01*
X682753Y277542D01*
X682623Y277581D01*
X682491Y277608D01*
X682355Y277624D01*
X682216Y277630D01*
Y278630D01*
X682355Y278636D01*
X682491Y278652D01*
X682623Y278680D01*
X682753Y278718D01*
X682878Y278768D01*
X683001Y278828D01*
X683120Y278899D01*
X683237Y278982D01*
X683349Y279076D01*
X683459Y279180D01*
Y277080D01*
D02*
G37*
G36*
X633353Y278170D02*
X633365Y278111D01*
X633384Y278049D01*
X633411Y277985D01*
X633446Y277919D01*
X633489Y277851D01*
X633540Y277780D01*
X633599Y277707D01*
X633740Y277554D01*
X633033Y276847D01*
X632956Y276922D01*
X632807Y277048D01*
X632737Y277098D01*
X632668Y277141D01*
X632602Y277176D01*
X632538Y277204D01*
X632477Y277223D01*
X632417Y277234D01*
X632360Y277237D01*
X633350Y278228D01*
X633353Y278170D01*
D02*
G37*
G36*
X613849Y278342D02*
X613867Y278289D01*
X613893Y278233D01*
X613926Y278174D01*
X613965Y278112D01*
X614012Y278046D01*
X614101Y277939D01*
X614891Y277135D01*
X614184Y276428D01*
X613493Y277092D01*
X613476Y277106D01*
X613405Y277153D01*
X613336Y277192D01*
X613269Y277222D01*
X613205Y277243D01*
X613142Y277255D01*
X613082Y277258D01*
X613024Y277253D01*
X613147Y277425D01*
X613081Y277488D01*
X613468Y277875D01*
X613838Y278391D01*
X613849Y278342D01*
D02*
G37*
G36*
X586969Y272882D02*
X585909Y271779D01*
X585159Y272530D01*
X585178Y272541D01*
X585217Y272572D01*
X585356Y272700D01*
X586262Y273589D01*
X586969Y272882D01*
D02*
G37*
G36*
X594107Y271149D02*
X594157Y271115D01*
X594214Y271085D01*
X594278Y271059D01*
X594350Y271037D01*
X594429Y271019D01*
X594515Y271005D01*
X594608Y270995D01*
X594816Y270987D01*
Y269987D01*
X594708Y269985D01*
X594515Y269969D01*
X594429Y269955D01*
X594350Y269937D01*
X594278Y269915D01*
X594214Y269889D01*
X594157Y269859D01*
X594107Y269825D01*
X594064Y269787D01*
Y271187D01*
X594107Y271149D01*
D02*
G37*
G36*
X617904Y264558D02*
X616843D01*
X616849Y264579D01*
X616854Y264629D01*
X616863Y264818D01*
X616874Y266087D01*
X617874D01*
X617904Y264558D01*
D02*
G37*
G36*
X620219Y258550D02*
X619160Y257447D01*
X618410Y258197D01*
X618428Y258208D01*
X618467Y258240D01*
X618607Y258367D01*
X619512Y259257D01*
X620219Y258550D01*
D02*
G37*
G36*
X607726Y245819D02*
X607737Y245700D01*
X607756Y245586D01*
X607782Y245478D01*
X607816Y245375D01*
X607857Y245277D01*
X607906Y245185D01*
X607962Y245098D01*
X608026Y245016D01*
X608097Y244940D01*
X606347D01*
X606419Y245016D01*
X606482Y245098D01*
X606539Y245185D01*
X606587Y245277D01*
X606629Y245375D01*
X606662Y245478D01*
X606689Y245586D01*
X606707Y245700D01*
X606719Y245819D01*
X606722Y245943D01*
X607722D01*
X607726Y245819D01*
D02*
G37*
G36*
X539346Y221345D02*
X539362Y221209D01*
X539389Y221077D01*
X539428Y220947D01*
X539478Y220821D01*
X539538Y220699D01*
X539609Y220579D01*
X539692Y220463D01*
X539785Y220351D01*
X539890Y220241D01*
X537790D01*
X537895Y220351D01*
X537988Y220463D01*
X538071Y220579D01*
X538142Y220699D01*
X538203Y220821D01*
X538252Y220947D01*
X538290Y221077D01*
X538318Y221209D01*
X538335Y221345D01*
X538340Y221484D01*
X539340D01*
X539346Y221345D01*
D02*
G37*
G36*
X596989Y219065D02*
X597097Y218981D01*
X597210Y218907D01*
X597329Y218843D01*
X597453Y218789D01*
X597583Y218745D01*
X597717Y218711D01*
X597858Y218687D01*
X598004Y218673D01*
X598155Y218670D01*
X596670Y217185D01*
X596667Y217336D01*
X596653Y217482D01*
X596629Y217623D01*
X596595Y217757D01*
X596551Y217887D01*
X596497Y218011D01*
X596433Y218130D01*
X596359Y218243D01*
X596275Y218351D01*
X596180Y218453D01*
X596887Y219160D01*
X596989Y219065D01*
D02*
G37*
G36*
X655041Y205113D02*
X653979D01*
X653985Y205134D01*
X653990Y205184D01*
X653999Y205372D01*
X654010Y206642D01*
X655010D01*
X655041Y205113D01*
D02*
G37*
G36*
X305850Y204271D02*
X303750D01*
X303759Y204289D01*
X303768Y204325D01*
X303776Y204377D01*
X303787Y204532D01*
X303799Y205047D01*
X303800Y205218D01*
X305800D01*
X305850Y204271D01*
D02*
G37*
G36*
X618723Y199224D02*
X618737Y199078D01*
X618761Y198937D01*
X618795Y198803D01*
X618839Y198673D01*
X618893Y198549D01*
X618957Y198430D01*
X619031Y198317D01*
X619115Y198209D01*
X619210Y198107D01*
X618503Y197400D01*
X618401Y197495D01*
X618293Y197579D01*
X618180Y197653D01*
X618061Y197717D01*
X617937Y197771D01*
X617808Y197815D01*
X617673Y197849D01*
X617532Y197873D01*
X617386Y197887D01*
X617235Y197890D01*
X618720Y199375D01*
X618723Y199224D01*
D02*
G37*
G36*
X439005Y194598D02*
X438986Y194608D01*
X438951Y194616D01*
X438899Y194624D01*
X438743Y194636D01*
X438229Y194648D01*
X438058Y194648D01*
Y196648D01*
X439005Y196698D01*
Y194598D01*
D02*
G37*
G36*
X328915Y189000D02*
X328895Y188994D01*
X328864Y188975D01*
X328822Y188943D01*
X328704Y188842D01*
X328331Y188486D01*
X328210Y188366D01*
X326796Y189780D01*
X327430Y190485D01*
X328915Y189000D01*
D02*
G37*
G36*
X357125Y190005D02*
X357200Y189953D01*
X357286Y189909D01*
X357383Y189869D01*
X357490Y189837D01*
X357608Y189809D01*
X357737Y189788D01*
X357877Y189774D01*
X358189Y189762D01*
Y188262D01*
X358027Y188258D01*
X357737Y188235D01*
X357608Y188214D01*
X357490Y188186D01*
X357383Y188153D01*
X357286Y188114D01*
X357200Y188069D01*
X357125Y188018D01*
X357061Y187962D01*
Y190061D01*
X357125Y190005D01*
D02*
G37*
G36*
X340220Y181947D02*
X338120D01*
X338130Y181966D01*
X338138Y182001D01*
X338146Y182053D01*
X338158Y182208D01*
X338170Y182723D01*
X338170Y182894D01*
X340170D01*
X340220Y181947D01*
D02*
G37*
G36*
X303349Y166140D02*
X303385Y166132D01*
X303437Y166124D01*
X303592Y166112D01*
X304107Y166101D01*
X304278Y166100D01*
Y164100D01*
X303331Y164050D01*
Y166150D01*
X303349Y166140D01*
D02*
G37*
G36*
X461705Y164769D02*
X461593Y164653D01*
X461405Y164431D01*
X461328Y164325D01*
X461264Y164222D01*
X461211Y164123D01*
X461171Y164027D01*
X461142Y163934D01*
X461125Y163845D01*
X461120Y163759D01*
X459635Y165244D01*
X459720Y165250D01*
X459809Y165266D01*
X459902Y165295D01*
X459998Y165336D01*
X460097Y165389D01*
X460200Y165453D01*
X460306Y165529D01*
X460415Y165618D01*
X460644Y165830D01*
X461705Y164769D01*
D02*
G37*
G36*
X303300Y164011D02*
X303292Y163975D01*
X303284Y163923D01*
X303272Y163768D01*
X303260Y163253D01*
X303260Y163082D01*
X301260D01*
X301210Y164029D01*
X303310D01*
X303300Y164011D01*
D02*
G37*
G36*
X430336Y156411D02*
X429702Y155706D01*
X428217Y157191D01*
X428236Y157197D01*
X428267Y157216D01*
X428310Y157248D01*
X428428Y157349D01*
X428800Y157705D01*
X428922Y157825D01*
X430336Y156411D01*
D02*
G37*
G36*
X398405Y142159D02*
X398285Y142038D01*
X397836Y141528D01*
X397806Y141479D01*
X397790Y141441D01*
X397786Y141413D01*
X396150Y142730D01*
X396783Y143366D01*
X398405Y142159D01*
D02*
G37*
G36*
X268984Y137910D02*
X269027Y137528D01*
X269097Y137157D01*
X269196Y136798D01*
X269324Y136451D01*
X269479Y136115D01*
X269663Y135791D01*
X269875Y135479D01*
X270116Y135179D01*
X270384Y134890D01*
X269384Y133062D01*
X269384Y133062D01*
Y133062D01*
X269101Y133316D01*
X268818Y133514D01*
X268536Y133656D01*
X268253Y133740D01*
X267970Y133769D01*
X267687Y133740D01*
X267404Y133656D01*
X267122Y133514D01*
X266839Y133316D01*
X266556Y133062D01*
Y133062D01*
X266556Y133062D01*
X265556Y134890D01*
X265825Y135179D01*
X266065Y135479D01*
X266277Y135791D01*
X266461Y136115D01*
X266616Y136451D01*
X266744Y136798D01*
X266843Y137157D01*
X266913Y137528D01*
X266956Y137910D01*
X266970Y138304D01*
X268970D01*
X268984Y137910D01*
D02*
G37*
G36*
X434297Y105984D02*
X434322Y105694D01*
X434343Y105565D01*
X434370Y105447D01*
X434403Y105340D01*
X434443Y105243D01*
X434488Y105157D01*
X434539Y105083D01*
X434597Y105019D01*
X432497Y105006D01*
X432553Y105070D01*
X432604Y105145D01*
X432649Y105231D01*
X432687Y105328D01*
X432720Y105435D01*
X432747Y105554D01*
X432768Y105683D01*
X432782Y105823D01*
X432794Y106135D01*
X434294Y106145D01*
X434297Y105984D01*
D02*
G37*
G36*
X152180Y95051D02*
X150080D01*
X150090Y95070D01*
X150098Y95105D01*
X150105Y95157D01*
X150118Y95312D01*
X150129Y95827D01*
X150130Y95998D01*
X152130D01*
X152180Y95051D01*
D02*
G37*
G36*
X228194Y94700D02*
X227560Y93995D01*
X226075Y95480D01*
X226095Y95486D01*
X226126Y95505D01*
X226168Y95537D01*
X226286Y95638D01*
X226658Y95993D01*
X226780Y96114D01*
X228194Y94700D01*
D02*
G37*
%LPC*%
G36*
X247736Y340796D02*
X245443Y339846D01*
X243674Y338077D01*
X243591Y338060D01*
X242264Y339388D01*
X240150Y340263D01*
X237863D01*
X235749Y339388D01*
X234660Y338298D01*
X234006Y337856D01*
X233353Y338298D01*
X232264Y339388D01*
X230150Y340263D01*
X227863D01*
X225749Y339388D01*
X224132Y337771D01*
X223256Y335657D01*
Y333370D01*
X224132Y331256D01*
X225749Y329639D01*
X227863Y328764D01*
X230150D01*
X232264Y329639D01*
X233353Y330728D01*
X234006Y331171D01*
X234660Y330728D01*
X235749Y329639D01*
X237863Y328764D01*
X240150D01*
X242264Y329639D01*
X243591Y330967D01*
X243674Y330950D01*
X245443Y329181D01*
X247736Y328231D01*
Y334514D01*
Y340796D01*
D02*
G37*
G36*
X250276D02*
Y335784D01*
X255289D01*
X254339Y338077D01*
X252569Y339846D01*
X250276Y340796D01*
D02*
G37*
G36*
X487840Y336990D02*
X482320D01*
Y331470D01*
X487840D01*
Y336990D01*
D02*
G37*
G36*
X329392Y338000D02*
X328000D01*
X326714Y337467D01*
X325729Y336483D01*
X325196Y335196D01*
Y333804D01*
X325729Y332517D01*
X326714Y331533D01*
X328000Y331000D01*
X329392D01*
X330679Y331533D01*
X331663Y332517D01*
X332196Y333804D01*
Y335196D01*
X331663Y336483D01*
X330679Y337467D01*
X329392Y338000D01*
D02*
G37*
G36*
X292696Y336500D02*
X291304D01*
X290017Y335967D01*
X289033Y334983D01*
X288500Y333696D01*
Y332304D01*
X289033Y331017D01*
X290017Y330033D01*
X291304Y329500D01*
X292696D01*
X293983Y330033D01*
X294967Y331017D01*
X295500Y332304D01*
Y333696D01*
X294967Y334983D01*
X293983Y335967D01*
X292696Y336500D01*
D02*
G37*
G36*
X255289Y333243D02*
X250276D01*
Y328231D01*
X252569Y329181D01*
X254339Y330951D01*
X255289Y333243D01*
D02*
G37*
G36*
X495900Y336990D02*
X490380D01*
Y330200D01*
Y323410D01*
X495900D01*
Y323865D01*
X496731Y324420D01*
X497867Y323950D01*
X500353D01*
X502650Y324902D01*
X504408Y326660D01*
X505360Y328957D01*
Y331443D01*
X504408Y333740D01*
X502650Y335499D01*
X500353Y336450D01*
X497867D01*
X496731Y335980D01*
X495900Y336535D01*
Y336990D01*
D02*
G37*
G36*
X487840Y328930D02*
X482320D01*
Y323410D01*
X487840D01*
Y328930D01*
D02*
G37*
G36*
X35384Y347540D02*
X34290D01*
Y318770D01*
X63060D01*
Y319864D01*
X62320Y324534D01*
X60859Y329031D01*
X58713Y333244D01*
X55933Y337070D01*
X52590Y340413D01*
X48764Y343192D01*
X44551Y345339D01*
X40054Y346800D01*
X35384Y347540D01*
D02*
G37*
G36*
X31750D02*
X30656D01*
X25986Y346800D01*
X21489Y345339D01*
X17276Y343192D01*
X13450Y340413D01*
X10107Y337070D01*
X7327Y333244D01*
X5181Y329031D01*
X3720Y324534D01*
X2980Y319864D01*
Y318770D01*
X31750D01*
Y347540D01*
D02*
G37*
G36*
X463620Y340430D02*
X440620D01*
Y317430D01*
X463620D01*
Y340430D01*
D02*
G37*
G36*
X428234D02*
X425206D01*
X422281Y339646D01*
X419659Y338132D01*
X417518Y335991D01*
X416004Y333369D01*
X415220Y330444D01*
Y327416D01*
X416004Y324491D01*
X417518Y321869D01*
X419659Y319728D01*
X422281Y318214D01*
X425206Y317430D01*
X428234D01*
X431159Y318214D01*
X433781Y319728D01*
X435922Y321869D01*
X437436Y324491D01*
X438220Y327416D01*
Y330444D01*
X437436Y333369D01*
X435922Y335991D01*
X433781Y338132D01*
X431159Y339646D01*
X428234Y340430D01*
D02*
G37*
G36*
X408366Y327350D02*
X406974D01*
X405687Y326817D01*
X404703Y325833D01*
X404170Y324546D01*
Y323154D01*
X404703Y321867D01*
X404931Y321639D01*
X404703Y321410D01*
X404170Y320124D01*
Y318731D01*
X404703Y317445D01*
X405687Y316460D01*
X406974Y315928D01*
X408366D01*
X409653Y316460D01*
X410637Y317445D01*
X411170Y318731D01*
Y320124D01*
X410637Y321410D01*
X410409Y321639D01*
X410637Y321867D01*
X411170Y323154D01*
Y324546D01*
X410637Y325833D01*
X409653Y326817D01*
X408366Y327350D01*
D02*
G37*
G36*
X483296Y319730D02*
X481904D01*
X480617Y319197D01*
X479633Y318213D01*
X479100Y316926D01*
Y315534D01*
X479633Y314247D01*
X480617Y313263D01*
X481904Y312730D01*
X483296D01*
X484583Y313263D01*
X485567Y314247D01*
X486100Y315534D01*
Y316926D01*
X485567Y318213D01*
X484583Y319197D01*
X483296Y319730D01*
D02*
G37*
G36*
X335976Y311650D02*
X334584D01*
X333297Y311117D01*
X332313Y310133D01*
X331780Y308846D01*
Y307454D01*
X332313Y306167D01*
X333297Y305183D01*
X334584Y304650D01*
X335976D01*
X337263Y305183D01*
X338247Y306167D01*
X338780Y307454D01*
Y308846D01*
X338247Y310133D01*
X337263Y311117D01*
X335976Y311650D01*
D02*
G37*
G36*
X327976D02*
X326584D01*
X325297Y311117D01*
X324313Y310133D01*
X323780Y308846D01*
Y307454D01*
X324313Y306167D01*
X325297Y305183D01*
X326584Y304650D01*
X327976D01*
X329263Y305183D01*
X330247Y306167D01*
X330780Y307454D01*
Y308846D01*
X330247Y310133D01*
X329263Y311117D01*
X327976Y311650D01*
D02*
G37*
G36*
X319976D02*
X318584D01*
X317297Y311117D01*
X316313Y310133D01*
X315780Y308846D01*
Y307454D01*
X316313Y306167D01*
X317297Y305183D01*
X318584Y304650D01*
X319976D01*
X321263Y305183D01*
X322247Y306167D01*
X322780Y307454D01*
Y308846D01*
X322247Y310133D01*
X321263Y311117D01*
X319976Y311650D01*
D02*
G37*
G36*
X311976D02*
X310584D01*
X309298Y311117D01*
X308313Y310133D01*
X307780Y308846D01*
Y307454D01*
X308313Y306167D01*
X309298Y305183D01*
X310584Y304650D01*
X311976D01*
X313263Y305183D01*
X314247Y306167D01*
X314780Y307454D01*
Y308846D01*
X314247Y310133D01*
X313263Y311117D01*
X311976Y311650D01*
D02*
G37*
G36*
X489646Y310840D02*
X488254D01*
X486967Y310307D01*
X485983Y309323D01*
X485450Y308036D01*
Y306644D01*
X485983Y305357D01*
X486967Y304373D01*
X488254Y303840D01*
X489646D01*
X490933Y304373D01*
X491917Y305357D01*
X492450Y306644D01*
Y308036D01*
X491917Y309323D01*
X490933Y310307D01*
X489646Y310840D01*
D02*
G37*
G36*
X479486Y308300D02*
X478094D01*
X476807Y307767D01*
X475823Y306783D01*
X475290Y305496D01*
Y304104D01*
X475823Y302817D01*
X476807Y301833D01*
X478094Y301300D01*
X479486D01*
X480773Y301833D01*
X481757Y302817D01*
X482290Y304104D01*
Y305496D01*
X481757Y306783D01*
X480773Y307767D01*
X479486Y308300D01*
D02*
G37*
G36*
X369139Y312589D02*
X367747D01*
X366460Y312056D01*
X365476Y311071D01*
X364943Y309785D01*
Y308393D01*
X365476Y307106D01*
X365566Y307016D01*
X365333Y306783D01*
X364800Y305496D01*
Y304104D01*
X365333Y302817D01*
X366317Y301833D01*
X367604Y301300D01*
X368996D01*
X370283Y301833D01*
X371267Y302817D01*
X371800Y304104D01*
Y305496D01*
X371267Y306783D01*
X371177Y306873D01*
X371410Y307106D01*
X371943Y308393D01*
Y309785D01*
X371410Y311071D01*
X370425Y312056D01*
X369139Y312589D01*
D02*
G37*
G36*
X677606Y299410D02*
X676214D01*
X674927Y298877D01*
X674757Y298706D01*
X674708Y298755D01*
X673422Y299288D01*
X672029D01*
X670743Y298755D01*
X669758Y297771D01*
X669225Y296484D01*
Y295092D01*
X669758Y293805D01*
X670743Y292821D01*
X672029Y292288D01*
X673422D01*
X674708Y292821D01*
X674879Y292992D01*
X674927Y292943D01*
X676214Y292410D01*
X677606D01*
X678893Y292943D01*
X679877Y293927D01*
X680410Y295214D01*
Y296606D01*
X679877Y297893D01*
X678893Y298877D01*
X677606Y299410D01*
D02*
G37*
G36*
X63060Y316230D02*
X34290D01*
Y287460D01*
X35384D01*
X40054Y288200D01*
X44551Y289661D01*
X48764Y291807D01*
X52590Y294587D01*
X55933Y297930D01*
X58713Y301756D01*
X60859Y305969D01*
X62320Y310466D01*
X63060Y315136D01*
Y316230D01*
D02*
G37*
G36*
X31750D02*
X2980D01*
Y315136D01*
X3720Y310466D01*
X5181Y305969D01*
X7327Y301756D01*
X10107Y297930D01*
X13450Y294587D01*
X17276Y291807D01*
X21489Y289661D01*
X25986Y288200D01*
X30656Y287460D01*
X31750D01*
Y316230D01*
D02*
G37*
G36*
X189872Y291321D02*
X188480D01*
X187194Y290788D01*
X186209Y289804D01*
X185676Y288517D01*
Y287125D01*
X186209Y285839D01*
X186386Y285662D01*
X186209Y285484D01*
X185676Y284198D01*
Y282806D01*
X186209Y281519D01*
X187194Y280534D01*
X188480Y280002D01*
X189872D01*
X191159Y280534D01*
X192143Y281519D01*
X192676Y282806D01*
Y284198D01*
X192143Y285484D01*
X191966Y285662D01*
X192143Y285839D01*
X192676Y287125D01*
Y288517D01*
X192143Y289804D01*
X191159Y290788D01*
X189872Y291321D01*
D02*
G37*
G36*
X329169Y287045D02*
X321071D01*
X319998Y286832D01*
X319089Y286224D01*
X313150Y280285D01*
X312542Y279375D01*
X312329Y278302D01*
Y271844D01*
X308719Y268234D01*
X305543D01*
X304470Y268020D01*
X303560Y267413D01*
X207668Y171521D01*
X207061Y170611D01*
X206847Y169538D01*
Y164247D01*
X206847Y164247D01*
Y142927D01*
X150688Y86767D01*
X148020D01*
X148016Y86768D01*
X148009Y86771D01*
X148007Y86771D01*
X148006Y86772D01*
X148003Y86774D01*
X147996Y86780D01*
X147925Y86847D01*
X147780Y86937D01*
X147363Y87354D01*
X145893Y87963D01*
X144302D01*
X142832Y87354D01*
X141706Y86229D01*
X141097Y84759D01*
Y83167D01*
X141706Y81697D01*
X142832Y80572D01*
X144302Y79963D01*
X145893D01*
X147363Y80572D01*
X147780Y80989D01*
X147925Y81080D01*
X147996Y81147D01*
X148003Y81152D01*
X148006Y81154D01*
X148007Y81155D01*
X148009Y81156D01*
X148016Y81158D01*
X148020Y81159D01*
X151849D01*
X152922Y81373D01*
X153832Y81980D01*
X211634Y139783D01*
X212242Y140692D01*
X212455Y141765D01*
X212455Y141765D01*
Y164247D01*
X212455Y164247D01*
Y168377D01*
X306704Y262626D01*
X309880D01*
X310953Y262840D01*
X311863Y263447D01*
X317115Y268700D01*
X317723Y269610D01*
X317936Y270683D01*
Y277141D01*
X322233Y281437D01*
X328007D01*
X332418Y277027D01*
X333328Y276419D01*
X334401Y276205D01*
X342028D01*
X342033Y276204D01*
X342040Y276201D01*
X342042Y276201D01*
X342043Y276200D01*
X342046Y276198D01*
X342053Y276193D01*
X342124Y276126D01*
X342269Y276035D01*
X342685Y275618D01*
X343695Y275200D01*
X343496Y274200D01*
X333529D01*
X333529Y274200D01*
X332359Y273967D01*
X331366Y273304D01*
X226437Y168375D01*
X225774Y167382D01*
X225541Y166212D01*
X225541Y166212D01*
Y136599D01*
X181987Y93045D01*
X181324Y92053D01*
X181091Y90882D01*
X181091Y90882D01*
Y70220D01*
X175822Y64951D01*
X174757Y64510D01*
X173772Y63525D01*
X173239Y62239D01*
Y60847D01*
X173772Y59560D01*
X174757Y58576D01*
X176043Y58043D01*
X177435D01*
X178722Y58576D01*
X179706Y59560D01*
X180148Y60625D01*
X186313Y66790D01*
X186976Y67783D01*
X187209Y68953D01*
X187209Y68954D01*
Y89615D01*
X230763Y133169D01*
X230763Y133169D01*
X231426Y134162D01*
X231659Y135332D01*
X231659Y135332D01*
Y164945D01*
X334796Y268082D01*
X399411D01*
X399411Y268082D01*
X400582Y268315D01*
X401574Y268978D01*
X411477Y278881D01*
X460519D01*
X461584Y278440D01*
X462976D01*
X464263Y278973D01*
X465247Y279957D01*
X465780Y281244D01*
Y282636D01*
X465247Y283923D01*
X464263Y284907D01*
X462976Y285440D01*
X461584D01*
X460519Y284999D01*
X410210D01*
X410210Y284999D01*
X409039Y284766D01*
X408047Y284103D01*
X408047Y284103D01*
X398144Y274200D01*
X346406D01*
X346208Y275200D01*
X347217Y275618D01*
X348342Y276743D01*
X348951Y278213D01*
Y279805D01*
X348342Y281275D01*
X347217Y282400D01*
X345747Y283009D01*
X344156D01*
X342685Y282400D01*
X342269Y281983D01*
X342124Y281893D01*
X342053Y281826D01*
X342046Y281820D01*
X342043Y281818D01*
X342042Y281817D01*
X342040Y281817D01*
X342033Y281814D01*
X342028Y281813D01*
X335562D01*
X331151Y286224D01*
X330242Y286832D01*
X329169Y287045D01*
D02*
G37*
G36*
X294696Y281500D02*
X293304D01*
X292017Y280967D01*
X291033Y279983D01*
X290500Y278696D01*
Y277304D01*
X291033Y276017D01*
X292017Y275033D01*
X293304Y274500D01*
X294696D01*
X295983Y275033D01*
X296967Y276017D01*
X297500Y277304D01*
Y278696D01*
X296967Y279983D01*
X295983Y280967D01*
X294696Y281500D01*
D02*
G37*
G36*
X305584Y280993D02*
X303993D01*
X302523Y280384D01*
X301397Y279258D01*
X300789Y277788D01*
Y276197D01*
X301397Y274727D01*
X302523Y273602D01*
X303993Y272993D01*
X305584D01*
X307054Y273602D01*
X308180Y274727D01*
X308789Y276197D01*
Y277788D01*
X308180Y279258D01*
X307054Y280384D01*
X305584Y280993D01*
D02*
G37*
G36*
X325916Y279590D02*
X324324D01*
X322854Y278981D01*
X321729Y277856D01*
X321120Y276386D01*
Y274794D01*
X321729Y273324D01*
X322854Y272199D01*
X324324Y271590D01*
X325916D01*
X327386Y272199D01*
X328511Y273324D01*
X329120Y274794D01*
Y276386D01*
X328511Y277856D01*
X327386Y278981D01*
X325916Y279590D01*
D02*
G37*
G36*
X692085Y264319D02*
X690254D01*
X688485Y263845D01*
X686899Y262929D01*
X685604Y261635D01*
X684689Y260049D01*
X684215Y258280D01*
Y256448D01*
X684689Y254680D01*
X685604Y253094D01*
X686899Y251799D01*
X688485Y250883D01*
X690254Y250409D01*
X692085D01*
X693854Y250883D01*
X695440Y251799D01*
X696735Y253094D01*
X697651Y254680D01*
X698125Y256448D01*
Y258280D01*
X697651Y260049D01*
X696735Y261635D01*
X695440Y262929D01*
X693854Y263845D01*
X692085Y264319D01*
D02*
G37*
G36*
X422336Y251150D02*
X420944D01*
X419657Y250617D01*
X418673Y249633D01*
X418140Y248346D01*
Y246954D01*
X418673Y245667D01*
X419657Y244683D01*
X420944Y244150D01*
X422336D01*
X423623Y244683D01*
X424607Y245667D01*
X425140Y246954D01*
Y248346D01*
X424607Y249633D01*
X423623Y250617D01*
X422336Y251150D01*
D02*
G37*
G36*
X684180Y250215D02*
X679450D01*
Y243880D01*
X691618D01*
X691526Y244578D01*
X690766Y246413D01*
X689558Y247988D01*
X687982Y249196D01*
X686148Y249956D01*
X684180Y250215D01*
D02*
G37*
G36*
X454869Y255982D02*
X453477D01*
X452190Y255450D01*
X451206Y254465D01*
X450673Y253179D01*
Y251786D01*
X451206Y250500D01*
X452025Y249680D01*
X451163Y248818D01*
X450631Y247532D01*
Y246140D01*
X451163Y244853D01*
X452148Y243869D01*
X453434Y243336D01*
X454827D01*
X456113Y243869D01*
X456891Y244646D01*
X457668Y243869D01*
X458955Y243336D01*
X460347D01*
X461634Y243869D01*
X462618Y244853D01*
X463151Y246140D01*
Y247532D01*
X462618Y248818D01*
X461841Y249596D01*
X462618Y250373D01*
X463151Y251660D01*
Y253052D01*
X462618Y254339D01*
X461634Y255323D01*
X460347Y255856D01*
X458955D01*
X457668Y255323D01*
X456975Y254630D01*
X456155Y255450D01*
X454869Y255982D01*
D02*
G37*
G36*
X392565Y244194D02*
X391173D01*
X389886Y243661D01*
X388902Y242677D01*
X388369Y241390D01*
Y239998D01*
X388902Y238711D01*
X389886Y237727D01*
X391173Y237194D01*
X392565D01*
X393852Y237727D01*
X394836Y238711D01*
X395369Y239998D01*
Y241390D01*
X394836Y242677D01*
X393852Y243661D01*
X392565Y244194D01*
D02*
G37*
G36*
X381696Y243530D02*
X380304D01*
X379017Y242997D01*
X378033Y242013D01*
X377500Y240726D01*
Y239334D01*
X378033Y238047D01*
X379017Y237063D01*
X380304Y236530D01*
X381696D01*
X382983Y237063D01*
X383967Y238047D01*
X384500Y239334D01*
Y240726D01*
X383967Y242013D01*
X382983Y242997D01*
X381696Y243530D01*
D02*
G37*
G36*
X691618Y241340D02*
X679450D01*
Y235005D01*
X684180D01*
X686148Y235264D01*
X687982Y236024D01*
X689558Y237232D01*
X690766Y238808D01*
X691526Y240642D01*
X691618Y241340D01*
D02*
G37*
G36*
X636910D02*
X626742D01*
X626834Y240642D01*
X627594Y238808D01*
X628802Y237232D01*
X630378Y236024D01*
X632212Y235264D01*
X634180Y235005D01*
X636910D01*
Y241340D01*
D02*
G37*
G36*
X495124Y236378D02*
X480985D01*
X479970Y236177D01*
X479110Y235602D01*
X475597Y232089D01*
X475023Y231229D01*
X474821Y230215D01*
X474821Y230215D01*
Y221501D01*
X474821Y221501D01*
X475023Y220487D01*
X475597Y219627D01*
X477677Y217547D01*
Y217099D01*
X478210Y215813D01*
X479195Y214828D01*
X480481Y214296D01*
X481874D01*
X483160Y214828D01*
X484145Y215813D01*
X484678Y217099D01*
Y218492D01*
X484145Y219778D01*
X483160Y220763D01*
X481874Y221296D01*
X481427D01*
X480123Y222599D01*
Y229117D01*
X482083Y231077D01*
X494170D01*
X495573Y229674D01*
X495869Y228959D01*
X496669Y228159D01*
X497715Y227726D01*
X498847D01*
X499892Y228159D01*
X500692Y228959D01*
X501126Y230005D01*
Y231136D01*
X500692Y232182D01*
X499892Y232982D01*
X499178Y233278D01*
X497289Y235167D01*
X496998Y235602D01*
X496138Y236177D01*
X495124Y236378D01*
D02*
G37*
G36*
X341056Y233370D02*
X339664D01*
X338377Y232837D01*
X337393Y231853D01*
X336860Y230566D01*
Y229174D01*
X337393Y227887D01*
X338377Y226903D01*
X339664Y226370D01*
X341056D01*
X342343Y226903D01*
X343327Y227887D01*
X343860Y229174D01*
Y230566D01*
X343327Y231853D01*
X342343Y232837D01*
X341056Y233370D01*
D02*
G37*
G36*
X364086Y226007D02*
X362694D01*
X361474Y225502D01*
X360254Y226007D01*
X358862D01*
X357575Y225474D01*
X356590Y224490D01*
X356058Y223203D01*
Y221811D01*
X356590Y220525D01*
X357575Y219540D01*
X358862Y219007D01*
X360254D01*
X361474Y219512D01*
X362694Y219007D01*
X364086D01*
X365373Y219540D01*
X366357Y220525D01*
X366890Y221811D01*
Y223203D01*
X366357Y224490D01*
X365373Y225474D01*
X364086Y226007D01*
D02*
G37*
G36*
X486655Y229860D02*
X485262D01*
X483976Y229327D01*
X482991Y228343D01*
X482458Y227056D01*
Y225664D01*
X482991Y224377D01*
X483976Y223393D01*
X485262Y222860D01*
X486655D01*
X487941Y223393D01*
X488926Y224377D01*
X489459Y225664D01*
Y227056D01*
X488926Y228343D01*
X487941Y229327D01*
X486655Y229860D01*
D02*
G37*
G36*
X439344Y226260D02*
X437315D01*
X435441Y225483D01*
X434006Y224049D01*
X433230Y222174D01*
Y220145D01*
X434006Y218271D01*
X435441Y216836D01*
X437315Y216060D01*
X439344D01*
X441219Y216836D01*
X442653Y218271D01*
X443430Y220145D01*
Y222174D01*
X442653Y224049D01*
X441219Y225483D01*
X439344Y226260D01*
D02*
G37*
G36*
X398890Y219093D02*
X397498D01*
X396212Y218560D01*
X395227Y217575D01*
X394694Y216289D01*
Y214897D01*
X395227Y213610D01*
X396212Y212626D01*
X397498Y212093D01*
X398890D01*
X400177Y212626D01*
X401161Y213610D01*
X401694Y214897D01*
Y216289D01*
X401161Y217575D01*
X400177Y218560D01*
X398890Y219093D01*
D02*
G37*
G36*
X337246Y213050D02*
X335854D01*
X334567Y212517D01*
X333583Y211533D01*
X333050Y210246D01*
Y208854D01*
X333583Y207567D01*
X334567Y206583D01*
X335854Y206050D01*
X337246D01*
X338533Y206583D01*
X339517Y207567D01*
X340050Y208854D01*
Y210246D01*
X339517Y211533D01*
X338533Y212517D01*
X337246Y213050D01*
D02*
G37*
G36*
X90866Y206700D02*
X89474D01*
X88187Y206167D01*
X87630Y205610D01*
X87073Y206167D01*
X85786Y206700D01*
X84394D01*
X83107Y206167D01*
X82123Y205183D01*
X81590Y203896D01*
Y202504D01*
X82123Y201217D01*
X83107Y200233D01*
X84394Y199700D01*
X85786D01*
X87073Y200233D01*
X87630Y200790D01*
X88187Y200233D01*
X89474Y199700D01*
X90866D01*
X92153Y200233D01*
X93137Y201217D01*
X93670Y202504D01*
Y203896D01*
X93137Y205183D01*
X92153Y206167D01*
X90866Y206700D01*
D02*
G37*
G36*
X349696Y212500D02*
X348304D01*
X347017Y211967D01*
X346033Y210983D01*
X345500Y209696D01*
Y208304D01*
X346033Y207017D01*
X347017Y206033D01*
X348304Y205500D01*
X349696D01*
X350983Y206033D01*
X351967Y207017D01*
X352500Y208304D01*
Y209696D01*
X351967Y210983D01*
X350983Y211967D01*
X349696Y212500D01*
D02*
G37*
G36*
X459568Y211920D02*
X458175D01*
X456889Y211388D01*
X455904Y210403D01*
X455372Y209116D01*
Y207724D01*
X455904Y206438D01*
X456889Y205453D01*
X458175Y204920D01*
X459568D01*
X460854Y205453D01*
X461839Y206438D01*
X462371Y207724D01*
Y209116D01*
X461839Y210403D01*
X460854Y211388D01*
X459568Y211920D01*
D02*
G37*
G36*
X437576Y210510D02*
X436184D01*
X434897Y209977D01*
X433913Y208993D01*
X433380Y207706D01*
Y206314D01*
X433913Y205027D01*
X434897Y204043D01*
X436184Y203510D01*
X437576D01*
X438863Y204043D01*
X439847Y205027D01*
X440380Y206314D01*
Y207706D01*
X439847Y208993D01*
X438863Y209977D01*
X437576Y210510D01*
D02*
G37*
G36*
X68305Y204390D02*
X66315D01*
X64478Y203629D01*
X63071Y202222D01*
X62310Y200385D01*
Y198395D01*
X63071Y196558D01*
X64478Y195151D01*
X66315Y194390D01*
X68305D01*
X70142Y195151D01*
X71549Y196558D01*
X72310Y198395D01*
Y200385D01*
X71549Y202222D01*
X70142Y203629D01*
X68305Y204390D01*
D02*
G37*
G36*
X479506Y197201D02*
X478114D01*
X476827Y196669D01*
X475843Y195684D01*
X475310Y194398D01*
Y193005D01*
X475843Y191719D01*
X476827Y190734D01*
X478114Y190201D01*
X479506D01*
X480793Y190734D01*
X481777Y191719D01*
X482310Y193005D01*
Y194398D01*
X481777Y195684D01*
X480793Y196669D01*
X479506Y197201D01*
D02*
G37*
G36*
X499051Y206900D02*
X497659D01*
X496372Y206367D01*
X495387Y205383D01*
X494855Y204096D01*
Y202704D01*
X495387Y201418D01*
X495410Y201395D01*
X495387Y201373D01*
X494855Y200086D01*
Y198694D01*
X495387Y197407D01*
X495410Y197385D01*
X495387Y197362D01*
X494855Y196076D01*
Y194684D01*
X495387Y193397D01*
X495410Y193375D01*
X495387Y193352D01*
X494855Y192066D01*
Y190674D01*
X495387Y189387D01*
X496372Y188403D01*
X497659Y187870D01*
X499051D01*
X500337Y188403D01*
X501322Y189387D01*
X501855Y190674D01*
Y192066D01*
X501322Y193352D01*
X501299Y193375D01*
X501322Y193397D01*
X501855Y194684D01*
Y196076D01*
X501322Y197362D01*
X501299Y197385D01*
X501322Y197407D01*
X501855Y198694D01*
Y200086D01*
X501322Y201373D01*
X501299Y201395D01*
X501322Y201418D01*
X501855Y202704D01*
Y204096D01*
X501322Y205383D01*
X500337Y206367D01*
X499051Y206900D01*
D02*
G37*
G36*
X539176Y192730D02*
X537783D01*
X536497Y192197D01*
X535512Y191213D01*
X534980Y189926D01*
Y188534D01*
X535512Y187247D01*
X536497Y186263D01*
X537783Y185730D01*
X539176D01*
X540462Y186263D01*
X541447Y187247D01*
X541979Y188534D01*
Y189926D01*
X541447Y191213D01*
X540462Y192197D01*
X539176Y192730D01*
D02*
G37*
G36*
X624266Y190410D02*
X622874D01*
X621587Y189877D01*
X620603Y188893D01*
X620070Y187606D01*
Y186214D01*
X620603Y184927D01*
X621587Y183943D01*
X622874Y183410D01*
X624266D01*
X625553Y183943D01*
X626537Y184927D01*
X627070Y186214D01*
Y187606D01*
X626537Y188893D01*
X625553Y189877D01*
X624266Y190410D01*
D02*
G37*
G36*
X609403Y197033D02*
X608011D01*
X606724Y196500D01*
X605740Y195515D01*
X605207Y194229D01*
Y192837D01*
X605740Y191550D01*
X606103Y191187D01*
X605740Y190824D01*
X605207Y189538D01*
Y188371D01*
X604653Y187831D01*
X604335Y187650D01*
X602942D01*
X601656Y187117D01*
X600671Y186133D01*
X600139Y184846D01*
Y183454D01*
X600671Y182167D01*
X601656Y181183D01*
X602942Y180650D01*
X604335D01*
X605621Y181183D01*
X606173Y181734D01*
X606724Y181183D01*
X608011Y180650D01*
X609403D01*
X610690Y181183D01*
X611674Y182167D01*
X612207Y183454D01*
Y184846D01*
X611674Y186133D01*
X611311Y186496D01*
X611674Y186859D01*
X612207Y188145D01*
Y189538D01*
X611674Y190824D01*
X611311Y191187D01*
X611674Y191550D01*
X612207Y192837D01*
Y194229D01*
X611674Y195515D01*
X610690Y196500D01*
X609403Y197033D01*
D02*
G37*
G36*
X546986Y189039D02*
X545594D01*
X544307Y188506D01*
X543323Y187521D01*
X542790Y186235D01*
Y184842D01*
X543256Y183716D01*
X543133Y183593D01*
X542600Y182306D01*
Y180914D01*
X543133Y179627D01*
X544117Y178643D01*
X545404Y178110D01*
X546796D01*
X548083Y178643D01*
X548177Y178738D01*
X549452Y178210D01*
X550844D01*
X552130Y178743D01*
X553115Y179727D01*
X553648Y181014D01*
Y182406D01*
X553245Y183378D01*
X553369Y183501D01*
X553902Y184788D01*
Y186180D01*
X553369Y187467D01*
X552384Y188451D01*
X551098Y188984D01*
X549706D01*
X548419Y188451D01*
X548373Y188405D01*
X548273Y188506D01*
X546986Y189039D01*
D02*
G37*
G36*
X398345Y185260D02*
X396316D01*
X394441Y184484D01*
X393007Y183049D01*
X392230Y181175D01*
Y179146D01*
X393007Y177271D01*
X394441Y175837D01*
X396316Y175060D01*
X398345D01*
X400219Y175837D01*
X401654Y177271D01*
X402430Y179146D01*
Y181175D01*
X401654Y183049D01*
X400219Y184484D01*
X398345Y185260D01*
D02*
G37*
G36*
X561955Y181266D02*
X560563D01*
X559276Y180733D01*
X558292Y179749D01*
X557759Y178462D01*
Y177070D01*
X558292Y175784D01*
X559276Y174799D01*
X560563Y174266D01*
X561955D01*
X563241Y174799D01*
X564226Y175784D01*
X564759Y177070D01*
Y178462D01*
X564226Y179749D01*
X563241Y180733D01*
X561955Y181266D01*
D02*
G37*
G36*
X306766Y180030D02*
X305374D01*
X304087Y179497D01*
X303103Y178513D01*
X302570Y177226D01*
Y175834D01*
X303103Y174547D01*
X304087Y173563D01*
X305374Y173030D01*
X306766D01*
X308053Y173563D01*
X309037Y174547D01*
X309570Y175834D01*
Y177226D01*
X309037Y178513D01*
X308053Y179497D01*
X306766Y180030D01*
D02*
G37*
G36*
X354696Y179500D02*
X353304D01*
X352017Y178967D01*
X351033Y177983D01*
X350500Y176696D01*
Y175304D01*
X351033Y174017D01*
X352017Y173033D01*
X353304Y172500D01*
X354696D01*
X355983Y173033D01*
X356967Y174017D01*
X357500Y175304D01*
Y176696D01*
X356967Y177983D01*
X355983Y178967D01*
X354696Y179500D01*
D02*
G37*
G36*
X642031Y179010D02*
X640638D01*
X639352Y178477D01*
X639061Y178186D01*
X636401D01*
X635231Y177953D01*
X634238Y177290D01*
X634238Y177290D01*
X618697Y161748D01*
X618034Y160756D01*
X617801Y159586D01*
X617801Y159585D01*
Y105017D01*
X581441Y68657D01*
X564319D01*
X560938Y72037D01*
X560497Y73103D01*
X559513Y74087D01*
X558226Y74620D01*
X556834D01*
X555547Y74087D01*
X554563Y73103D01*
X554030Y71816D01*
Y70424D01*
X554563Y69137D01*
X555547Y68153D01*
X556613Y67712D01*
X560889Y63436D01*
X560889Y63436D01*
X561881Y62772D01*
X563052Y62540D01*
X563052Y62540D01*
X582708D01*
X582708Y62540D01*
X583879Y62772D01*
X584871Y63436D01*
X623023Y101587D01*
X623023Y101587D01*
X623686Y102579D01*
X623919Y103750D01*
Y158319D01*
X637668Y172068D01*
X640497D01*
X640638Y172010D01*
X642031D01*
X643317Y172542D01*
X644302Y173527D01*
X644834Y174813D01*
Y176206D01*
X644302Y177492D01*
X643317Y178477D01*
X642031Y179010D01*
D02*
G37*
G36*
X583546Y177490D02*
X582154D01*
X580868Y176957D01*
X579883Y175973D01*
X579350Y174686D01*
Y173294D01*
X579883Y172007D01*
X580868Y171023D01*
X582154Y170490D01*
X583546D01*
X584833Y171023D01*
X585817Y172007D01*
X586350Y173294D01*
Y174686D01*
X585817Y175973D01*
X584833Y176957D01*
X583546Y177490D01*
D02*
G37*
G36*
X600136Y175260D02*
X598744D01*
X597457Y174727D01*
X596473Y173743D01*
X595940Y172456D01*
Y171064D01*
X596473Y169777D01*
X597457Y168793D01*
X598744Y168260D01*
X600136D01*
X601423Y168793D01*
X602407Y169777D01*
X602940Y171064D01*
Y172456D01*
X602407Y173743D01*
X601423Y174727D01*
X600136Y175260D01*
D02*
G37*
G36*
X684180Y163815D02*
X679450D01*
Y157480D01*
X691618D01*
X691526Y158178D01*
X690766Y160012D01*
X689558Y161588D01*
X687982Y162796D01*
X686148Y163556D01*
X684180Y163815D01*
D02*
G37*
G36*
X642180D02*
X639450D01*
Y157480D01*
X649618D01*
X649526Y158178D01*
X648766Y160012D01*
X647558Y161588D01*
X645983Y162796D01*
X644148Y163556D01*
X642180Y163815D01*
D02*
G37*
G36*
X636910D02*
X634180D01*
X632212Y163556D01*
X630378Y162796D01*
X628802Y161588D01*
X627594Y160012D01*
X626834Y158178D01*
X626742Y157480D01*
X636910D01*
Y163815D01*
D02*
G37*
G36*
X338516Y155134D02*
X337124D01*
X335837Y154601D01*
X334853Y153616D01*
X334551Y152888D01*
X333469D01*
X333167Y153616D01*
X332183Y154601D01*
X330896Y155134D01*
X329504D01*
X328217Y154601D01*
X327233Y153616D01*
X326700Y152330D01*
Y150937D01*
X327233Y149651D01*
X328217Y148666D01*
X329504Y148134D01*
X330896D01*
X332183Y148666D01*
X333167Y149651D01*
X333469Y150379D01*
X334551D01*
X334853Y149651D01*
X335837Y148666D01*
X337124Y148134D01*
X338516D01*
X339803Y148666D01*
X340787Y149651D01*
X341320Y150937D01*
Y152330D01*
X340787Y153616D01*
X339803Y154601D01*
X338516Y155134D01*
D02*
G37*
G36*
X573457Y157808D02*
X572065D01*
X570778Y157275D01*
X569794Y156291D01*
X569261Y155005D01*
Y153612D01*
X569794Y152326D01*
X570778Y151341D01*
X572065Y150808D01*
X573457D01*
X574743Y151341D01*
X575728Y152326D01*
X576261Y153612D01*
Y155005D01*
X575728Y156291D01*
X574743Y157275D01*
X573457Y157808D01*
D02*
G37*
G36*
X494061Y157572D02*
X492669D01*
X491382Y157039D01*
X490398Y156054D01*
X489865Y154768D01*
Y153376D01*
X490398Y152089D01*
X491382Y151105D01*
X492669Y150572D01*
X494061D01*
X495348Y151105D01*
X496332Y152089D01*
X496865Y153376D01*
Y154768D01*
X496332Y156054D01*
X495348Y157039D01*
X494061Y157572D01*
D02*
G37*
G36*
X576651Y149792D02*
X575259D01*
X574098Y149311D01*
X572936Y149792D01*
X571544D01*
X570257Y149259D01*
X569273Y148274D01*
X568740Y146988D01*
Y145596D01*
X569221Y144434D01*
X568740Y143273D01*
Y141881D01*
X569273Y140594D01*
X570257Y139610D01*
X571544Y139077D01*
X572936D01*
X574098Y139558D01*
X575259Y139077D01*
X576651D01*
X577938Y139610D01*
X578922Y140594D01*
X579455Y141881D01*
Y143273D01*
X578974Y144434D01*
X579455Y145596D01*
Y146988D01*
X578922Y148274D01*
X577938Y149259D01*
X576651Y149792D01*
D02*
G37*
G36*
X503672Y155816D02*
X502279D01*
X500993Y155283D01*
X500008Y154298D01*
X499475Y153012D01*
Y151620D01*
X500008Y150333D01*
X500993Y149349D01*
X502279Y148816D01*
X503672D01*
X504958Y149349D01*
X505942Y150333D01*
X506475Y151620D01*
Y153012D01*
X505942Y154298D01*
X504958Y155283D01*
X503672Y155816D01*
D02*
G37*
G36*
X691618Y154940D02*
X679450D01*
Y148605D01*
X684180D01*
X686148Y148864D01*
X687982Y149624D01*
X689558Y150832D01*
X690766Y152408D01*
X691526Y154242D01*
X691618Y154940D01*
D02*
G37*
G36*
X649618D02*
X639450D01*
Y148605D01*
X642180D01*
X644148Y148864D01*
X645983Y149624D01*
X647558Y150832D01*
X648766Y152408D01*
X649526Y154242D01*
X649618Y154940D01*
D02*
G37*
G36*
X636910D02*
X626742D01*
X626834Y154242D01*
X627594Y152408D01*
X628802Y150832D01*
X630378Y149624D01*
X632212Y148864D01*
X634180Y148605D01*
X636910D01*
Y154940D01*
D02*
G37*
G36*
X379185Y154758D02*
X377792D01*
X376506Y154225D01*
X375521Y153241D01*
X374988Y151954D01*
Y150562D01*
X375521Y149276D01*
X376506Y148291D01*
X377792Y147758D01*
X379185D01*
X380471Y148291D01*
X381455Y149276D01*
X381988Y150562D01*
Y151954D01*
X381455Y153241D01*
X380471Y154225D01*
X379185Y154758D01*
D02*
G37*
G36*
X586166Y154630D02*
X584774D01*
X583487Y154097D01*
X582503Y153113D01*
X581970Y151826D01*
Y150434D01*
X582503Y149147D01*
X583487Y148163D01*
X584774Y147630D01*
X586166D01*
X587453Y148163D01*
X588437Y149147D01*
X588970Y150434D01*
Y151826D01*
X588437Y153113D01*
X587453Y154097D01*
X586166Y154630D01*
D02*
G37*
G36*
X555432Y151012D02*
X554039D01*
X552753Y150479D01*
X551768Y149494D01*
X551236Y148208D01*
Y146816D01*
X551768Y145529D01*
X552753Y144544D01*
X554039Y144012D01*
X555432D01*
X556718Y144544D01*
X557703Y145529D01*
X558236Y146816D01*
Y148208D01*
X557703Y149494D01*
X556718Y150479D01*
X555432Y151012D01*
D02*
G37*
G36*
X646495Y143057D02*
X645102D01*
X643816Y142525D01*
X643099Y141808D01*
X642382Y142525D01*
X641095Y143057D01*
X639703D01*
X638417Y142525D01*
X637700Y141808D01*
X636983Y142525D01*
X635696Y143057D01*
X634304D01*
X633017Y142525D01*
X632300Y141808D01*
X631583Y142525D01*
X630297Y143057D01*
X628905D01*
X627618Y142525D01*
X626634Y141540D01*
X626101Y140254D01*
Y138861D01*
X626634Y137575D01*
X627618Y136590D01*
X628905Y136058D01*
X630297D01*
X631583Y136590D01*
X632300Y137307D01*
X633017Y136590D01*
X634304Y136058D01*
X635696D01*
X636983Y136590D01*
X637700Y137307D01*
X638417Y136590D01*
X639703Y136058D01*
X641095D01*
X642382Y136590D01*
X643099Y137307D01*
X643816Y136590D01*
X645102Y136058D01*
X646495D01*
X647781Y136590D01*
X648766Y137575D01*
X649298Y138861D01*
Y140254D01*
X648766Y141540D01*
X647781Y142525D01*
X646495Y143057D01*
D02*
G37*
G36*
X539748Y142219D02*
X538356D01*
X537070Y141686D01*
X536959Y141576D01*
X536939Y141596D01*
X535652Y142129D01*
X534260D01*
X532973Y141596D01*
X532863Y141485D01*
X532842Y141506D01*
X531556Y142038D01*
X530163D01*
X528877Y141506D01*
X528766Y141395D01*
X528746Y141415D01*
X527459Y141948D01*
X526067D01*
X524781Y141415D01*
X523796Y140431D01*
X523263Y139144D01*
Y137752D01*
X523796Y136466D01*
X524781Y135481D01*
X526067Y134948D01*
X527459D01*
X528746Y135481D01*
X528857Y135592D01*
X528877Y135571D01*
X530163Y135038D01*
X531556D01*
X532842Y135571D01*
X532953Y135682D01*
X532973Y135662D01*
X534260Y135129D01*
X535652D01*
X536939Y135662D01*
X537049Y135772D01*
X537070Y135752D01*
X538356Y135219D01*
X539748D01*
X541035Y135752D01*
X542020Y136737D01*
X542552Y138023D01*
Y139415D01*
X542020Y140702D01*
X541035Y141686D01*
X539748Y142219D01*
D02*
G37*
G36*
X414342Y147840D02*
X412949D01*
X411663Y147307D01*
X410678Y146323D01*
X410145Y145036D01*
Y143644D01*
X410678Y142358D01*
X411663Y141373D01*
X412949Y140840D01*
X414342D01*
X415628Y141373D01*
X416613Y142358D01*
X417145Y143644D01*
Y145036D01*
X416613Y146323D01*
X415628Y147307D01*
X414342Y147840D01*
D02*
G37*
G36*
X360138Y138940D02*
X358746D01*
X357459Y138407D01*
X357400Y138348D01*
X357340Y138407D01*
X356054Y138940D01*
X354662D01*
X353375Y138407D01*
X352391Y137423D01*
X351858Y136136D01*
Y134744D01*
X352391Y133458D01*
X353375Y132473D01*
X354662Y131940D01*
X356054D01*
X357340Y132473D01*
X357400Y132533D01*
X357459Y132473D01*
X358746Y131940D01*
X360138D01*
X361424Y132473D01*
X362409Y133458D01*
X362942Y134744D01*
Y136136D01*
X362409Y137423D01*
X361424Y138407D01*
X360138Y138940D01*
D02*
G37*
G36*
X441594Y268853D02*
X440202D01*
X438915Y268321D01*
X437931Y267336D01*
X437691Y266756D01*
X428023Y257088D01*
X427360Y256096D01*
X427127Y254925D01*
X427127Y254925D01*
Y244835D01*
X406777Y224486D01*
X406114Y223493D01*
X405881Y222323D01*
X405881Y222323D01*
Y167668D01*
X385377Y147163D01*
X384714Y146171D01*
X384481Y145001D01*
X384481Y145000D01*
Y143051D01*
X384383Y142953D01*
X383850Y141666D01*
Y140274D01*
X384383Y138987D01*
X385367Y138003D01*
X386654Y137470D01*
X388046D01*
X389333Y138003D01*
X390317Y138987D01*
X390850Y140274D01*
Y141666D01*
X390599Y142273D01*
Y143734D01*
X411103Y164238D01*
X411103Y164238D01*
X411766Y165230D01*
X411999Y166401D01*
Y221056D01*
X432348Y241406D01*
X433012Y242398D01*
X433244Y243568D01*
X433244Y243569D01*
Y253659D01*
X441439Y261853D01*
X441594D01*
X442881Y262386D01*
X443865Y263371D01*
X444398Y264657D01*
Y266050D01*
X443865Y267336D01*
X442881Y268321D01*
X441594Y268853D01*
D02*
G37*
G36*
X584633Y137050D02*
X583387D01*
X582237Y136573D01*
X582010Y136347D01*
X581783Y136573D01*
X580633Y137050D01*
X579387D01*
X578237Y136573D01*
X577356Y135693D01*
X576880Y134543D01*
Y133297D01*
X577356Y132147D01*
X577584Y131920D01*
X577356Y131693D01*
X576880Y130543D01*
Y129297D01*
X577356Y128147D01*
X578237Y127267D01*
X579387Y126790D01*
X580633D01*
X581783Y127267D01*
X582010Y127493D01*
X582237Y127267D01*
X583387Y126790D01*
X584633D01*
X585783Y127267D01*
X586664Y128147D01*
X587140Y129297D01*
Y130543D01*
X586664Y131693D01*
X586437Y131920D01*
X586664Y132147D01*
X587140Y133297D01*
Y134543D01*
X586664Y135693D01*
X585783Y136573D01*
X584633Y137050D01*
D02*
G37*
G36*
X564676Y240220D02*
X563084D01*
X561614Y239611D01*
X560489Y238486D01*
X559880Y237016D01*
Y235424D01*
X560166Y234734D01*
X560074Y234411D01*
X559527Y233663D01*
X558815Y233522D01*
X557912Y232918D01*
X554507Y229513D01*
X553904Y228610D01*
X553692Y227545D01*
Y210146D01*
X552605Y209059D01*
X535206D01*
X534141Y208847D01*
X533238Y208244D01*
X504395Y179401D01*
X461098D01*
X460033Y179189D01*
X459129Y178586D01*
X414118Y133574D01*
X378820D01*
X372619Y139776D01*
Y159132D01*
X377888Y164402D01*
X378492Y165305D01*
X378703Y166370D01*
Y194080D01*
X378492Y195145D01*
X377888Y196048D01*
X353948Y219989D01*
X353045Y220592D01*
X351979Y220804D01*
X326055D01*
X323322Y223537D01*
X323322Y223540D01*
X323326Y223561D01*
X323325Y223575D01*
X323325Y223575D01*
X323540Y224094D01*
Y225486D01*
X323007Y226773D01*
X322023Y227757D01*
X320736Y228290D01*
X319344D01*
X318057Y227757D01*
X317073Y226773D01*
X316540Y225486D01*
Y224094D01*
X317073Y222807D01*
X317807Y222073D01*
X317954Y221331D01*
X318558Y220428D01*
X322934Y216052D01*
X323837Y215449D01*
X324902Y215237D01*
X350826D01*
X373136Y192927D01*
Y167523D01*
X367867Y162253D01*
X367263Y161350D01*
X367052Y160285D01*
Y138623D01*
X367263Y137558D01*
X367867Y136655D01*
X375699Y128822D01*
X376602Y128219D01*
X377667Y128007D01*
X415271D01*
X416336Y128219D01*
X417239Y128822D01*
X462251Y173834D01*
X505548D01*
X506613Y174046D01*
X507516Y174650D01*
X536359Y203492D01*
X537895D01*
X538094Y202492D01*
X537767Y202357D01*
X536783Y201373D01*
X536250Y200086D01*
Y198694D01*
X536783Y197407D01*
X537767Y196423D01*
X539054Y195890D01*
X540446D01*
X541733Y196423D01*
X542717Y197407D01*
X543250Y198694D01*
Y200086D01*
X542717Y201373D01*
X541733Y202357D01*
X541406Y202492D01*
X541605Y203492D01*
X553758D01*
X554823Y203704D01*
X555726Y204308D01*
X558443Y207025D01*
X559047Y207928D01*
X559259Y208993D01*
Y226392D01*
X561033Y228167D01*
X570091D01*
X571156Y228378D01*
X572059Y228982D01*
X575625Y232548D01*
X575885D01*
X577171Y233081D01*
X578156Y234065D01*
X578689Y235352D01*
Y236744D01*
X578156Y238030D01*
X577171Y239015D01*
X575885Y239548D01*
X574492D01*
X573206Y239015D01*
X572221Y238030D01*
X571688Y236744D01*
Y236484D01*
X569160Y233956D01*
X568191Y234024D01*
X567650Y234870D01*
X567880Y235424D01*
Y237016D01*
X567271Y238486D01*
X566146Y239611D01*
X564676Y240220D01*
D02*
G37*
G36*
X318196Y139462D02*
X316804D01*
X315517Y138929D01*
X314533Y137944D01*
X314000Y136658D01*
Y135266D01*
X314533Y133979D01*
X315126Y133386D01*
X314533Y132793D01*
X314000Y131506D01*
Y130114D01*
X314533Y128827D01*
X315517Y127843D01*
X316804Y127310D01*
X318196D01*
X319483Y127843D01*
X320467Y128827D01*
X321000Y130114D01*
Y131506D01*
X320467Y132793D01*
X319874Y133386D01*
X320467Y133979D01*
X321000Y135266D01*
Y136658D01*
X320467Y137944D01*
X319483Y138929D01*
X318196Y139462D01*
D02*
G37*
G36*
X584633Y125050D02*
X583387D01*
X582237Y124573D01*
X582010Y124347D01*
X581783Y124573D01*
X580633Y125050D01*
X579387D01*
X578237Y124573D01*
X577356Y123693D01*
X576880Y122543D01*
Y121297D01*
X577356Y120147D01*
X578237Y119267D01*
X579387Y118790D01*
X580633D01*
X581783Y119267D01*
X582010Y119494D01*
X582237Y119267D01*
X583387Y118790D01*
X584633D01*
X585783Y119267D01*
X586664Y120147D01*
X587140Y121297D01*
Y122543D01*
X586664Y123693D01*
X585783Y124573D01*
X584633Y125050D01*
D02*
G37*
G36*
X401567Y125487D02*
X400175D01*
X398889Y124955D01*
X397904Y123970D01*
X397371Y122684D01*
Y121291D01*
X397904Y120005D01*
X398889Y119020D01*
X400175Y118488D01*
X401567D01*
X402733Y118970D01*
X402922Y118781D01*
X404209Y118248D01*
X405601D01*
X406888Y118781D01*
X407872Y119765D01*
X408405Y121052D01*
Y122444D01*
X407872Y123730D01*
X406888Y124715D01*
X405601Y125248D01*
X404209D01*
X403043Y124765D01*
X402854Y124955D01*
X401567Y125487D01*
D02*
G37*
G36*
X417256Y112720D02*
X415864D01*
X414577Y112187D01*
X413593Y111203D01*
X413060Y109916D01*
Y108524D01*
X413593Y107237D01*
X414577Y106253D01*
X415864Y105720D01*
X417256D01*
X418543Y106253D01*
X419527Y107237D01*
X420060Y108524D01*
Y109916D01*
X419527Y111203D01*
X418543Y112187D01*
X417256Y112720D01*
D02*
G37*
G36*
X612649Y114619D02*
X611256D01*
X609970Y114086D01*
X608985Y113102D01*
X608453Y111815D01*
Y110423D01*
X608985Y109136D01*
X609299Y108822D01*
X608985Y108509D01*
X608453Y107222D01*
Y105830D01*
X608985Y104543D01*
X609970Y103559D01*
X611256Y103026D01*
X612649D01*
X613935Y103559D01*
X614920Y104543D01*
X615453Y105830D01*
Y107222D01*
X614920Y108509D01*
X614606Y108822D01*
X614920Y109136D01*
X615453Y110423D01*
Y111815D01*
X614920Y113102D01*
X613935Y114086D01*
X612649Y114619D01*
D02*
G37*
G36*
X633156Y106370D02*
X631764D01*
X630477Y105837D01*
X629493Y104853D01*
X628960Y103566D01*
Y102174D01*
X629493Y100887D01*
X630477Y99903D01*
X631764Y99370D01*
X633156D01*
X634443Y99903D01*
X635427Y100887D01*
X635960Y102174D01*
Y103566D01*
X635427Y104853D01*
X634443Y105837D01*
X633156Y106370D01*
D02*
G37*
G36*
X424523Y105045D02*
X423131D01*
X421844Y104512D01*
X420860Y103528D01*
X420327Y102241D01*
Y100849D01*
X420860Y99563D01*
X421844Y98578D01*
X423131Y98045D01*
X424523D01*
X425810Y98578D01*
X426794Y99563D01*
X427327Y100849D01*
Y102241D01*
X426794Y103528D01*
X425810Y104512D01*
X424523Y105045D01*
D02*
G37*
G36*
X342586Y100376D02*
X341194D01*
X339907Y99844D01*
X338923Y98859D01*
X338390Y97573D01*
Y96180D01*
X338923Y94894D01*
X339907Y93909D01*
X341194Y93376D01*
X342586D01*
X343873Y93909D01*
X344857Y94894D01*
X345390Y96180D01*
Y97573D01*
X344857Y98859D01*
X343873Y99844D01*
X342586Y100376D01*
D02*
G37*
G36*
X369321Y87711D02*
X367929D01*
X366642Y87178D01*
X366103Y86639D01*
X365450Y86301D01*
X364797Y86639D01*
X364258Y87178D01*
X362971Y87711D01*
X361579D01*
X360292Y87178D01*
X359308Y86194D01*
X358775Y84907D01*
Y83515D01*
X359308Y82228D01*
X360292Y81244D01*
X361579Y80711D01*
X362076D01*
Y80077D01*
X362609Y78791D01*
X363593Y77806D01*
X364880Y77274D01*
X366272D01*
X367559Y77806D01*
X368543Y78791D01*
X369076Y80077D01*
Y80711D01*
X369321D01*
X370607Y81244D01*
X371592Y82228D01*
X372125Y83515D01*
Y84907D01*
X371592Y86194D01*
X370607Y87178D01*
X369321Y87711D01*
D02*
G37*
G36*
X543041Y96346D02*
X541649D01*
X540362Y95813D01*
X539378Y94828D01*
X538845Y93542D01*
Y92149D01*
X539378Y90863D01*
X539378Y90862D01*
X539293Y90777D01*
X538760Y89491D01*
Y88098D01*
X539293Y86812D01*
X540277Y85827D01*
X541564Y85294D01*
X542956D01*
X544243Y85827D01*
X545227Y86812D01*
X545760Y88098D01*
Y89491D01*
X545227Y90777D01*
X545227Y90778D01*
X545312Y90863D01*
X545845Y92149D01*
Y93542D01*
X545312Y94828D01*
X544327Y95813D01*
X543041Y96346D01*
D02*
G37*
G36*
X611596Y80484D02*
X610203D01*
X608917Y79951D01*
X608880Y79914D01*
X607760Y80377D01*
X606368D01*
X605081Y79844D01*
X604097Y78860D01*
X603564Y77574D01*
Y76181D01*
X604097Y74895D01*
X605081Y73910D01*
X606368Y73377D01*
X607760D01*
X609047Y73910D01*
X609084Y73948D01*
X610203Y73484D01*
X611596D01*
X612882Y74017D01*
X613867Y75001D01*
X614399Y76288D01*
Y77680D01*
X613867Y78966D01*
X612882Y79951D01*
X611596Y80484D01*
D02*
G37*
G36*
X630319Y86050D02*
X628927D01*
X627640Y85517D01*
X626656Y84533D01*
X626123Y83246D01*
Y81854D01*
X626656Y80567D01*
X627640Y79583D01*
X628927Y79050D01*
X630319D01*
X631605Y79583D01*
X632590Y80567D01*
X633123Y81854D01*
Y83246D01*
X632590Y84533D01*
X631605Y85517D01*
X630319Y86050D01*
D02*
G37*
G36*
X265000Y174569D02*
X264655Y174500D01*
X264304D01*
X263979Y174366D01*
X263634Y174297D01*
X263342Y174102D01*
X263017Y173967D01*
X262769Y173719D01*
X262477Y173523D01*
X240180Y151227D01*
X239406Y150069D01*
X239135Y148703D01*
Y135182D01*
X213966Y110013D01*
X213193Y108855D01*
X212921Y107490D01*
Y82510D01*
X213193Y81145D01*
X213966Y79987D01*
X221908Y72045D01*
X223066Y71272D01*
X224431Y71000D01*
X242569D01*
X243934Y71272D01*
X245092Y72045D01*
X262478Y89431D01*
X268522D01*
X282773Y75180D01*
X283931Y74406D01*
X285297Y74135D01*
X301703D01*
X303069Y74406D01*
X304227Y75180D01*
X308523Y79477D01*
X308719Y79769D01*
X308967Y80017D01*
X309102Y80342D01*
X309297Y80634D01*
X309366Y80979D01*
X309500Y81304D01*
Y81655D01*
X309569Y82000D01*
X309500Y82345D01*
Y82696D01*
X309366Y83021D01*
X309297Y83366D01*
X309102Y83658D01*
X308967Y83983D01*
X308719Y84231D01*
X308523Y84523D01*
X308231Y84719D01*
X307983Y84967D01*
X307658Y85102D01*
X307366Y85297D01*
X307021Y85365D01*
X306696Y85500D01*
X306345D01*
X306000Y85569D01*
X305655Y85500D01*
X305304D01*
X304979Y85365D01*
X304634Y85297D01*
X304342Y85102D01*
X304017Y84967D01*
X303769Y84719D01*
X303477Y84523D01*
X300225Y81272D01*
X286775D01*
X272523Y95523D01*
X271366Y96297D01*
X270000Y96569D01*
X261000D01*
X259634Y96297D01*
X258477Y95523D01*
X241091Y78137D01*
X225909D01*
X220058Y83988D01*
Y106012D01*
X245227Y131180D01*
X246000Y132338D01*
X246272Y133703D01*
Y147225D01*
X267523Y168477D01*
X267719Y168769D01*
X267967Y169017D01*
X268102Y169342D01*
X268297Y169634D01*
X268365Y169979D01*
X268500Y170304D01*
Y170655D01*
X268569Y171000D01*
X268500Y171345D01*
Y171696D01*
X268365Y172021D01*
X268297Y172366D01*
X268102Y172658D01*
X267967Y172983D01*
X267719Y173231D01*
X267523Y173523D01*
X267231Y173719D01*
X266983Y173967D01*
X266658Y174102D01*
X266366Y174297D01*
X266021Y174366D01*
X265696Y174500D01*
X265345D01*
X265000Y174569D01*
D02*
G37*
G36*
X492601Y134939D02*
X491208D01*
X489922Y134406D01*
X488937Y133422D01*
X488405Y132135D01*
Y130743D01*
X488937Y129456D01*
X489922Y128472D01*
X490987Y128031D01*
X517041Y101977D01*
X518033Y101314D01*
X519203Y101081D01*
X519204Y101081D01*
X553707D01*
X564631Y90156D01*
Y76691D01*
X564190Y75626D01*
Y74234D01*
X564723Y72947D01*
X565707Y71963D01*
X566994Y71430D01*
X568386D01*
X569673Y71963D01*
X570657Y72947D01*
X571190Y74234D01*
Y75626D01*
X570749Y76691D01*
Y91423D01*
X570749Y91424D01*
X570516Y92594D01*
X569853Y93586D01*
X569853Y93587D01*
X557136Y106303D01*
X556144Y106966D01*
X554973Y107199D01*
X554973Y107199D01*
X520471D01*
X495313Y132356D01*
X494872Y133422D01*
X493887Y134406D01*
X492601Y134939D01*
D02*
G37*
G36*
X160742Y73958D02*
X159349D01*
X158063Y73425D01*
X157078Y72440D01*
X156545Y71154D01*
Y69762D01*
X157078Y68475D01*
X158063Y67491D01*
X159349Y66958D01*
X160742D01*
X162028Y67491D01*
X163013Y68475D01*
X163545Y69762D01*
Y71154D01*
X163013Y72440D01*
X162028Y73425D01*
X160742Y73958D01*
D02*
G37*
G36*
X534096Y83510D02*
X532704D01*
X531417Y82977D01*
X530433Y81993D01*
X529900Y80706D01*
Y79314D01*
X530433Y78027D01*
X531417Y77043D01*
X532704Y76510D01*
X533710D01*
Y75504D01*
X534243Y74217D01*
X535227Y73233D01*
X536514Y72700D01*
X537520D01*
Y71694D01*
X538053Y70407D01*
X539037Y69423D01*
X540324Y68890D01*
X541330D01*
Y67884D01*
X541863Y66597D01*
X542847Y65613D01*
X544134Y65080D01*
X545526D01*
X546813Y65613D01*
X547797Y66597D01*
X548330Y67884D01*
Y69276D01*
X547797Y70563D01*
X546813Y71547D01*
X545526Y72080D01*
X544520D01*
Y73086D01*
X543987Y74373D01*
X543003Y75357D01*
X541716Y75890D01*
X540710D01*
Y76896D01*
X540177Y78183D01*
X539193Y79167D01*
X537906Y79700D01*
X536900D01*
Y80706D01*
X536367Y81993D01*
X535383Y82977D01*
X534096Y83510D01*
D02*
G37*
G36*
X224248Y58149D02*
X222855D01*
X221569Y57616D01*
X220585Y56631D01*
X220052Y55345D01*
Y53953D01*
X220585Y52666D01*
X221569Y51682D01*
X222855Y51149D01*
X224248D01*
X225534Y51682D01*
X226519Y52666D01*
X227052Y53953D01*
Y55345D01*
X226519Y56631D01*
X225534Y57616D01*
X224248Y58149D01*
D02*
G37*
G36*
X94895Y58065D02*
X92905D01*
X91068Y57303D01*
X89661Y55897D01*
X88900Y54059D01*
Y52070D01*
X89661Y50232D01*
X91068Y48826D01*
X92905Y48065D01*
X94895D01*
X96732Y48826D01*
X98139Y50232D01*
X98900Y52070D01*
Y54059D01*
X98139Y55897D01*
X96732Y57303D01*
X94895Y58065D01*
D02*
G37*
G36*
X307340Y47509D02*
X307340Y47509D01*
X219450D01*
X219450Y47509D01*
X218279Y47276D01*
X217287Y46613D01*
X217287Y46613D01*
X200083Y29408D01*
X199017Y28967D01*
X198033Y27983D01*
X197500Y26696D01*
Y25304D01*
X198033Y24017D01*
X199017Y23033D01*
X200304Y22500D01*
X201696D01*
X202983Y23033D01*
X203967Y24017D01*
X204408Y25083D01*
X220717Y41391D01*
X306073D01*
X336542Y10922D01*
X337535Y10259D01*
X338705Y10026D01*
X338705Y10026D01*
X377387D01*
X378452Y9585D01*
X379845D01*
X381131Y10118D01*
X382116Y11102D01*
X382649Y12388D01*
Y13781D01*
X382116Y15067D01*
X381131Y16052D01*
X379845Y16585D01*
X378452D01*
X377387Y16143D01*
X376536D01*
X376153Y17067D01*
X376405Y17320D01*
X377321Y18906D01*
X377795Y20674D01*
Y22506D01*
X377321Y24274D01*
X376405Y25861D01*
X375111Y27155D01*
X373525Y28071D01*
X371756Y28545D01*
X369924D01*
X368156Y28071D01*
X366570Y27155D01*
X365275Y25861D01*
X364359Y24274D01*
X363885Y22506D01*
Y20674D01*
X364359Y18906D01*
X365275Y17320D01*
X365527Y17067D01*
X365144Y16143D01*
X339972D01*
X309503Y46613D01*
X308510Y47276D01*
X307340Y47509D01*
D02*
G37*
G36*
X460388Y52160D02*
X460320D01*
Y43270D01*
X469210D01*
Y43338D01*
X468518Y45922D01*
X467180Y48238D01*
X465288Y50130D01*
X462972Y51468D01*
X460388Y52160D01*
D02*
G37*
G36*
X457780D02*
X457712D01*
X455128Y51468D01*
X452812Y50130D01*
X450920Y48238D01*
X449582Y45922D01*
X448890Y43338D01*
Y43270D01*
X457780D01*
Y52160D01*
D02*
G37*
G36*
X441696Y60500D02*
X440304D01*
X439017Y59967D01*
X438033Y58983D01*
X437500Y57696D01*
Y56304D01*
X438033Y55017D01*
X438718Y54332D01*
X438015Y53629D01*
X437482Y52342D01*
Y50950D01*
X438015Y49664D01*
X438700Y48978D01*
X437997Y48275D01*
X437464Y46989D01*
Y45596D01*
X437997Y44310D01*
X438682Y43624D01*
X437979Y42921D01*
X437446Y41635D01*
Y40242D01*
X437979Y38956D01*
X438963Y37971D01*
X440250Y37438D01*
X441642D01*
X442928Y37971D01*
X443913Y38956D01*
X444446Y40242D01*
Y41635D01*
X443913Y42921D01*
X443228Y43606D01*
X443931Y44310D01*
X444464Y45596D01*
Y46989D01*
X443931Y48275D01*
X443246Y48960D01*
X443949Y49664D01*
X444482Y50950D01*
Y52342D01*
X443949Y53629D01*
X443264Y54314D01*
X443967Y55017D01*
X444500Y56304D01*
Y57696D01*
X443967Y58983D01*
X442983Y59967D01*
X441696Y60500D01*
D02*
G37*
G36*
X669114Y63060D02*
X668020D01*
Y34290D01*
X696790D01*
Y35384D01*
X696050Y40054D01*
X694589Y44551D01*
X692442Y48764D01*
X689663Y52590D01*
X686320Y55933D01*
X682494Y58713D01*
X678281Y60859D01*
X673784Y62320D01*
X669114Y63060D01*
D02*
G37*
G36*
X665480D02*
X664386D01*
X659716Y62320D01*
X655219Y60859D01*
X651006Y58713D01*
X647180Y55933D01*
X643837Y52590D01*
X641058Y48764D01*
X638911Y44551D01*
X637450Y40054D01*
X636710Y35384D01*
Y34290D01*
X665480D01*
Y63060D01*
D02*
G37*
G36*
X35384D02*
X34290D01*
Y34290D01*
X63060D01*
Y35384D01*
X62320Y40054D01*
X60859Y44551D01*
X58713Y48764D01*
X55933Y52590D01*
X52590Y55933D01*
X48764Y58713D01*
X44551Y60859D01*
X40054Y62320D01*
X35384Y63060D01*
D02*
G37*
G36*
X31750D02*
X30656D01*
X25986Y62320D01*
X21489Y60859D01*
X17276Y58713D01*
X13450Y55933D01*
X10107Y52590D01*
X7327Y48764D01*
X5181Y44551D01*
X3720Y40054D01*
X2980Y35384D01*
Y34290D01*
X31750D01*
Y63060D01*
D02*
G37*
G36*
X237961Y40105D02*
X236569D01*
X235282Y39572D01*
X234298Y38588D01*
X233765Y37301D01*
Y35909D01*
X234298Y34622D01*
X235282Y33638D01*
X236569Y33105D01*
X237961D01*
X239248Y33638D01*
X240232Y34622D01*
X240765Y35909D01*
Y37301D01*
X240232Y38588D01*
X239248Y39572D01*
X237961Y40105D01*
D02*
G37*
G36*
X518620Y51620D02*
X499380D01*
Y33352D01*
X499323Y33285D01*
X498380Y32827D01*
X496587Y33863D01*
X494171Y34510D01*
X491669D01*
X489253Y33863D01*
X487087Y32612D01*
X485318Y30843D01*
X484067Y28677D01*
X483420Y26261D01*
Y23759D01*
X484067Y21343D01*
X485318Y19177D01*
X487087Y17408D01*
X489253Y16157D01*
X491669Y15510D01*
X494171D01*
X496587Y16157D01*
X498753Y17408D01*
X500522Y19177D01*
X501772Y21343D01*
X502420Y23759D01*
Y26261D01*
X501772Y28677D01*
X500522Y30843D01*
X499985Y31380D01*
X500399Y32380D01*
X518620D01*
Y51620D01*
D02*
G37*
G36*
X469210Y40730D02*
X459050D01*
X448890D01*
Y40662D01*
X449582Y38078D01*
X450920Y35762D01*
X452812Y33870D01*
X455128Y32532D01*
X457712Y31840D01*
X457880D01*
Y26280D01*
X477960D01*
Y35050D01*
X467770D01*
X467346Y36050D01*
X468518Y38078D01*
X469210Y40662D01*
Y40730D01*
D02*
G37*
G36*
X422556Y38705D02*
X420724D01*
X418955Y38231D01*
X417369Y37315D01*
X416075Y36021D01*
X415159Y34434D01*
X414685Y32666D01*
Y30834D01*
X415159Y29065D01*
X416075Y27480D01*
X417369Y26185D01*
X418955Y25269D01*
X420724Y24795D01*
X422556D01*
X424324Y25269D01*
X425910Y26185D01*
X427205Y27480D01*
X428121Y29065D01*
X428595Y30834D01*
Y32666D01*
X428121Y34434D01*
X427205Y36021D01*
X425910Y37315D01*
X424324Y38231D01*
X422556Y38705D01*
D02*
G37*
G36*
X297180Y25332D02*
X294887Y24382D01*
X293775Y23271D01*
X292381Y23250D01*
X291707Y23925D01*
X289594Y24800D01*
X287306D01*
X285193Y23925D01*
X284103Y22835D01*
X283450Y22392D01*
X282797Y22835D01*
X281707Y23925D01*
X279594Y24800D01*
X277306D01*
X275193Y23925D01*
X273575Y22307D01*
X272700Y20194D01*
Y17906D01*
X273575Y15793D01*
X275193Y14175D01*
X277306Y13300D01*
X279594D01*
X281707Y14175D01*
X282797Y15265D01*
X283450Y15708D01*
X284103Y15265D01*
X285193Y14175D01*
X287306Y13300D01*
X289594D01*
X291707Y14175D01*
X292381Y14850D01*
X293775Y14829D01*
X294887Y13718D01*
X297180Y12768D01*
Y19050D01*
Y25332D01*
D02*
G37*
G36*
X299720D02*
Y20320D01*
X304732D01*
X303782Y22613D01*
X302013Y24382D01*
X299720Y25332D01*
D02*
G37*
G36*
X477960Y23740D02*
X469190D01*
Y14970D01*
X477960D01*
Y23740D01*
D02*
G37*
G36*
X466650D02*
X457880D01*
Y14970D01*
X466650D01*
Y23740D01*
D02*
G37*
G36*
X148232Y22448D02*
X146641D01*
X145171Y21839D01*
X144046Y20714D01*
X143437Y19244D01*
Y17652D01*
X144046Y16182D01*
X145171Y15057D01*
X146641Y14448D01*
X148232D01*
X149702Y15057D01*
X150828Y16182D01*
X151437Y17652D01*
Y19244D01*
X150828Y20714D01*
X149702Y21839D01*
X148232Y22448D01*
D02*
G37*
G36*
X623611Y36486D02*
X620583D01*
X617658Y35702D01*
X615036Y34188D01*
X612895Y32047D01*
X611381Y29425D01*
X610597Y26500D01*
Y23472D01*
X611381Y20547D01*
X612895Y17925D01*
X615036Y15784D01*
X617658Y14270D01*
X620583Y13486D01*
X623611D01*
X626536Y14270D01*
X629158Y15784D01*
X631300Y17925D01*
X632813Y20547D01*
X633597Y23472D01*
Y26500D01*
X632813Y29425D01*
X631300Y32047D01*
X629158Y34188D01*
X626536Y35702D01*
X623611Y36486D01*
D02*
G37*
G36*
X608197D02*
X585197D01*
Y13486D01*
X608197D01*
Y36486D01*
D02*
G37*
G36*
X74998Y20368D02*
X73606D01*
X72319Y19835D01*
X71335Y18850D01*
X70802Y17564D01*
Y16171D01*
X71335Y14885D01*
X72319Y13901D01*
X73606Y13368D01*
X74998D01*
X76284Y13901D01*
X77269Y14885D01*
X77802Y16171D01*
Y17564D01*
X77269Y18850D01*
X76284Y19835D01*
X74998Y20368D01*
D02*
G37*
G36*
X304732Y17780D02*
X299720D01*
Y12768D01*
X302013Y13718D01*
X303782Y15487D01*
X304732Y17780D01*
D02*
G37*
G36*
X564124Y35630D02*
X561096D01*
X558171Y34846D01*
X555549Y33332D01*
X553408Y31191D01*
X551894Y28569D01*
X551110Y25644D01*
Y22616D01*
X551894Y19691D01*
X553408Y17069D01*
X555549Y14928D01*
X558171Y13414D01*
X561096Y12630D01*
X564124D01*
X567049Y13414D01*
X569671Y14928D01*
X571812Y17069D01*
X573326Y19691D01*
X574110Y22616D01*
Y25644D01*
X573326Y28569D01*
X571812Y31191D01*
X569671Y33332D01*
X567049Y34846D01*
X564124Y35630D01*
D02*
G37*
G36*
X548710D02*
X525710D01*
Y12630D01*
X548710D01*
Y35630D01*
D02*
G37*
G36*
X171008Y13205D02*
X169615D01*
X168329Y12673D01*
X167345Y11688D01*
X166812Y10402D01*
Y9009D01*
X167345Y7723D01*
X168329Y6738D01*
X169615Y6206D01*
X171008D01*
X172294Y6738D01*
X173279Y7723D01*
X173812Y9009D01*
Y10402D01*
X173279Y11688D01*
X172294Y12673D01*
X171008Y13205D01*
D02*
G37*
G36*
X422556Y18385D02*
X420724D01*
X418955Y17911D01*
X417369Y16995D01*
X416075Y15701D01*
X415159Y14115D01*
X414685Y12346D01*
Y10514D01*
X415159Y8745D01*
X416075Y7160D01*
X417369Y5865D01*
X418955Y4949D01*
X420724Y4475D01*
X422556D01*
X424324Y4949D01*
X425910Y5865D01*
X427205Y7160D01*
X428121Y8745D01*
X428595Y10514D01*
Y12346D01*
X428121Y14115D01*
X427205Y15701D01*
X425910Y16995D01*
X424324Y17911D01*
X422556Y18385D01*
D02*
G37*
G36*
X696790Y31750D02*
X668020D01*
Y2980D01*
X669114D01*
X673784Y3720D01*
X678281Y5181D01*
X682494Y7327D01*
X686320Y10107D01*
X689663Y13450D01*
X692442Y17276D01*
X694589Y21489D01*
X696050Y25986D01*
X696790Y30656D01*
Y31750D01*
D02*
G37*
G36*
X665480D02*
X636710D01*
Y30656D01*
X637450Y25986D01*
X638911Y21489D01*
X641058Y17276D01*
X643837Y13450D01*
X647180Y10107D01*
X651006Y7327D01*
X655219Y5181D01*
X659716Y3720D01*
X664386Y2980D01*
X665480D01*
Y31750D01*
D02*
G37*
G36*
X63060D02*
X34290D01*
Y2980D01*
X35384D01*
X40054Y3720D01*
X44551Y5181D01*
X48764Y7327D01*
X52590Y10107D01*
X55933Y13450D01*
X58713Y17276D01*
X60859Y21489D01*
X62320Y25986D01*
X63060Y30656D01*
Y31750D01*
D02*
G37*
G36*
X31750D02*
X2980D01*
Y30656D01*
X3720Y25986D01*
X5181Y21489D01*
X7327Y17276D01*
X10107Y13450D01*
X13450Y10107D01*
X17276Y7327D01*
X21489Y5181D01*
X25986Y3720D01*
X30656Y2980D01*
X31750D01*
Y31750D01*
D02*
G37*
%LPD*%
G36*
X461209Y280890D02*
X461190Y280900D01*
X461155Y280908D01*
X461103Y280916D01*
X460948Y280928D01*
X460433Y280940D01*
X460262Y280940D01*
Y282940D01*
X461209Y282990D01*
Y280890D01*
D02*
G37*
G36*
X343523Y277609D02*
X343392Y277733D01*
X343254Y277843D01*
X343109Y277941D01*
X342957Y278025D01*
X342798Y278097D01*
X342632Y278155D01*
X342459Y278201D01*
X342279Y278233D01*
X342091Y278253D01*
X341897Y278259D01*
Y279759D01*
X342091Y279766D01*
X342279Y279785D01*
X342459Y279818D01*
X342632Y279863D01*
X342798Y279922D01*
X342957Y279993D01*
X343109Y280078D01*
X343254Y280175D01*
X343392Y280286D01*
X343523Y280409D01*
Y277609D01*
D02*
G37*
G36*
X146657Y85240D02*
X146795Y85129D01*
X146940Y85032D01*
X147092Y84947D01*
X147251Y84876D01*
X147417Y84817D01*
X147590Y84772D01*
X147770Y84739D01*
X147957Y84720D01*
X148152Y84713D01*
Y83213D01*
X147957Y83207D01*
X147770Y83187D01*
X147590Y83155D01*
X147417Y83109D01*
X147251Y83051D01*
X147092Y82979D01*
X146940Y82895D01*
X146795Y82797D01*
X146657Y82687D01*
X146526Y82563D01*
Y85363D01*
X146657Y85240D01*
D02*
G37*
G36*
X178873Y62263D02*
X178239Y61558D01*
X176754Y63043D01*
X176774Y63049D01*
X176805Y63068D01*
X176847Y63099D01*
X176966Y63201D01*
X177338Y63556D01*
X177459Y63677D01*
X178873Y62263D01*
D02*
G37*
G36*
X497862Y231698D02*
X498089Y231502D01*
X498134Y231471D01*
X498175Y231446D01*
X498212Y231429D01*
X498244Y231419D01*
X498272Y231415D01*
X497436Y230579D01*
X497432Y230607D01*
X497422Y230639D01*
X497405Y230676D01*
X497380Y230717D01*
X497349Y230763D01*
X497265Y230867D01*
X497153Y230989D01*
X497087Y231057D01*
X497794Y231764D01*
X497862Y231698D01*
D02*
G37*
G36*
X480102Y219726D02*
X480213Y219634D01*
X480325Y219554D01*
X480439Y219484D01*
X480555Y219426D01*
X480673Y219378D01*
X480793Y219341D01*
X480914Y219315D01*
X481037Y219300D01*
X481162Y219295D01*
X479678Y217810D01*
X479673Y217936D01*
X479658Y218059D01*
X479632Y218180D01*
X479595Y218300D01*
X479548Y218418D01*
X479489Y218534D01*
X479419Y218648D01*
X479339Y218760D01*
X479247Y218871D01*
X479145Y218980D01*
X479993Y219828D01*
X480102Y219726D01*
D02*
G37*
G36*
X640567Y174221D02*
X639853Y174127D01*
X639067Y176127D01*
X639238Y176128D01*
X639843Y176172D01*
X639914Y176188D01*
X639970Y176207D01*
X640008Y176228D01*
X640031Y176252D01*
X640567Y174221D01*
D02*
G37*
G36*
X559036Y71085D02*
X559055Y71054D01*
X559087Y71012D01*
X559188Y70894D01*
X559543Y70521D01*
X559664Y70400D01*
X558250Y68986D01*
X557545Y69620D01*
X559030Y71105D01*
X559036Y71085D01*
D02*
G37*
G36*
X440682Y263869D02*
X440653Y263866D01*
X440613Y263850D01*
X440563Y263821D01*
X440503Y263779D01*
X440433Y263724D01*
X440161Y263481D01*
X439929Y263254D01*
X438777Y264931D01*
X439409Y265540D01*
X440682Y263869D01*
D02*
G37*
G36*
X388540Y142783D02*
X388527Y141900D01*
X386444Y142166D01*
X386462Y142188D01*
X386479Y142227D01*
X386493Y142283D01*
X386506Y142355D01*
X386516Y142444D01*
X386536Y142808D01*
X386540Y143132D01*
X388540Y142783D01*
D02*
G37*
G36*
X575173Y234548D02*
X575083Y234543D01*
X574989Y234526D01*
X574892Y234498D01*
X574793Y234457D01*
X574692Y234405D01*
X574587Y234342D01*
X574480Y234266D01*
X574370Y234179D01*
X574142Y233969D01*
X573109Y235001D01*
X573220Y235117D01*
X573407Y235339D01*
X573482Y235446D01*
X573546Y235551D01*
X573598Y235653D01*
X573638Y235752D01*
X573667Y235848D01*
X573684Y235942D01*
X573689Y236033D01*
X575173Y234548D01*
D02*
G37*
G36*
X321357Y224061D02*
X321336Y223993D01*
X321317Y223913D01*
X321301Y223821D01*
X321276Y223600D01*
X321261Y223330D01*
X321256Y223012D01*
X319796Y222410D01*
X319792Y222570D01*
X319780Y222718D01*
X319760Y222853D01*
X319732Y222975D01*
X319695Y223084D01*
X319651Y223180D01*
X319599Y223263D01*
X319538Y223334D01*
X319470Y223392D01*
X319394Y223436D01*
X321380Y224117D01*
X321357Y224061D01*
D02*
G37*
G36*
X493411Y131404D02*
X493429Y131373D01*
X493461Y131331D01*
X493563Y131213D01*
X493918Y130841D01*
X494039Y130719D01*
X492624Y129305D01*
X491920Y129939D01*
X493404Y131424D01*
X493411Y131404D01*
D02*
G37*
G36*
X568740Y76001D02*
X566640D01*
X566650Y76020D01*
X566658Y76055D01*
X566665Y76107D01*
X566678Y76262D01*
X566689Y76777D01*
X566690Y76948D01*
X568690D01*
X568740Y76001D01*
D02*
G37*
G36*
X203134Y26720D02*
X202500Y26015D01*
X201015Y27500D01*
X201035Y27506D01*
X201066Y27525D01*
X201108Y27557D01*
X201226Y27658D01*
X201598Y28014D01*
X201720Y28134D01*
X203134Y26720D01*
D02*
G37*
G36*
X378078Y12035D02*
X378059Y12044D01*
X378024Y12053D01*
X377972Y12060D01*
X377816Y12072D01*
X377302Y12084D01*
X377131Y12085D01*
Y14085D01*
X378078Y14135D01*
Y12035D01*
D02*
G37*
D10*
X587404Y269138D02*
G03*
X587404Y266663I1237J-1237D01*
G01*
X590117Y261475D02*
G03*
X590117Y263950I-1237J1237D01*
G01*
X587642Y261475D02*
G03*
X590117Y261475I1237J1237D01*
G01*
X583461Y265656D02*
G03*
X580986Y265656I-1237J-1237D01*
G01*
X580986D02*
G03*
X580986Y263181I1237J-1237D01*
G01*
X585167Y256525D02*
G03*
X585167Y259000I-1237J1237D01*
G01*
X582692Y256525D02*
G03*
X585167Y256525I1237J1237D01*
G01*
X578511Y260706D02*
G03*
X576036Y260706I-1237J-1237D01*
G01*
Y260706D02*
G03*
X576036Y258231I1237J-1237D01*
G01*
X579095Y252697D02*
G03*
X579095Y255172I-1237J1237D01*
G01*
X576621Y252697D02*
G03*
X579095Y252697I1237J1237D01*
G01*
X575029Y254289D02*
G03*
X572555Y254289I-1237J-1237D01*
G01*
X629004Y197204D02*
G03*
X629004Y201503I-2150J2150D01*
G01*
X627233Y207573D02*
G03*
X627233Y203274I2150J-2150D01*
G01*
X631532Y207573D02*
G03*
X627233Y207573I-2150J-2150D01*
G01*
X636470Y202635D02*
G03*
X640769Y202635I2150J2150D01*
G01*
D02*
G03*
X640769Y206934I-2150J2150D01*
G01*
X635831Y216171D02*
G03*
X635831Y211872I2150J-2150D01*
G01*
X640130Y216171D02*
G03*
X635831Y216171I-2150J-2150D01*
G01*
X641901Y214401D02*
G03*
X646200Y214401I2150J2150D01*
G01*
X640542Y256036D02*
G03*
X638792Y254286I0J-1750D01*
G01*
X637042Y251460D02*
G03*
X638792Y253210I0J1750D01*
G01*
X635292D02*
G03*
X637042Y251460I1750J0D01*
G01*
X635292Y254286D02*
G03*
X633542Y256036I-1750J0D01*
G01*
X650720Y243017D02*
G03*
X648285Y251460I-18994J-905D01*
G01*
D02*
G03*
X646055Y254614I-16559J-9348D01*
G01*
X654510Y246843D02*
G03*
X654026Y251460I-22310J-7D01*
G01*
D02*
G03*
X647968Y262620I-21825J-4624D01*
G01*
X594360Y222960D02*
G03*
X592360Y224960I-2000J0D01*
G01*
X591580Y228960D02*
G03*
X591580Y224960I0J-2000D01*
G01*
X602360Y228960D02*
G03*
X602360Y232960I0J2000D01*
G01*
X586360Y236960D02*
G03*
X586360Y232960I0J-2000D01*
G01*
X601290Y236960D02*
G03*
X601290Y240960I0J2000D01*
G01*
X586360Y244960D02*
G03*
X586360Y240960I0J-2000D01*
G01*
X598980Y244960D02*
G03*
X598980Y248960I0J2000D01*
G01*
X594360Y250960D02*
G03*
X596360Y248960I2000J0D01*
G01*
X608865Y269215D02*
Y271313D01*
X606735Y273443D02*
X608865Y271313D01*
X603938Y273443D02*
X606735D01*
X597098Y257447D02*
X608865Y269215D01*
X594360Y254710D02*
X597098Y257447D01*
X594360Y251460D02*
Y254710D01*
X600983Y270487D02*
X603938Y273443D01*
X593350Y270487D02*
X600983D01*
X538840Y233456D02*
X555434Y250050D01*
X566326D01*
X538840Y219170D02*
Y233456D01*
X593754Y275487D02*
X596437D01*
X597007Y274918D01*
X587404Y269138D02*
X593754Y275487D01*
X587404Y266663D02*
X587404Y266663D01*
X590117Y263950D01*
X590117Y263950D02*
X590117Y263950D01*
X587642Y261475D02*
X587642Y261475D01*
X583461Y265656D02*
X587642Y261475D01*
X583461Y265656D02*
X583461Y265656D01*
X580986D02*
X580986Y265656D01*
X580986Y263181D02*
X580986Y263181D01*
X585167Y259000D01*
X585167Y259000D02*
X585167Y259000D01*
X582692Y256525D02*
X582692Y256525D01*
X578511Y260706D02*
X582692Y256525D01*
X578511Y260706D02*
X578511Y260706D01*
X576036Y258231D02*
X576036Y258231D01*
X579095Y255172D01*
X579095Y255172D02*
X579095Y255172D01*
X576621Y252697D02*
X576621Y252697D01*
X575029Y254289D02*
X576621Y252697D01*
X569726Y251460D02*
X572555Y254289D01*
X605214Y284851D02*
X612850Y292487D01*
X600903Y274918D02*
X605214Y279228D01*
Y284851D01*
X625151Y277539D02*
X632350Y284737D01*
X625151Y261546D02*
Y277539D01*
X627128Y293778D02*
X647860D01*
X625182Y295725D02*
X627128Y293778D01*
X603088Y295725D02*
X625182D01*
X647860Y293778D02*
X663508Y278130D01*
X566326Y250050D02*
X567736Y251460D01*
X569726D01*
X593061Y274795D02*
Y274902D01*
X593647Y275487D02*
X593754D01*
X593061Y274902D02*
X593647Y275487D01*
X597007Y274918D02*
X600903D01*
X617220Y199390D02*
X619760Y196850D01*
X628650D01*
X629004Y197204D01*
X627233Y203274D02*
X629004Y201503D01*
X627233Y203274D02*
X627233Y203274D01*
X631532Y207573D02*
X631532Y207573D01*
X636470Y202635D01*
X636470Y202635D02*
X636470Y202635D01*
X640769Y206934D02*
X640769Y206934D01*
X635831Y211872D02*
X640769Y206934D01*
X635831Y211872D02*
X635831Y211872D01*
Y216171D02*
X635831Y216171D01*
X640130Y216171D02*
X640130Y216171D01*
X641901Y214401D01*
X641901Y214400D02*
X641901Y214401D01*
X646200D02*
X650720Y218920D01*
X640542Y256036D02*
X641042D01*
X638792Y253210D02*
Y254286D01*
X637042Y251460D02*
X637042D01*
X635292Y253210D02*
Y254286D01*
X630661Y256036D02*
X633542D01*
X628911Y257786D02*
X630661Y256036D01*
X641042D02*
X644632Y256036D01*
X650720Y218920D02*
Y243017D01*
X644632Y256036D02*
X646055Y254614D01*
X625151Y261546D02*
X628911Y257786D01*
X654510Y204583D02*
Y246824D01*
X609542Y276386D02*
X613460Y272468D01*
X609542Y279526D02*
X619350Y289334D01*
X609542Y276386D02*
Y279526D01*
X617374Y264028D02*
Y273945D01*
X613082Y278237D02*
X617374Y273945D01*
X618410Y257447D02*
X621407Y260445D01*
Y280295D02*
X625850Y284737D01*
X621407Y260445D02*
Y280295D01*
X613460Y266696D02*
Y272468D01*
X607222Y260459D02*
X613460Y266696D01*
X663508Y278130D02*
X684530D01*
X654510Y246843D02*
X654510Y246824D01*
X599850Y292487D02*
X603088Y295725D01*
X607222Y244048D02*
Y260459D01*
X495124Y233727D02*
X498281Y230571D01*
X619350Y289334D02*
Y292487D01*
X632350Y278237D02*
X647968Y262620D01*
X585159Y271780D02*
X593350Y279971D01*
Y284737D01*
X594360Y220980D02*
X595681Y219659D01*
X594360Y220980D02*
Y222960D01*
X591580Y224960D02*
X592360D01*
X591580Y228960D02*
X602360D01*
X586360Y232960D02*
X602360D01*
X586360Y236960D02*
X601290D01*
X586360Y240960D02*
X601290D01*
X586360Y244960D02*
X598980D01*
X596360Y248960D02*
X598980D01*
X594360Y250960D02*
Y251460D01*
X595681Y219659D02*
X598170Y217170D01*
D11*
X384810Y325120D02*
X402590Y307340D01*
X303530Y325120D02*
X384810D01*
X303082Y324672D02*
X303530Y325120D01*
X236298Y317578D02*
X269186D01*
X271584Y315180D01*
X396296Y141465D02*
X423741Y168910D01*
X396296Y141237D02*
Y141465D01*
X297000Y315000D02*
X303082Y321082D01*
X284456Y315000D02*
X297000D01*
X303082Y321082D02*
Y324672D01*
X277500Y308044D02*
X284456Y315000D01*
X163830Y182880D02*
X273950Y293000D01*
X342999D02*
X356599Y279400D01*
X273950Y293000D02*
X342999D01*
X267970Y157480D02*
X298768Y188277D01*
X267970Y135890D02*
Y157480D01*
X226060Y93980D02*
X267970Y135890D01*
X267970D02*
X345440Y58420D01*
X514457Y65000D02*
X536898Y42559D01*
X430530Y58420D02*
X437110Y65000D01*
X514457D01*
X201000Y26000D02*
X219450Y44450D01*
X307340D01*
X418466Y75524D02*
X522076D01*
X414062Y71120D02*
X418466Y75524D01*
X522076D02*
X543934Y53667D01*
X353060Y71120D02*
X414062D01*
X387540Y145001D02*
X408940Y166401D01*
Y222323D01*
X228600Y166212D02*
X333529Y271141D01*
X399411D02*
X410210Y281940D01*
X333529Y271141D02*
X399411D01*
X536898Y42559D02*
X624974D01*
X495300Y215900D02*
X505801D01*
X549433Y259531D02*
X559452D01*
X505801Y215900D02*
X547349Y257447D01*
X549433Y259531D01*
X674736Y178593D02*
Y224856D01*
X661670Y165527D02*
X674736Y178593D01*
X582708Y65598D02*
X620860Y103750D01*
X563052Y65598D02*
X582708D01*
X620860Y103750D02*
Y159586D01*
X228600Y135332D02*
Y166212D01*
X184150Y68953D02*
Y90882D01*
X228600Y135332D01*
X266701Y308044D02*
X277500D01*
X176739Y61543D02*
X184150Y68953D01*
X307340Y44450D02*
X338705Y13085D01*
X379149D01*
X345440Y58420D02*
X430530D01*
X543934Y53667D02*
X616609D01*
X557530Y71120D02*
X563052Y65598D01*
X567690Y74930D02*
Y91424D01*
X554973Y104140D02*
X567690Y91424D01*
X302260Y121920D02*
X353060Y71120D01*
X302260Y121920D02*
Y165100D01*
X339170Y186527D02*
X341339Y188696D01*
X339170Y180876D02*
Y186527D01*
X341339Y188696D02*
Y194075D01*
X212090Y293370D02*
X236298Y317578D01*
X487060Y264160D02*
X508000D01*
X481330D02*
X487060D01*
X508000D02*
X523240Y279400D01*
X479600Y262430D02*
X481330Y264160D01*
X452762Y262430D02*
X479600D01*
X410210Y281940D02*
X462280D01*
X470416Y288290D02*
X487060D01*
X400050Y292100D02*
X466606D01*
X470416Y288290D01*
X473475Y296660D02*
X487060D01*
X462796Y307340D02*
X473475Y296660D01*
X402590Y307340D02*
X462796D01*
X487060Y274059D02*
X501389D01*
X422649D02*
X487060D01*
X501389D02*
X513080Y285750D01*
X409533Y260943D02*
X422649Y274059D01*
X487060Y288290D02*
X500896D01*
X387350Y279400D02*
X400050Y292100D01*
X500896Y288290D02*
X504889Y292283D01*
X356599Y279400D02*
X387350D01*
X654159Y91217D02*
Y172984D01*
X663132Y181957D01*
X616609Y53667D02*
X654159Y91217D01*
X620860Y159586D02*
X636401Y175127D01*
X163830Y123190D02*
Y182880D01*
X151130Y110490D02*
X163830Y123190D01*
X151130Y93980D02*
Y110490D01*
X513080Y285750D02*
X565150D01*
X487060Y296660D02*
X494028D01*
X575013Y300197D02*
X580651Y294559D01*
X497565Y300197D02*
X575013D01*
X580651Y294559D02*
X584645D01*
X640952Y175127D02*
X641335Y175510D01*
X636401Y175127D02*
X640952D01*
X519203Y104140D02*
X554973D01*
X491904Y131439D02*
X519203Y104140D01*
X624974Y42559D02*
X661670Y79256D01*
X476423Y203913D02*
X483313D01*
X495300Y215900D01*
X408940Y222323D02*
X430186Y243568D01*
X334754Y200660D02*
X341339Y194075D01*
X322580Y200660D02*
X334754D01*
X322234Y183804D02*
X328930Y190500D01*
X312239Y165100D02*
X322234Y175095D01*
Y183804D01*
X506799Y241369D02*
X541020Y275590D01*
X471294Y241369D02*
X506799D01*
X559452Y259531D02*
X571701Y271780D01*
X428202Y155691D02*
X476423Y203913D01*
X663132Y181957D02*
Y221248D01*
X504889Y292283D02*
X568582D01*
X494028Y296660D02*
X497565Y300197D01*
X661670Y79256D02*
Y126247D01*
Y165527D01*
X302260Y165100D02*
X312239D01*
X304800Y225326D02*
X340416Y260943D01*
X304800Y203200D02*
Y225326D01*
X541020Y275590D02*
X561340D01*
X449410Y219485D02*
X471294Y241369D01*
X449410Y190772D02*
Y219485D01*
X427548Y168910D02*
X449410Y190772D01*
X423741Y168910D02*
X427548D01*
X430186Y243568D02*
Y254925D01*
X440613Y265353D01*
X387540Y141160D02*
Y145001D01*
X584645Y294559D02*
X586809Y292395D01*
X340416Y260943D02*
X409533D01*
X387350Y140970D02*
X387540Y141160D01*
X440690Y250357D02*
X452762Y262430D01*
X440690Y240030D02*
Y250357D01*
X298768Y188277D02*
X310198D01*
X322580Y200660D01*
X432034Y195648D02*
X440076D01*
X426218Y201464D02*
X432034Y195648D01*
X426218Y201464D02*
Y225558D01*
X440690Y240030D01*
X440613Y265353D02*
X440898D01*
D15*
X609600Y298987D02*
D03*
X616100D02*
D03*
X612850Y292487D02*
D03*
X583600Y298987D02*
D03*
X590100D02*
D03*
X619350Y292487D02*
D03*
X593350Y270487D02*
D03*
X586809Y292395D02*
D03*
X596600Y298987D02*
D03*
X599850Y292487D02*
D03*
X612850Y278237D02*
D03*
X599850D02*
D03*
X586850D02*
D03*
X632350D02*
D03*
X579100D02*
D03*
D17*
X658550Y247283D02*
G03*
X658310Y251460I-36538J-8D01*
G01*
X662383Y262567D02*
G03*
X657088Y275350I-18078J-0D01*
G01*
X662583Y259922D02*
G03*
X662383Y262567I-25393J-596D01*
G01*
X662583Y259894D02*
G03*
X662583Y259922I-1500J-1D01*
G01*
X647939Y273021D02*
G03*
X647935Y273024I-1061J-1060D01*
G01*
X658310Y251460D02*
G03*
X647939Y273021I-36297J-4185D01*
G01*
X643161Y277798D02*
G03*
X642100Y278237I-1061J-1061D01*
G01*
X350503Y300660D02*
X362873Y288290D01*
X237160Y300660D02*
X350503D01*
X211124Y274624D02*
X237160Y300660D01*
X473010Y146198D02*
X496393D01*
X447040Y120228D02*
X473010Y146198D01*
X513080Y139700D02*
X529590Y123190D01*
X502892Y139700D02*
X513080D01*
X465150Y169275D02*
X567620D01*
X590969Y197269D02*
X613410Y219710D01*
X567620Y169275D02*
X590969Y192625D01*
Y197269D01*
X598194Y191057D02*
Y196874D01*
X591456Y184319D02*
X598194Y191057D01*
X591456Y168658D02*
Y184319D01*
X432514Y90315D02*
X447040Y104841D01*
X389234Y90315D02*
X432514D01*
X447040Y104841D02*
Y120228D01*
X347000Y132549D02*
X389234Y90315D01*
X662590Y237002D02*
X674736Y224856D01*
X591700Y114041D02*
X606683Y129024D01*
Y156756D02*
X654510Y204583D01*
X606683Y129024D02*
Y156756D01*
X529590Y123190D02*
X567680D01*
X576829Y114041D01*
X591700D01*
X156661Y274624D02*
X211124D01*
X151180Y280105D02*
X156661Y274624D01*
X347000Y132549D02*
Y151962D01*
X366779Y171742D01*
X315133Y278302D02*
X321071Y284241D01*
X315133Y270683D02*
Y278302D01*
X309880Y265430D02*
X315133Y270683D01*
X329169Y284241D02*
X334401Y279009D01*
X321071Y284241D02*
X329169D01*
X209651Y169538D02*
X305543Y265430D01*
X309880D01*
X209651Y164247D02*
Y169538D01*
X151849Y83963D02*
X209651Y141765D01*
X145098Y83963D02*
X151849D01*
X334401Y279009D02*
X344951D01*
X366779Y171742D02*
Y185068D01*
X362836Y189011D02*
X366779Y185068D01*
X355990Y189011D02*
X362836D01*
X618410Y217090D02*
Y257447D01*
X598194Y196874D02*
X618410Y217090D01*
X613410Y257447D02*
Y260065D01*
Y219710D02*
Y257447D01*
X567078Y283822D02*
X581266D01*
X565150Y285750D02*
X567078Y283822D01*
X433544Y103950D02*
X433554Y103941D01*
X433544Y103950D02*
Y124991D01*
X459620Y163745D02*
X465150Y169275D01*
X433544Y124991D02*
X470604Y162050D01*
X584848D02*
X591456Y168658D01*
X470604Y162050D02*
X584848D01*
X496393Y146198D02*
X502892Y139700D01*
X658550Y225829D02*
X663132Y221248D01*
X613410Y260065D02*
X617374Y264028D01*
X568582Y292283D02*
X572403Y288462D01*
X662590Y237002D02*
Y251460D01*
X362873Y288290D02*
X382270D01*
X658550Y225829D02*
Y247267D01*
X658550Y247283D02*
X658550Y247267D01*
X647700Y284737D02*
X657088Y275350D01*
X596454Y288462D02*
X599850Y285066D01*
X572403Y288462D02*
X596454D01*
X599850Y278237D02*
Y285066D01*
X581266Y283822D02*
X586850Y278237D01*
X612850D02*
X613082D01*
X561340Y275590D02*
X563988Y278237D01*
X579100D01*
X571701Y271780D02*
X585159D01*
X662583Y259894D02*
X662585Y257805D01*
Y257805D02*
X662590Y251460D01*
X640100Y284737D02*
X647700D01*
X643161Y277798D02*
X647935Y273024D01*
X640100Y278237D02*
X642100Y278237D01*
D18*
X477472Y221501D02*
Y230215D01*
X480985Y233727D02*
X495124D01*
X477472Y230215D02*
X480985Y233727D01*
X477472Y221501D02*
X481177Y217796D01*
D53*
X580010Y121920D02*
D03*
X584010D02*
D03*
X580010Y133920D02*
D03*
X584010D02*
D03*
X580010Y129920D02*
D03*
X584010D02*
D03*
D79*
X498281Y230571D02*
D03*
D160*
X666750Y323850D02*
D03*
D167*
X351979Y218021D02*
X375920Y194080D01*
Y166370D02*
Y194080D01*
X324902Y218021D02*
X351979D01*
X415271Y130791D02*
X461098Y176618D01*
X535206Y206276D02*
X553758D01*
X505548Y176618D02*
X535206Y206276D01*
X553758D02*
X556475Y208993D01*
Y227545D01*
X559880Y230950D01*
X369835Y160285D02*
X375920Y166370D01*
X369835Y138623D02*
Y160285D01*
Y138623D02*
X377667Y130791D01*
X415271D01*
X559880Y230950D02*
X570091D01*
X320526Y222396D02*
X324902Y218021D01*
X320040Y224790D02*
X320526Y224304D01*
Y222396D02*
Y224304D01*
X461098Y176618D02*
X505548D01*
X570091Y230950D02*
X575188Y236048D01*
D169*
X242703Y148703D02*
X265000Y171000D01*
X242703Y133703D02*
Y148703D01*
X216490Y107490D02*
X242703Y133703D01*
X216490Y82510D02*
X224431Y74569D01*
X216490Y82510D02*
Y107490D01*
X242569Y74569D02*
X261000Y93000D01*
X224431Y74569D02*
X242569D01*
X270000Y93000D02*
X285297Y77703D01*
X301703D01*
X261000Y93000D02*
X270000D01*
X301703Y77703D02*
X306000Y82000D01*
D178*
X509000Y42000D02*
D03*
D179*
X459050D02*
D03*
D180*
X421640Y31750D02*
D03*
Y11430D02*
D03*
X370840Y21590D02*
D03*
X681010Y308164D02*
D03*
X670850Y257364D02*
D03*
X691170D02*
D03*
D181*
X278450Y19050D02*
D03*
X288450D02*
D03*
X298450D02*
D03*
X229006Y334514D02*
D03*
X239006D02*
D03*
X249006D02*
D03*
D182*
X438330Y221160D02*
D03*
X397330Y180160D02*
D03*
D183*
X426720Y328930D02*
D03*
X622097Y24986D02*
D03*
X562610Y24130D02*
D03*
D184*
X452120Y328930D02*
D03*
X596697Y24986D02*
D03*
X537210Y24130D02*
D03*
D185*
X467920Y25010D02*
D03*
D186*
X492920D02*
D03*
D187*
X638180Y156210D02*
D03*
Y242610D02*
D03*
D188*
X678180Y156210D02*
D03*
Y242610D02*
D03*
D189*
X489110Y330200D02*
D03*
D190*
X499110D02*
D03*
D191*
X33020Y33020D02*
D03*
Y317500D02*
D03*
X666750Y33020D02*
D03*
D192*
X294000Y278000D02*
D03*
Y308000D02*
D03*
X289943Y304410D02*
D03*
X292000Y333000D02*
D03*
X301010Y332730D02*
D03*
X328696Y334500D02*
D03*
X354000Y176000D02*
D03*
X696001Y266000D02*
D03*
Y186000D02*
D03*
Y146000D02*
D03*
X686001Y126000D02*
D03*
X696001Y106000D02*
D03*
X686001Y86000D02*
D03*
X696001Y66000D02*
D03*
X676001D02*
D03*
X656001D02*
D03*
X646001Y6000D02*
D03*
X626001Y86000D02*
D03*
X576000Y26000D02*
D03*
X566000Y6000D02*
D03*
X546000Y246000D02*
D03*
Y86000D02*
D03*
X556000Y66000D02*
D03*
X546000Y6000D02*
D03*
X526000Y206000D02*
D03*
Y6000D02*
D03*
X506000Y326000D02*
D03*
Y206000D02*
D03*
X516000Y146000D02*
D03*
X506000Y86000D02*
D03*
X516000Y26000D02*
D03*
X506000Y6000D02*
D03*
X496000Y226000D02*
D03*
Y186000D02*
D03*
X486000Y6000D02*
D03*
X466000Y246000D02*
D03*
X476000Y186000D02*
D03*
X466000Y86000D02*
D03*
Y6000D02*
D03*
X446000Y246000D02*
D03*
Y86000D02*
D03*
Y6000D02*
D03*
X426000Y246000D02*
D03*
Y46000D02*
D03*
X436000Y26000D02*
D03*
X416000Y186000D02*
D03*
Y66000D02*
D03*
X386000Y126000D02*
D03*
X396000Y106000D02*
D03*
X386000Y6000D02*
D03*
X366000Y246000D02*
D03*
Y6000D02*
D03*
X356000Y266000D02*
D03*
X346000Y246000D02*
D03*
X356000Y226000D02*
D03*
X346000Y126000D02*
D03*
Y86000D02*
D03*
X356000Y66000D02*
D03*
X346000Y6000D02*
D03*
X336000Y106000D02*
D03*
X316000Y146000D02*
D03*
X296000Y226000D02*
D03*
X286000Y206000D02*
D03*
Y166000D02*
D03*
Y86000D02*
D03*
X296000Y66000D02*
D03*
X266000Y326000D02*
D03*
X276000Y266000D02*
D03*
Y186000D02*
D03*
Y146000D02*
D03*
X266000Y86000D02*
D03*
X276000Y66000D02*
D03*
X246000Y246000D02*
D03*
Y126000D02*
D03*
Y86000D02*
D03*
X236000Y266000D02*
D03*
Y226000D02*
D03*
X226000Y206000D02*
D03*
X236000Y186000D02*
D03*
Y146000D02*
D03*
X226000Y126000D02*
D03*
Y86000D02*
D03*
X236000Y26000D02*
D03*
X216000Y266000D02*
D03*
X206000Y246000D02*
D03*
X216000Y226000D02*
D03*
Y186000D02*
D03*
Y66000D02*
D03*
Y26000D02*
D03*
X206000Y6000D02*
D03*
X196000Y306000D02*
D03*
Y266000D02*
D03*
Y186000D02*
D03*
Y66000D02*
D03*
Y26000D02*
D03*
X186000Y6000D02*
D03*
X166000Y286000D02*
D03*
Y246000D02*
D03*
Y86000D02*
D03*
Y46000D02*
D03*
X176000Y26000D02*
D03*
X166000Y6000D02*
D03*
X146000Y286000D02*
D03*
Y246000D02*
D03*
X156000Y226000D02*
D03*
X146000Y126000D02*
D03*
X156000Y106000D02*
D03*
Y66000D02*
D03*
X146000Y46000D02*
D03*
X126000Y326000D02*
D03*
Y286000D02*
D03*
X136000Y266000D02*
D03*
X126000Y246000D02*
D03*
X136000Y186000D02*
D03*
X126000Y166000D02*
D03*
X136000Y146000D02*
D03*
X126000Y126000D02*
D03*
X136000Y106000D02*
D03*
X126000Y86000D02*
D03*
X136000Y26000D02*
D03*
X126000Y6000D02*
D03*
X106000Y326000D02*
D03*
X116000Y266000D02*
D03*
Y226000D02*
D03*
X106000Y206000D02*
D03*
Y166000D02*
D03*
X116000Y146000D02*
D03*
X106000Y86000D02*
D03*
X116000Y66000D02*
D03*
X106000Y46000D02*
D03*
X116000Y26000D02*
D03*
X106000Y6000D02*
D03*
X96000Y306000D02*
D03*
Y266000D02*
D03*
X86000Y246000D02*
D03*
X96000Y226000D02*
D03*
Y106000D02*
D03*
Y66000D02*
D03*
X86000Y46000D02*
D03*
Y6000D02*
D03*
X66000Y326000D02*
D03*
X76000Y306000D02*
D03*
X66000Y246000D02*
D03*
Y166000D02*
D03*
Y46000D02*
D03*
X76000Y26000D02*
D03*
X46000Y286000D02*
D03*
X56000Y66000D02*
D03*
X36000Y186000D02*
D03*
X26000Y166000D02*
D03*
X16000Y226000D02*
D03*
X6000Y206000D02*
D03*
X16000Y186000D02*
D03*
Y106000D02*
D03*
Y66000D02*
D03*
X271584Y315180D02*
D03*
X396296Y141237D02*
D03*
X349000Y209000D02*
D03*
X294030Y286000D02*
D03*
X259030Y290970D02*
D03*
X263110Y295050D02*
D03*
X255000Y295000D02*
D03*
X306000Y82000D02*
D03*
X265000Y171000D02*
D03*
X513080Y129540D02*
D03*
X49365Y152881D02*
D03*
X268750Y250976D02*
D03*
X90276Y157937D02*
D03*
X38228Y160715D02*
D03*
X31501Y158404D02*
D03*
X31442Y152964D02*
D03*
X38374Y152876D02*
D03*
X30974Y128981D02*
D03*
X36590Y128805D02*
D03*
X45511Y126465D02*
D03*
X53466Y128717D02*
D03*
X70869Y129390D02*
D03*
X78678Y126056D02*
D03*
X86809Y129595D02*
D03*
X101454Y140924D02*
D03*
X54925Y152829D02*
D03*
X44094Y151645D02*
D03*
X34828Y134951D02*
D03*
X56574Y134191D02*
D03*
X87288Y154302D02*
D03*
X72231Y152829D02*
D03*
X64142Y153022D02*
D03*
X67434Y134191D02*
D03*
X89302Y135025D02*
D03*
X94710Y135912D02*
D03*
X106368Y147335D02*
D03*
X103731Y152139D02*
D03*
X99856Y156014D02*
D03*
X95794Y159692D02*
D03*
X108969Y119059D02*
D03*
X123466Y105295D02*
D03*
X153780Y235999D02*
D03*
X140329Y220887D02*
D03*
X125930Y206645D02*
D03*
X111609Y192562D02*
D03*
X96949Y178575D02*
D03*
X284001Y264581D02*
D03*
X81835Y152206D02*
D03*
X587231Y145712D02*
D03*
X582930D02*
D03*
X583817Y141798D02*
D03*
X90731Y29015D02*
D03*
X433501Y266804D02*
D03*
X441844Y259060D02*
D03*
X447040Y269240D02*
D03*
X383668Y136019D02*
D03*
X392996Y136559D02*
D03*
X381003Y143222D02*
D03*
X491490Y123190D02*
D03*
X485140Y135890D02*
D03*
X492760Y138430D02*
D03*
X499110Y133350D02*
D03*
X539408Y50429D02*
D03*
X591820Y82550D02*
D03*
X532195Y90007D02*
D03*
X490860Y107855D02*
D03*
X535517Y115986D02*
D03*
X631521Y123157D02*
D03*
X603562Y104501D02*
D03*
X583045D02*
D03*
X565112Y114733D02*
D03*
X546869Y132821D02*
D03*
X524510Y148590D02*
D03*
X462280Y267970D02*
D03*
X440982Y51646D02*
D03*
X440964Y46292D02*
D03*
X440946Y40939D02*
D03*
X441000Y57000D02*
D03*
X201000Y26000D02*
D03*
X485959Y226360D02*
D03*
X359442Y135440D02*
D03*
X355358D02*
D03*
X266701Y308044D02*
D03*
X643890Y231140D02*
D03*
Y222973D02*
D03*
Y227056D02*
D03*
X557530Y71120D02*
D03*
X567690Y74930D02*
D03*
X362275Y84211D02*
D03*
X368625D02*
D03*
X365576Y80773D02*
D03*
X341890Y96876D02*
D03*
X339170Y180876D02*
D03*
X478810Y193701D02*
D03*
X160046Y70458D02*
D03*
X176739Y61543D02*
D03*
X212090Y293370D02*
D03*
X462280Y281940D02*
D03*
X379149Y13085D02*
D03*
X539750Y199390D02*
D03*
X538840Y219170D02*
D03*
X617220Y199390D02*
D03*
X676910Y295910D02*
D03*
X189176Y287821D02*
D03*
Y283502D02*
D03*
X90170Y203200D02*
D03*
X85090D02*
D03*
X368443Y309089D02*
D03*
X407670Y323850D02*
D03*
Y319428D02*
D03*
X363390Y222507D02*
D03*
X317500Y130810D02*
D03*
Y135962D02*
D03*
X330200Y151634D02*
D03*
X337820D02*
D03*
X378488Y151258D02*
D03*
X404905Y121748D02*
D03*
X400871Y121987D02*
D03*
X459651Y252356D02*
D03*
X454173Y252482D02*
D03*
X459651Y246836D02*
D03*
X454131D02*
D03*
X484766Y252480D02*
D03*
X484733Y257237D02*
D03*
X489490Y257270D02*
D03*
X542345Y92846D02*
D03*
X607064Y76877D02*
D03*
X610900Y76984D02*
D03*
X632460Y102870D02*
D03*
X611953Y106526D02*
D03*
Y111119D02*
D03*
X498355Y203400D02*
D03*
Y195380D02*
D03*
Y199390D02*
D03*
X550148Y181710D02*
D03*
X550402Y185484D02*
D03*
X546290Y185539D02*
D03*
X546100Y181610D02*
D03*
X561259Y177766D02*
D03*
X526763Y138448D02*
D03*
X530859Y138539D02*
D03*
X534956Y138629D02*
D03*
X539052Y138719D02*
D03*
X533400Y80010D02*
D03*
X537210Y76200D02*
D03*
X541020Y72390D02*
D03*
X645798Y139558D02*
D03*
X640399D02*
D03*
X635000D02*
D03*
X629601D02*
D03*
X610550Y65857D02*
D03*
X622698D02*
D03*
X618649D02*
D03*
X614600D02*
D03*
X629623Y82550D02*
D03*
X572240Y142577D02*
D03*
X575955D02*
D03*
Y146292D02*
D03*
X572240D02*
D03*
X572761Y154308D02*
D03*
X608707Y193533D02*
D03*
X603639Y184150D02*
D03*
X608707Y188841D02*
D03*
X639566Y224053D02*
D03*
X433554Y103941D02*
D03*
X459620Y163745D02*
D03*
X641335Y175510D02*
D03*
X493365Y154072D02*
D03*
X608707Y184150D02*
D03*
X502975Y152316D02*
D03*
X585470Y151130D02*
D03*
X481177Y217796D02*
D03*
X237265Y36605D02*
D03*
X398194Y215593D02*
D03*
X391869Y240694D02*
D03*
X359558Y222507D02*
D03*
X336550Y209550D02*
D03*
X340360Y229870D02*
D03*
X302260Y165100D02*
D03*
X304800Y203200D02*
D03*
X542260Y88794D02*
D03*
X544830Y68580D02*
D03*
X428202Y155691D02*
D03*
X489523Y252513D02*
D03*
X669467Y268584D02*
D03*
X684530Y278130D02*
D03*
X672726Y295788D02*
D03*
X413645Y144340D02*
D03*
X226060Y93980D02*
D03*
X151130D02*
D03*
X170312Y9706D02*
D03*
X74302Y16868D02*
D03*
X306070Y176530D02*
D03*
X382270Y288290D02*
D03*
X554736Y147512D02*
D03*
X223552Y54649D02*
D03*
X440898Y265353D02*
D03*
X498355Y191370D02*
D03*
X575188Y236048D02*
D03*
X423827Y101545D02*
D03*
X440076Y195648D02*
D03*
X458871Y208420D02*
D03*
X491904Y131439D02*
D03*
X381000Y240030D02*
D03*
X488950Y307340D02*
D03*
X482600Y316230D02*
D03*
X436880Y207010D02*
D03*
X416560Y109220D02*
D03*
X387350Y140970D02*
D03*
X311280Y308150D02*
D03*
X151180Y280105D02*
D03*
X523240Y279400D02*
D03*
X582850Y173990D02*
D03*
X598170Y217170D02*
D03*
X538479Y189230D02*
D03*
X320040Y224790D02*
D03*
X328930Y190500D02*
D03*
X599440Y171760D02*
D03*
X319280Y308150D02*
D03*
X327280D02*
D03*
X335280D02*
D03*
X478790Y304800D02*
D03*
X623570Y186910D02*
D03*
X355990Y189011D02*
D03*
X421640Y247650D02*
D03*
X303530Y325120D02*
D03*
X368300Y304800D02*
D03*
X355600Y195540D02*
D03*
D193*
X681001Y286000D02*
D03*
X616001Y116000D02*
D03*
X476000Y316000D02*
D03*
X71000Y206000D02*
D03*
X356069Y76274D02*
D03*
X411000Y26000D02*
D03*
X576000Y16000D02*
D03*
X181000Y286000D02*
D03*
X641001Y66000D02*
D03*
X669000Y222000D02*
D03*
X366000Y236000D02*
D03*
X66000Y56000D02*
D03*
X261000Y266000D02*
D03*
X426000Y116000D02*
D03*
X366000Y336000D02*
D03*
X456000Y216000D02*
D03*
X411000Y106000D02*
D03*
X396000Y256000D02*
D03*
X286000Y156000D02*
D03*
X476000Y116000D02*
D03*
X381000Y306000D02*
D03*
X86000Y56000D02*
D03*
X156279Y96237D02*
D03*
X416000Y316000D02*
D03*
X201000Y86000D02*
D03*
X591000Y126000D02*
D03*
X461000Y106000D02*
D03*
X446000Y236000D02*
D03*
X236000Y16000D02*
D03*
X321000Y266000D02*
D03*
X281000Y26000D02*
D03*
X31000Y106000D02*
D03*
X506000Y196000D02*
D03*
X691001Y226000D02*
D03*
X521000Y186000D02*
D03*
X326000Y236000D02*
D03*
X276000Y76000D02*
D03*
X321000Y166000D02*
D03*
X666001Y76000D02*
D03*
X51000Y166000D02*
D03*
Y186000D02*
D03*
X624269Y255539D02*
D03*
X361000Y146000D02*
D03*
X316000Y116000D02*
D03*
X51000Y106000D02*
D03*
X361000Y306000D02*
D03*
X641001Y106000D02*
D03*
X336000Y96000D02*
D03*
Y76000D02*
D03*
X386000Y236000D02*
D03*
X336000Y316000D02*
D03*
X376000Y156000D02*
D03*
X416000Y236000D02*
D03*
X656001Y196000D02*
D03*
X246000Y276000D02*
D03*
X611001Y86000D02*
D03*
X601000Y146000D02*
D03*
X241000Y166000D02*
D03*
X546000Y176000D02*
D03*
X216000Y56000D02*
D03*
X271000Y106000D02*
D03*
X566000Y136000D02*
D03*
X521000Y66000D02*
D03*
X161000Y266000D02*
D03*
X536000Y256000D02*
D03*
X276000Y56000D02*
D03*
X281000Y226000D02*
D03*
X461000Y126000D02*
D03*
X371000D02*
D03*
X291000Y106000D02*
D03*
X131000Y46000D02*
D03*
X401000Y226000D02*
D03*
X186000Y56000D02*
D03*
X176000Y76000D02*
D03*
X441000Y146000D02*
D03*
X431000Y206000D02*
D03*
X624120Y290037D02*
D03*
X181000Y306000D02*
D03*
X371000Y186000D02*
D03*
X441000Y126000D02*
D03*
X481000Y46000D02*
D03*
X181000Y266000D02*
D03*
X441000Y106000D02*
D03*
X456000Y196000D02*
D03*
X669000Y188000D02*
D03*
X566000Y256000D02*
D03*
X491000Y86000D02*
D03*
X241000Y66000D02*
D03*
X211000Y126000D02*
D03*
X486000Y156000D02*
D03*
X541000Y146000D02*
D03*
X156000Y336000D02*
D03*
X146000Y276000D02*
D03*
X116000Y216000D02*
D03*
X181000Y246000D02*
D03*
X591000Y66000D02*
D03*
X156000Y16000D02*
D03*
X231000Y326000D02*
D03*
X461000Y146000D02*
D03*
X636001Y196000D02*
D03*
X306000Y236000D02*
D03*
X626001Y136000D02*
D03*
X346000Y336000D02*
D03*
X511000Y56000D02*
D03*
X691001Y296000D02*
D03*
Y276000D02*
D03*
Y136000D02*
D03*
Y76000D02*
D03*
X676001Y266000D02*
D03*
X666001Y286000D02*
D03*
X646001Y206000D02*
D03*
Y186000D02*
D03*
X651001Y76000D02*
D03*
X636001Y86000D02*
D03*
X616001Y186000D02*
D03*
Y146000D02*
D03*
X571000Y36000D02*
D03*
X551000Y96000D02*
D03*
Y16000D02*
D03*
X526000Y246000D02*
D03*
X491000Y196000D02*
D03*
X436000Y246000D02*
D03*
X426000Y66000D02*
D03*
X396000Y326000D02*
D03*
X401000Y96000D02*
D03*
Y36000D02*
D03*
X386000Y86000D02*
D03*
X376000Y246000D02*
D03*
Y6000D02*
D03*
X366000Y66000D02*
D03*
X361000Y176000D02*
D03*
X356000Y6000D02*
D03*
X346000Y186000D02*
D03*
X336000Y266000D02*
D03*
Y246000D02*
D03*
Y6000D02*
D03*
X326000Y126000D02*
D03*
Y106000D02*
D03*
Y86000D02*
D03*
X321000Y316000D02*
D03*
X311000Y216000D02*
D03*
X306000Y106000D02*
D03*
X296000Y86000D02*
D03*
X291000Y236000D02*
D03*
X286000Y66000D02*
D03*
X266000D02*
D03*
X246000Y306000D02*
D03*
X251000Y256000D02*
D03*
X236000Y286000D02*
D03*
X231000Y36000D02*
D03*
X226000Y6000D02*
D03*
X206000Y306000D02*
D03*
Y286000D02*
D03*
X201000Y36000D02*
D03*
X191000Y316000D02*
D03*
Y296000D02*
D03*
X161000Y76000D02*
D03*
X146000Y106000D02*
D03*
X61000Y236000D02*
D03*
Y216000D02*
D03*
X51000Y276000D02*
D03*
X41000Y236000D02*
D03*
Y216000D02*
D03*
Y176000D02*
D03*
X31000Y276000D02*
D03*
X21000Y176000D02*
D03*
Y116000D02*
D03*
X6000Y286000D02*
D03*
Y266000D02*
D03*
Y166000D02*
D03*
Y126000D02*
D03*
Y106000D02*
D03*
X686001Y206000D02*
D03*
Y186000D02*
D03*
X691001Y116000D02*
D03*
Y96000D02*
D03*
X676001Y106000D02*
D03*
Y86000D02*
D03*
X631001Y56000D02*
D03*
X626001Y6000D02*
D03*
X621001Y96000D02*
D03*
Y76000D02*
D03*
X606001Y166000D02*
D03*
Y6000D02*
D03*
X586001D02*
D03*
X551000Y36000D02*
D03*
X531000Y216000D02*
D03*
X526000Y46000D02*
D03*
X516000Y306000D02*
D03*
X521000Y116000D02*
D03*
Y16000D02*
D03*
X511000Y336000D02*
D03*
Y156000D02*
D03*
X496000Y306000D02*
D03*
X491000Y56000D02*
D03*
X466000Y326000D02*
D03*
X471000Y56000D02*
D03*
X451000Y96000D02*
D03*
X436000Y186000D02*
D03*
Y86000D02*
D03*
X441000Y16000D02*
D03*
X431000Y36000D02*
D03*
X421000Y216000D02*
D03*
X406000Y6000D02*
D03*
X391000Y216000D02*
D03*
X386000Y106000D02*
D03*
X371000Y96000D02*
D03*
X356000Y246000D02*
D03*
X361000Y196000D02*
D03*
X351000Y96000D02*
D03*
X346000Y66000D02*
D03*
X336000Y286000D02*
D03*
Y226000D02*
D03*
X341000Y116000D02*
D03*
X326000Y66000D02*
D03*
X306000Y286000D02*
D03*
X291000Y36000D02*
D03*
X271000Y16000D02*
D03*
X211000Y336000D02*
D03*
X191000D02*
D03*
X171000Y256000D02*
D03*
Y56000D02*
D03*
X131000Y336000D02*
D03*
X121000Y256000D02*
D03*
Y56000D02*
D03*
X101000Y336000D02*
D03*
X91000Y236000D02*
D03*
X81000Y216000D02*
D03*
X76000Y186000D02*
D03*
Y46000D02*
D03*
X71000Y336000D02*
D03*
X66000Y6000D02*
D03*
X61000Y196000D02*
D03*
X41000Y96000D02*
D03*
X21000D02*
D03*
X6000Y246000D02*
D03*
X11000Y216000D02*
D03*
Y196000D02*
D03*
X6000Y86000D02*
D03*
Y66000D02*
D03*
X166000Y326000D02*
D03*
X146000D02*
D03*
X136000Y286000D02*
D03*
X131000Y316000D02*
D03*
X116000Y326000D02*
D03*
X121000Y276000D02*
D03*
X106000Y286000D02*
D03*
Y266000D02*
D03*
Y246000D02*
D03*
X101000Y316000D02*
D03*
Y96000D02*
D03*
X91000Y296000D02*
D03*
Y276000D02*
D03*
Y256000D02*
D03*
X81000Y316000D02*
D03*
X76000Y266000D02*
D03*
Y246000D02*
D03*
X81000Y96000D02*
D03*
X76000Y66000D02*
D03*
X71000Y296000D02*
D03*
X61000Y176000D02*
D03*
Y116000D02*
D03*
Y96000D02*
D03*
Y76000D02*
D03*
X41000D02*
D03*
X21000Y236000D02*
D03*
Y76000D02*
D03*
X413481Y337972D02*
D03*
X384836Y336754D02*
D03*
X437082Y317466D02*
D03*
X145098Y83963D02*
D03*
X344951Y279009D02*
D03*
X325120Y275590D02*
D03*
X304789Y276993D02*
D03*
X147437Y18448D02*
D03*
X563880Y236220D02*
D03*
D194*
X584040Y223280D02*
D03*
X574040D02*
D03*
X564040D02*
D03*
X584040Y213280D02*
D03*
X574040D02*
D03*
X564040D02*
D03*
X584040Y203280D02*
D03*
X574040D02*
D03*
X564040D02*
D03*
X584040Y193280D02*
D03*
X574040D02*
D03*
X564040D02*
D03*
D195*
X143687Y66871D02*
D03*
X156179Y302271D02*
D03*
X118555Y302271D02*
D03*
X86349Y167609D02*
D03*
Y116809D02*
D03*
X86319Y78679D02*
D03*
X156210Y51240D02*
D03*
X552763Y267622D02*
D03*
X93900Y53065D02*
D03*
X655864Y296034D02*
D03*
X67310Y199390D02*
D03*
D196*
X647543Y299715D02*
D03*
X642203Y299653D02*
D03*
X632350Y284737D02*
D03*
X629100Y263988D02*
D03*
X635600D02*
D03*
X607222Y244048D02*
D03*
X640100Y278237D02*
D03*
X622600Y298987D02*
D03*
X629100D02*
D03*
X593350Y284737D02*
D03*
X625850D02*
D03*
X640100D02*
D03*
X632350Y270487D02*
D03*
D217*
X209651Y141765D02*
Y164247D01*
M02*
