G04*
G04 #@! TF.GenerationSoftware,Altium Limited,Altium Designer,26.9.1 (10)*
G04*
G04 Layer_Color=8388736*
G04 Board_Origin=10000000|10000000*
%FSLAX44Y44*%
%MOMM*%
G71*
G04*
G04 #@! TF.SameCoordinates,75951C10-6A3C-473B-BED1-0D9630791297*
G04*
G04*
G04 #@! TF.FilePolarity,Negative*
G04*
G01*
G75*
%ADD83R,0.2900X0.3000*%
%ADD84R,4.3000X1.4500*%
%ADD85R,1.0700X0.6700*%
%ADD86R,1.5700X1.8700*%
%ADD87R,1.8700X1.5700*%
%ADD88R,0.7200X0.7700*%
%ADD89R,0.6950X0.4700*%
%ADD90R,0.6100X1.0100*%
%ADD91R,1.3400X0.7304*%
%ADD92R,0.5450X0.5700*%
%ADD93R,0.4900X0.5100*%
%ADD94R,0.5300X0.4900*%
%ADD95R,1.0100X0.8200*%
%ADD96R,1.0700X0.7304*%
%ADD97R,0.4700X0.6950*%
%ADD98R,0.5100X0.4900*%
%ADD99R,0.4300X0.3900*%
%ADD100R,0.8000X0.6100*%
%ADD101R,0.3900X0.4300*%
%ADD102R,0.6900X0.6700*%
%ADD103R,0.8200X0.6700*%
%ADD104R,0.3700X0.4200*%
%ADD105R,0.4200X0.3700*%
%ADD106R,0.6700X0.8200*%
%ADD107R,1.8900X1.1400*%
%ADD108R,1.4700X1.0200*%
%ADD109R,0.8200X1.2200*%
%ADD110R,0.6700X1.2700*%
%ADD111R,1.3200X0.7200*%
%ADD112R,0.6700X1.1700*%
%ADD113R,0.6150X0.3400*%
%ADD114R,0.6150X0.2900*%
%ADD115R,0.3900X0.6700*%
%ADD116C,0.2960*%
%ADD117R,0.5200X0.6700*%
%ADD118R,0.5700X0.5450*%
%ADD119R,0.3700X0.6700*%
%ADD120R,0.6200X0.3200*%
%ADD121R,0.6200X0.2700*%
%ADD122R,0.6700X0.6900*%
%ADD123R,1.1100X0.8800*%
%ADD124R,0.4900X0.5300*%
%ADD125R,0.7700X0.7700*%
%ADD126R,0.7700X0.7700*%
%ADD127R,0.6700X0.5200*%
%ADD128R,0.7304X1.3400*%
%ADD129R,0.7304X1.0700*%
%ADD130R,2.2700X0.9200*%
%ADD131R,0.6000X0.4900*%
%ADD132R,0.5700X1.0700*%
%ADD133R,0.9700X1.6700*%
%ADD134R,0.3700X0.6700*%
%ADD135R,0.4700X0.5700*%
%ADD136R,1.2200X0.3700*%
%ADD137R,1.2200X0.6700*%
%ADD138R,0.7600X0.7900*%
%ADD139R,0.5700X1.1700*%
%ADD140R,0.7700X0.7200*%
%ADD141R,0.4700X0.7700*%
%ADD142C,0.2390*%
%ADD143C,0.3680*%
%ADD144R,1.7700X1.0700*%
%ADD145R,0.3700X0.7700*%
%ADD146R,1.5940X1.5940*%
%ADD147C,1.5940*%
%ADD148C,0.7200*%
%ADD149C,0.8200*%
%ADD150C,0.4200*%
%ADD151C,1.9700*%
%ADD152R,1.9700X1.9700*%
%ADD153R,1.5700X1.5700*%
%ADD154C,1.5700*%
%ADD155O,1.8700X1.0700*%
%ADD156O,2.2700X1.0700*%
%ADD157R,0.8900X0.8900*%
%ADD158C,0.8900*%
%ADD159C,5.5700*%
%ADD160C,2.0000*%
G36*
X267335Y289560D02*
X263525D01*
Y294640D01*
X267335D01*
Y289560D01*
D02*
G37*
G36*
X323215Y284480D02*
X319405D01*
Y289560D01*
X323215D01*
Y284480D01*
D02*
G37*
G36*
X306705D02*
X302895D01*
Y289560D01*
X306705D01*
Y284480D01*
D02*
G37*
G36*
X307975Y254000D02*
X304165D01*
Y259080D01*
X307975D01*
Y254000D01*
D02*
G37*
G36*
X337185Y284480D02*
Y289560D01*
X340995D01*
Y284480D01*
X337185D01*
D02*
G37*
G36*
X425450Y299085D02*
X420370D01*
Y302895D01*
X425450D01*
Y299085D01*
D02*
G37*
G36*
X452660Y237295D02*
X447580D01*
Y241105D01*
X452660D01*
Y237295D01*
D02*
G37*
G36*
X445770Y302895D02*
X450850D01*
Y299085D01*
X445770D01*
Y302895D01*
D02*
G37*
D83*
X664298Y293010D02*
D03*
Y298510D02*
D03*
D84*
X21000Y115260D02*
D03*
Y171760D02*
D03*
D85*
X132908Y27950D02*
D03*
Y8850D02*
D03*
X156908Y18400D02*
D03*
X178500Y28850D02*
D03*
Y9750D02*
D03*
X202500Y19300D02*
D03*
D86*
X132180Y250150D02*
D03*
X151180D02*
D03*
X170180D02*
D03*
X189180D02*
D03*
X208180D02*
D03*
Y118150D02*
D03*
X189180D02*
D03*
X170180D02*
D03*
X151180D02*
D03*
X132180D02*
D03*
D87*
X236180Y222150D02*
D03*
Y203150D02*
D03*
Y184150D02*
D03*
Y165150D02*
D03*
Y146150D02*
D03*
X104180D02*
D03*
Y165150D02*
D03*
Y184150D02*
D03*
Y203150D02*
D03*
Y222150D02*
D03*
D88*
X458290Y269648D02*
D03*
X471790D02*
D03*
X512000Y209000D02*
D03*
X498500D02*
D03*
X202680Y293000D02*
D03*
X189180D02*
D03*
X493990Y252902D02*
D03*
X507490D02*
D03*
X552050Y82550D02*
D03*
X565550D02*
D03*
X443630Y283210D02*
D03*
X430130D02*
D03*
X597260Y82550D02*
D03*
X610760D02*
D03*
D89*
X486600Y200660D02*
D03*
X478360D02*
D03*
X478641Y228374D02*
D03*
X470401D02*
D03*
X469629Y214980D02*
D03*
X477869D02*
D03*
X404280Y285220D02*
D03*
X396040D02*
D03*
X585250Y164400D02*
D03*
X593490D02*
D03*
X576970Y154940D02*
D03*
X585210D02*
D03*
D90*
X494000Y263000D02*
D03*
X510000D02*
D03*
X189180Y277399D02*
D03*
X205180D02*
D03*
D91*
X321310Y281813D02*
D03*
Y292227D02*
D03*
X339090Y281813D02*
D03*
Y292227D02*
D03*
X304800Y281813D02*
D03*
Y292227D02*
D03*
D92*
X180125Y279400D02*
D03*
X169875D02*
D03*
X297135Y184150D02*
D03*
X286884D02*
D03*
X297135Y203200D02*
D03*
X286884D02*
D03*
Y165149D02*
D03*
X297135D02*
D03*
D93*
X472661Y248093D02*
D03*
Y254893D02*
D03*
X340790Y79820D02*
D03*
Y86620D02*
D03*
X414020Y247240D02*
D03*
Y240440D02*
D03*
X374650Y120200D02*
D03*
Y127000D02*
D03*
X231140Y43180D02*
D03*
Y36380D02*
D03*
D94*
X195780Y268000D02*
D03*
X189180D02*
D03*
X622496Y298794D02*
D03*
X629096D02*
D03*
X353851Y209421D02*
D03*
X360451D02*
D03*
D95*
X455220Y182231D02*
D03*
Y196231D02*
D03*
X562610Y61610D02*
D03*
Y47610D02*
D03*
X455930Y128890D02*
D03*
Y142890D02*
D03*
X618300Y122861D02*
D03*
Y108861D02*
D03*
X546100Y47610D02*
D03*
Y61610D02*
D03*
X576580D02*
D03*
Y47610D02*
D03*
D96*
X265430Y286893D02*
D03*
Y297307D02*
D03*
X306070Y261747D02*
D03*
Y251333D02*
D03*
D97*
X645160Y268280D02*
D03*
Y260040D02*
D03*
X604010Y171760D02*
D03*
Y163520D02*
D03*
X427180Y270520D02*
D03*
Y262280D02*
D03*
X359870Y275628D02*
D03*
Y283868D02*
D03*
X480100Y96210D02*
D03*
Y104450D02*
D03*
X480060Y154630D02*
D03*
Y162870D02*
D03*
X566420Y160330D02*
D03*
Y152090D02*
D03*
X358640Y265519D02*
D03*
Y257280D02*
D03*
X334010Y244460D02*
D03*
Y236220D02*
D03*
D98*
X471702Y237088D02*
D03*
X478501D02*
D03*
X604010Y151320D02*
D03*
X610810D02*
D03*
D99*
X435870Y168910D02*
D03*
X430270D02*
D03*
Y161290D02*
D03*
X435870D02*
D03*
X642880Y82550D02*
D03*
X637280D02*
D03*
X642880Y73660D02*
D03*
X637280D02*
D03*
X345180Y160020D02*
D03*
X350780D02*
D03*
D100*
X170180Y57730D02*
D03*
Y66730D02*
D03*
D101*
X452120Y209030D02*
D03*
Y214630D02*
D03*
X330200Y155950D02*
D03*
Y161550D02*
D03*
X337820Y161550D02*
D03*
Y155950D02*
D03*
X318770Y209290D02*
D03*
Y214890D02*
D03*
D102*
X464820Y75720D02*
D03*
Y66520D02*
D03*
X454660D02*
D03*
Y75720D02*
D03*
X380600Y97790D02*
D03*
Y88590D02*
D03*
X357740Y72790D02*
D03*
Y81990D02*
D03*
D103*
X116420Y41910D02*
D03*
X127420D02*
D03*
X383960Y194570D02*
D03*
X372960D02*
D03*
X512660Y175260D02*
D03*
X523660D02*
D03*
X472020D02*
D03*
X483020D02*
D03*
D104*
X335400Y185290D02*
D03*
X340400D02*
D03*
X345400D02*
D03*
X350400D02*
D03*
Y200790D02*
D03*
X345400D02*
D03*
X340400D02*
D03*
X335400D02*
D03*
D105*
X335150Y190540D02*
D03*
Y195540D02*
D03*
X350650D02*
D03*
Y190540D02*
D03*
D106*
X383540Y221400D02*
D03*
Y210400D02*
D03*
X414920Y153250D02*
D03*
Y164250D02*
D03*
X544830Y175680D02*
D03*
Y164680D02*
D03*
X497840Y176110D02*
D03*
Y187110D02*
D03*
D107*
X438150Y106510D02*
D03*
Y78910D02*
D03*
D108*
X670560Y116000D02*
D03*
Y74500D02*
D03*
D109*
X685810Y111250D02*
D03*
Y79250D02*
D03*
X655310D02*
D03*
Y111250D02*
D03*
D110*
X589849Y262278D02*
D03*
X608848D02*
D03*
X589849Y287278D02*
D03*
X608848D02*
D03*
X599348Y262278D02*
D03*
Y287278D02*
D03*
D111*
X114100Y9550D02*
D03*
Y28550D02*
D03*
X89100Y19050D02*
D03*
D112*
X594360Y245480D02*
D03*
X604360D02*
D03*
X604360Y218480D02*
D03*
X594360Y218480D02*
D03*
D113*
X397970Y247280D02*
D03*
Y262280D02*
D03*
X385210D02*
D03*
Y247280D02*
D03*
D114*
X397970Y252280D02*
D03*
Y257280D02*
D03*
X385210D02*
D03*
Y252280D02*
D03*
D115*
X391590Y263380D02*
D03*
Y246180D02*
D03*
D116*
X588010Y113920D02*
D03*
X584010D02*
D03*
X580010D02*
D03*
X576010D02*
D03*
X588010Y117920D02*
D03*
X584010D02*
D03*
X580010D02*
D03*
X576010D02*
D03*
X588010Y121920D02*
D03*
X584010D02*
D03*
X580010D02*
D03*
X576010D02*
D03*
X588010Y125920D02*
D03*
X584010D02*
D03*
X580010D02*
D03*
X576010D02*
D03*
X588010Y129920D02*
D03*
X584010D02*
D03*
X580010D02*
D03*
X576010D02*
D03*
X588010Y133920D02*
D03*
X584010D02*
D03*
X580010D02*
D03*
X576010D02*
D03*
X588010Y137920D02*
D03*
X584010D02*
D03*
X580010D02*
D03*
X576010D02*
D03*
D117*
X542620Y138620D02*
D03*
X552120D02*
D03*
X386540Y276330D02*
D03*
X396040D02*
D03*
X457530Y109220D02*
D03*
X467030D02*
D03*
X620900Y138620D02*
D03*
X611400D02*
D03*
D118*
X189180Y67355D02*
D03*
Y57105D02*
D03*
X491490Y95205D02*
D03*
Y105455D02*
D03*
D119*
X357740Y96290D02*
D03*
Y109290D02*
D03*
D120*
X350990Y97790D02*
D03*
Y107790D02*
D03*
X364490D02*
D03*
Y97790D02*
D03*
D121*
X350990Y102790D02*
D03*
X364490D02*
D03*
D122*
X89690Y40640D02*
D03*
X80490D02*
D03*
X367050Y231910D02*
D03*
X357850D02*
D03*
D123*
X632270Y123561D02*
D03*
Y109161D02*
D03*
X537020Y124519D02*
D03*
Y110119D02*
D03*
D124*
X345365Y175821D02*
D03*
Y169221D02*
D03*
X78740Y177040D02*
D03*
Y183640D02*
D03*
X615950Y168150D02*
D03*
Y174750D02*
D03*
Y184660D02*
D03*
Y191260D02*
D03*
D125*
X549720Y112480D02*
D03*
Y124460D02*
D03*
X333610Y119769D02*
D03*
Y107790D02*
D03*
D126*
X488229Y67310D02*
D03*
X476250D02*
D03*
X357390Y129766D02*
D03*
X345410D02*
D03*
X367050Y242070D02*
D03*
X355070D02*
D03*
D127*
X369670Y275628D02*
D03*
Y285127D02*
D03*
X418290Y262280D02*
D03*
Y271780D02*
D03*
X366260Y257280D02*
D03*
Y266779D02*
D03*
D128*
X453517Y300990D02*
D03*
X443103D02*
D03*
X444913Y239200D02*
D03*
X455327D02*
D03*
D129*
X428117Y300990D02*
D03*
X417703D02*
D03*
D130*
X532820Y224700D02*
D03*
Y245200D02*
D03*
D131*
X215520Y19300D02*
D03*
X231520D02*
D03*
D132*
X383540Y316230D02*
D03*
X375540D02*
D03*
X367540D02*
D03*
X359540D02*
D03*
X351540D02*
D03*
X343540D02*
D03*
X335540D02*
D03*
X327540D02*
D03*
X319540D02*
D03*
X311540D02*
D03*
X303540D02*
D03*
X295540D02*
D03*
D133*
X396040Y335430D02*
D03*
X283040D02*
D03*
D134*
X669290Y295760D02*
D03*
X659290D02*
D03*
D135*
X430220Y194420D02*
D03*
X423220D02*
D03*
Y207420D02*
D03*
X430220D02*
D03*
X411170Y207160D02*
D03*
X404170D02*
D03*
Y194160D02*
D03*
X411170D02*
D03*
D136*
X632430Y201910D02*
D03*
Y206910D02*
D03*
Y196910D02*
D03*
Y191910D02*
D03*
Y186910D02*
D03*
Y211910D02*
D03*
Y181910D02*
D03*
Y216910D02*
D03*
D137*
Y175410D02*
D03*
Y167410D02*
D03*
Y223410D02*
D03*
Y231410D02*
D03*
D138*
X577060Y72390D02*
D03*
X586260D02*
D03*
X607013Y96520D02*
D03*
X597813D02*
D03*
X564670D02*
D03*
X555470D02*
D03*
X598960Y58420D02*
D03*
X589760D02*
D03*
D139*
X514350Y110350D02*
D03*
Y133350D02*
D03*
Y94050D02*
D03*
Y71050D02*
D03*
D140*
X439420Y122790D02*
D03*
Y136290D02*
D03*
X581747Y100768D02*
D03*
Y87268D02*
D03*
D141*
X588320Y45720D02*
D03*
X595320D02*
D03*
X621929D02*
D03*
X614929D02*
D03*
D142*
X501781Y227070D02*
D03*
X498281D02*
D03*
X494781D02*
D03*
X501781Y230571D02*
D03*
X498281D02*
D03*
X494781D02*
D03*
X501781Y234071D02*
D03*
X498281D02*
D03*
X494781D02*
D03*
X501781Y237571D02*
D03*
X498281D02*
D03*
X494781D02*
D03*
D143*
X582850Y184110D02*
D03*
Y179110D02*
D03*
X577850Y184110D02*
D03*
Y179110D02*
D03*
X572850Y184110D02*
D03*
Y179110D02*
D03*
D144*
X482600Y128270D02*
D03*
D145*
X475100Y138770D02*
D03*
X480100D02*
D03*
X485100D02*
D03*
X490100D02*
D03*
Y117770D02*
D03*
X485100D02*
D03*
X480100D02*
D03*
X475100D02*
D03*
D146*
X509000Y42000D02*
D03*
D147*
X459050D02*
D03*
D148*
X421640Y31750D02*
D03*
Y11430D02*
D03*
X370840Y21590D02*
D03*
X681010Y308164D02*
D03*
X670850Y257364D02*
D03*
X691170D02*
D03*
D149*
X278450Y19050D02*
D03*
X288450D02*
D03*
X298450D02*
D03*
X229006Y334514D02*
D03*
X239006D02*
D03*
X249006D02*
D03*
D150*
X438330Y221160D02*
D03*
X397330Y180160D02*
D03*
D151*
X426720Y328930D02*
D03*
X622097Y24986D02*
D03*
X562610Y24130D02*
D03*
D152*
X452120Y328930D02*
D03*
X596697Y24986D02*
D03*
X537210Y24130D02*
D03*
D153*
X467920Y25010D02*
D03*
D154*
X492920D02*
D03*
D155*
X638180Y156210D02*
D03*
Y242610D02*
D03*
D156*
X678180Y156210D02*
D03*
Y242610D02*
D03*
D157*
X489110Y330200D02*
D03*
D158*
X499110D02*
D03*
D159*
X33020Y33020D02*
D03*
Y317500D02*
D03*
X666750Y33020D02*
D03*
D160*
Y323850D02*
D03*
M02*
