G04*
G04 #@! TF.GenerationSoftware,Altium Limited,Altium Designer,26.9.1 (10)*
G04*
G04 Layer_Color=8421504*
G04 Board_Origin=10000000|10000000*
%FSLAX44Y44*%
%MOMM*%
G71*
G04*
G04 #@! TF.SameCoordinates,75951C10-6A3C-473B-BED1-0D9630791297*
G04*
G04*
G04 #@! TF.FilePolarity,Positive*
G04*
G01*
G75*
%ADD19R,0.1900X0.2500*%
%ADD20R,0.1900X0.2500*%
%ADD21R,4.2000X1.3500*%
%ADD22R,1.0000X0.6000*%
%ADD23R,1.3987X1.6987*%
%ADD24R,1.6987X1.3987*%
%ADD25R,0.6500X0.7000*%
%ADD26R,0.6250X0.4000*%
%ADD27R,0.5400X0.9400*%
%ADD28R,1.2700X0.6604*%
%ADD29R,0.4750X0.5000*%
%ADD30R,0.4200X0.4400*%
%ADD31R,0.4600X0.4200*%
%ADD32R,0.9400X0.7500*%
%ADD33R,1.0000X0.6604*%
%ADD34R,0.4000X0.6250*%
%ADD35R,0.4400X0.4200*%
%ADD36R,0.3600X0.3200*%
%ADD37R,0.7000X0.5100*%
%ADD38R,0.3200X0.3600*%
%ADD39R,0.6200X0.6000*%
%ADD40R,0.7500X0.6000*%
%ADD41R,0.3000X0.3500*%
%ADD42R,0.3500X0.3000*%
%ADD43R,0.6000X0.7500*%
%ADD44R,1.8200X1.0700*%
%ADD45R,1.4000X0.9500*%
%ADD46R,0.7500X1.1500*%
%ADD47R,0.6000X1.2000*%
%ADD48R,1.2500X0.6500*%
%ADD49R,0.6000X1.1000*%
%ADD50R,0.5750X0.3000*%
%ADD51R,0.5750X0.2500*%
%ADD52R,0.3500X0.6300*%
%ADD53C,0.2260*%
%ADD54R,0.4500X0.6000*%
%ADD55R,0.5000X0.4750*%
%ADD56R,0.3000X0.6000*%
%ADD57R,0.5500X0.2500*%
%ADD58R,0.5500X0.2000*%
%ADD59R,0.6000X0.6200*%
%ADD60R,1.0400X0.8100*%
%ADD61R,0.4200X0.4600*%
%ADD62R,0.7000X0.7000*%
%ADD63R,0.7000X0.7000*%
%ADD64R,0.6000X0.4500*%
%ADD65R,0.6604X1.2700*%
%ADD66R,0.6604X1.0000*%
%ADD67R,2.2000X0.8500*%
%ADD68R,0.5300X0.4200*%
%ADD69R,0.5000X1.0000*%
%ADD70R,0.9000X1.6000*%
%ADD71R,0.3000X0.6000*%
%ADD72R,0.4000X0.5000*%
%ADD73R,1.1500X0.3000*%
%ADD74R,1.1500X0.6000*%
%ADD75R,0.6900X0.7200*%
%ADD76R,0.5000X1.1000*%
%ADD77R,0.7000X0.6500*%
%ADD78R,0.4000X0.7000*%
%ADD79C,0.1690*%
%ADD80C,0.2980*%
%ADD81R,1.7000X1.0000*%
%ADD82R,0.3000X0.7000*%
D19*
X664290Y293260D02*
D03*
D20*
X664291Y298259D02*
D03*
D21*
X21000Y115260D02*
D03*
Y171760D02*
D03*
D22*
X132908Y27950D02*
D03*
Y8850D02*
D03*
X156908Y18400D02*
D03*
X178500Y28850D02*
D03*
Y9750D02*
D03*
X202500Y19300D02*
D03*
D23*
X132180Y250150D02*
D03*
X151180D02*
D03*
X170180D02*
D03*
X189180D02*
D03*
X208180D02*
D03*
Y118150D02*
D03*
X189180D02*
D03*
X170180D02*
D03*
X151180D02*
D03*
X132180D02*
D03*
D24*
X236180Y222150D02*
D03*
Y203150D02*
D03*
Y184150D02*
D03*
Y165150D02*
D03*
Y146150D02*
D03*
X104180D02*
D03*
Y165150D02*
D03*
Y184150D02*
D03*
Y203150D02*
D03*
Y222150D02*
D03*
D25*
X458290Y269648D02*
D03*
X471790D02*
D03*
X512000Y209000D02*
D03*
X498500D02*
D03*
X202680Y293000D02*
D03*
X189180D02*
D03*
X493990Y252902D02*
D03*
X507490D02*
D03*
X552050Y82550D02*
D03*
X565550D02*
D03*
X443630Y283210D02*
D03*
X430130D02*
D03*
X597260Y82550D02*
D03*
X610760D02*
D03*
D26*
X486600Y200660D02*
D03*
X478360D02*
D03*
X478641Y228374D02*
D03*
X470401D02*
D03*
X469629Y214980D02*
D03*
X477869D02*
D03*
X404280Y285220D02*
D03*
X396040D02*
D03*
X585250Y164400D02*
D03*
X593490D02*
D03*
X576970Y154940D02*
D03*
X585210D02*
D03*
D27*
X494000Y263000D02*
D03*
X510000D02*
D03*
X189180Y277399D02*
D03*
X205180D02*
D03*
D28*
X321310Y281813D02*
D03*
Y292227D02*
D03*
X339090Y281813D02*
D03*
Y292227D02*
D03*
X304800Y281813D02*
D03*
Y292227D02*
D03*
D29*
X180125Y279400D02*
D03*
X169875D02*
D03*
X297135Y184150D02*
D03*
X286884D02*
D03*
X297135Y203200D02*
D03*
X286884D02*
D03*
Y165149D02*
D03*
X297135D02*
D03*
D30*
X472661Y248093D02*
D03*
Y254893D02*
D03*
X340790Y79820D02*
D03*
Y86620D02*
D03*
X414020Y247240D02*
D03*
Y240440D02*
D03*
X374650Y120200D02*
D03*
Y127000D02*
D03*
X231140Y43180D02*
D03*
Y36380D02*
D03*
D31*
X195780Y268000D02*
D03*
X189180D02*
D03*
X622496Y298794D02*
D03*
X629096D02*
D03*
X353851Y209421D02*
D03*
X360451D02*
D03*
D32*
X455220Y182231D02*
D03*
Y196231D02*
D03*
X562610Y61610D02*
D03*
Y47610D02*
D03*
X455930Y128890D02*
D03*
Y142890D02*
D03*
X618300Y122861D02*
D03*
Y108861D02*
D03*
X546100Y47610D02*
D03*
Y61610D02*
D03*
X576580D02*
D03*
Y47610D02*
D03*
D33*
X265430Y286893D02*
D03*
Y297307D02*
D03*
X306070Y261747D02*
D03*
Y251333D02*
D03*
D34*
X645160Y268280D02*
D03*
Y260040D02*
D03*
X604010Y171760D02*
D03*
Y163520D02*
D03*
X427180Y270520D02*
D03*
Y262280D02*
D03*
X359870Y275628D02*
D03*
Y283868D02*
D03*
X480100Y96210D02*
D03*
Y104450D02*
D03*
X480060Y154630D02*
D03*
Y162870D02*
D03*
X566420Y160330D02*
D03*
Y152090D02*
D03*
X358640Y265519D02*
D03*
Y257280D02*
D03*
X334010Y244460D02*
D03*
Y236220D02*
D03*
D35*
X471702Y237088D02*
D03*
X478501D02*
D03*
X604010Y151320D02*
D03*
X610810D02*
D03*
D36*
X435870Y168910D02*
D03*
X430270D02*
D03*
Y161290D02*
D03*
X435870D02*
D03*
X642880Y82550D02*
D03*
X637280D02*
D03*
X642880Y73660D02*
D03*
X637280D02*
D03*
X345180Y160020D02*
D03*
X350780D02*
D03*
D37*
X170180Y57730D02*
D03*
Y66730D02*
D03*
D38*
X452120Y209030D02*
D03*
Y214630D02*
D03*
X330200Y155950D02*
D03*
Y161550D02*
D03*
X337820Y161550D02*
D03*
Y155950D02*
D03*
X318770Y209290D02*
D03*
Y214890D02*
D03*
D39*
X464820Y75720D02*
D03*
Y66520D02*
D03*
X454660D02*
D03*
Y75720D02*
D03*
X380600Y97790D02*
D03*
Y88590D02*
D03*
X357740Y72790D02*
D03*
Y81990D02*
D03*
D40*
X116420Y41910D02*
D03*
X127420D02*
D03*
X383960Y194570D02*
D03*
X372960D02*
D03*
X512660Y175260D02*
D03*
X523660D02*
D03*
X472020D02*
D03*
X483020D02*
D03*
D41*
X335400Y185290D02*
D03*
X340400D02*
D03*
X345400D02*
D03*
X350400D02*
D03*
Y200790D02*
D03*
X345400D02*
D03*
X340400D02*
D03*
X335400D02*
D03*
D42*
X335150Y190540D02*
D03*
Y195540D02*
D03*
X350650D02*
D03*
Y190540D02*
D03*
D43*
X383540Y221400D02*
D03*
Y210400D02*
D03*
X414920Y153250D02*
D03*
Y164250D02*
D03*
X544830Y175680D02*
D03*
Y164680D02*
D03*
X497840Y176110D02*
D03*
Y187110D02*
D03*
D44*
X438150Y106510D02*
D03*
Y78910D02*
D03*
D45*
X670560Y116000D02*
D03*
Y74500D02*
D03*
D46*
X685810Y111250D02*
D03*
Y79250D02*
D03*
X655310D02*
D03*
Y111250D02*
D03*
D47*
X589849Y262278D02*
D03*
X608848D02*
D03*
X589849Y287278D02*
D03*
X608848D02*
D03*
X599348Y262278D02*
D03*
Y287278D02*
D03*
D48*
X114100Y9550D02*
D03*
Y28550D02*
D03*
X89100Y19050D02*
D03*
D49*
X594360Y245480D02*
D03*
X604360D02*
D03*
X604360Y218480D02*
D03*
X594360Y218480D02*
D03*
D50*
X397970Y247280D02*
D03*
Y262280D02*
D03*
X385210D02*
D03*
Y247280D02*
D03*
D51*
X397970Y252280D02*
D03*
Y257280D02*
D03*
X385210D02*
D03*
Y252280D02*
D03*
D52*
X391590Y263380D02*
D03*
Y246180D02*
D03*
D53*
X588010Y113920D02*
D03*
X584010D02*
D03*
X580010D02*
D03*
X576010D02*
D03*
X588010Y117920D02*
D03*
X584010D02*
D03*
X580010D02*
D03*
X576010D02*
D03*
X588010Y121920D02*
D03*
X584010D02*
D03*
X580010D02*
D03*
X576010D02*
D03*
X588010Y125920D02*
D03*
X584010D02*
D03*
X580010D02*
D03*
X576010D02*
D03*
X588010Y129920D02*
D03*
X584010D02*
D03*
X580010D02*
D03*
X576010D02*
D03*
X588010Y133920D02*
D03*
X584010D02*
D03*
X580010D02*
D03*
X576010D02*
D03*
X588010Y137920D02*
D03*
X584010D02*
D03*
X580010D02*
D03*
X576010D02*
D03*
D54*
X542620Y138620D02*
D03*
X552120D02*
D03*
X386540Y276330D02*
D03*
X396040D02*
D03*
X457530Y109220D02*
D03*
X467030D02*
D03*
X620900Y138620D02*
D03*
X611400D02*
D03*
D55*
X189180Y67355D02*
D03*
Y57105D02*
D03*
X491490Y95205D02*
D03*
Y105455D02*
D03*
D56*
X357740Y96290D02*
D03*
Y109290D02*
D03*
D57*
X350990Y97790D02*
D03*
Y107790D02*
D03*
X364490D02*
D03*
Y97790D02*
D03*
D58*
X350990Y102790D02*
D03*
X364490D02*
D03*
D59*
X89690Y40640D02*
D03*
X80490D02*
D03*
X367050Y231910D02*
D03*
X357850D02*
D03*
D60*
X632270Y123561D02*
D03*
Y109161D02*
D03*
X537020Y124519D02*
D03*
Y110119D02*
D03*
D61*
X345365Y175821D02*
D03*
Y169221D02*
D03*
X78740Y177040D02*
D03*
Y183640D02*
D03*
X615950Y168150D02*
D03*
Y174750D02*
D03*
Y184660D02*
D03*
Y191260D02*
D03*
D62*
X549720Y112480D02*
D03*
Y124460D02*
D03*
X333610Y119769D02*
D03*
Y107790D02*
D03*
D63*
X488229Y67310D02*
D03*
X476250D02*
D03*
X357390Y129766D02*
D03*
X345410D02*
D03*
X367050Y242070D02*
D03*
X355070D02*
D03*
D64*
X369670Y275628D02*
D03*
Y285127D02*
D03*
X418290Y262280D02*
D03*
Y271780D02*
D03*
X366260Y257280D02*
D03*
Y266779D02*
D03*
D65*
X453517Y300990D02*
D03*
X443103D02*
D03*
X444913Y239200D02*
D03*
X455327D02*
D03*
D66*
X428117Y300990D02*
D03*
X417703D02*
D03*
D67*
X532820Y224700D02*
D03*
Y245200D02*
D03*
D68*
X215520Y19300D02*
D03*
X231520D02*
D03*
D69*
X383540Y316230D02*
D03*
X375540D02*
D03*
X367540D02*
D03*
X359540D02*
D03*
X351540D02*
D03*
X343540D02*
D03*
X335540D02*
D03*
X327540D02*
D03*
X319540D02*
D03*
X311540D02*
D03*
X303540D02*
D03*
X295540D02*
D03*
D70*
X396040Y335430D02*
D03*
X283040D02*
D03*
D71*
X669290Y295760D02*
D03*
X659290D02*
D03*
D72*
X430220Y194420D02*
D03*
X423220D02*
D03*
Y207420D02*
D03*
X430220D02*
D03*
X411170Y207160D02*
D03*
X404170D02*
D03*
Y194160D02*
D03*
X411170D02*
D03*
D73*
X632430Y201910D02*
D03*
Y206910D02*
D03*
Y196910D02*
D03*
Y191910D02*
D03*
Y186910D02*
D03*
Y211910D02*
D03*
Y181910D02*
D03*
Y216910D02*
D03*
D74*
Y175410D02*
D03*
Y167410D02*
D03*
Y223410D02*
D03*
Y231410D02*
D03*
D75*
X577060Y72390D02*
D03*
X586260D02*
D03*
X607013Y96520D02*
D03*
X597813D02*
D03*
X564670D02*
D03*
X555470D02*
D03*
X598960Y58420D02*
D03*
X589760D02*
D03*
D76*
X514350Y110350D02*
D03*
Y133350D02*
D03*
Y94050D02*
D03*
Y71050D02*
D03*
D77*
X439420Y122790D02*
D03*
Y136290D02*
D03*
X581747Y100768D02*
D03*
Y87268D02*
D03*
D78*
X588320Y45720D02*
D03*
X595320D02*
D03*
X621929D02*
D03*
X614929D02*
D03*
D79*
X501781Y227070D02*
D03*
X498281D02*
D03*
X494781D02*
D03*
X501781Y230571D02*
D03*
X498281D02*
D03*
X494781D02*
D03*
X501781Y234071D02*
D03*
X498281D02*
D03*
X494781D02*
D03*
X501781Y237571D02*
D03*
X498281D02*
D03*
X494781D02*
D03*
D80*
X582850Y184110D02*
D03*
Y179110D02*
D03*
X577850Y184110D02*
D03*
Y179110D02*
D03*
X572850Y184110D02*
D03*
Y179110D02*
D03*
D81*
X482600Y128270D02*
D03*
D82*
X475100Y138770D02*
D03*
X480100D02*
D03*
X485100D02*
D03*
X490100D02*
D03*
Y117770D02*
D03*
X485100D02*
D03*
X480100D02*
D03*
X475100D02*
D03*
M02*
