G04*
G04 #@! TF.GenerationSoftware,Altium Limited,Altium Designer,26.9.1 (10)*
G04*
G04 Layer_Physical_Order=6*
G04 Layer_Color=16711680*
G04 Board_Origin=10000000|10000000*
%FSLAX44Y44*%
%MOMM*%
G71*
G04*
G04 #@! TF.SameCoordinates,75951C10-6A3C-473B-BED1-0D9630791297*
G04*
G04*
G04 #@! TF.FilePolarity,Positive*
G04*
G01*
G75*
%ADD10C,0.1000*%
%ADD11C,0.2000*%
%ADD13C,0.2540*%
%ADD15C,0.2000*%
%ADD17C,0.1500*%
%ADD18C,0.1200*%
%ADD21R,4.2000X1.3500*%
%ADD25R,0.6500X0.7000*%
%ADD26R,0.6250X0.4000*%
%ADD27R,0.5400X0.9400*%
%ADD30R,0.4200X0.4400*%
%ADD33R,1.0000X0.6604*%
%ADD35R,0.4400X0.4200*%
%ADD36R,0.3600X0.3200*%
%ADD38R,0.3200X0.3600*%
%ADD39R,0.6200X0.6000*%
%ADD40R,0.7500X0.6000*%
%ADD43R,0.6000X0.7500*%
%ADD53C,0.2260*%
%ADD54R,0.4500X0.6000*%
%ADD59R,0.6000X0.6200*%
%ADD62R,0.7000X0.7000*%
%ADD65R,0.6604X1.2700*%
%ADD66R,0.6604X1.0000*%
%ADD67R,2.2000X0.8500*%
%ADD71R,0.3000X0.6000*%
%ADD79C,0.1690*%
%ADD160C,2.0000*%
%ADD163R,0.1900X0.7500*%
%ADD164C,0.4000*%
%ADD166C,0.5000*%
%ADD169C,0.3000*%
%ADD170C,0.6000*%
%ADD175C,0.1465*%
%ADD178R,1.5240X1.5240*%
%ADD179C,1.5240*%
%ADD180C,0.6500*%
%ADD181C,0.7500*%
%ADD182C,0.6200*%
%ADD183C,1.9000*%
%ADD184R,1.9000X1.9000*%
%ADD185R,1.5000X1.5000*%
%ADD186C,1.5000*%
%ADD187O,1.8000X1.0000*%
%ADD188O,2.2000X1.0000*%
%ADD189R,0.8500X0.8500*%
%ADD190C,0.8500*%
%ADD191C,5.5000*%
%ADD192C,0.3000*%
%ADD193C,0.4000*%
%ADD194C,0.5000*%
%ADD195C,0.6000*%
%ADD196C,0.2500*%
%ADD223R,2.2000X1.0500*%
%ADD224R,1.0500X1.0500*%
%ADD225R,0.4000X0.4000*%
%ADD226R,0.8000X0.8000*%
G04:AMPARAMS|DCode=227|XSize=0.7mm|YSize=1.2mm|CornerRadius=0mm|HoleSize=0mm|Usage=FLASHONLY|Rotation=315.000|XOffset=0mm|YOffset=0mm|HoleType=Round|Shape=Rectangle|*
%AMROTATEDRECTD227*
4,1,4,-0.6718,-0.1768,0.1768,0.6718,0.6718,0.1768,-0.1768,-0.6718,-0.6718,-0.1768,0.0*
%
%ADD227ROTATEDRECTD227*%

G04:AMPARAMS|DCode=228|XSize=0.7mm|YSize=1.2mm|CornerRadius=0mm|HoleSize=0mm|Usage=FLASHONLY|Rotation=45.000|XOffset=0mm|YOffset=0mm|HoleType=Round|Shape=Rectangle|*
%AMROTATEDRECTD228*
4,1,4,0.1768,-0.6718,-0.6718,0.1768,-0.1768,0.6718,0.6718,-0.1768,0.1768,-0.6718,0.0*
%
%ADD228ROTATEDRECTD228*%

%ADD229R,0.9000X0.6500*%
G04:AMPARAMS|DCode=230|XSize=2mm|YSize=1mm|CornerRadius=0mm|HoleSize=0mm|Usage=FLASHONLY|Rotation=135.000|XOffset=0mm|YOffset=0mm|HoleType=Round|Shape=Rectangle|*
%AMROTATEDRECTD230*
4,1,4,1.0607,-0.3536,0.3536,-1.0607,-1.0607,0.3536,-0.3536,1.0607,1.0607,-0.3536,0.0*
%
%ADD230ROTATEDRECTD230*%

%ADD231R,1.2500X0.6000*%
%ADD232R,0.6000X1.1500*%
G04:AMPARAMS|DCode=233|XSize=0.44mm|YSize=0.42mm|CornerRadius=0mm|HoleSize=0mm|Usage=FLASHONLY|Rotation=315.000|XOffset=0mm|YOffset=0mm|HoleType=Round|Shape=Rectangle|*
%AMROTATEDRECTD233*
4,1,4,-0.3041,0.0071,-0.0071,0.3041,0.3041,-0.0071,0.0071,-0.3041,-0.3041,0.0071,0.0*
%
%ADD233ROTATEDRECTD233*%

%ADD234C,0.7870*%
%ADD235R,0.5700X1.1500*%
%ADD236R,1.0000X0.4000*%
%ADD237R,0.5000X0.5000*%
%ADD238R,1.0000X1.0000*%
%ADD239R,4.1999X1.7000*%
%ADD240R,1.1000X0.5000*%
%ADD241R,2.8956X1.0922*%
%ADD242R,1.7018X0.6604*%
%ADD243R,1.5500X0.6000*%
%ADD244R,1.8000X1.2000*%
%ADD245R,0.5100X0.3200*%
%ADD246R,0.3200X0.5100*%
%ADD247C,0.8703*%
%ADD248C,0.2640*%
%ADD249R,3.4000X4.0000*%
%ADD250R,0.6401X1.0487*%
G36*
X386479Y348297D02*
X386590Y347736D01*
X384682Y345828D01*
X242148D01*
X242148Y345828D01*
X240978Y345595D01*
X239985Y344932D01*
X239985Y344932D01*
X237059Y342006D01*
X236396Y341014D01*
X236164Y339843D01*
X236164Y339843D01*
Y339560D01*
X235749Y339388D01*
X234660Y338298D01*
X234006Y337856D01*
X233353Y338298D01*
X232264Y339388D01*
X230150Y340263D01*
X227863D01*
X225749Y339388D01*
X224132Y337771D01*
X223256Y335657D01*
Y333370D01*
X224132Y331256D01*
X225749Y329639D01*
X227863Y328764D01*
X230150D01*
X232264Y329639D01*
X233353Y330728D01*
X234006Y331171D01*
X234660Y330728D01*
X235749Y329639D01*
X237863Y328764D01*
X240150D01*
X242264Y329639D01*
X243591Y330967D01*
X243674Y330950D01*
X245443Y329181D01*
X247736Y328231D01*
Y334514D01*
X249006D01*
Y335784D01*
X255289D01*
X254339Y338077D01*
X253629Y338787D01*
X254011Y339711D01*
X385949D01*
X385949Y339711D01*
X387120Y339943D01*
X388112Y340606D01*
X390160Y342654D01*
X465820D01*
X471100Y337375D01*
Y325162D01*
X471087Y325146D01*
X471065Y325146D01*
X471448Y323221D01*
X472541Y321586D01*
X472558Y321603D01*
X472575Y321601D01*
X479590Y314586D01*
X480583Y313923D01*
X481753Y313690D01*
X494514D01*
X516997Y291207D01*
X517990Y290544D01*
X519160Y290311D01*
X559937D01*
X564424Y285825D01*
X564424Y285825D01*
X564840Y285546D01*
X564537Y284546D01*
X519879D01*
X508801Y295625D01*
X507808Y296288D01*
X506638Y296521D01*
X506638Y296521D01*
X503256D01*
X495062Y304716D01*
X494069Y305379D01*
X492899Y305612D01*
X492899Y305612D01*
X479764D01*
X477223Y308153D01*
X476231Y308816D01*
X475060Y309049D01*
X475060Y309049D01*
X474000D01*
Y310190D01*
X465800D01*
Y310161D01*
X465610Y310033D01*
X464610Y310540D01*
Y310540D01*
X461473D01*
X461459Y310544D01*
X461440Y310541D01*
X461421Y310546D01*
X461239Y310555D01*
X461153Y310568D01*
X461056Y310592D01*
X460944Y310631D01*
X460816Y310689D01*
X460670Y310769D01*
X460508Y310875D01*
X460330Y311009D01*
X460247Y311078D01*
X455179Y316147D01*
Y317018D01*
X455385Y317430D01*
X463620D01*
Y340430D01*
X440620D01*
Y317430D01*
X448855D01*
X449061Y317018D01*
Y314880D01*
X449061Y314880D01*
X449294Y313710D01*
X449957Y312717D01*
X456306Y306368D01*
X456804Y305788D01*
X456998Y305523D01*
X457159Y305275D01*
X457274Y305066D01*
X457347Y304903D01*
X457384Y304792D01*
X457396Y304736D01*
X457407Y304582D01*
X457410Y304570D01*
X457410Y301856D01*
X456870Y301080D01*
X456870Y300664D01*
Y297260D01*
X461010D01*
Y295990D01*
X462280D01*
Y290900D01*
X465150D01*
Y293496D01*
X465260Y294450D01*
X466150Y294450D01*
X468630D01*
Y299190D01*
X469900D01*
Y300460D01*
X474540D01*
Y300878D01*
X475464Y301260D01*
X476191Y300534D01*
X476194Y300530D01*
X476194Y300530D01*
X476198Y300526D01*
X476317Y300447D01*
X476355Y300390D01*
X477347Y299727D01*
X478518Y299494D01*
X491632D01*
X499827Y291299D01*
X499827Y291299D01*
X500819Y290636D01*
X501990Y290403D01*
X505371D01*
X516450Y279325D01*
X517442Y278662D01*
X518612Y278429D01*
X518613Y278429D01*
X544912D01*
X545215Y277429D01*
X544798Y277150D01*
X540656Y273009D01*
X516987D01*
X511623Y278373D01*
X510972Y278808D01*
X509965Y279815D01*
X509906Y279956D01*
X508922Y280941D01*
X507635Y281474D01*
X506243D01*
X504957Y280941D01*
X503972Y279956D01*
X503557Y278956D01*
X502914Y278460D01*
X501999Y278864D01*
Y281400D01*
X484367D01*
X484356Y281402D01*
X484254Y281429D01*
X484136Y281472D01*
X484003Y281533D01*
X483852Y281618D01*
X483686Y281727D01*
X483505Y281864D01*
X483424Y281933D01*
X481445Y283912D01*
X480453Y284575D01*
X479282Y284807D01*
X479282Y284807D01*
X464362D01*
X464263Y284907D01*
X462976Y285440D01*
X461584D01*
X460297Y284907D01*
X459313Y283923D01*
X458780Y282636D01*
Y281244D01*
X459313Y279957D01*
X460297Y278973D01*
X461584Y278440D01*
X462976D01*
X463579Y278690D01*
X478015D01*
X480448Y276257D01*
X480517Y276176D01*
X480654Y275995D01*
X480763Y275829D01*
X480848Y275678D01*
X480909Y275545D01*
X480952Y275427D01*
X480979Y275324D01*
X480981Y275314D01*
Y264700D01*
X499060D01*
X499363Y264048D01*
X499404Y263700D01*
X495315Y259610D01*
X481848Y246144D01*
X379242D01*
X379242Y246144D01*
X378072Y245911D01*
X377079Y245248D01*
X364215Y232384D01*
X363552Y231392D01*
X363319Y230221D01*
X363319Y230221D01*
Y220907D01*
X336271Y193859D01*
X332777Y197353D01*
X324999Y189575D01*
X336313Y178261D01*
X344091Y186040D01*
X340597Y189534D01*
X368541Y217477D01*
X369204Y218470D01*
X369437Y219640D01*
Y228954D01*
X380509Y240027D01*
X483115D01*
X483116Y240027D01*
X484286Y240259D01*
X485278Y240923D01*
X499640Y255285D01*
X502917Y258561D01*
X558135D01*
X559177Y257519D01*
X560169Y256856D01*
X561340Y256623D01*
X562510Y256856D01*
X562673Y256965D01*
X563964Y257031D01*
X572921D01*
X573352Y256060D01*
X572933Y255534D01*
X540667D01*
X540014Y255664D01*
X508619D01*
X507546Y255450D01*
X506636Y254843D01*
X494587Y242794D01*
X493980Y241884D01*
X493766Y240811D01*
Y235790D01*
X492470D01*
Y235214D01*
X386080D01*
X385007Y235000D01*
X384097Y234393D01*
X373937Y224233D01*
X373330Y223323D01*
X373116Y222250D01*
Y200476D01*
X362134Y189494D01*
X360286D01*
X360123Y189657D01*
X358836Y190190D01*
X357444D01*
X356157Y189657D01*
X355173Y188673D01*
X354640Y187386D01*
Y185994D01*
X355173Y184707D01*
X356157Y183723D01*
X357444Y183190D01*
X358836D01*
X360123Y183723D01*
X360286Y183886D01*
X363295D01*
X364368Y184100D01*
X365278Y184707D01*
X377903Y197332D01*
X378510Y198242D01*
X378724Y199315D01*
Y221089D01*
X387241Y229606D01*
X490961D01*
X491930Y229530D01*
Y226060D01*
X496570D01*
X501210D01*
Y229530D01*
X500670D01*
Y235790D01*
X499374D01*
Y239650D01*
X509780Y250056D01*
X521284D01*
X521666Y249132D01*
X510893Y238358D01*
X509827Y237917D01*
X508843Y236933D01*
X508310Y235646D01*
Y234254D01*
X508843Y232967D01*
X509827Y231983D01*
X511114Y231450D01*
X512506D01*
X513793Y231983D01*
X514777Y232967D01*
X515218Y234033D01*
X526097Y244912D01*
X538892D01*
X539306Y243912D01*
X493265Y197871D01*
X492602Y196878D01*
X492369Y195708D01*
X492369Y195708D01*
Y120775D01*
X478666Y107072D01*
X438800D01*
Y119729D01*
X435895D01*
X435227Y120729D01*
X435316Y120944D01*
Y122337D01*
X434783Y123623D01*
X433799Y124607D01*
X432512Y125140D01*
X431120D01*
X429834Y124607D01*
X428849Y123623D01*
X428316Y122337D01*
Y120944D01*
X428405Y120729D01*
X427737Y119729D01*
X424800D01*
Y107278D01*
X424388Y107072D01*
X413343D01*
X413343Y107072D01*
X412172Y106839D01*
X411291Y106250D01*
X407380D01*
Y105109D01*
X401840D01*
X401840Y105109D01*
X400670Y104876D01*
X399677Y104213D01*
X399677Y104213D01*
X389972Y94507D01*
X389618Y94861D01*
X388809Y95196D01*
Y93339D01*
X388409Y92372D01*
Y91749D01*
X387539D01*
Y91135D01*
X386244Y90877D01*
X385648Y90479D01*
X384093D01*
X384341Y89882D01*
X383026Y89003D01*
X382049Y88027D01*
X381624Y87669D01*
X381469Y87554D01*
X381357Y87479D01*
X381320Y87459D01*
X381263Y87434D01*
X380580Y87298D01*
X377390D01*
Y87759D01*
X372783D01*
X372290Y87857D01*
X372190D01*
X371698Y87759D01*
X367190D01*
X366500Y88473D01*
Y88479D01*
X364513D01*
X364469Y88488D01*
X364426Y88479D01*
X357574D01*
X357531Y88488D01*
X357487Y88479D01*
X355500D01*
Y88207D01*
X351771Y87648D01*
X332298D01*
X315484Y104462D01*
X315147Y104863D01*
X314719Y105460D01*
X314428Y105963D01*
X314263Y106353D01*
X314200Y106609D01*
X314195Y106735D01*
X314202Y106775D01*
X314218Y106808D01*
X314406Y107041D01*
X315707Y108343D01*
X314303Y109747D01*
X314278Y109784D01*
X314241Y109809D01*
X307929Y116121D01*
X296616Y104807D01*
X302927Y98496D01*
X302952Y98458D01*
X302989Y98434D01*
X304394Y97029D01*
X305695Y98330D01*
X305928Y98518D01*
X305962Y98534D01*
X306001Y98542D01*
X306127Y98537D01*
X306384Y98473D01*
X306773Y98309D01*
X307276Y98017D01*
X307874Y97589D01*
X308274Y97253D01*
X316955Y88572D01*
X316572Y87648D01*
X307804D01*
X302087Y93365D01*
X301762Y93690D01*
X301351Y93965D01*
X301339Y93974D01*
X301339Y93974D01*
Y93974D01*
X293561Y101752D01*
X282247Y90439D01*
X290026Y82660D01*
X292091Y84726D01*
X296051Y84981D01*
X301907Y79125D01*
X302395Y78395D01*
X304049Y77290D01*
X306000Y76902D01*
X307951Y77290D01*
X308193Y77452D01*
X319744D01*
X320126Y76528D01*
X315896Y72297D01*
X314790Y70643D01*
X314402Y68692D01*
Y57436D01*
X314790Y55485D01*
X315896Y53831D01*
X317024Y52702D01*
Y47610D01*
X327519D01*
X327642Y44893D01*
Y41852D01*
X324888Y39098D01*
X319112D01*
X282787Y75422D01*
X286971Y79606D01*
X279193Y87384D01*
X267879Y76070D01*
X271773Y72176D01*
X272052Y71758D01*
X274487Y69323D01*
X274527Y69263D01*
X313395Y30395D01*
X315049Y29290D01*
X317000Y28902D01*
X327000D01*
X328951Y29290D01*
X330605Y30395D01*
X336345Y36135D01*
X337450Y37789D01*
X337838Y39740D01*
Y44893D01*
X337961Y47610D01*
X344062D01*
X344456Y47532D01*
X344456Y47532D01*
X345326D01*
X346475Y46764D01*
X348036Y46453D01*
X348036Y46453D01*
X355600D01*
X357161Y46764D01*
X358484Y47648D01*
X359368Y48971D01*
X359678Y50532D01*
X359368Y52092D01*
X358484Y53415D01*
X357161Y54300D01*
X355600Y54610D01*
X349668D01*
X348519Y55378D01*
X348456Y55390D01*
Y61610D01*
X325429D01*
X325402Y61613D01*
X325354Y61631D01*
X325310Y61660D01*
X325218Y61760D01*
X325078Y61992D01*
X324917Y62386D01*
X324766Y62950D01*
X324645Y63675D01*
X324598Y64202D01*
Y66581D01*
X331973Y73956D01*
X333078Y75609D01*
X333445Y77452D01*
X354131D01*
X354960Y77040D01*
Y72270D01*
X361000D01*
Y71000D01*
X362270D01*
Y64960D01*
X367040D01*
Y68019D01*
X371020D01*
Y73559D01*
X372290D01*
Y74829D01*
X377930D01*
Y77102D01*
X381990D01*
X382352Y77174D01*
X384906Y74938D01*
X386067Y73776D01*
Y59396D01*
X386052Y59215D01*
X386027Y59070D01*
X373920D01*
Y45070D01*
X375957D01*
X376163Y44658D01*
Y33430D01*
X376163Y33430D01*
X376396Y32259D01*
X377059Y31267D01*
X378011Y30315D01*
X378043Y30275D01*
X378068Y30239D01*
X377605Y29121D01*
Y26760D01*
X378509Y24578D01*
X380178Y22909D01*
X382133Y22099D01*
Y21081D01*
X380178Y20271D01*
X378509Y18602D01*
X377605Y16421D01*
Y16234D01*
X377166Y16052D01*
X376181Y15067D01*
X375649Y13781D01*
Y12388D01*
X376181Y11102D01*
X377166Y10118D01*
X378452Y9585D01*
X379845D01*
X380765Y9966D01*
X382360Y9305D01*
X384720D01*
X386902Y10209D01*
X388571Y11878D01*
X389381Y13833D01*
X390399D01*
X391209Y11878D01*
X392348Y10738D01*
X392421Y9411D01*
X392402Y9378D01*
X391163Y8139D01*
X220187Y8139D01*
X211163Y17163D01*
X210170Y17826D01*
X209000Y18059D01*
X209000Y18059D01*
X201267D01*
X190059Y29267D01*
Y38057D01*
X194695Y42693D01*
X198189Y39199D01*
X205967Y46978D01*
X194653Y58291D01*
X186875Y50513D01*
X190369Y47019D01*
X184837Y41487D01*
X184174Y40495D01*
X183941Y39324D01*
X183941Y39324D01*
Y28000D01*
X183941Y28000D01*
X184174Y26830D01*
X184837Y25837D01*
X197837Y12837D01*
X198829Y12174D01*
X200000Y11941D01*
X207733D01*
X216757Y2917D01*
X216757Y2917D01*
X217750Y2254D01*
X218920Y2021D01*
X218920Y2021D01*
X392430Y2021D01*
X392430Y2021D01*
X393601Y2254D01*
X394593Y2917D01*
X398403Y6727D01*
X399066Y7720D01*
X399299Y8890D01*
X399299Y8890D01*
Y9799D01*
X399304Y9857D01*
X399328Y10004D01*
X399354Y10106D01*
X399602Y10209D01*
X401271Y11878D01*
X402081Y13833D01*
X403099D01*
X403909Y11878D01*
X405578Y10209D01*
X407760Y9305D01*
X410121D01*
X412302Y10209D01*
X413685Y11592D01*
X414685Y11187D01*
Y10514D01*
X415159Y8745D01*
X416075Y7160D01*
X417369Y5865D01*
X418955Y4949D01*
X420724Y4475D01*
X422556D01*
X424324Y4949D01*
X425910Y5865D01*
X427205Y7160D01*
X428121Y8745D01*
X428595Y10514D01*
Y12346D01*
X428121Y14115D01*
X427205Y15701D01*
X426788Y16117D01*
X427203Y17117D01*
X432926D01*
X432926Y17117D01*
X434097Y17350D01*
X435089Y18013D01*
X438313Y21237D01*
X438313Y21237D01*
X438976Y22229D01*
X439209Y23400D01*
Y38280D01*
X443150D01*
Y48740D01*
X443690D01*
Y53760D01*
X438150D01*
X432610D01*
Y48740D01*
X433150D01*
Y42326D01*
X433091Y42030D01*
X433091Y42030D01*
Y24667D01*
X431659Y23235D01*
X414806D01*
X414392Y24235D01*
X414429Y24272D01*
X415415Y26652D01*
Y26725D01*
X416415Y27139D01*
X417369Y26185D01*
X418955Y25269D01*
X420724Y24795D01*
X422556D01*
X424324Y25269D01*
X425910Y26185D01*
X427205Y27480D01*
X428121Y29065D01*
X428595Y30834D01*
Y32666D01*
X428121Y34434D01*
X427205Y36021D01*
X425910Y37315D01*
X424324Y38231D01*
X422556Y38705D01*
X420724D01*
X418955Y38231D01*
X417369Y37315D01*
X416075Y36021D01*
X415159Y34434D01*
X414706Y32745D01*
X414433Y32587D01*
X413685Y32352D01*
X412608Y33429D01*
X410228Y34415D01*
X410210D01*
Y27940D01*
X407670D01*
Y34415D01*
X407652D01*
X405272Y33429D01*
X403451Y31608D01*
X402839Y30131D01*
X401757D01*
X401271Y31302D01*
X399602Y32971D01*
X397421Y33875D01*
X395060D01*
X392878Y32971D01*
X391209Y31302D01*
X390399Y29347D01*
X389381D01*
X388571Y31302D01*
X386902Y32971D01*
X384720Y33875D01*
X383583D01*
X383419Y33911D01*
X383305Y33913D01*
X383295Y33914D01*
X383265Y33921D01*
X383211Y33941D01*
X383130Y33977D01*
X383024Y34037D01*
X382922Y34105D01*
X382661Y34316D01*
X382281Y34697D01*
Y44658D01*
X382487Y45070D01*
X405352D01*
Y54767D01*
X405398Y55000D01*
Y61959D01*
X405371Y62095D01*
X405398Y62230D01*
Y68316D01*
X405460Y69290D01*
X409730D01*
Y74930D01*
Y80570D01*
X405460D01*
X405104Y81422D01*
X405088Y81501D01*
X404204Y82824D01*
X398683Y88345D01*
X397360Y89229D01*
X395799Y89539D01*
X395799Y89539D01*
X395069D01*
X394655Y90539D01*
X403107Y98991D01*
X406840D01*
Y96520D01*
X411480D01*
Y95250D01*
D01*
Y96520D01*
X416120D01*
Y99990D01*
X416120D01*
X416206Y100954D01*
X424388D01*
X424800Y100748D01*
Y98711D01*
X438800D01*
Y100954D01*
X479933D01*
X479933Y100954D01*
X481104Y101187D01*
X482096Y101850D01*
X497591Y117345D01*
X497591Y117345D01*
X498254Y118337D01*
X498487Y119508D01*
Y194441D01*
X543557Y239511D01*
X560208D01*
X560591Y238587D01*
X560489Y238486D01*
X559880Y237016D01*
Y235424D01*
X560489Y233954D01*
X561614Y232829D01*
X563084Y232220D01*
X564676D01*
X566146Y232829D01*
X566477Y233160D01*
X566492Y233161D01*
X581296D01*
X582467Y233394D01*
X583459Y234057D01*
X584122Y235049D01*
X584197Y235427D01*
X584827Y236146D01*
X592579Y243899D01*
X593427Y243332D01*
X593400Y243266D01*
Y241874D01*
X593933Y240587D01*
X594015Y240505D01*
X593781Y239325D01*
X593258Y239109D01*
X592273Y238124D01*
X591740Y236838D01*
Y235445D01*
X592273Y234159D01*
X593258Y233174D01*
X594544Y232642D01*
X595936D01*
X597223Y233174D01*
X597386Y233338D01*
X600544D01*
X601628Y232254D01*
X601245Y231330D01*
X595440D01*
Y223330D01*
X607324D01*
X612927Y217727D01*
X613837Y217120D01*
X614910Y216906D01*
X627380D01*
X628453Y217120D01*
X629363Y217727D01*
X631614Y219979D01*
X632222Y220889D01*
X632435Y221962D01*
Y225078D01*
X632222Y226151D01*
X631614Y227061D01*
X630295Y228380D01*
X630678Y229304D01*
X650509D01*
X651485Y229498D01*
X652311Y230050D01*
X659662Y237401D01*
X660215Y238228D01*
X660409Y239204D01*
Y261697D01*
X664858Y266147D01*
X666945D01*
X666982Y266120D01*
X667485Y265616D01*
X668771Y265084D01*
X668923D01*
X669055Y264084D01*
X668165Y263845D01*
X666579Y262929D01*
X665284Y261635D01*
X664369Y260049D01*
X663895Y258280D01*
Y256448D01*
X664369Y254680D01*
X665284Y253094D01*
X666579Y251799D01*
X668165Y250883D01*
X669180Y250611D01*
X669249Y249557D01*
X668378Y249196D01*
X666802Y247988D01*
X665594Y246413D01*
X664834Y244578D01*
X664742Y243880D01*
X676910D01*
Y250215D01*
X674377D01*
X674109Y251215D01*
X675120Y251799D01*
X676415Y253094D01*
X677331Y254680D01*
X677805Y256448D01*
Y258280D01*
X677331Y260049D01*
X676415Y261635D01*
X675120Y262929D01*
X674774Y263129D01*
X675042Y264129D01*
X675840D01*
X678021Y265033D01*
X679691Y266702D01*
X680176Y267873D01*
X681258D01*
X681870Y266396D01*
X683692Y264575D01*
X686072Y263589D01*
X686145D01*
X686559Y262589D01*
X685604Y261635D01*
X684689Y260049D01*
X684215Y258280D01*
Y256448D01*
X684689Y254680D01*
X685604Y253094D01*
X686899Y251799D01*
X688485Y250883D01*
X690254Y250409D01*
X692085D01*
X693854Y250883D01*
X695440Y251799D01*
X696735Y253094D01*
X697651Y254680D01*
X698125Y256448D01*
Y258280D01*
X697651Y260049D01*
X696735Y261635D01*
X695440Y262929D01*
X693854Y263845D01*
X692165Y264298D01*
X692006Y264571D01*
X691772Y265319D01*
X692849Y266396D01*
X693835Y268776D01*
Y268794D01*
X687360D01*
Y271334D01*
X693835D01*
Y271352D01*
X692849Y273732D01*
X691027Y275553D01*
X689550Y276165D01*
Y277248D01*
X690721Y277733D01*
X692391Y279402D01*
X693295Y281584D01*
Y283945D01*
X692391Y286126D01*
X690721Y287796D01*
X688767Y288605D01*
X688767Y289623D01*
X690721Y290433D01*
X692391Y292102D01*
X693295Y294284D01*
Y296645D01*
X692391Y298826D01*
X691227Y299990D01*
X691641Y300990D01*
X699770D01*
X700107Y300129D01*
X700319Y236100D01*
X699322Y235390D01*
X688799D01*
X688459Y236390D01*
X689558Y237232D01*
X690766Y238808D01*
X691526Y240642D01*
X691618Y241340D01*
X678180D01*
X664742D01*
X664834Y240642D01*
X665594Y238808D01*
X666802Y237232D01*
X668378Y236024D01*
X670212Y235264D01*
X672180Y235005D01*
X677620D01*
Y219390D01*
X699375D01*
X699620Y219390D01*
X700377Y218803D01*
X700507Y179663D01*
X699508Y179390D01*
X677620D01*
Y163815D01*
X672180D01*
X670212Y163556D01*
X668378Y162796D01*
X666802Y161588D01*
X665594Y160012D01*
X664834Y158178D01*
X664742Y157480D01*
X678180D01*
Y154940D01*
X664742D01*
X664834Y154242D01*
X665594Y152408D01*
X666167Y151661D01*
X666007Y150661D01*
X666007D01*
X666007Y150661D01*
Y143930D01*
X683025D01*
Y142660D01*
X684295D01*
Y134659D01*
X699656D01*
X700043Y134659D01*
X700659Y133914D01*
X700849Y76630D01*
X699850Y76161D01*
X684295D01*
Y68160D01*
X683025D01*
Y66890D01*
X666007D01*
Y63060D01*
X664386D01*
X659716Y62320D01*
X655219Y60859D01*
X651006Y58713D01*
X647180Y55933D01*
X643837Y52590D01*
X641058Y48764D01*
X638911Y44551D01*
X637450Y40054D01*
X636710Y35384D01*
Y34290D01*
X696790D01*
Y35384D01*
X696050Y40054D01*
X694589Y44551D01*
X692442Y48764D01*
X689663Y52590D01*
X686320Y55933D01*
X682494Y58713D01*
X681564Y59187D01*
X681797Y60159D01*
X699903D01*
X700043Y60159D01*
X700905Y59825D01*
X701040Y19050D01*
X679450Y-1270D01*
X19050D01*
X0Y17780D01*
X0Y105970D01*
X19730D01*
Y115260D01*
X21000D01*
Y116530D01*
X44540D01*
Y124550D01*
X28780D01*
Y127750D01*
X15240D01*
Y130290D01*
X28780D01*
Y136520D01*
X34386D01*
X34473Y136503D01*
X39910D01*
Y133976D01*
X51190D01*
Y135760D01*
X52456D01*
X52500Y135751D01*
X52544Y135760D01*
X72396D01*
X72439Y135751D01*
X72975Y135390D01*
X73279Y135152D01*
Y133976D01*
X84559D01*
Y136554D01*
X90784D01*
X90784Y136554D01*
X93262Y137047D01*
X93980Y137527D01*
X94428Y137437D01*
X95189Y137589D01*
X95833Y138020D01*
X97601Y139787D01*
X97610Y139778D01*
X105388Y147556D01*
X104867Y148077D01*
X104749Y148671D01*
X104319Y149315D01*
X95833Y157801D01*
X95189Y158231D01*
X94595Y158349D01*
X94074Y158870D01*
X86296Y151092D01*
X86305Y151083D01*
X84728Y149506D01*
X76456D01*
X75785Y149571D01*
X75105Y149679D01*
X74598Y149800D01*
X74470Y149846D01*
Y151260D01*
X72483D01*
X72439Y151269D01*
X72396Y151260D01*
X62470D01*
Y151247D01*
X60170D01*
Y151260D01*
X52544D01*
X52500Y151269D01*
X52456Y151260D01*
X50470D01*
Y151000D01*
X44252Y150116D01*
X42553D01*
X42316Y150471D01*
X41655Y150913D01*
X40874Y151068D01*
X34473D01*
X34232Y151020D01*
X28780D01*
Y157250D01*
X15240D01*
Y159790D01*
X28780D01*
Y162470D01*
X44540D01*
Y170490D01*
X21000D01*
Y171760D01*
X19730D01*
Y181050D01*
X0D01*
X0Y331134D01*
X14537Y348736D01*
X386217D01*
X386479Y348297D01*
D02*
G37*
G36*
X240231Y339524D02*
X240255Y339228D01*
X240296Y338954D01*
X240353Y338702D01*
X240427Y338473D01*
X240517Y338266D01*
X240624Y338082D01*
X240747Y337920D01*
X240886Y337780D01*
X241042Y337663D01*
X237347Y337876D01*
X237513Y337974D01*
X237662Y338093D01*
X237793Y338235D01*
X237907Y338398D01*
X238004Y338584D01*
X238082Y338792D01*
X238144Y339022D01*
X238187Y339273D01*
X238214Y339548D01*
X238222Y339843D01*
X240222D01*
X240231Y339524D01*
D02*
G37*
G36*
X453120Y317460D02*
X451120D01*
X450120Y319461D01*
X454120D01*
X453120Y317460D01*
D02*
G37*
G36*
X458773Y309655D02*
X459056Y309415D01*
X459339Y309202D01*
X459622Y309019D01*
X459905Y308863D01*
X460187Y308736D01*
X460470Y308637D01*
X460753Y308566D01*
X461036Y308524D01*
X461319Y308510D01*
X459440Y304731D01*
X459419Y305021D01*
X459356Y305325D01*
X459250Y305643D01*
X459101Y305976D01*
X458910Y306322D01*
X458677Y306683D01*
X458401Y307057D01*
X457722Y307849D01*
X457319Y308267D01*
X458490Y309924D01*
X458773Y309655D01*
D02*
G37*
G36*
X471965Y307800D02*
X472030Y307630D01*
X472135Y307480D01*
X472279Y307350D01*
X472462Y307240D01*
X472685Y307150D01*
X472947Y307080D01*
X473248Y307030D01*
X473589Y307000D01*
X473969Y306990D01*
Y304990D01*
X473589Y304980D01*
X473248Y304950D01*
X472947Y304900D01*
X472685Y304830D01*
X472462Y304740D01*
X472279Y304630D01*
X472135Y304500D01*
X472030Y304350D01*
X471965Y304180D01*
X471939Y303990D01*
Y307990D01*
X471965Y307800D01*
D02*
G37*
G36*
X467831Y303990D02*
X465830Y304990D01*
Y306990D01*
X467831Y307990D01*
Y303990D01*
D02*
G37*
G36*
X462575Y307800D02*
X462640Y307630D01*
X462745Y307480D01*
X462888Y307350D01*
X463072Y307240D01*
X463295Y307150D01*
X463557Y307080D01*
X463858Y307030D01*
X464199Y307000D01*
X464580Y306990D01*
Y304990D01*
X464199Y304980D01*
X463858Y304950D01*
X463557Y304900D01*
X463295Y304830D01*
X463072Y304740D01*
X462888Y304630D01*
X462745Y304500D01*
X462640Y304350D01*
X462575Y304180D01*
X462549Y303990D01*
Y307990D01*
X462575Y307800D01*
D02*
G37*
G36*
X607631Y297018D02*
X605894Y297859D01*
X605789Y297832D01*
X605569Y297745D01*
X605389Y297638D01*
X605249Y297512D01*
X605149Y297367D01*
X605089Y297202D01*
X605069Y297018D01*
Y300957D01*
X605089Y300773D01*
X605149Y300608D01*
X605249Y300462D01*
X605389Y300336D01*
X605569Y300230D01*
X605789Y300142D01*
X605894Y300115D01*
X607631Y300957D01*
Y297018D01*
D02*
G37*
G36*
X640661Y296987D02*
X640635Y297177D01*
X640570Y297347D01*
X640465Y297497D01*
X640321Y297627D01*
X640138Y297737D01*
X639915Y297827D01*
X639653Y297897D01*
X639352Y297947D01*
X639097Y297970D01*
X638850Y297948D01*
X638550Y297900D01*
X638290Y297832D01*
X638070Y297745D01*
X637890Y297638D01*
X637750Y297512D01*
X637650Y297367D01*
X637590Y297202D01*
X637570Y297018D01*
Y300957D01*
X637590Y300773D01*
X637650Y300608D01*
X637750Y300462D01*
X637890Y300336D01*
X638070Y300230D01*
X638290Y300142D01*
X638550Y300075D01*
X638850Y300026D01*
X639100Y300005D01*
X639350Y300026D01*
X639650Y300075D01*
X639910Y300142D01*
X640130Y300230D01*
X640310Y300336D01*
X640450Y300462D01*
X640550Y300608D01*
X640610Y300773D01*
X640630Y300957D01*
X640661Y296987D01*
D02*
G37*
G36*
X519430Y300990D02*
X568060D01*
Y298844D01*
X568201Y298848D01*
X568712Y298892D01*
X569163Y298968D01*
X569555Y299073D01*
X569888Y299208D01*
X570162Y299373D01*
X570375Y299568D01*
X570530Y299792D01*
X570625Y300048D01*
X570661Y300333D01*
Y294333D01*
X570625Y294618D01*
X570530Y294873D01*
X570375Y295098D01*
X570162Y295293D01*
X569888Y295457D01*
X569555Y295593D01*
X569163Y295698D01*
X568712Y295773D01*
X568201Y295818D01*
X568060Y295821D01*
Y292254D01*
X567060Y291840D01*
X563367Y295533D01*
X562375Y296196D01*
X561204Y296429D01*
X561204Y296429D01*
X520427D01*
X497944Y318912D01*
X496952Y319575D01*
X495781Y319808D01*
X495781Y319807D01*
X483020D01*
X477217Y325611D01*
Y338642D01*
X477217Y338642D01*
X476984Y339812D01*
X476321Y340805D01*
X476321Y340805D01*
X469390Y347736D01*
X469501Y348297D01*
X469763Y348736D01*
X519430D01*
Y300990D01*
D02*
G37*
G36*
X630381Y290518D02*
X628644Y291360D01*
X628540Y291332D01*
X628320Y291245D01*
X628140Y291138D01*
X628000Y291012D01*
X627900Y290867D01*
X627840Y290702D01*
X627820Y290518D01*
Y294457D01*
X627840Y294273D01*
X627900Y294108D01*
X628000Y293962D01*
X628140Y293836D01*
X628320Y293730D01*
X628540Y293643D01*
X628644Y293615D01*
X630381Y294457D01*
Y290518D01*
D02*
G37*
G36*
X685701Y292459D02*
X685408Y292142D01*
X685600Y291944D01*
X685538Y291961D01*
X685462Y291955D01*
X685371Y291926D01*
X685266Y291875D01*
X685147Y291801D01*
X685014Y291705D01*
X684866Y291587D01*
X684529Y291282D01*
X684339Y291096D01*
X682925Y292511D01*
X683114Y292704D01*
X683546Y293197D01*
X683645Y293332D01*
X683721Y293453D01*
X683774Y293559D01*
X683805Y293650D01*
X683813Y293728D01*
X683798Y293790D01*
X683994Y293590D01*
X684016Y293610D01*
X684347Y293933D01*
X685701Y292459D01*
D02*
G37*
G36*
X672912Y291938D02*
X672707Y292021D01*
X672496Y292067D01*
X672279Y292077D01*
X672057Y292051D01*
X671828Y291989D01*
X671594Y291891D01*
X671354Y291757D01*
X671108Y291586D01*
X670856Y291380D01*
X670599Y291138D01*
X669494Y292862D01*
X669738Y293117D01*
X670145Y293620D01*
X670308Y293867D01*
X670445Y294111D01*
X670555Y294353D01*
X670639Y294591D01*
X670695Y294827D01*
X670725Y295060D01*
X670728Y295290D01*
X672912Y291938D01*
D02*
G37*
G36*
X634339Y294273D02*
X634399Y294108D01*
X634500Y293962D01*
X634640Y293836D01*
X634819Y293730D01*
X635039Y293643D01*
X635299Y293575D01*
X635600Y293526D01*
X635939Y293497D01*
X636320Y293487D01*
Y291487D01*
X635939Y291478D01*
X635600Y291449D01*
X635299Y291400D01*
X635039Y291332D01*
X634819Y291245D01*
X634640Y291138D01*
X634500Y291012D01*
X634399Y290867D01*
X634339Y290702D01*
X634319Y290518D01*
Y294457D01*
X634339Y294273D01*
D02*
G37*
G36*
X648591Y289916D02*
X648655Y289879D01*
X648762Y289847D01*
X648912Y289819D01*
X649105Y289795D01*
X649619Y289760D01*
X650710Y289741D01*
Y286741D01*
X650303Y286735D01*
X649616Y286683D01*
X649335Y286638D01*
X649097Y286581D01*
X648901Y286510D01*
X648747Y286427D01*
X648635Y286331D01*
X648566Y286222D01*
X648539Y286100D01*
X648569Y289957D01*
X648591Y289916D01*
D02*
G37*
G36*
X570630Y286018D02*
X568630Y286987D01*
Y288988D01*
X570630Y289957D01*
Y286018D01*
D02*
G37*
G36*
X463499Y282826D02*
X463538Y282810D01*
X463594Y282796D01*
X463666Y282783D01*
X463755Y282773D01*
X464118Y282752D01*
X464443Y282749D01*
X464091Y280749D01*
X463209Y280762D01*
X463476Y282845D01*
X463499Y282826D01*
D02*
G37*
G36*
X686402Y279617D02*
X686290Y279501D01*
X686193Y279387D01*
X686111Y279278D01*
X686044Y279173D01*
X685999Y279088D01*
X686053Y279052D01*
X686014Y279055D01*
X685980Y279045D01*
X685953Y278974D01*
X685929Y278880D01*
X685920Y278791D01*
X685926Y278705D01*
X685947Y278622D01*
X685610Y278790D01*
X685499Y278696D01*
X685060Y278276D01*
X684000Y279337D01*
X684114Y279454D01*
X684161Y279509D01*
X684066Y279556D01*
X684115Y279577D01*
X684172Y279608D01*
X684237Y279649D01*
X684309Y279702D01*
X684366Y279748D01*
X684367Y279749D01*
X684421Y279829D01*
X684461Y279900D01*
X684486Y279962D01*
X684496Y280014D01*
X684491Y280057D01*
X684472Y280091D01*
X684634Y279984D01*
X684788Y280126D01*
X684907Y280244D01*
X686402Y279617D01*
D02*
G37*
G36*
X648589Y283273D02*
X648649Y283108D01*
X648749Y282963D01*
X648889Y282837D01*
X649069Y282730D01*
X649289Y282643D01*
X649549Y282575D01*
X649849Y282526D01*
X650189Y282497D01*
X650569Y282488D01*
Y280488D01*
X650189Y280478D01*
X649849Y280449D01*
X649549Y280400D01*
X649289Y280333D01*
X649069Y280245D01*
X648889Y280139D01*
X648749Y280013D01*
X648649Y279867D01*
X648589Y279702D01*
X648569Y279518D01*
Y283457D01*
X648589Y283273D01*
D02*
G37*
G36*
X570630Y279518D02*
X568630Y280488D01*
Y282488D01*
X570630Y283457D01*
Y279518D01*
D02*
G37*
G36*
X508964Y277904D02*
X508106Y275934D01*
X507984Y276054D01*
X507526Y276451D01*
X507464Y276490D01*
X507411Y276516D01*
X507369Y276528D01*
X507336Y276528D01*
X508393Y278342D01*
X508964Y277904D01*
D02*
G37*
G36*
X506924Y276474D02*
X506904Y276468D01*
X506874Y276449D01*
X506831Y276417D01*
X506713Y276316D01*
X506341Y275961D01*
X506219Y275840D01*
X504805Y277254D01*
X505439Y277959D01*
X506924Y276474D01*
D02*
G37*
G36*
X481944Y280515D02*
X482227Y280273D01*
X482510Y280060D01*
X482793Y279874D01*
X483076Y279715D01*
X483358Y279585D01*
X483641Y279482D01*
X483924Y279407D01*
X484207Y279359D01*
X484490Y279339D01*
X483042Y275191D01*
X483022Y275474D01*
X482974Y275757D01*
X482899Y276040D01*
X482796Y276322D01*
X482666Y276605D01*
X482507Y276888D01*
X482321Y277171D01*
X482108Y277454D01*
X481866Y277737D01*
X481597Y278020D01*
X481661Y280784D01*
X481944Y280515D01*
D02*
G37*
G36*
X648589Y276773D02*
X648649Y276608D01*
X648749Y276462D01*
X648889Y276336D01*
X649069Y276230D01*
X649289Y276142D01*
X649549Y276075D01*
X649849Y276026D01*
X650189Y275997D01*
X650569Y275987D01*
Y273987D01*
X650189Y273978D01*
X649849Y273948D01*
X649549Y273900D01*
X649289Y273832D01*
X649069Y273745D01*
X648889Y273638D01*
X648749Y273512D01*
X648649Y273367D01*
X648589Y273202D01*
X648569Y273018D01*
Y276957D01*
X648589Y276773D01*
D02*
G37*
G36*
X570630Y273018D02*
X568630Y273987D01*
Y275987D01*
X570630Y276957D01*
Y273018D01*
D02*
G37*
G36*
X498539Y271716D02*
X484441D01*
Y274384D01*
X498539D01*
Y271716D01*
D02*
G37*
G36*
X499964Y274860D02*
X500029Y274690D01*
X500134Y274540D01*
X500277Y274410D01*
X500461Y274300D01*
X500684Y274210D01*
X500946Y274140D01*
X501247Y274090D01*
X501588Y274060D01*
X501968Y274050D01*
Y272050D01*
X501588Y272040D01*
X501247Y272010D01*
X500946Y271960D01*
X500684Y271890D01*
X500461Y271800D01*
X500277Y271690D01*
X500134Y271560D01*
X500029Y271410D01*
X499964Y271240D01*
X499938Y271050D01*
Y275050D01*
X499964Y274860D01*
D02*
G37*
G36*
X670198Y269905D02*
X670617Y269768D01*
X670627Y269765D01*
X670668Y269798D01*
X670702Y269841D01*
X670721Y269890D01*
X670726Y269944D01*
X670777Y269730D01*
X671023Y269685D01*
X671155Y269670D01*
X671414Y269658D01*
X671865Y268658D01*
X671720Y268651D01*
X671585Y268632D01*
X671459Y268601D01*
X671344Y268556D01*
X671238Y268499D01*
X671142Y268429D01*
X671057Y268347D01*
X670981Y268252D01*
X670915Y268144D01*
X670859Y268023D01*
X670610Y268624D01*
X670527Y268635D01*
X670220Y268655D01*
X670041Y268658D01*
Y269658D01*
X670173Y269660D01*
X670180Y269661D01*
X670055Y269964D01*
X670198Y269905D01*
D02*
G37*
G36*
X668320Y267617D02*
X668221Y267727D01*
X668116Y267825D01*
X668007Y267912D01*
X667894Y267987D01*
X667776Y268051D01*
X667653Y268103D01*
X667526Y268144D01*
X667395Y268173D01*
X667259Y268190D01*
X667118Y268196D01*
X667198Y269196D01*
X667335Y269201D01*
X667471Y269217D01*
X667604Y269242D01*
X667735Y269278D01*
X667864Y269325D01*
X667991Y269381D01*
X668116Y269448D01*
X668239Y269526D01*
X668359Y269613D01*
X668478Y269711D01*
X668320Y267617D01*
D02*
G37*
G36*
X573389Y267913D02*
X573470Y267854D01*
X573560Y267800D01*
X573661Y267749D01*
X573773Y267703D01*
X573895Y267661D01*
X574027Y267623D01*
X574322Y267560D01*
X574485Y267534D01*
X573053Y266102D01*
X573028Y266265D01*
X572964Y266561D01*
X572927Y266693D01*
X572884Y266815D01*
X572838Y266926D01*
X572788Y267027D01*
X572733Y267118D01*
X572675Y267199D01*
X572612Y267269D01*
X573319Y267976D01*
X573389Y267913D01*
D02*
G37*
G36*
X570661Y263736D02*
X570630Y263978D01*
X570548Y264194D01*
X570417Y264384D01*
X570235Y264549D01*
X570003Y264689D01*
X569721Y264803D01*
X569389Y264892D01*
X569006Y264956D01*
X568573Y264994D01*
X568091Y265006D01*
Y267546D01*
X568573Y267559D01*
X569006Y267597D01*
X569389Y267661D01*
X569721Y267750D01*
X570003Y267864D01*
X570235Y268004D01*
X570417Y268169D01*
X570548Y268359D01*
X570630Y268575D01*
X570661Y268816D01*
Y263736D01*
D02*
G37*
G36*
X507991Y273354D02*
X513557Y267787D01*
X513557Y267787D01*
X514550Y267124D01*
X515720Y266891D01*
X541923D01*
X541923Y266891D01*
X543094Y267124D01*
X544086Y267787D01*
X548228Y271929D01*
X568060D01*
Y262333D01*
X563496D01*
X563006Y262342D01*
X561565Y263783D01*
X560573Y264446D01*
X559402Y264679D01*
X559402Y264679D01*
X502990D01*
X501999Y264700D01*
X501999Y265551D01*
Y269046D01*
X502015Y269991D01*
X503186Y270224D01*
X504178Y270887D01*
X506782Y273491D01*
X507991Y273354D01*
D02*
G37*
G36*
X603600Y261018D02*
X602600D01*
X602100Y262018D01*
X604100D01*
X603600Y261018D01*
D02*
G37*
G36*
X597017Y260818D02*
X595817D01*
X595217Y262018D01*
X597617D01*
X597017Y260818D01*
D02*
G37*
G36*
X590700D02*
X589500D01*
X588900Y262018D01*
X591300D01*
X590700Y260818D01*
D02*
G37*
G36*
X645600Y260018D02*
X643600D01*
X642600Y262018D01*
X646600D01*
X645600Y260018D01*
D02*
G37*
G36*
X617100D02*
X615100D01*
X614131Y262018D01*
X618070D01*
X617100Y260018D01*
D02*
G37*
G36*
X610600D02*
X608600D01*
X607631Y262018D01*
X611570D01*
X610600Y260018D01*
D02*
G37*
G36*
X662518Y271828D02*
X662644Y270928D01*
X662000Y270498D01*
X656058Y264556D01*
X655505Y263729D01*
X655311Y262753D01*
Y240260D01*
X649453Y234402D01*
X644679D01*
X644481Y235402D01*
X645983Y236024D01*
X647558Y237232D01*
X648766Y238808D01*
X649526Y240642D01*
X649618Y241340D01*
X638180D01*
Y242610D01*
X636910D01*
Y247573D01*
X636180D01*
X636370Y247599D01*
X636540Y247664D01*
X636690Y247769D01*
X636820Y247913D01*
X636910Y248063D01*
Y250215D01*
X634180D01*
X632212Y249956D01*
X630378Y249196D01*
X629184Y248280D01*
X628184Y248764D01*
Y251658D01*
X625114D01*
Y248308D01*
X625583Y248777D01*
X625603Y248494D01*
X625650Y248211D01*
X625726Y247928D01*
X625829Y247645D01*
X625959Y247363D01*
X626118Y247080D01*
X626304Y246797D01*
X626517Y246514D01*
X626759Y246231D01*
X627028Y245948D01*
X625614Y244534D01*
X625331Y244803D01*
X625048Y245044D01*
X624765Y245258D01*
X624482Y245444D01*
X624199Y245602D01*
X623916Y245733D01*
X623634Y245836D01*
X623351Y245911D01*
X623068Y245959D01*
X622785Y245979D01*
X624324Y247518D01*
X622574D01*
Y251658D01*
X622041D01*
X621303Y252217D01*
X621070Y253387D01*
X620407Y254380D01*
X620407Y254380D01*
X619159Y255628D01*
Y259590D01*
X619351Y259988D01*
X623425D01*
X623570Y259959D01*
X623715Y259988D01*
X638060D01*
Y259448D01*
X651140D01*
Y271929D01*
X662478D01*
X662518Y271828D01*
D02*
G37*
G36*
X562087Y260369D02*
X562165Y260351D01*
X562280Y260335D01*
X562624Y260309D01*
X564140Y260282D01*
Y259082D01*
X562047Y258975D01*
Y260390D01*
X562087Y260369D01*
D02*
G37*
G36*
X603710Y251901D02*
X603872Y251740D01*
X603787Y251723D01*
X603950Y251342D01*
X603824Y251387D01*
X603700Y251415D01*
X603579Y251428D01*
X603459Y251425D01*
X603342Y251406D01*
X603227Y251372D01*
X603114Y251322D01*
X603003Y251256D01*
X602894Y251174D01*
X602788Y251077D01*
X602081Y251784D01*
X602194Y251902D01*
X602390Y252131D01*
X602472Y252243D01*
X602544Y252352D01*
X602605Y252460D01*
X602655Y252565D01*
X602695Y252668D01*
X602725Y252769D01*
X602744Y252868D01*
X602872Y252740D01*
X602936Y252858D01*
X603063Y253128D01*
X603121Y253272D01*
X603710Y251901D01*
D02*
G37*
G36*
X583873Y253133D02*
X583611Y252868D01*
X582618Y251733D01*
X582549Y251620D01*
X582507Y251529D01*
X582493Y251459D01*
X581493Y252460D01*
X581562Y252474D01*
X581654Y252515D01*
X581767Y252584D01*
X581902Y252681D01*
X582236Y252957D01*
X582901Y253578D01*
X583166Y253840D01*
X583873Y253133D01*
D02*
G37*
G36*
X610606Y251299D02*
X610651Y250659D01*
X610691Y250399D01*
X610742Y250179D01*
X610805Y249999D01*
X610879Y249859D01*
X610965Y249759D01*
X611061Y249699D01*
X611170Y249679D01*
X608031D01*
X608139Y249699D01*
X608236Y249759D01*
X608321Y249859D01*
X608395Y249999D01*
X608458Y250179D01*
X608509Y250399D01*
X608549Y250659D01*
X608577Y250959D01*
X608600Y251679D01*
X610600D01*
X610606Y251299D01*
D02*
G37*
G36*
X619252Y250707D02*
X619314Y250067D01*
X619367Y249807D01*
X619437Y249587D01*
X619521Y249407D01*
X619621Y249267D01*
X619737Y249167D01*
X619868Y249107D01*
X620014Y249087D01*
X616475D01*
X616621Y249107D01*
X616752Y249167D01*
X616867Y249267D01*
X616967Y249407D01*
X617052Y249587D01*
X617121Y249807D01*
X617175Y250067D01*
X617214Y250367D01*
X617237Y250707D01*
X617244Y251087D01*
X619244D01*
X619252Y250707D01*
D02*
G37*
G36*
X608061Y248475D02*
X608612Y248512D01*
X608741Y248543D01*
X608834Y248578D01*
X608893Y248617D01*
Y247202D01*
X608834Y247242D01*
X608741Y247277D01*
X608612Y247308D01*
X608448Y247335D01*
X608061Y247372D01*
Y246910D01*
X608045Y247005D01*
X608010Y247090D01*
X607956Y247165D01*
X607882Y247230D01*
X607788Y247285D01*
X607675Y247330D01*
X607543Y247365D01*
X607392Y247390D01*
X607239Y247403D01*
X607107Y247408D01*
X606734Y247410D01*
Y248410D01*
X607107Y248412D01*
X607401Y248431D01*
X607543Y248455D01*
X607675Y248490D01*
X607788Y248535D01*
X607882Y248590D01*
X607956Y248655D01*
X608010Y248730D01*
X608045Y248815D01*
X608061Y248910D01*
Y248475D01*
D02*
G37*
G36*
X619244Y243948D02*
X617244D01*
X616475Y245948D01*
X620014D01*
X619244Y243948D01*
D02*
G37*
G36*
X582700Y244243D02*
X582438Y243978D01*
X581444Y242843D01*
X581375Y242730D01*
X581334Y242639D01*
X581320Y242569D01*
X580320Y243570D01*
X580389Y243584D01*
X580480Y243625D01*
X580593Y243694D01*
X580728Y243791D01*
X581063Y244067D01*
X581728Y244688D01*
X581993Y244950D01*
X582700Y244243D01*
D02*
G37*
G36*
X629263Y242144D02*
X629221Y242333D01*
X629148Y242503D01*
X629043Y242652D01*
X628907Y242782D01*
X628738Y242892D01*
X628538Y242981D01*
X628306Y243051D01*
X628043Y243101D01*
X627748Y243131D01*
X627421Y243141D01*
X627898Y245141D01*
X628273Y245151D01*
X628627Y245180D01*
X628958Y245229D01*
X629268Y245298D01*
X629557Y245386D01*
X629823Y245494D01*
X630068Y245621D01*
X630291Y245769D01*
X630493Y245935D01*
X630673Y246122D01*
X629263Y242144D01*
D02*
G37*
G36*
X620128Y242754D02*
X618313Y241697D01*
X618314Y241730D01*
X618302Y241772D01*
X618276Y241824D01*
X618237Y241887D01*
X618184Y241959D01*
X618039Y242132D01*
X617840Y242345D01*
X617720Y242467D01*
X619690Y243325D01*
X620128Y242754D01*
D02*
G37*
G36*
X598081Y243515D02*
X598193Y243422D01*
X598310Y243340D01*
X598429Y243268D01*
X598551Y243207D01*
X598677Y243158D01*
X598807Y243120D01*
X598939Y243092D01*
X599075Y243076D01*
X599214Y243070D01*
Y242070D01*
X599075Y242064D01*
X598939Y242048D01*
X598807Y242020D01*
X598677Y241982D01*
X598551Y241933D01*
X598429Y241872D01*
X598310Y241800D01*
X598193Y241718D01*
X598081Y241625D01*
X597971Y241520D01*
Y243620D01*
X598081Y243515D01*
D02*
G37*
G36*
X611190Y243934D02*
X611250Y243803D01*
X611350Y243687D01*
X611490Y243587D01*
X611670Y243503D01*
X611890Y243433D01*
X612150Y243379D01*
X612450Y243341D01*
X612790Y243318D01*
X613170Y243310D01*
Y241310D01*
X612790Y241303D01*
X612150Y241241D01*
X611890Y241187D01*
X611670Y241118D01*
X611490Y241033D01*
X611350Y240933D01*
X611250Y240818D01*
X611190Y240687D01*
X611170Y240541D01*
Y244080D01*
X611190Y243934D01*
D02*
G37*
G36*
X632375Y237997D02*
X632154Y238041D01*
X631930Y238054D01*
X631703Y238036D01*
X631472Y237986D01*
X631238Y237905D01*
X631000Y237793D01*
X630759Y237649D01*
X630515Y237475D01*
X630267Y237269D01*
X630015Y237031D01*
X628601Y238445D01*
X628839Y238697D01*
X629045Y238945D01*
X629220Y239189D01*
X629363Y239430D01*
X629475Y239668D01*
X629556Y239902D01*
X629606Y240133D01*
X629624Y240360D01*
X629611Y240584D01*
X629566Y240805D01*
X632375Y237997D01*
D02*
G37*
G36*
X583676Y237893D02*
X583414Y237628D01*
X582421Y236493D01*
X582351Y236380D01*
X582310Y236289D01*
X582296Y236219D01*
X581296Y237220D01*
X581365Y237234D01*
X581456Y237275D01*
X581570Y237344D01*
X581704Y237441D01*
X582039Y237717D01*
X582704Y238338D01*
X582969Y238600D01*
X583676Y237893D01*
D02*
G37*
G36*
X596376Y237135D02*
X596451Y237084D01*
X596536Y237039D01*
X596633Y237000D01*
X596740Y236967D01*
X596858Y236940D01*
X596987Y236919D01*
X597127Y236904D01*
X597439Y236892D01*
Y235392D01*
X597278Y235389D01*
X596987Y235365D01*
X596858Y235344D01*
X596740Y235317D01*
X596633Y235284D01*
X596536Y235245D01*
X596451Y235200D01*
X596376Y235149D01*
X596311Y235092D01*
Y237192D01*
X596376Y237135D01*
D02*
G37*
G36*
X513944Y235670D02*
X513310Y234965D01*
X511825Y236450D01*
X511845Y236456D01*
X511876Y236475D01*
X511918Y236507D01*
X512036Y236608D01*
X512408Y236964D01*
X512530Y237084D01*
X513944Y235670D01*
D02*
G37*
G36*
X565394Y237544D02*
X565494Y237476D01*
X565608Y237416D01*
X565737Y237364D01*
X565880Y237320D01*
X566038Y237284D01*
X566210Y237256D01*
X566396Y237236D01*
X566812Y237220D01*
Y235220D01*
X566597Y235216D01*
X566210Y235184D01*
X566038Y235156D01*
X565880Y235120D01*
X565737Y235076D01*
X565608Y235024D01*
X565494Y234964D01*
X565394Y234896D01*
X565308Y234820D01*
Y237620D01*
X565394Y237544D01*
D02*
G37*
G36*
X497327Y234974D02*
X497350Y234718D01*
X497388Y234491D01*
X497440Y234294D01*
X497508Y234126D01*
X497590Y233988D01*
X497687Y233879D01*
X497800Y233800D01*
X497928Y233749D01*
X498070Y233729D01*
X495070D01*
X495213Y233749D01*
X495340Y233800D01*
X495452Y233879D01*
X495550Y233988D01*
X495633Y234126D01*
X495700Y234294D01*
X495752Y234491D01*
X495790Y234718D01*
X495812Y234974D01*
X495820Y235259D01*
X497320D01*
X497327Y234974D01*
D02*
G37*
G36*
X494531Y230910D02*
X494510Y231052D01*
X494460Y231180D01*
X494380Y231292D01*
X494272Y231390D01*
X494133Y231472D01*
X493965Y231540D01*
X493768Y231593D01*
X493542Y231630D01*
X493286Y231653D01*
X493000Y231660D01*
Y233160D01*
X493285Y233166D01*
X493765Y233214D01*
X493960Y233256D01*
X494126Y233310D01*
X494260Y233376D01*
X494366Y233454D01*
X494440Y233543D01*
X494486Y233645D01*
X494501Y233759D01*
X494531Y230910D01*
D02*
G37*
G36*
X607395Y227154D02*
X607432Y227104D01*
X607489Y227059D01*
X607566Y227021D01*
X607663Y226988D01*
X607781Y226961D01*
X607919Y226941D01*
X608078Y226926D01*
X608456Y226914D01*
Y225414D01*
X607409Y225361D01*
X607379Y227211D01*
X607395Y227154D01*
D02*
G37*
G36*
X339120Y190968D02*
X338858Y190692D01*
X338638Y190429D01*
X338460Y190181D01*
X338324Y189946D01*
X338230Y189725D01*
X338178Y189517D01*
X338169Y189324D01*
X338201Y189144D01*
X338275Y188977D01*
X338391Y188825D01*
X335563Y191653D01*
X335715Y191537D01*
X335881Y191463D01*
X336061Y191431D01*
X336255Y191441D01*
X336463Y191493D01*
X336684Y191586D01*
X336919Y191722D01*
X337167Y191900D01*
X337429Y192120D01*
X337705Y192382D01*
X339120Y190968D01*
D02*
G37*
G36*
X359275Y187683D02*
X359350Y187632D01*
X359436Y187587D01*
X359533Y187548D01*
X359640Y187515D01*
X359758Y187488D01*
X359887Y187467D01*
X360027Y187452D01*
X360339Y187440D01*
Y185940D01*
X360178Y185937D01*
X359887Y185913D01*
X359758Y185892D01*
X359640Y185865D01*
X359533Y185832D01*
X359436Y185793D01*
X359350Y185748D01*
X359275Y185697D01*
X359211Y185640D01*
Y187740D01*
X359275Y187683D01*
D02*
G37*
G36*
X16260Y165359D02*
X16288Y165040D01*
X17250D01*
X16703Y163946D01*
X16740Y163904D01*
X16890Y163800D01*
X17060Y163735D01*
X17250Y163709D01*
X16585D01*
X16250Y163040D01*
X14250D01*
X13916Y163709D01*
X13250D01*
X13440Y163735D01*
X13610Y163800D01*
X13760Y163904D01*
X13798Y163946D01*
X13250Y165040D01*
X14212D01*
X14240Y165359D01*
X14250Y165739D01*
X16250D01*
X16260Y165359D01*
D02*
G37*
G36*
X52500Y137790D02*
X43813Y139286D01*
X42759Y139281D01*
X36058Y138816D01*
X35797Y138691D01*
X35710Y138551D01*
Y148990D01*
X35797Y148800D01*
X36058Y148630D01*
X36493Y148481D01*
X37102Y148351D01*
X37885Y148241D01*
X39974Y148081D01*
X43874Y148002D01*
X52500Y149229D01*
Y137790D01*
D02*
G37*
G36*
X72502Y148878D02*
X72691Y148564D01*
X73007Y148287D01*
X73448Y148047D01*
X74015Y147843D01*
X74708Y147677D01*
X75527Y147548D01*
X76472Y147455D01*
X78740Y147381D01*
Y138679D01*
X77543Y138670D01*
X74015Y138457D01*
X73448Y138359D01*
X73007Y138243D01*
X72691Y138110D01*
X72502Y137959D01*
X72439Y137790D01*
Y149229D01*
X72502Y148878D01*
D02*
G37*
G36*
X16255Y123800D02*
X17250D01*
X16547Y122394D01*
X16610Y122289D01*
X16740Y122145D01*
X16890Y122040D01*
X17060Y121975D01*
X17250Y121949D01*
X16325D01*
X16250Y121800D01*
X14250D01*
X14176Y121949D01*
X13250D01*
X13440Y121975D01*
X13610Y122040D01*
X13760Y122145D01*
X13890Y122289D01*
X13953Y122394D01*
X13250Y123800D01*
X14246D01*
X14250Y123980D01*
X16250D01*
X16255Y123800D01*
D02*
G37*
G36*
X432857Y120551D02*
X432848Y120516D01*
X432841Y120463D01*
X432829Y120308D01*
X432817Y119793D01*
X432817Y119691D01*
X432826Y119318D01*
X432856Y118977D01*
X432906Y118676D01*
X432976Y118414D01*
X433066Y118191D01*
X433176Y118007D01*
X433306Y117864D01*
X433456Y117759D01*
X433626Y117694D01*
X433816Y117668D01*
X429816D01*
X430006Y117694D01*
X430176Y117759D01*
X430326Y117864D01*
X430456Y118007D01*
X430566Y118191D01*
X430656Y118414D01*
X430726Y118676D01*
X430776Y118977D01*
X430806Y119318D01*
X430815Y119648D01*
X430766Y120569D01*
X432866D01*
X432857Y120551D01*
D02*
G37*
G36*
X436765Y105823D02*
X436830Y105653D01*
X436935Y105503D01*
X437079Y105373D01*
X437262Y105263D01*
X437485Y105173D01*
X437747Y105103D01*
X438048Y105053D01*
X438389Y105023D01*
X438769Y105013D01*
Y103013D01*
X438389Y103003D01*
X438048Y102973D01*
X437747Y102923D01*
X437485Y102853D01*
X437262Y102763D01*
X437079Y102653D01*
X436935Y102523D01*
X436830Y102373D01*
X436765Y102203D01*
X436739Y102013D01*
Y106013D01*
X436765Y105823D01*
D02*
G37*
G36*
X426830Y102013D02*
X424831Y103013D01*
Y105013D01*
X426830Y106013D01*
Y102013D01*
D02*
G37*
G36*
X415550Y103013D02*
X415169Y103003D01*
X414829Y102973D01*
X414529Y102923D01*
X414269Y102853D01*
X414049Y102763D01*
X413870Y102653D01*
X413730Y102523D01*
X413629Y102373D01*
X413569Y102203D01*
X413549Y102013D01*
Y104220D01*
X415550Y105013D01*
Y103013D01*
D02*
G37*
G36*
X409441Y100050D02*
X409415Y100240D01*
X409350Y100410D01*
X409245Y100560D01*
X409101Y100690D01*
X408918Y100800D01*
X408695Y100890D01*
X408433Y100960D01*
X408132Y101010D01*
X407791Y101040D01*
X407411Y101050D01*
Y103050D01*
X407791Y103060D01*
X408132Y103090D01*
X408433Y103140D01*
X408695Y103210D01*
X408918Y103300D01*
X409101Y103410D01*
X409245Y103540D01*
X409350Y103690D01*
X409415Y103860D01*
X409441Y104050D01*
Y100050D01*
D02*
G37*
G36*
X312479Y107901D02*
X312250Y107417D01*
X312147Y106890D01*
X312171Y106320D01*
X312322Y105707D01*
X312600Y105051D01*
X313004Y104353D01*
X313535Y103611D01*
X314194Y102827D01*
X314979Y102000D01*
X310736Y97758D01*
X309909Y98543D01*
X309125Y99201D01*
X308384Y99732D01*
X307685Y100137D01*
X307029Y100414D01*
X306416Y100565D01*
X305847Y100589D01*
X305319Y100487D01*
X304835Y100257D01*
X304394Y99900D01*
X312836Y108343D01*
X312479Y107901D01*
D02*
G37*
G36*
X298036Y93571D02*
X297958Y93469D01*
X297904Y93379D01*
X297872Y93301D01*
X297862Y93235D01*
X297876Y93181D01*
X297912Y93139D01*
X297971Y93109D01*
X298053Y93091D01*
X298157Y93085D01*
Y87085D01*
X296901Y87079D01*
X291458Y86728D01*
X291158Y86634D01*
X290978Y86528D01*
X298136Y93685D01*
X298036Y93571D01*
D02*
G37*
G36*
X388473Y86816D02*
X388370Y86710D01*
X388121Y86416D01*
X388059Y86327D01*
X388007Y86241D01*
X387965Y86160D01*
X387934Y86083D01*
X387912Y86010D01*
X387901Y85941D01*
X385731Y88111D01*
X385800Y88123D01*
X385873Y88144D01*
X385950Y88175D01*
X386031Y88217D01*
X386116Y88269D01*
X386206Y88331D01*
X386398Y88487D01*
X386500Y88580D01*
X386606Y88683D01*
X388473Y86816D01*
D02*
G37*
G36*
X392493Y88289D02*
X392852Y87998D01*
X393035Y87874D01*
X393220Y87765D01*
X393408Y87671D01*
X393597Y87592D01*
X393789Y87527D01*
X393984Y87477D01*
X394180Y87441D01*
X391918Y85179D01*
X391883Y85375D01*
X391832Y85570D01*
X391768Y85762D01*
X391688Y85952D01*
X391594Y86139D01*
X391485Y86324D01*
X391361Y86507D01*
X391223Y86688D01*
X391070Y86866D01*
X390903Y87042D01*
X392317Y88456D01*
X392493Y88289D01*
D02*
G37*
G36*
X357531Y79510D02*
X351530Y79550D01*
Y85550D01*
X357531Y86449D01*
Y79510D01*
D02*
G37*
G36*
X364514Y86265D02*
X364648Y86100D01*
X364871Y85955D01*
X365184Y85829D01*
X365586Y85722D01*
X366077Y85635D01*
X366658Y85567D01*
X368087Y85489D01*
X368935Y85479D01*
Y79479D01*
X364469Y79510D01*
Y86449D01*
X364514Y86265D01*
D02*
G37*
G36*
X387324Y84705D02*
X386958Y84334D01*
X385677Y82855D01*
X385531Y82635D01*
X385420Y82440D01*
X385381Y82348D01*
X385382Y82343D01*
X385506Y82069D01*
X385713Y81730D01*
X386003Y81326D01*
X386831Y80321D01*
X388694Y78326D01*
X389480Y77531D01*
X387359Y75410D01*
X386564Y76196D01*
X383160Y79177D01*
X382821Y79384D01*
X382547Y79509D01*
X382338Y79550D01*
X385112Y82324D01*
X381916Y85520D01*
X382060Y85557D01*
X382230Y85631D01*
X382425Y85741D01*
X382645Y85887D01*
X382891Y86070D01*
X383457Y86546D01*
X384495Y87534D01*
X387324Y84705D01*
D02*
G37*
G36*
X403374Y71865D02*
X403363Y71797D01*
X403353Y71689D01*
X403331Y71121D01*
X403320Y69794D01*
X399320D01*
X399253Y71891D01*
X403387D01*
X403374Y71865D01*
D02*
G37*
G36*
X322530Y64439D02*
X322620Y63418D01*
X322770Y62517D01*
X322980Y61735D01*
X323250Y61072D01*
X323580Y60528D01*
X323970Y60105D01*
X324420Y59800D01*
X324930Y59615D01*
X325500Y59549D01*
X319055Y59580D01*
X316500Y65580D01*
X322500D01*
X322530Y64439D01*
D02*
G37*
G36*
X403321Y57039D02*
X397320Y57009D01*
X397700Y57055D01*
X398040Y57180D01*
X398340Y57385D01*
X398600Y57668D01*
X398820Y58032D01*
X399000Y58475D01*
X399140Y58997D01*
X399240Y59598D01*
X399300Y60279D01*
X399320Y61040D01*
X403321D01*
Y57039D01*
D02*
G37*
G36*
X391151Y59469D02*
X391196Y58958D01*
X391271Y58507D01*
X391376Y58115D01*
X391511Y57782D01*
X391676Y57509D01*
X391871Y57295D01*
X392096Y57140D01*
X392351Y57045D01*
X392636Y57009D01*
X386636D01*
X386921Y57045D01*
X387176Y57140D01*
X387401Y57295D01*
X387596Y57509D01*
X387761Y57782D01*
X387896Y58115D01*
X388001Y58507D01*
X388076Y58958D01*
X388121Y59469D01*
X388136Y60040D01*
X391136D01*
X391151Y59469D01*
D02*
G37*
G36*
X335280Y53277D02*
X320358D01*
Y55943D01*
X335280D01*
Y53277D01*
D02*
G37*
G36*
X392176Y50736D02*
X377253D01*
Y53404D01*
X392176D01*
Y50736D01*
D02*
G37*
G36*
X380222Y45100D02*
X378222D01*
X377222Y47101D01*
X381222D01*
X380222Y45100D01*
D02*
G37*
G36*
X195403Y44899D02*
X195251Y45016D01*
X195085Y45090D01*
X194905Y45122D01*
X194711Y45112D01*
X194503Y45060D01*
X194282Y44966D01*
X194047Y44830D01*
X193799Y44652D01*
X193537Y44433D01*
X193261Y44171D01*
X191846Y45585D01*
X192108Y45861D01*
X192328Y46123D01*
X192506Y46372D01*
X192642Y46607D01*
X192736Y46828D01*
X192787Y47035D01*
X192797Y47229D01*
X192765Y47409D01*
X192691Y47575D01*
X192575Y47728D01*
X195403Y44899D01*
D02*
G37*
G36*
X335740Y43640D02*
X329740D01*
X329468Y49640D01*
X336012D01*
X335740Y43640D01*
D02*
G37*
G36*
X437960Y40315D02*
X437790Y40250D01*
X437640Y40145D01*
X437510Y40002D01*
X437400Y39818D01*
X437310Y39595D01*
X437240Y39333D01*
X437190Y39032D01*
X437160Y38691D01*
X437150Y38310D01*
X435150D01*
X435181Y40311D01*
X438150Y40341D01*
X437960Y40315D01*
D02*
G37*
G36*
X381210Y32867D02*
X381713Y32460D01*
X381960Y32296D01*
X382204Y32159D01*
X382445Y32048D01*
X382684Y31964D01*
X382920Y31907D01*
X383152Y31876D01*
X383382Y31872D01*
X380022Y29702D01*
X380105Y29907D01*
X380151Y30117D01*
X380162Y30334D01*
X380137Y30556D01*
X380075Y30784D01*
X379977Y31018D01*
X379843Y31258D01*
X379673Y31504D01*
X379467Y31755D01*
X379225Y32013D01*
X380955Y33111D01*
X381210Y32867D01*
D02*
G37*
G36*
X395661Y25470D02*
X395550Y25355D01*
X395453Y25241D01*
X395370Y25131D01*
X395300Y25024D01*
X395244Y24919D01*
X395202Y24817D01*
X395173Y24718D01*
X395158Y24622D01*
X395156Y24529D01*
X395168Y24438D01*
X393421Y25604D01*
X393498Y25623D01*
X393579Y25653D01*
X393664Y25693D01*
X393754Y25744D01*
X393848Y25805D01*
X394049Y25958D01*
X394157Y26050D01*
X394384Y26266D01*
X395661Y25470D01*
D02*
G37*
G36*
X413752Y18638D02*
X413510Y18382D01*
X413299Y18128D01*
X413120Y17878D01*
X412972Y17632D01*
X412856Y17388D01*
X412772Y17148D01*
X412719Y16912D01*
X412698Y16679D01*
X412708Y16449D01*
X412751Y16222D01*
X409922Y19051D01*
X410149Y19008D01*
X410378Y18998D01*
X410612Y19019D01*
X410848Y19072D01*
X411088Y19156D01*
X411332Y19272D01*
X411578Y19420D01*
X411828Y19599D01*
X412081Y19810D01*
X412338Y20052D01*
X413752Y18638D01*
D02*
G37*
G36*
X398050Y11721D02*
X397880Y11566D01*
X397730Y11386D01*
X397600Y11181D01*
X397490Y10952D01*
X397400Y10698D01*
X397330Y10419D01*
X397280Y10115D01*
X397250Y9787D01*
X397240Y9434D01*
X395240D01*
X395230Y9787D01*
X395200Y10115D01*
X395150Y10419D01*
X395080Y10698D01*
X394990Y10952D01*
X394880Y11181D01*
X394750Y11386D01*
X394600Y11566D01*
X394430Y11721D01*
X394240Y11851D01*
X398240D01*
X398050Y11721D01*
D02*
G37*
%LPC*%
G36*
X393700Y341190D02*
X390230D01*
Y337820D01*
X393700D01*
Y341190D01*
D02*
G37*
G36*
X328696Y338069D02*
X328351Y338000D01*
X328000D01*
X327675Y337865D01*
X327331Y337797D01*
X327038Y337602D01*
X326714Y337467D01*
X326465Y337219D01*
X326173Y337023D01*
X325978Y336731D01*
X325729Y336483D01*
X325594Y336158D01*
X325399Y335866D01*
X325331Y335521D01*
X325196Y335196D01*
Y335175D01*
X325069Y335026D01*
X324568Y334697D01*
X324165Y334602D01*
X323276Y334970D01*
X321884D01*
X321665Y335116D01*
Y335470D01*
X319678D01*
X319634Y335479D01*
X319591Y335470D01*
X308067D01*
X307722Y335539D01*
X303152D01*
X302993Y335698D01*
X302668Y335832D01*
X302376Y336027D01*
X302031Y336096D01*
X301706Y336230D01*
X301355D01*
X301010Y336299D01*
X300665Y336230D01*
X300314D01*
X299989Y336096D01*
X299645Y336027D01*
X299352Y335832D01*
X299028Y335698D01*
X298779Y335449D01*
X298487Y335254D01*
X298292Y334962D01*
X298043Y334713D01*
X297908Y334388D01*
X297713Y334096D01*
X297645Y333751D01*
X297510Y333427D01*
Y333075D01*
X297442Y332730D01*
X296569Y332259D01*
X295569Y332527D01*
Y333000D01*
X295500Y333345D01*
Y333696D01*
X295366Y334021D01*
X295297Y334366D01*
X295102Y334658D01*
X294967Y334983D01*
X294719Y335231D01*
X294523Y335523D01*
X294231Y335719D01*
X293983Y335967D01*
X293658Y336102D01*
X293366Y336297D01*
X293021Y336366D01*
X292696Y336500D01*
X292345D01*
X292000Y336569D01*
X291655Y336500D01*
X291304D01*
X290979Y336366D01*
X290634Y336297D01*
X290342Y336102D01*
X290017Y335967D01*
X289769Y335719D01*
X289477Y335523D01*
X289281Y335231D01*
X289033Y334983D01*
X288898Y334658D01*
X288703Y334366D01*
X288634Y334021D01*
X288500Y333696D01*
Y333345D01*
X288431Y333000D01*
Y332233D01*
X287044D01*
Y321233D01*
X295949D01*
X296487Y320233D01*
X296393Y320090D01*
X288380Y319017D01*
X288130Y318932D01*
X287871Y318880D01*
X287757Y318804D01*
X287627Y318760D01*
X287429Y318585D01*
X287209Y318438D01*
X285487Y316716D01*
X284564Y317099D01*
Y324417D01*
X284408Y325197D01*
X284044Y325742D01*
Y332233D01*
X273544D01*
Y327496D01*
X273446Y327399D01*
X267095D01*
X265534Y327088D01*
X264211Y326204D01*
X263327Y324881D01*
X263017Y323320D01*
X263165Y322575D01*
X262243Y322083D01*
X258763Y325563D01*
X257771Y326226D01*
X256600Y326459D01*
X256600Y326459D01*
X223100D01*
Y327600D01*
X214900D01*
Y326253D01*
X214488Y326048D01*
X213678D01*
X213678Y326048D01*
X212508Y325815D01*
X211516Y325152D01*
X211516Y325152D01*
X208944Y322580D01*
X194299D01*
X194299Y322580D01*
X193129Y322347D01*
X192136Y321684D01*
X177660Y307207D01*
X176996Y306215D01*
X176764Y305044D01*
X176764Y305044D01*
Y289136D01*
X176764Y289136D01*
X176996Y287965D01*
X177660Y286973D01*
X189628Y275005D01*
X186443Y271820D01*
X194221Y264042D01*
X205535Y275356D01*
X197757Y283134D01*
X193953Y279331D01*
X182881Y290403D01*
Y303777D01*
X195566Y316462D01*
X210211D01*
X210211Y316462D01*
X211381Y316695D01*
X212374Y317358D01*
X213900Y318885D01*
X214900Y318470D01*
Y314474D01*
X214891Y314431D01*
X214900Y314387D01*
Y312400D01*
X215156D01*
X215228Y311882D01*
Y311815D01*
X215261Y311653D01*
X215278Y311532D01*
X215294Y311484D01*
X215297Y311470D01*
Y311118D01*
X215431Y310794D01*
X215500Y310449D01*
X215695Y310157D01*
X215830Y309832D01*
X216078Y309583D01*
X216274Y309291D01*
X216566Y309096D01*
X216814Y308847D01*
X217139Y308713D01*
X217431Y308518D01*
X217776Y308449D01*
X218101Y308315D01*
X218452D01*
X218797Y308246D01*
X219142Y308315D01*
X219493D01*
X219818Y308449D01*
X220163Y308518D01*
X220455Y308713D01*
X220780Y308847D01*
X221028Y309096D01*
X221320Y309291D01*
X221516Y309583D01*
X221764Y309832D01*
X221899Y310157D01*
X222094Y310449D01*
X222162Y310794D01*
X222297Y311118D01*
Y311387D01*
X222596Y312400D01*
X223100D01*
Y314387D01*
X223109Y314431D01*
X223100Y314474D01*
Y320341D01*
X236551D01*
X237200Y319610D01*
Y306439D01*
X237192Y306392D01*
X237200Y306356D01*
Y304410D01*
X238600D01*
X242004Y302139D01*
X252026Y292116D01*
X253349Y291232D01*
X254910Y290922D01*
X255154Y289952D01*
X255262Y289409D01*
X256091Y288169D01*
X255996Y287764D01*
X255720Y287169D01*
X248473D01*
X247950Y287064D01*
X238932Y296082D01*
X238270Y296524D01*
X237490Y296679D01*
X234950D01*
X234170Y296524D01*
X233832Y296298D01*
X232198Y297932D01*
X224420Y290154D01*
X235734Y278840D01*
X239260Y282366D01*
X242315Y279312D01*
X238789Y275786D01*
X250102Y264472D01*
X257880Y272250D01*
Y272250D01*
X258430Y272983D01*
X267300Y268125D01*
Y267300D01*
X269242D01*
X269251Y267298D01*
X269264Y267300D01*
X276700D01*
Y277831D01*
X279119Y280250D01*
X280158Y280250D01*
X280789Y279395D01*
X280232Y278561D01*
X279922Y277000D01*
X280232Y275439D01*
X281116Y274116D01*
X282439Y273232D01*
X283300Y273061D01*
Y267300D01*
X292700D01*
Y275338D01*
X292768Y275439D01*
X293078Y277000D01*
X292768Y278561D01*
X292700Y278662D01*
Y280250D01*
X293940D01*
Y281922D01*
X294030D01*
X295591Y282232D01*
X296914Y283116D01*
X297798Y284439D01*
X298108Y286000D01*
X297798Y287561D01*
X296914Y288884D01*
X295591Y289768D01*
X294030Y290078D01*
X293940D01*
Y291250D01*
X283440D01*
Y280967D01*
X282439Y280768D01*
X281488Y280132D01*
X281354Y280043D01*
X280459Y280525D01*
X280440Y280543D01*
X280440Y281133D01*
Y290708D01*
X282598Y293218D01*
X282740Y293472D01*
X282909Y293708D01*
X282934Y293815D01*
X282988Y293911D01*
X283023Y294200D01*
X283089Y294483D01*
X283155Y296582D01*
X284071Y296984D01*
X287939Y293643D01*
X288085Y293560D01*
X288208Y293447D01*
X288428Y293366D01*
X288631Y293250D01*
X288798Y293230D01*
X288955Y293172D01*
X295561Y292130D01*
X299326Y290397D01*
X299357Y290390D01*
X299383Y290372D01*
X299743Y290298D01*
X300100Y290212D01*
X300131Y290217D01*
X300162Y290211D01*
X304636Y290175D01*
X304874Y290220D01*
X328270D01*
Y302720D01*
Y310720D01*
Y323220D01*
X302270D01*
Y323081D01*
X302094Y323046D01*
X301966Y322960D01*
X301821Y322908D01*
X299109Y321271D01*
X298231Y320944D01*
X297544Y321494D01*
X297544Y322055D01*
Y329818D01*
X298301Y330130D01*
X298544Y330150D01*
X299247Y329447D01*
X300405Y328673D01*
X301771Y328401D01*
X303175D01*
Y327470D01*
X319591D01*
X319634Y327461D01*
X319678Y327470D01*
X321665D01*
Y327824D01*
X321884Y327970D01*
X323276D01*
X324563Y328503D01*
X325547Y329487D01*
X326045Y330690D01*
X326455Y330885D01*
X327080Y331069D01*
X335601Y322548D01*
Y309090D01*
X335670Y308745D01*
Y301840D01*
X346170D01*
Y312840D01*
X342739D01*
Y324026D01*
X342467Y325392D01*
X341693Y326550D01*
X331220Y337023D01*
X330927Y337219D01*
X330679Y337467D01*
X330354Y337602D01*
X330062Y337797D01*
X329717Y337865D01*
X329392Y338000D01*
X329041D01*
X328696Y338069D01*
D02*
G37*
G36*
X393700Y335280D02*
X390230D01*
Y331910D01*
X393700D01*
Y335280D01*
D02*
G37*
G36*
X399710Y341190D02*
X396240D01*
Y336550D01*
Y331910D01*
X399451D01*
Y330697D01*
X398744Y329990D01*
X398376Y329990D01*
X397600Y330530D01*
X397184Y330530D01*
X393780D01*
Y326390D01*
Y322250D01*
X397184D01*
X397600Y322250D01*
X398376Y322790D01*
X398600Y322790D01*
X404986D01*
X405029Y322781D01*
X405073Y322790D01*
X407060D01*
Y323331D01*
X411205D01*
X411205Y323331D01*
X412375Y323564D01*
X413368Y324227D01*
X414171Y325030D01*
X414252Y325006D01*
X414646Y324834D01*
X415051Y324602D01*
X415471Y324302D01*
X415903Y323930D01*
X416345Y323479D01*
X416795Y322949D01*
X417243Y322345D01*
X417518Y321869D01*
X419659Y319728D01*
X422281Y318214D01*
X425206Y317430D01*
X428234D01*
X431159Y318214D01*
X433781Y319728D01*
X435922Y321869D01*
X437436Y324491D01*
X438220Y327416D01*
Y330444D01*
X437436Y333369D01*
X435922Y335991D01*
X433781Y338132D01*
X431159Y339646D01*
X428234Y340430D01*
X425206D01*
X422281Y339646D01*
X419659Y338132D01*
X417518Y335991D01*
X416534Y334288D01*
X416447Y334184D01*
X416074Y333500D01*
X415727Y332964D01*
X415382Y332517D01*
X415043Y332155D01*
X414713Y331871D01*
X414394Y331656D01*
X414081Y331500D01*
X413766Y331391D01*
X413434Y331326D01*
X413319Y331319D01*
X413075D01*
X412961Y331296D01*
X412946Y331295D01*
X412916Y331287D01*
X411904Y331086D01*
X410912Y330423D01*
X410912Y330423D01*
X409938Y329449D01*
X407060D01*
Y329990D01*
X405569D01*
Y332450D01*
X405970D01*
Y334421D01*
X405979Y334462D01*
X405970Y334508D01*
Y340650D01*
X399710D01*
Y341190D01*
D02*
G37*
G36*
X255289Y333243D02*
X250276D01*
Y328231D01*
X252569Y329181D01*
X254339Y330951D01*
X255289Y333243D01*
D02*
G37*
G36*
X391240Y330530D02*
X387420D01*
Y327660D01*
X391240D01*
Y330530D01*
D02*
G37*
G36*
Y325120D02*
X387420D01*
Y322250D01*
X391240D01*
Y325120D01*
D02*
G37*
G36*
X35384Y347540D02*
X34290D01*
Y318770D01*
X63060D01*
Y319864D01*
X62320Y324534D01*
X60859Y329031D01*
X58713Y333244D01*
X55933Y337070D01*
X52590Y340413D01*
X48764Y343192D01*
X44551Y345339D01*
X40054Y346800D01*
X35384Y347540D01*
D02*
G37*
G36*
X31750D02*
X30656D01*
X25986Y346800D01*
X21489Y345339D01*
X17276Y343192D01*
X13450Y340413D01*
X10107Y337070D01*
X7327Y333244D01*
X5181Y329031D01*
X3720Y324534D01*
X2980Y319864D01*
Y318770D01*
X31750D01*
Y347540D01*
D02*
G37*
G36*
X360210Y313380D02*
X355690D01*
Y308610D01*
X360210D01*
Y313380D01*
D02*
G37*
G36*
X353150D02*
X348630D01*
Y308610D01*
X353150D01*
Y313380D01*
D02*
G37*
G36*
X196546Y308914D02*
X194163Y306531D01*
X196617Y304077D01*
X199000Y306460D01*
X196546Y308914D01*
D02*
G37*
G36*
X360210Y306070D02*
X355690D01*
Y301300D01*
X360210D01*
Y306070D01*
D02*
G37*
G36*
X353150D02*
X348630D01*
Y301300D01*
X353150D01*
Y306070D01*
D02*
G37*
G36*
X192367Y304735D02*
X189984Y302352D01*
X192438Y299898D01*
X194821Y302281D01*
X192367Y304735D01*
D02*
G37*
G36*
X474540Y297920D02*
X471170D01*
Y294450D01*
X474540D01*
Y297920D01*
D02*
G37*
G36*
X459740Y294720D02*
X456870D01*
Y290900D01*
X459740D01*
Y294720D01*
D02*
G37*
G36*
X63060Y316230D02*
X34290D01*
Y287460D01*
X35384D01*
X40054Y288200D01*
X44551Y289661D01*
X48764Y291807D01*
X52590Y294587D01*
X55933Y297930D01*
X58713Y301756D01*
X60859Y305969D01*
X62320Y310466D01*
X63060Y315136D01*
Y316230D01*
D02*
G37*
G36*
X31750D02*
X2980D01*
Y315136D01*
X3720Y310466D01*
X5181Y305969D01*
X7327Y301756D01*
X10107Y297930D01*
X13450Y294587D01*
X17276Y291807D01*
X21489Y289661D01*
X25986Y288200D01*
X30656Y287460D01*
X31750D01*
Y316230D01*
D02*
G37*
G36*
X200796Y304664D02*
X197515Y301383D01*
X194234Y298102D01*
X196688Y295649D01*
X197069Y296030D01*
X201496Y291604D01*
X202232Y292340D01*
X203365Y291207D01*
X203365Y291207D01*
X203995Y290786D01*
X204247Y289624D01*
X200811Y286189D01*
X208589Y278410D01*
X219903Y289724D01*
X215590Y294037D01*
Y294066D01*
X215057Y295353D01*
X214073Y296337D01*
X212786Y296870D01*
X212757D01*
X212125Y297502D01*
X211493Y296870D01*
X211394D01*
X210487Y296495D01*
X209917Y296429D01*
X207735D01*
X207294Y297402D01*
Y297402D01*
X202868Y301829D01*
X203249Y302211D01*
X200796Y304664D01*
D02*
G37*
G36*
X61270Y283459D02*
X39000D01*
Y273689D01*
X61270D01*
Y283459D01*
D02*
G37*
G36*
X36460D02*
X14191D01*
Y273689D01*
X36460D01*
Y283459D01*
D02*
G37*
G36*
X260935Y269959D02*
X257562Y266586D01*
X262703Y261445D01*
X266076Y264818D01*
X260935Y269959D01*
D02*
G37*
G36*
X61270Y271149D02*
X39000D01*
Y261379D01*
X61270D01*
Y271149D01*
D02*
G37*
G36*
X36460D02*
X14191D01*
Y261379D01*
X36460D01*
Y271149D01*
D02*
G37*
G36*
X255766Y264790D02*
X252393Y261417D01*
X257534Y256276D01*
X260907Y259649D01*
X255766Y264790D01*
D02*
G37*
G36*
X267872Y263022D02*
X264499Y259649D01*
X269640Y254509D01*
X273013Y257882D01*
X267872Y263022D01*
D02*
G37*
G36*
X300646Y272250D02*
X299354D01*
X298159Y271755D01*
X297245Y270841D01*
X296750Y269646D01*
Y269285D01*
X278797Y251333D01*
X275304Y254827D01*
X267525Y247049D01*
X278839Y235735D01*
X286617Y243513D01*
X283123Y247007D01*
X302067Y265951D01*
X302067Y265951D01*
X302730Y266943D01*
X302790Y267242D01*
X303250Y268354D01*
Y269646D01*
X302755Y270841D01*
X301841Y271755D01*
X300646Y272250D01*
D02*
G37*
G36*
X183388Y268765D02*
X172075Y257452D01*
X179853Y249674D01*
X191166Y260987D01*
X183388Y268765D01*
D02*
G37*
G36*
X262703Y257853D02*
X259330Y254480D01*
X264471Y249340D01*
X267844Y252713D01*
X262703Y257853D01*
D02*
G37*
G36*
X684180Y250215D02*
X679450D01*
Y243880D01*
X691618D01*
X691526Y244578D01*
X690766Y246413D01*
X689558Y247988D01*
X687982Y249196D01*
X686148Y249956D01*
X684180Y250215D01*
D02*
G37*
G36*
X315606Y263600D02*
X314314D01*
X313119Y263105D01*
X312205Y262191D01*
X311710Y260996D01*
Y259704D01*
X311901Y259242D01*
Y255700D01*
X293166Y236964D01*
X289672Y240458D01*
X281894Y232680D01*
X293207Y221367D01*
X300986Y229145D01*
X297492Y232639D01*
X317123Y252270D01*
X317123Y252270D01*
X317786Y253262D01*
X318019Y254433D01*
X318019Y254433D01*
Y259242D01*
X318210Y259704D01*
Y260996D01*
X317715Y262191D01*
X316801Y263105D01*
X315606Y263600D01*
D02*
G37*
G36*
X169020Y254397D02*
X157706Y243083D01*
X165484Y235305D01*
X176798Y246619D01*
X169020Y254397D01*
D02*
G37*
G36*
X154651Y240792D02*
X149511Y235651D01*
X152884Y232279D01*
X158024Y237419D01*
X154651Y240792D01*
D02*
G37*
G36*
X553180Y231870D02*
X546910D01*
Y228600D01*
X553180D01*
Y231870D01*
D02*
G37*
G36*
X544370D02*
X538100D01*
Y228600D01*
X544370D01*
Y231870D01*
D02*
G37*
G36*
X159820Y235623D02*
X154680Y230483D01*
X158053Y227110D01*
X163193Y232250D01*
X159820Y235623D01*
D02*
G37*
G36*
X147715Y233855D02*
X142574Y228715D01*
X145947Y225342D01*
X151088Y230483D01*
X147715Y233855D01*
D02*
G37*
G36*
X553180Y226060D02*
X546910D01*
Y222790D01*
X553180D01*
Y226060D01*
D02*
G37*
G36*
X305584Y280993D02*
X303993D01*
X302523Y280384D01*
X301397Y279258D01*
X300789Y277788D01*
Y276197D01*
X301397Y274727D01*
X302523Y273602D01*
X303993Y272993D01*
X305584D01*
X307054Y273602D01*
X307385Y273933D01*
X307401Y273934D01*
X309750D01*
X329681Y254003D01*
Y244743D01*
X307534Y222596D01*
X304040Y226090D01*
X296262Y218312D01*
X307576Y206998D01*
X315354Y214776D01*
X311860Y218270D01*
X334903Y241313D01*
X334903Y241313D01*
X335566Y242305D01*
X335799Y243476D01*
Y255270D01*
X335799Y255270D01*
X335566Y256441D01*
X334903Y257433D01*
X334903Y257433D01*
X313180Y279156D01*
X312188Y279819D01*
X311017Y280051D01*
X311017Y280051D01*
X307387D01*
X307054Y280384D01*
X305584Y280993D01*
D02*
G37*
G36*
X152884Y228687D02*
X147743Y223546D01*
X151116Y220173D01*
X156257Y225314D01*
X152884Y228687D01*
D02*
G37*
G36*
X501210Y223520D02*
X497840D01*
Y220050D01*
X501210D01*
Y223520D01*
D02*
G37*
G36*
X495300D02*
X491930D01*
Y220050D01*
X495300D01*
Y223520D01*
D02*
G37*
G36*
X140283Y226424D02*
X135142Y221283D01*
X138515Y217910D01*
X143656Y223051D01*
X140283Y226424D01*
D02*
G37*
G36*
X439344Y226260D02*
X437315D01*
X435441Y225483D01*
X434006Y224049D01*
X433230Y222174D01*
Y220145D01*
X434006Y218271D01*
X435441Y216836D01*
X437315Y216060D01*
X439344D01*
X441219Y216836D01*
X442653Y218271D01*
X443430Y220145D01*
Y222174D01*
X442653Y224049D01*
X441219Y225483D01*
X439344Y226260D01*
D02*
G37*
G36*
X58781Y253764D02*
X58000Y253609D01*
X57339Y253167D01*
X57339Y253167D01*
X32484Y228312D01*
X32042Y227651D01*
X31887Y226870D01*
X32042Y226090D01*
X32484Y225428D01*
X33146Y224986D01*
X33926Y224831D01*
X54774D01*
X56470Y224494D01*
X64928D01*
X67423Y221998D01*
Y216295D01*
X67397Y215740D01*
X58115D01*
X58071Y215749D01*
X58028Y215740D01*
X56041D01*
Y215316D01*
X53989Y214818D01*
X50831D01*
X50761Y214820D01*
X50731Y214822D01*
Y215240D01*
X48744D01*
X48701Y215249D01*
X48671Y215243D01*
X48642Y215248D01*
X48607Y215240D01*
X35731D01*
Y206240D01*
X48607D01*
X48642Y206232D01*
X48671Y206237D01*
X48701Y206231D01*
X48744Y206240D01*
X50731D01*
Y206616D01*
X51460Y206662D01*
X53989D01*
X56041Y206164D01*
Y205740D01*
X58028D01*
X58071Y205731D01*
X58115Y205740D01*
X66232D01*
X66394Y205366D01*
X66384Y205248D01*
X65883Y204211D01*
X64478Y203629D01*
X63071Y202222D01*
X62310Y200385D01*
Y198395D01*
X63071Y196558D01*
X64478Y195151D01*
X66315Y194390D01*
X68305D01*
X70142Y195151D01*
X70310Y195318D01*
X70430Y195342D01*
X71919Y196337D01*
X75156Y199575D01*
X76151Y201063D01*
X76388Y202256D01*
X77865Y205740D01*
X78541D01*
Y207712D01*
X78550Y207754D01*
X78548Y207762D01*
X78550Y207771D01*
X78541Y207814D01*
Y213666D01*
X78550Y213710D01*
X78541Y213753D01*
Y215740D01*
X76901D01*
X76802Y216043D01*
X76709Y216476D01*
X76599Y217571D01*
Y223899D01*
X76250Y225655D01*
X75256Y227143D01*
X70072Y232326D01*
X68584Y233321D01*
X66828Y233670D01*
X60820D01*
Y251725D01*
X60665Y252505D01*
X60223Y253167D01*
X59561Y253609D01*
X58781Y253764D01*
D02*
G37*
G36*
X660160Y219930D02*
X651140D01*
Y215660D01*
X660160D01*
Y219930D01*
D02*
G37*
G36*
X648600D02*
X639580D01*
Y215660D01*
X648600D01*
Y219930D01*
D02*
G37*
G36*
X145452Y221255D02*
X140311Y216114D01*
X143684Y212741D01*
X148825Y217882D01*
X145452Y221255D01*
D02*
G37*
G36*
X133346Y219487D02*
X128206Y214346D01*
X131579Y210973D01*
X136719Y216114D01*
X133346Y219487D01*
D02*
G37*
G36*
X598866Y220670D02*
X597474D01*
X596187Y220137D01*
X595203Y219153D01*
X594670Y217866D01*
Y216474D01*
X595203Y215187D01*
X595440Y214951D01*
Y210630D01*
X609440D01*
Y218630D01*
X601354D01*
X601137Y219153D01*
X600153Y220137D01*
X598866Y220670D01*
D02*
G37*
G36*
X544370Y226060D02*
X538100D01*
Y223652D01*
X538100Y222790D01*
X537295Y222318D01*
X536857Y222137D01*
X535873Y221153D01*
X535340Y219866D01*
Y218474D01*
X535873Y217187D01*
X536826Y216235D01*
X537060Y215884D01*
X538101Y214843D01*
X538171Y214760D01*
X538305Y214582D01*
X538410Y214420D01*
X538491Y214274D01*
X538548Y214146D01*
X538587Y214034D01*
X538612Y213937D01*
X538624Y213851D01*
X538634Y213669D01*
X538640Y213645D01*
Y210630D01*
X552640D01*
Y218630D01*
X543625D01*
X543601Y218636D01*
X543418Y218645D01*
X543332Y218658D01*
X543235Y218682D01*
X543124Y218722D01*
X542996Y218779D01*
X542850Y218859D01*
X542687Y218965D01*
X542509Y219099D01*
X542427Y219169D01*
X542340Y219256D01*
Y219866D01*
X541807Y221153D01*
X541170Y221790D01*
X541584Y222790D01*
X544370D01*
Y226060D01*
D02*
G37*
G36*
X579080Y213320D02*
X575310D01*
Y209550D01*
X579080D01*
Y213320D01*
D02*
G37*
G36*
X572770D02*
X569000D01*
Y209550D01*
X572770D01*
Y213320D01*
D02*
G37*
G36*
X325916Y279590D02*
X324324D01*
X322854Y278981D01*
X321729Y277856D01*
X321120Y276386D01*
Y274794D01*
X321729Y273324D01*
X322854Y272199D01*
X324324Y271590D01*
X325916D01*
X327386Y272199D01*
X327717Y272530D01*
X327732Y272531D01*
X328933D01*
X343651Y257813D01*
Y229976D01*
X321903Y208228D01*
X318409Y211722D01*
X310631Y203943D01*
X321944Y192630D01*
X329723Y200408D01*
X326228Y203902D01*
X348873Y226546D01*
X348873Y226546D01*
X349536Y227539D01*
X349769Y228709D01*
X349769Y228709D01*
Y259080D01*
X349769Y259080D01*
X349536Y260250D01*
X348873Y261243D01*
X348873Y261243D01*
X332363Y277753D01*
X331371Y278416D01*
X330200Y278649D01*
X330200Y278649D01*
X327718D01*
X327386Y278981D01*
X325916Y279590D01*
D02*
G37*
G36*
X660160Y213120D02*
X649870D01*
X639580D01*
Y208850D01*
X639010Y208086D01*
X637755Y207469D01*
X635190D01*
X635190Y207469D01*
X633629Y207158D01*
X632306Y206274D01*
X632306Y206274D01*
X622376Y196344D01*
X621492Y195021D01*
X621182Y193460D01*
X621182Y193460D01*
Y191709D01*
X621031D01*
Y187039D01*
X620992Y186981D01*
X620681Y185420D01*
X620681Y185419D01*
X620992Y183859D01*
X621031Y183800D01*
Y179129D01*
X623251D01*
Y180420D01*
X628260D01*
Y183210D01*
X629028Y184359D01*
X629339Y185920D01*
X629339Y185920D01*
Y191771D01*
X636880Y199312D01*
X640120D01*
Y197575D01*
X639463Y197246D01*
X638909Y197136D01*
X637917Y196473D01*
X637917Y196473D01*
X632837Y191393D01*
X632174Y190401D01*
X631941Y189230D01*
X631941Y189230D01*
Y181816D01*
X609977Y159852D01*
X609314Y158859D01*
X609081Y157689D01*
X609081Y157689D01*
Y117724D01*
X609081Y117724D01*
X609314Y116553D01*
X609977Y115561D01*
X616701Y108837D01*
X616701Y108837D01*
X617693Y108174D01*
X618864Y107941D01*
X618864Y107941D01*
X624215D01*
X624400Y107888D01*
Y107400D01*
X626387D01*
X626431Y107391D01*
X626474Y107400D01*
X629526D01*
X629570Y107391D01*
X629613Y107400D01*
X631600D01*
Y108141D01*
X638604D01*
X639016Y107935D01*
Y106358D01*
X660034D01*
Y116962D01*
X639016D01*
Y114465D01*
X638604Y114259D01*
X631600D01*
Y118526D01*
X631609Y118569D01*
X631600Y118613D01*
Y120600D01*
X631500D01*
Y121696D01*
X630967Y122983D01*
X629983Y123967D01*
X628696Y124500D01*
X627304D01*
X626017Y123967D01*
X625033Y122983D01*
X624500Y121696D01*
Y120600D01*
X624400D01*
Y118613D01*
X624391Y118569D01*
X624400Y118526D01*
Y114251D01*
X624003Y114059D01*
X620131D01*
X615199Y118991D01*
Y156422D01*
X637163Y178386D01*
X637163Y178386D01*
X637826Y179378D01*
X638059Y180549D01*
Y187963D01*
X639120Y189024D01*
X640120Y188610D01*
X640120Y188390D01*
Y179390D01*
X647066D01*
Y174360D01*
X647280Y173287D01*
X647888Y172377D01*
X652516Y167749D01*
Y139680D01*
X652730Y138607D01*
X653337Y137697D01*
X660033Y131002D01*
X659619Y130002D01*
X650795D01*
Y125430D01*
X660574D01*
Y129047D01*
X661574Y129461D01*
X665216Y125819D01*
Y103181D01*
X663999Y101964D01*
X660034D01*
Y104462D01*
X639016D01*
Y102065D01*
X638604Y101859D01*
X631600D01*
Y102600D01*
X629613D01*
X629570Y102609D01*
X629526Y102600D01*
X624400D01*
Y91474D01*
X624391Y91431D01*
X624400Y91387D01*
Y89400D01*
X624500D01*
Y88304D01*
X625033Y87017D01*
X626017Y86033D01*
X627304Y85500D01*
X628696D01*
X629983Y86033D01*
X630967Y87017D01*
X631500Y88304D01*
Y89400D01*
X631600D01*
Y91387D01*
X631609Y91431D01*
X631600Y91474D01*
Y95741D01*
X638604D01*
X639016Y95535D01*
Y93858D01*
X660034D01*
Y96356D01*
X665160D01*
X666233Y96570D01*
X667143Y97177D01*
X670003Y100037D01*
X670610Y100947D01*
X670824Y102020D01*
Y126980D01*
X670610Y128053D01*
X670003Y128963D01*
X658124Y140841D01*
Y168910D01*
X657910Y169983D01*
X657303Y170893D01*
X652674Y175521D01*
Y179390D01*
X659620D01*
Y181586D01*
X672663D01*
X673736Y181799D01*
X673917Y181920D01*
X675066D01*
X676353Y182453D01*
X677337Y183437D01*
X677870Y184724D01*
Y186116D01*
X677337Y187403D01*
X676353Y188387D01*
X675066Y188920D01*
X673674D01*
X672387Y188387D01*
X671403Y187403D01*
X671316Y187194D01*
X660327D01*
X659620Y187901D01*
X659620Y189390D01*
X659620Y190390D01*
Y191726D01*
X660727D01*
X661792Y191285D01*
X663184D01*
X664471Y191817D01*
X665455Y192802D01*
X665988Y194088D01*
Y195481D01*
X665455Y196767D01*
X664471Y197752D01*
X663184Y198285D01*
X661792D01*
X660727Y197843D01*
X659620D01*
Y199292D01*
X665793D01*
X667744Y199680D01*
X669397Y200786D01*
X670502Y202439D01*
X670891Y204390D01*
X670502Y206341D01*
X669397Y207995D01*
X667744Y209100D01*
X665793Y209488D01*
X660160D01*
Y213120D01*
D02*
G37*
G36*
X138515Y214318D02*
X133375Y209177D01*
X136747Y205805D01*
X141888Y210945D01*
X138515Y214318D01*
D02*
G37*
G36*
X125914Y212055D02*
X120774Y206915D01*
X124147Y203542D01*
X129287Y208682D01*
X125914Y212055D01*
D02*
G37*
G36*
X579080Y207010D02*
X575310D01*
Y203240D01*
X579080D01*
Y207010D01*
D02*
G37*
G36*
X572770D02*
X569000D01*
Y203240D01*
X572770D01*
Y207010D01*
D02*
G37*
G36*
X131083Y206887D02*
X125943Y201746D01*
X129316Y198373D01*
X134456Y203514D01*
X131083Y206887D01*
D02*
G37*
G36*
X118978Y205119D02*
X113837Y199978D01*
X117210Y196605D01*
X122351Y201746D01*
X118978Y205119D01*
D02*
G37*
G36*
X607409Y205939D02*
X607365Y205930D01*
X595440D01*
Y197930D01*
X607365D01*
X607409Y197921D01*
X607453Y197930D01*
X609440D01*
Y198871D01*
X613413D01*
X613812Y198473D01*
X614253Y197407D01*
X615237Y196423D01*
X616524Y195890D01*
X617916D01*
X619203Y196423D01*
X620187Y197407D01*
X620720Y198694D01*
Y200086D01*
X620187Y201373D01*
X619203Y202357D01*
X618137Y202798D01*
X616843Y204093D01*
X615850Y204756D01*
X614680Y204989D01*
X614680Y204989D01*
X609440D01*
Y205930D01*
X607453D01*
X607409Y205939D01*
D02*
G37*
G36*
X552640Y205930D02*
X538640D01*
Y202719D01*
X537767Y202357D01*
X536783Y201373D01*
X536250Y200086D01*
Y198694D01*
X536783Y197407D01*
X537767Y196423D01*
X539054Y195890D01*
X540446D01*
X541733Y196423D01*
X542717Y197407D01*
X542911Y197876D01*
X542966Y197930D01*
X552640D01*
Y205930D01*
D02*
G37*
G36*
X540670Y193239D02*
X540626Y193230D01*
X540588D01*
X540551Y193235D01*
X540531Y193230D01*
X538640D01*
Y192730D01*
X537783D01*
X536497Y192197D01*
X535512Y191213D01*
X534980Y189926D01*
Y188534D01*
X535512Y187247D01*
X536497Y186263D01*
X537783Y185730D01*
X538640D01*
Y185230D01*
X540531D01*
X540551Y185225D01*
X540588Y185230D01*
X540626D01*
X540670Y185221D01*
X540714Y185230D01*
X552640D01*
Y193230D01*
X540714D01*
X540670Y193239D01*
D02*
G37*
G36*
X20231Y215328D02*
X19788Y215240D01*
X12731D01*
Y206240D01*
X15338D01*
X15434Y205986D01*
X15535Y205583D01*
X15618Y205045D01*
X15643Y204740D01*
Y203603D01*
X15992Y201847D01*
X16987Y200358D01*
X23468Y193877D01*
X24956Y192882D01*
X26712Y192533D01*
X31539D01*
X32996Y191930D01*
X34985D01*
X36822Y192691D01*
X38229Y194098D01*
X38990Y195935D01*
Y197925D01*
X38229Y199762D01*
X36822Y201169D01*
X34985Y201930D01*
X32996D01*
X32463Y201709D01*
X28613D01*
X25053Y205269D01*
X25337Y206240D01*
X27731D01*
Y215240D01*
X20674D01*
X20231Y215328D01*
D02*
G37*
G36*
X124147Y199950D02*
X119006Y194809D01*
X122379Y191436D01*
X127520Y196577D01*
X124147Y199950D01*
D02*
G37*
G36*
X111546Y197687D02*
X106405Y192546D01*
X109778Y189173D01*
X114919Y194314D01*
X111546Y197687D01*
D02*
G37*
G36*
X116715Y192518D02*
X111574Y187377D01*
X114947Y184004D01*
X120088Y189145D01*
X116715Y192518D01*
D02*
G37*
G36*
X104609Y190750D02*
X99469Y185610D01*
X102842Y182237D01*
X107982Y187377D01*
X104609Y190750D01*
D02*
G37*
G36*
X611917Y193308D02*
X611917Y193308D01*
X602440D01*
X602046Y193230D01*
X595440D01*
Y185230D01*
X602046D01*
X602440Y185152D01*
X610228D01*
X610361Y185018D01*
X610492Y184359D01*
X611260Y183210D01*
Y180420D01*
X616271D01*
Y179129D01*
X618491D01*
Y183803D01*
X618529Y183859D01*
X618839Y185419D01*
X618839Y185420D01*
X618529Y186981D01*
X618491Y187037D01*
Y191709D01*
X616271D01*
Y191709D01*
X615518Y191397D01*
X614801Y192114D01*
X613478Y192998D01*
X611917Y193308D01*
D02*
G37*
G36*
X109778Y185581D02*
X104638Y180441D01*
X108011Y177068D01*
X113151Y182208D01*
X109778Y185581D01*
D02*
G37*
G36*
X398345Y185260D02*
X396316D01*
X394441Y184484D01*
X393007Y183049D01*
X392230Y181175D01*
Y179146D01*
X393007Y177271D01*
X394441Y175837D01*
X396316Y175060D01*
X398345D01*
X400219Y175837D01*
X401654Y177271D01*
X402430Y179146D01*
Y181175D01*
X401654Y183049D01*
X400219Y184484D01*
X398345Y185260D01*
D02*
G37*
G36*
X97178Y183319D02*
X92037Y178178D01*
X95410Y174805D01*
X100551Y179946D01*
X97178Y183319D01*
D02*
G37*
G36*
X44540Y181050D02*
X22270D01*
Y173030D01*
X44540D01*
Y181050D01*
D02*
G37*
G36*
X102347Y178150D02*
X97206Y173009D01*
X100579Y169636D01*
X105719Y174777D01*
X102347Y178150D01*
D02*
G37*
G36*
X572630Y173100D02*
X565110D01*
Y168830D01*
X572630D01*
Y173100D01*
D02*
G37*
G36*
X562570D02*
X555050D01*
Y168830D01*
X562570D01*
Y173100D01*
D02*
G37*
G36*
X90241Y176382D02*
X85100Y171241D01*
X88473Y167868D01*
X93614Y173009D01*
X90241Y176382D01*
D02*
G37*
G36*
X347146Y182985D02*
X339367Y175207D01*
X350681Y163893D01*
X358459Y171671D01*
X347146Y182985D01*
D02*
G37*
G36*
X95410Y171213D02*
X90269Y166072D01*
X93642Y162699D01*
X98783Y167840D01*
X95410Y171213D01*
D02*
G37*
G36*
X572630Y166290D02*
X565110D01*
Y162020D01*
X572630D01*
Y166290D01*
D02*
G37*
G36*
X562570D02*
X555050D01*
Y162020D01*
X562570D01*
Y166290D01*
D02*
G37*
G36*
X550020Y162120D02*
X546550D01*
Y158750D01*
X550020D01*
Y162120D01*
D02*
G37*
G36*
X642180Y163815D02*
X639450D01*
Y157480D01*
X649618D01*
X649526Y158178D01*
X648766Y160012D01*
X647558Y161588D01*
X645983Y162796D01*
X644148Y163556D01*
X642180Y163815D01*
D02*
G37*
G36*
X636910D02*
X634180D01*
X632212Y163556D01*
X630378Y162796D01*
X628802Y161588D01*
X627594Y160012D01*
X626834Y158178D01*
X626742Y157480D01*
X636910D01*
Y163815D01*
D02*
G37*
G36*
X530237Y177240D02*
X528943D01*
X527749Y176745D01*
X526835Y175831D01*
X526340Y174636D01*
Y173344D01*
X526835Y172149D01*
X527749Y171235D01*
X528211Y171044D01*
X531491Y167764D01*
Y161411D01*
X531491Y161410D01*
X531724Y160240D01*
X532387Y159248D01*
X533741Y157893D01*
X533811Y157810D01*
X533945Y157632D01*
X534051Y157470D01*
X534131Y157324D01*
X534188Y157196D01*
X534228Y157084D01*
X534252Y156987D01*
X534265Y156901D01*
X534274Y156719D01*
X534280Y156695D01*
Y153380D01*
X534280D01*
X534085Y152461D01*
X532075D01*
Y144461D01*
X548491D01*
X548535Y144452D01*
X548579Y144461D01*
X550565D01*
Y145402D01*
X555590D01*
Y143460D01*
X572090D01*
Y153460D01*
X555590D01*
Y151519D01*
X550707D01*
X550565Y152461D01*
X550565D01*
X550020Y153218D01*
Y156210D01*
X545280D01*
Y157480D01*
X544010D01*
Y162120D01*
X540540D01*
Y161580D01*
X539365D01*
X539341Y161586D01*
X539159Y161595D01*
X539073Y161608D01*
X538976Y161632D01*
X538864Y161672D01*
X538736Y161729D01*
X538590Y161809D01*
X538428Y161915D01*
X538250Y162049D01*
X538167Y162118D01*
X537608Y162677D01*
Y169030D01*
X537608Y169030D01*
X537375Y170201D01*
X536712Y171193D01*
X536712Y171193D01*
X532536Y175369D01*
X532345Y175831D01*
X531431Y176745D01*
X530237Y177240D01*
D02*
G37*
G36*
X392158Y227099D02*
X390765D01*
X389479Y226566D01*
X388494Y225581D01*
X387962Y224295D01*
Y224038D01*
X384110Y220187D01*
X383506Y219283D01*
X383294Y218217D01*
Y165391D01*
X368362Y150459D01*
X359877D01*
X357222Y153115D01*
X356993Y153267D01*
X351035Y159226D01*
X339721Y147912D01*
X347499Y140134D01*
X354911Y147546D01*
X356868Y145589D01*
X357772Y144985D01*
X358838Y144773D01*
X359413Y144887D01*
X369516D01*
X370582Y145099D01*
X371486Y145703D01*
X388050Y162267D01*
X388654Y163171D01*
X388866Y164237D01*
Y217063D01*
X391902Y220098D01*
X392158D01*
X393444Y220631D01*
X394429Y221616D01*
X394962Y222902D01*
Y224295D01*
X394429Y225581D01*
X393444Y226566D01*
X392158Y227099D01*
D02*
G37*
G36*
X649618Y154940D02*
X639450D01*
Y148605D01*
X642180D01*
X644148Y148864D01*
X645983Y149624D01*
X647558Y150832D01*
X648766Y152408D01*
X649526Y154242D01*
X649618Y154940D01*
D02*
G37*
G36*
X636910D02*
X626742D01*
X626834Y154242D01*
X627594Y152408D01*
X628802Y150832D01*
X630378Y149624D01*
X632212Y148864D01*
X634180Y148605D01*
X636910D01*
Y154940D01*
D02*
G37*
G36*
X108443Y145265D02*
X105070Y141892D01*
X110211Y136752D01*
X113583Y140125D01*
X108443Y145265D01*
D02*
G37*
G36*
X681755Y141390D02*
X666007D01*
Y134659D01*
X681755D01*
Y141390D01*
D02*
G37*
G36*
X103274Y140097D02*
X99901Y136724D01*
X105042Y131583D01*
X108414Y134956D01*
X103274Y140097D01*
D02*
G37*
G36*
X115379Y138329D02*
X112007Y134956D01*
X117147Y129815D01*
X120520Y133188D01*
X115379Y138329D01*
D02*
G37*
G36*
X84559Y131436D02*
X80189D01*
Y127166D01*
X84559D01*
Y131436D01*
D02*
G37*
G36*
X77649D02*
X73279D01*
Y127166D01*
X77649D01*
Y131436D01*
D02*
G37*
G36*
X51190D02*
X46820D01*
Y127166D01*
X51190D01*
Y131436D01*
D02*
G37*
G36*
X44280D02*
X39910D01*
Y127166D01*
X44280D01*
Y131436D01*
D02*
G37*
G36*
X648255Y130002D02*
X638476D01*
Y125430D01*
X648255D01*
Y130002D01*
D02*
G37*
G36*
X110211Y133160D02*
X106838Y129787D01*
X111978Y124646D01*
X115351Y128019D01*
X110211Y133160D01*
D02*
G37*
G36*
X122811Y130897D02*
X119438Y127524D01*
X124579Y122383D01*
X127952Y125756D01*
X122811Y130897D01*
D02*
G37*
G36*
X660574Y122890D02*
X650795D01*
Y118318D01*
X660574D01*
Y122890D01*
D02*
G37*
G36*
X648255D02*
X638476D01*
Y118318D01*
X648255D01*
Y122890D01*
D02*
G37*
G36*
X117642Y125728D02*
X114269Y122355D01*
X119410Y117214D01*
X122783Y120587D01*
X117642Y125728D01*
D02*
G37*
G36*
X129748Y123960D02*
X126375Y120587D01*
X131516Y115447D01*
X134889Y118820D01*
X129748Y123960D01*
D02*
G37*
G36*
X336666Y144858D02*
X325353Y133544D01*
X333131Y125766D01*
X333878Y126513D01*
X346736Y113654D01*
X356636Y123554D01*
X343777Y136412D01*
X344444Y137079D01*
X336666Y144858D01*
D02*
G37*
G36*
X124579Y118791D02*
X121206Y115418D01*
X126347Y110278D01*
X129720Y113651D01*
X124579Y118791D01*
D02*
G37*
G36*
X137180Y116529D02*
X133807Y113156D01*
X138947Y108015D01*
X142320Y111388D01*
X137180Y116529D01*
D02*
G37*
G36*
X559790Y111360D02*
X554020D01*
Y106840D01*
X559790D01*
Y111360D01*
D02*
G37*
G36*
X551480D02*
X545710D01*
Y106840D01*
X551480D01*
Y111360D01*
D02*
G37*
G36*
X44540Y113990D02*
X22270D01*
Y105970D01*
X44540D01*
Y113990D01*
D02*
G37*
G36*
X593090Y163010D02*
X576590D01*
Y153010D01*
X581575D01*
X581781Y152598D01*
Y150497D01*
X576837Y145553D01*
X576174Y144561D01*
X575941Y143390D01*
X575941Y143390D01*
Y138880D01*
X573250D01*
Y133616D01*
X573248Y133605D01*
X573221Y133503D01*
X573178Y133385D01*
X573117Y133252D01*
X573032Y133102D01*
X572923Y132935D01*
X572786Y132754D01*
X572717Y132673D01*
X570197Y130153D01*
X569534Y129161D01*
X569301Y127990D01*
X569301Y127990D01*
Y125960D01*
X567360D01*
Y110460D01*
X577360D01*
Y125960D01*
X575992D01*
X575656Y126960D01*
X577043Y128347D01*
X577124Y128416D01*
X577305Y128553D01*
X577471Y128663D01*
X577622Y128747D01*
X577755Y128808D01*
X577873Y128851D01*
X577976Y128878D01*
X577986Y128880D01*
X587622D01*
X587647Y128735D01*
X587663Y128554D01*
Y126160D01*
X587655Y126046D01*
X587644Y125960D01*
X586560D01*
Y123983D01*
X586552Y123941D01*
X586560Y123896D01*
Y110460D01*
X590515D01*
X590714Y110428D01*
X590957Y110365D01*
X591213Y110273D01*
X591487Y110147D01*
X591777Y109986D01*
X592084Y109785D01*
X592405Y109543D01*
X592581Y109392D01*
X593379Y108595D01*
X593507Y107950D01*
X593850Y107437D01*
X593933Y107237D01*
X594086Y107085D01*
X594281Y106792D01*
X594377Y106697D01*
X594669Y106501D01*
X594917Y106253D01*
X595242Y106118D01*
X595534Y105923D01*
X595879Y105855D01*
X596204Y105720D01*
X596555D01*
X596900Y105651D01*
X597245Y105720D01*
X597596D01*
X597921Y105855D01*
X598266Y105923D01*
X598558Y106118D01*
X598883Y106253D01*
X599131Y106501D01*
X599423Y106697D01*
X599619Y106989D01*
X599867Y107237D01*
X600002Y107562D01*
X600197Y107854D01*
X600266Y108199D01*
X600400Y108524D01*
Y108875D01*
X600469Y109220D01*
X600400Y109565D01*
Y109916D01*
X600373Y109982D01*
Y110216D01*
X600101Y111582D01*
X599328Y112740D01*
X597628Y114439D01*
X597478Y114615D01*
X597236Y114937D01*
X597035Y115244D01*
X596873Y115534D01*
X596748Y115807D01*
X596656Y116064D01*
X596593Y116306D01*
X596560Y116506D01*
Y125960D01*
X594840D01*
X594815Y126105D01*
X594800Y126286D01*
Y128676D01*
X594806Y128842D01*
X594810Y128880D01*
X595750D01*
Y130857D01*
X595759Y130899D01*
X595750Y130944D01*
Y138880D01*
X582059D01*
Y142123D01*
X587003Y147067D01*
X587666Y148060D01*
X587899Y149230D01*
X587899Y149230D01*
Y152598D01*
X588105Y153010D01*
X593090D01*
Y163010D01*
D02*
G37*
G36*
X132011Y111360D02*
X128638Y107987D01*
X133778Y102846D01*
X137151Y106219D01*
X132011Y111360D01*
D02*
G37*
G36*
X144116Y109592D02*
X140743Y106219D01*
X145884Y101078D01*
X149257Y104451D01*
X144116Y109592D01*
D02*
G37*
G36*
X559790Y104300D02*
X554020D01*
Y99780D01*
X559790D01*
Y104300D01*
D02*
G37*
G36*
X551480D02*
X545710D01*
Y99780D01*
X551480D01*
Y104300D01*
D02*
G37*
G36*
X322298Y130489D02*
X310984Y119175D01*
X318762Y111397D01*
X319525Y112160D01*
X332906Y98779D01*
X342805Y108679D01*
X329425Y122060D01*
X330076Y122711D01*
X322298Y130489D01*
D02*
G37*
G36*
X138947Y104423D02*
X135575Y101050D01*
X140715Y95909D01*
X144088Y99282D01*
X138947Y104423D01*
D02*
G37*
G36*
X559250Y96320D02*
X546250D01*
Y93551D01*
X542954D01*
X542954Y93551D01*
X541783Y93318D01*
X540791Y92655D01*
X540791Y92654D01*
X533950Y85814D01*
X533287Y84822D01*
X533054Y83651D01*
X533054Y83651D01*
Y74920D01*
X530811D01*
Y58220D01*
X551829D01*
Y63511D01*
X552980D01*
X552980Y63511D01*
X554151Y63744D01*
X555143Y64407D01*
X558447Y67712D01*
X559513Y68153D01*
X559991Y68631D01*
X560991Y68217D01*
Y60310D01*
X577273D01*
X577284Y60308D01*
X577386Y60281D01*
X577504Y60238D01*
X577637Y60177D01*
X577788Y60092D01*
X577954Y59983D01*
X578135Y59846D01*
X578216Y59777D01*
X579646Y58347D01*
X579646Y58347D01*
X580639Y57684D01*
X581809Y57451D01*
X589430D01*
Y55340D01*
X602430D01*
Y65840D01*
X589430D01*
Y63569D01*
X583076D01*
X582542Y64102D01*
X582473Y64184D01*
X582336Y64365D01*
X582227Y64531D01*
X582142Y64682D01*
X582081Y64815D01*
X582038Y64933D01*
X582011Y65036D01*
X582009Y65046D01*
Y74310D01*
X580909D01*
Y76200D01*
X580909Y76200D01*
X580676Y77371D01*
X580013Y78363D01*
X565143Y93233D01*
X564150Y93896D01*
X562980Y94129D01*
X562980Y94129D01*
X559250D01*
Y96320D01*
D02*
G37*
G36*
X386269Y95196D02*
X385461Y94861D01*
X384428Y93828D01*
X384093Y93019D01*
X386269D01*
Y95196D01*
D02*
G37*
G36*
X416120Y93980D02*
X412750D01*
Y90510D01*
X416120D01*
Y93980D01*
D02*
G37*
G36*
X410210D02*
X406840D01*
Y90510D01*
X410210D01*
Y93980D01*
D02*
G37*
G36*
X660034Y91962D02*
X639016D01*
Y90509D01*
X638047Y89986D01*
X637297Y90297D01*
X635905D01*
X634618Y89764D01*
X633634Y88780D01*
X633101Y87493D01*
Y86101D01*
X633634Y84815D01*
X634618Y83830D01*
X635905Y83297D01*
X637297D01*
X638047Y83608D01*
X639016Y83085D01*
Y81358D01*
X660034D01*
Y83160D01*
X661243D01*
X662530Y83693D01*
X663514Y84677D01*
X664047Y85964D01*
Y87356D01*
X663514Y88643D01*
X662530Y89627D01*
X661243Y90160D01*
X660034D01*
Y91962D01*
D02*
G37*
G36*
X151548Y101397D02*
X143770Y93618D01*
X147279Y90110D01*
X145182Y88012D01*
X145177Y88010D01*
X145171Y88007D01*
X145169Y88006D01*
X145168Y88006D01*
X145165Y88005D01*
X145155Y88004D01*
X145058Y88001D01*
X144891Y87963D01*
X144302D01*
X142832Y87354D01*
X141706Y86229D01*
X141097Y84759D01*
Y83167D01*
X141706Y81697D01*
X142832Y80572D01*
X144302Y79963D01*
X145893D01*
X147363Y80572D01*
X148489Y81697D01*
X149097Y83167D01*
Y83757D01*
X149136Y83924D01*
X149139Y84021D01*
X149139Y84030D01*
X149140Y84033D01*
X149141Y84034D01*
X149141Y84037D01*
X149144Y84043D01*
X149147Y84047D01*
X151244Y86144D01*
X155084Y82305D01*
X162862Y90083D01*
X151548Y101397D01*
D02*
G37*
G36*
X412270Y80570D02*
Y76200D01*
X416540D01*
Y80570D01*
X412270D01*
D02*
G37*
G36*
X586960Y103960D02*
X576960D01*
Y88460D01*
X586960D01*
Y93151D01*
X588323D01*
X592871Y88603D01*
Y80340D01*
X589430D01*
Y69840D01*
X602430D01*
Y80340D01*
X598989D01*
Y89870D01*
X598989Y89870D01*
X598756Y91040D01*
X598093Y92033D01*
X598093Y92033D01*
X591753Y98373D01*
X590761Y99036D01*
X589590Y99269D01*
X589590Y99269D01*
X586960D01*
Y103960D01*
D02*
G37*
G36*
X681755Y76161D02*
X666007D01*
Y69430D01*
X681755D01*
Y76161D01*
D02*
G37*
G36*
X416540Y73660D02*
X412270D01*
Y69290D01*
X416540D01*
Y73660D01*
D02*
G37*
G36*
X377930Y72289D02*
X373560D01*
Y68019D01*
X377930D01*
Y72289D01*
D02*
G37*
G36*
X165916Y87028D02*
X158138Y79250D01*
X161325Y76063D01*
X159128Y73866D01*
X158063Y73425D01*
X157078Y72440D01*
X156545Y71154D01*
Y69762D01*
X157078Y68475D01*
X158063Y67491D01*
X159349Y66958D01*
X160742D01*
X162028Y67491D01*
X163013Y68475D01*
X163454Y69540D01*
X165651Y71737D01*
X169452Y67936D01*
X177230Y75714D01*
X165916Y87028D01*
D02*
G37*
G36*
X264824Y73779D02*
X259683Y68639D01*
X263056Y65266D01*
X268197Y70406D01*
X264824Y73779D01*
D02*
G37*
G36*
X359730Y69730D02*
X354960D01*
Y64960D01*
X359730D01*
Y69730D01*
D02*
G37*
G36*
X269993Y68610D02*
X264853Y63470D01*
X268225Y60097D01*
X273366Y65237D01*
X269993Y68610D01*
D02*
G37*
G36*
X257887Y66842D02*
X252747Y61702D01*
X256120Y58329D01*
X261260Y63470D01*
X257887Y66842D01*
D02*
G37*
G36*
X443690Y61320D02*
X439420D01*
Y56300D01*
X443690D01*
Y61320D01*
D02*
G37*
G36*
X436880D02*
X432610D01*
Y56300D01*
X436880D01*
Y61320D01*
D02*
G37*
G36*
X180285Y72660D02*
X172507Y64882D01*
X173818Y63571D01*
X173772Y63525D01*
X173239Y62239D01*
Y60847D01*
X173772Y59560D01*
X174757Y58576D01*
X176043Y58043D01*
X177435D01*
X178722Y58576D01*
X178767Y58621D01*
X183820Y53568D01*
X191599Y61346D01*
X180285Y72660D01*
D02*
G37*
G36*
X263056Y61673D02*
X257916Y56533D01*
X261289Y53160D01*
X266429Y58301D01*
X263056Y61673D01*
D02*
G37*
G36*
X577690Y53030D02*
X573170D01*
Y48260D01*
X577690D01*
Y53030D01*
D02*
G37*
G36*
X570630D02*
X566110D01*
Y48260D01*
X570630D01*
Y53030D01*
D02*
G37*
G36*
X94895Y58065D02*
X92905D01*
X91068Y57303D01*
X89661Y55897D01*
X88900Y54059D01*
Y52070D01*
X89661Y50232D01*
X91068Y48826D01*
X92905Y48065D01*
X94895D01*
X96732Y48826D01*
X98139Y50232D01*
X98900Y52070D01*
Y54059D01*
X98139Y55897D01*
X96732Y57303D01*
X94895Y58065D01*
D02*
G37*
G36*
X460388Y52160D02*
X460320D01*
Y43270D01*
X469210D01*
Y43338D01*
X468518Y45922D01*
X467180Y48238D01*
X465288Y50130D01*
X462972Y51468D01*
X460388Y52160D01*
D02*
G37*
G36*
X457780D02*
X457712D01*
X455128Y51468D01*
X452812Y50130D01*
X450920Y48238D01*
X449582Y45922D01*
X448890Y43338D01*
Y43270D01*
X457780D01*
Y52160D01*
D02*
G37*
G36*
X577690Y45720D02*
X573170D01*
Y40950D01*
X577690D01*
Y45720D01*
D02*
G37*
G36*
X570630D02*
X566110D01*
Y40950D01*
X570630D01*
Y45720D01*
D02*
G37*
G36*
X35384Y63060D02*
X34290D01*
Y34290D01*
X63060D01*
Y35384D01*
X62320Y40054D01*
X60859Y44551D01*
X58713Y48764D01*
X55933Y52590D01*
X52590Y55933D01*
X48764Y58713D01*
X44551Y60859D01*
X40054Y62320D01*
X35384Y63060D01*
D02*
G37*
G36*
X31750D02*
X30656D01*
X25986Y62320D01*
X21489Y60859D01*
X17276Y58713D01*
X13450Y55933D01*
X10107Y52590D01*
X7327Y48764D01*
X5181Y44551D01*
X3720Y40054D01*
X2980Y35384D01*
Y34290D01*
X31750D01*
Y63060D01*
D02*
G37*
G36*
X518620Y51620D02*
X499380D01*
Y33352D01*
X499323Y33285D01*
X498380Y32827D01*
X496587Y33863D01*
X494171Y34510D01*
X491669D01*
X489253Y33863D01*
X487087Y32612D01*
X485318Y30843D01*
X484067Y28677D01*
X483420Y26261D01*
Y23759D01*
X484067Y21343D01*
X485318Y19177D01*
X487087Y17408D01*
X489253Y16157D01*
X491669Y15510D01*
X494171D01*
X496587Y16157D01*
X498753Y17408D01*
X500522Y19177D01*
X501772Y21343D01*
X502420Y23759D01*
Y26261D01*
X501772Y28677D01*
X500522Y30843D01*
X499985Y31380D01*
X500399Y32380D01*
X518620D01*
Y51620D01*
D02*
G37*
G36*
X250456Y58647D02*
X239142Y47333D01*
X246920Y39555D01*
X247708Y40342D01*
X259341Y28709D01*
X269241Y38608D01*
X257607Y50242D01*
X258234Y50869D01*
X250456Y58647D01*
D02*
G37*
G36*
X469210Y40730D02*
X459050D01*
X448890D01*
Y40662D01*
X449582Y38078D01*
X450920Y35762D01*
X452812Y33870D01*
X455128Y32532D01*
X457712Y31840D01*
X457880D01*
Y26280D01*
X477960D01*
Y35050D01*
X467770D01*
X467346Y36050D01*
X468518Y38078D01*
X469210Y40662D01*
Y40730D01*
D02*
G37*
G36*
X209022Y43923D02*
X201243Y36145D01*
X204031Y33357D01*
X200083Y29408D01*
X199017Y28967D01*
X198033Y27983D01*
X197500Y26696D01*
Y25304D01*
X198033Y24017D01*
X199017Y23033D01*
X200304Y22500D01*
X201696D01*
X202983Y23033D01*
X203967Y24017D01*
X204408Y25083D01*
X208357Y29031D01*
X212557Y24831D01*
X220335Y32609D01*
X209022Y43923D01*
D02*
G37*
G36*
X297180Y25332D02*
X294887Y24382D01*
X293775Y23271D01*
X292381Y23250D01*
X291707Y23925D01*
X289594Y24800D01*
X287306D01*
X285193Y23925D01*
X284103Y22835D01*
X283450Y22392D01*
X282797Y22835D01*
X281707Y23925D01*
X279594Y24800D01*
X277306D01*
X275193Y23925D01*
X273575Y22307D01*
X272700Y20194D01*
Y17906D01*
X273575Y15793D01*
X275193Y14175D01*
X277306Y13300D01*
X279594D01*
X281707Y14175D01*
X282797Y15265D01*
X283450Y15708D01*
X284103Y15265D01*
X285193Y14175D01*
X287306Y13300D01*
X289594D01*
X291707Y14175D01*
X292381Y14850D01*
X293775Y14829D01*
X294887Y13718D01*
X297180Y12768D01*
Y19050D01*
Y25332D01*
D02*
G37*
G36*
X299720D02*
Y20320D01*
X304732D01*
X303782Y22613D01*
X302013Y24382D01*
X299720Y25332D01*
D02*
G37*
G36*
X477960Y23740D02*
X469190D01*
Y14970D01*
X477960D01*
Y23740D01*
D02*
G37*
G36*
X466650D02*
X457880D01*
Y14970D01*
X466650D01*
Y23740D01*
D02*
G37*
G36*
X371756Y28545D02*
X369924D01*
X368156Y28071D01*
X366570Y27155D01*
X365275Y25861D01*
X364359Y24274D01*
X363885Y22506D01*
Y20674D01*
X364359Y18906D01*
X365275Y17320D01*
X366570Y16025D01*
X368156Y15109D01*
X369924Y14635D01*
X371756D01*
X373525Y15109D01*
X375111Y16025D01*
X376405Y17320D01*
X377321Y18906D01*
X377795Y20674D01*
Y22506D01*
X377321Y24274D01*
X376405Y25861D01*
X375111Y27155D01*
X373525Y28071D01*
X371756Y28545D01*
D02*
G37*
G36*
X236087Y44279D02*
X224774Y32965D01*
X232552Y25187D01*
X233168Y25803D01*
X244539Y14432D01*
X254438Y24332D01*
X243067Y35702D01*
X243866Y36500D01*
X236087Y44279D01*
D02*
G37*
G36*
X623611Y36486D02*
X620583D01*
X617658Y35702D01*
X615036Y34188D01*
X612895Y32047D01*
X611381Y29425D01*
X610597Y26500D01*
Y23472D01*
X611381Y20547D01*
X612895Y17925D01*
X615036Y15784D01*
X617658Y14270D01*
X620583Y13486D01*
X623611D01*
X626536Y14270D01*
X629158Y15784D01*
X631300Y17925D01*
X632813Y20547D01*
X633597Y23472D01*
Y26500D01*
X632813Y29425D01*
X631300Y32047D01*
X629158Y34188D01*
X626536Y35702D01*
X623611Y36486D01*
D02*
G37*
G36*
X608197D02*
X585197D01*
Y13486D01*
X608197D01*
Y36486D01*
D02*
G37*
G36*
X304732Y17780D02*
X299720D01*
Y12768D01*
X302013Y13718D01*
X303782Y15487D01*
X304732Y17780D01*
D02*
G37*
G36*
X169270Y15700D02*
X164250D01*
Y11430D01*
X169270D01*
Y15700D01*
D02*
G37*
G36*
X563650Y52490D02*
X553150D01*
Y43564D01*
X553141Y43520D01*
X553150Y43477D01*
Y41490D01*
X553413D01*
X553812Y38715D01*
Y37247D01*
X553778Y36452D01*
X553681Y35526D01*
X553349Y33493D01*
X553134Y32515D01*
X552185Y29245D01*
X552024Y28794D01*
X551894Y28569D01*
X551110Y25644D01*
Y22616D01*
X551894Y19691D01*
X552513Y18619D01*
X552544Y18498D01*
X552662Y18253D01*
X552686Y18174D01*
X552694Y18106D01*
X552690Y18023D01*
X552663Y17898D01*
X552597Y17720D01*
X552476Y17485D01*
X552287Y17199D01*
X552200Y17091D01*
X551648Y16539D01*
X550654Y15051D01*
X550305Y13295D01*
Y11973D01*
X549643Y11247D01*
X549305Y11247D01*
X547583D01*
X547566Y11252D01*
X547245Y11272D01*
X547019Y11315D01*
X546943Y11337D01*
X546752Y11795D01*
X546934Y12217D01*
X547315Y12630D01*
X548710D01*
Y35630D01*
X525710D01*
Y12630D01*
X535667D01*
X536715Y10338D01*
X536899Y9412D01*
X537783Y8089D01*
X538750Y7123D01*
X539677Y6067D01*
X540112Y5500D01*
X540475Y4972D01*
X540752Y4507D01*
X540946Y4112D01*
X541063Y3799D01*
X541116Y3580D01*
X541142Y3279D01*
X541143Y3275D01*
Y1247D01*
X549643D01*
X549643Y1247D01*
X550643D01*
X550643Y1247D01*
X559143D01*
Y5047D01*
X559481Y6747D01*
Y11332D01*
X559744Y11544D01*
X560219Y11885D01*
X560650Y12154D01*
X561031Y12353D01*
X561358Y12488D01*
X561623Y12566D01*
X561827Y12599D01*
X562132Y12606D01*
X562243Y12630D01*
X564124D01*
X567049Y13414D01*
X569671Y14928D01*
X571812Y17069D01*
X573326Y19691D01*
X574110Y22616D01*
Y25644D01*
X573326Y28569D01*
X571812Y31191D01*
X569671Y33332D01*
X567049Y34846D01*
X566329Y35039D01*
X566286Y35066D01*
X565495Y35365D01*
X564897Y35662D01*
X564403Y35982D01*
X564003Y36321D01*
X563683Y36678D01*
X563427Y37063D01*
X563224Y37490D01*
X563073Y37976D01*
X562988Y38468D01*
Y38715D01*
X563387Y41490D01*
X563650D01*
Y43477D01*
X563659Y43520D01*
X563650Y43564D01*
Y52490D01*
D02*
G37*
G36*
X169270Y8890D02*
X164250D01*
Y4620D01*
X169270D01*
Y8890D01*
D02*
G37*
G36*
X148232Y22448D02*
X146641D01*
X145171Y21839D01*
X144046Y20714D01*
X143437Y19244D01*
Y17652D01*
X144046Y16182D01*
X144242Y15985D01*
X144243Y15983D01*
X144245Y15957D01*
Y11109D01*
X144245Y11109D01*
X144478Y9938D01*
X145141Y8946D01*
X145696Y8391D01*
X145929Y8146D01*
X146230Y7789D01*
Y5160D01*
X156690D01*
Y4620D01*
X161710D01*
Y10160D01*
Y15700D01*
X156690D01*
Y15160D01*
X151220D01*
X150805Y16160D01*
X150828Y16182D01*
X151437Y17652D01*
Y19244D01*
X150828Y20714D01*
X149702Y21839D01*
X148232Y22448D01*
D02*
G37*
G36*
X696790Y31750D02*
X668020D01*
Y2980D01*
X669114D01*
X673784Y3720D01*
X678281Y5181D01*
X682494Y7327D01*
X686320Y10107D01*
X689663Y13450D01*
X692442Y17276D01*
X694589Y21489D01*
X696050Y25986D01*
X696790Y30656D01*
Y31750D01*
D02*
G37*
G36*
X665480D02*
X636710D01*
Y30656D01*
X637450Y25986D01*
X638911Y21489D01*
X641058Y17276D01*
X643837Y13450D01*
X647180Y10107D01*
X651006Y7327D01*
X655219Y5181D01*
X659716Y3720D01*
X664386Y2980D01*
X665480D01*
Y31750D01*
D02*
G37*
G36*
X63060D02*
X34290D01*
Y2980D01*
X35384D01*
X40054Y3720D01*
X44551Y5181D01*
X48764Y7327D01*
X52590Y10107D01*
X55933Y13450D01*
X58713Y17276D01*
X60859Y21489D01*
X62320Y25986D01*
X63060Y30656D01*
Y31750D01*
D02*
G37*
G36*
X31750D02*
X2980D01*
Y30656D01*
X3720Y25986D01*
X5181Y21489D01*
X7327Y17276D01*
X10107Y13450D01*
X13450Y10107D01*
X17276Y7327D01*
X21489Y5181D01*
X25986Y3720D01*
X30656Y2980D01*
X31750D01*
Y31750D01*
D02*
G37*
%LPD*%
G36*
X319655Y333255D02*
X319715Y333091D01*
X319814Y332945D01*
X319954Y332819D01*
X320135Y332712D01*
X320354Y332625D01*
X320615Y332557D01*
X320914Y332509D01*
X321060Y332496D01*
X321509Y332520D01*
Y332473D01*
X321634Y332470D01*
Y330470D01*
X321509Y330467D01*
Y330420D01*
X321491Y330429D01*
X321455Y330438D01*
X321403Y330446D01*
X321248Y330457D01*
X321227Y330458D01*
X320914Y330431D01*
X320615Y330383D01*
X320354Y330315D01*
X320135Y330228D01*
X319954Y330121D01*
X319814Y329995D01*
X319715Y329850D01*
X319655Y329685D01*
X319634Y329501D01*
Y333439D01*
X319655Y333255D01*
D02*
G37*
G36*
X221065Y325210D02*
X221130Y325040D01*
X221235Y324890D01*
X221378Y324760D01*
X221562Y324650D01*
X221785Y324560D01*
X222047Y324490D01*
X222348Y324440D01*
X222689Y324410D01*
X223069Y324400D01*
Y322400D01*
X222689Y322390D01*
X222348Y322360D01*
X222047Y322310D01*
X221785Y322240D01*
X221562Y322150D01*
X221378Y322040D01*
X221235Y321910D01*
X221130Y321760D01*
X221065Y321590D01*
X221039Y321400D01*
Y325400D01*
X221065Y325210D01*
D02*
G37*
G36*
X216931Y321231D02*
X214930Y321989D01*
Y323989D01*
X216931Y324989D01*
Y321231D01*
D02*
G37*
G36*
X243365Y317220D02*
X243430Y317050D01*
X243535Y316900D01*
X243678Y316770D01*
X243862Y316660D01*
X244085Y316570D01*
X244347Y316500D01*
X244648Y316450D01*
X244989Y316420D01*
X245369Y316410D01*
Y314410D01*
X244989Y314400D01*
X244648Y314370D01*
X244347Y314320D01*
X244085Y314250D01*
X243862Y314160D01*
X243678Y314050D01*
X243535Y313920D01*
X243430Y313770D01*
X243365Y313600D01*
X243339Y313410D01*
Y317410D01*
X243365Y317220D01*
D02*
G37*
G36*
X220297Y311815D02*
X217297D01*
X216931Y314431D01*
X221070D01*
X220297Y311815D01*
D02*
G37*
G36*
X282524Y324417D02*
Y315388D01*
X281297Y312878D01*
X281215Y311230D01*
X279845Y310825D01*
X279038Y312561D01*
X278892Y313072D01*
X278130Y314960D01*
X277745Y315771D01*
Y319127D01*
X275101Y321772D01*
Y324800D01*
X282141D01*
X282524Y324417D01*
D02*
G37*
G36*
X306336Y319445D02*
Y312966D01*
X284897Y310605D01*
X283873Y310398D01*
X283311Y311656D01*
X288651Y316996D01*
X298063Y318257D01*
X302875Y321162D01*
X304619D01*
X306336Y319445D01*
D02*
G37*
G36*
X243398Y310483D02*
X243483Y310159D01*
X243624Y309806D01*
X243822Y309424D01*
X244077Y309014D01*
X244388Y308576D01*
X245180Y307615D01*
X245660Y307092D01*
X246198Y306541D01*
X243470Y303612D01*
X239230Y306441D01*
X243370Y310779D01*
X243398Y310483D01*
D02*
G37*
G36*
X263150Y302530D02*
X262770Y302520D01*
X262430Y302490D01*
X262129Y302440D01*
X261870Y302370D01*
X261649Y302280D01*
X261469Y302170D01*
X261329Y302040D01*
X261229Y301890D01*
X261169Y301720D01*
X261150Y301530D01*
Y304020D01*
X263150Y304530D01*
Y302530D01*
D02*
G37*
G36*
X257041Y292990D02*
X257015Y292992D01*
X256845Y292995D01*
X255000Y293000D01*
Y297000D01*
X257041Y297010D01*
Y292990D01*
D02*
G37*
G36*
X285219Y301108D02*
X304941Y300704D01*
X304652Y292214D01*
X300179Y292250D01*
X296157Y294101D01*
X289272Y295186D01*
X283633Y300056D01*
X284195Y301314D01*
X285219Y301108D01*
D02*
G37*
G36*
X281245Y300698D02*
X281051Y294548D01*
X278364Y291421D01*
X278364Y282379D01*
X272797Y276811D01*
X269334Y269335D01*
X255685Y276811D01*
X253823Y277831D01*
X250975Y274025D01*
X248379Y277589D01*
X247650Y276860D01*
X232410Y292100D01*
X234950Y294640D01*
X237490D01*
X247737Y284393D01*
X248473Y285129D01*
X264791D01*
X278054Y297764D01*
X279357Y299213D01*
X279525Y300636D01*
X279598Y304274D01*
X281225D01*
X281245Y300698D01*
D02*
G37*
G36*
X291906Y288098D02*
X291975Y288077D01*
X292085Y288059D01*
X292238Y288043D01*
X292946Y288011D01*
X294030Y288000D01*
Y284000D01*
X293627Y283999D01*
X291906Y283902D01*
X291879Y283880D01*
Y288120D01*
X291906Y288098D01*
D02*
G37*
G36*
X192795Y277591D02*
X193057Y277372D01*
X193306Y277194D01*
X193541Y277058D01*
X193762Y276964D01*
X193969Y276912D01*
X194163Y276902D01*
X194343Y276934D01*
X194510Y277008D01*
X194662Y277125D01*
X191834Y274296D01*
X191950Y274449D01*
X192024Y274615D01*
X192056Y274795D01*
X192046Y274989D01*
X191994Y275196D01*
X191900Y275417D01*
X191765Y275652D01*
X191587Y275901D01*
X191367Y276163D01*
X191105Y276439D01*
X192519Y277853D01*
X192795Y277591D01*
D02*
G37*
G36*
X403940Y334481D02*
X403858Y334460D01*
X403785Y334400D01*
X403721Y334300D01*
X403665Y334160D01*
X403617Y333980D01*
X403579Y333760D01*
X403549Y333501D01*
X403514Y332860D01*
X403510Y332481D01*
X401510D01*
X401500Y332861D01*
X401470Y333202D01*
X401420Y333503D01*
X401350Y333765D01*
X401260Y333988D01*
X401150Y334171D01*
X401020Y334315D01*
X400870Y334420D01*
X400700Y334485D01*
X400510Y334511D01*
X403940Y334481D01*
D02*
G37*
G36*
X403520Y329580D02*
X403550Y329240D01*
X403600Y328940D01*
X403670Y328680D01*
X403760Y328460D01*
X403870Y328279D01*
X404000Y328139D01*
X404150Y328040D01*
X404320Y327980D01*
X404510Y327960D01*
X400510D01*
X400700Y327980D01*
X400870Y328040D01*
X401020Y328139D01*
X401150Y328279D01*
X401260Y328460D01*
X401350Y328680D01*
X401420Y328940D01*
X401470Y329240D01*
X401500Y329580D01*
X401510Y329959D01*
X403510D01*
X403520Y329580D01*
D02*
G37*
G36*
X405050Y327851D02*
X405109Y327755D01*
X405210Y327669D01*
X405350Y327595D01*
X405530Y327532D01*
X405750Y327481D01*
X406009Y327441D01*
X406310Y327413D01*
X407029Y327390D01*
Y325390D01*
X406650Y325384D01*
X406009Y325339D01*
X405750Y325299D01*
X405530Y325248D01*
X405350Y325185D01*
X405210Y325111D01*
X405109Y325025D01*
X405050Y324929D01*
X405029Y324821D01*
Y327960D01*
X405050Y327851D01*
D02*
G37*
G36*
X418923Y323503D02*
X418394Y324217D01*
X417852Y324855D01*
X417298Y325419D01*
X416732Y325908D01*
X416153Y326321D01*
X415562Y326659D01*
X414959Y326922D01*
X414343Y327110D01*
X413715Y327222D01*
X413075Y327260D01*
Y329260D01*
X413698Y329300D01*
X414297Y329418D01*
X414872Y329615D01*
X415424Y329891D01*
X415952Y330247D01*
X416456Y330681D01*
X416937Y331194D01*
X417394Y331785D01*
X417827Y332456D01*
X418237Y333206D01*
X418923Y323503D01*
D02*
G37*
G36*
X204236Y297222D02*
X204162Y297056D01*
X204130Y296876D01*
X204139Y296682D01*
X204191Y296474D01*
X204285Y296253D01*
X204421Y296019D01*
X204599Y295770D01*
X204819Y295508D01*
X205081Y295232D01*
X203666Y293818D01*
X203390Y294079D01*
X203128Y294299D01*
X202880Y294477D01*
X202645Y294613D01*
X202423Y294707D01*
X202216Y294759D01*
X202022Y294769D01*
X201842Y294736D01*
X201676Y294662D01*
X201523Y294546D01*
X204352Y297375D01*
X204236Y297222D01*
D02*
G37*
G36*
X211019Y293510D02*
Y292320D01*
X211000Y292330D01*
X210965Y292338D01*
X210913Y292346D01*
X210758Y292358D01*
X210243Y292369D01*
X210072Y292370D01*
Y292550D01*
X208886Y291348D01*
X209052Y291542D01*
X209158Y291716D01*
X209205Y291869D01*
X209192Y292002D01*
X209120Y292115D01*
X208988Y292207D01*
X208796Y292278D01*
X208545Y292329D01*
X208235Y292360D01*
X207864Y292370D01*
X209864Y294370D01*
X212125Y294631D01*
X211019Y293510D01*
D02*
G37*
G36*
X281646Y248441D02*
X281384Y248165D01*
X281164Y247903D01*
X280986Y247654D01*
X280851Y247420D01*
X280757Y247199D01*
X280705Y246991D01*
X280695Y246797D01*
X280727Y246617D01*
X280801Y246451D01*
X280917Y246298D01*
X278089Y249127D01*
X278242Y249011D01*
X278408Y248937D01*
X278588Y248904D01*
X278782Y248914D01*
X278989Y248966D01*
X279210Y249060D01*
X279445Y249196D01*
X279694Y249374D01*
X279956Y249594D01*
X280232Y249855D01*
X281646Y248441D01*
D02*
G37*
G36*
X296014Y234073D02*
X295753Y233797D01*
X295533Y233535D01*
X295355Y233286D01*
X295219Y233051D01*
X295125Y232830D01*
X295073Y232623D01*
X295063Y232429D01*
X295096Y232249D01*
X295170Y232083D01*
X295286Y231930D01*
X292457Y234758D01*
X292610Y234642D01*
X292776Y234568D01*
X292956Y234536D01*
X293150Y234546D01*
X293357Y234598D01*
X293578Y234692D01*
X293813Y234828D01*
X294062Y235005D01*
X294324Y235225D01*
X294600Y235487D01*
X296014Y234073D01*
D02*
G37*
G36*
X306303Y278317D02*
X306402Y278249D01*
X306517Y278189D01*
X306646Y278137D01*
X306789Y278093D01*
X306946Y278057D01*
X307118Y278029D01*
X307305Y278009D01*
X307721Y277993D01*
Y275993D01*
X307505Y275989D01*
X307118Y275957D01*
X306946Y275929D01*
X306789Y275893D01*
X306646Y275849D01*
X306517Y275797D01*
X306402Y275737D01*
X306303Y275669D01*
X306217Y275593D01*
Y278393D01*
X306303Y278317D01*
D02*
G37*
G36*
X310383Y219704D02*
X310121Y219429D01*
X309901Y219166D01*
X309723Y218918D01*
X309587Y218683D01*
X309494Y218462D01*
X309442Y218254D01*
X309432Y218060D01*
X309464Y217880D01*
X309538Y217714D01*
X309654Y217562D01*
X306826Y220390D01*
X306978Y220274D01*
X307145Y220200D01*
X307325Y220168D01*
X307518Y220178D01*
X307726Y220229D01*
X307947Y220323D01*
X308182Y220459D01*
X308430Y220637D01*
X308693Y220857D01*
X308969Y221119D01*
X310383Y219704D01*
D02*
G37*
G36*
X58781Y231965D02*
X59369Y231807D01*
X60120Y231682D01*
X60971Y231607D01*
X61921Y231582D01*
Y226582D01*
X58781Y227869D01*
Y226870D01*
X33926D01*
X58781Y251725D01*
Y231965D01*
D02*
G37*
G36*
X74531Y217759D02*
X74691Y216159D01*
X74831Y215509D01*
X75011Y214960D01*
X75231Y214510D01*
X75491Y214160D01*
X75791Y213909D01*
X76131Y213759D01*
X76511Y213710D01*
X69071D01*
X69155Y213759D01*
X69230Y213909D01*
X69296Y214160D01*
X69353Y214510D01*
X69401Y214960D01*
X69494Y216910D01*
X69511Y218710D01*
X74511D01*
X74531Y217759D01*
D02*
G37*
G36*
X48741Y213120D02*
X48861Y213041D01*
X49061Y212970D01*
X49341Y212909D01*
X49701Y212857D01*
X50661Y212782D01*
X52701Y212740D01*
Y208740D01*
X51941Y208735D01*
X49341Y208571D01*
X49061Y208510D01*
X48861Y208440D01*
X48741Y208360D01*
X48701Y208270D01*
Y213209D01*
X48741Y213120D01*
D02*
G37*
G36*
X58071Y207771D02*
X54071Y208740D01*
Y212740D01*
X58071Y213710D01*
Y207771D01*
D02*
G37*
G36*
X74412Y202819D02*
X69412D01*
X69071Y207771D01*
X76511D01*
X74412Y202819D01*
D02*
G37*
G36*
X540237Y218600D02*
X540247Y218558D01*
X540271Y218506D01*
X540308Y218444D01*
X540359Y218372D01*
X540502Y218199D01*
X540700Y217986D01*
X540705Y217980D01*
X540953Y217745D01*
X541236Y217505D01*
X541519Y217292D01*
X541802Y217109D01*
X542085Y216953D01*
X542367Y216826D01*
X542650Y216727D01*
X542933Y216656D01*
X543216Y216614D01*
X543499Y216600D01*
X540670Y213771D01*
X540656Y214054D01*
X540614Y214337D01*
X540543Y214620D01*
X540444Y214902D01*
X540317Y215185D01*
X540161Y215468D01*
X539977Y215751D01*
X539765Y216034D01*
X539525Y216317D01*
X539256Y216600D01*
X539270Y216613D01*
X538331Y217759D01*
X540240Y218633D01*
X540237Y218600D01*
D02*
G37*
G36*
X326634Y276914D02*
X326734Y276846D01*
X326848Y276786D01*
X326977Y276734D01*
X327120Y276690D01*
X327278Y276654D01*
X327450Y276626D01*
X327636Y276606D01*
X328052Y276590D01*
Y274590D01*
X327837Y274586D01*
X327450Y274554D01*
X327278Y274526D01*
X327120Y274490D01*
X326977Y274446D01*
X326848Y274394D01*
X326734Y274334D01*
X326634Y274266D01*
X326548Y274190D01*
Y276990D01*
X326634Y276914D01*
D02*
G37*
G36*
X324751Y205336D02*
X324489Y205060D01*
X324269Y204798D01*
X324092Y204549D01*
X323956Y204314D01*
X323862Y204093D01*
X323810Y203886D01*
X323800Y203692D01*
X323832Y203512D01*
X323906Y203346D01*
X324022Y203193D01*
X321194Y206022D01*
X321347Y205906D01*
X321513Y205831D01*
X321693Y205799D01*
X321887Y205809D01*
X322094Y205861D01*
X322315Y205955D01*
X322550Y206091D01*
X322799Y206269D01*
X323061Y206488D01*
X323337Y206750D01*
X324751Y205336D01*
D02*
G37*
G36*
X642151Y201421D02*
X638151Y201390D01*
Y205390D01*
X642151Y207360D01*
Y201421D01*
D02*
G37*
G36*
X661417Y193735D02*
X661398Y193744D01*
X661363Y193753D01*
X661311Y193760D01*
X661155Y193772D01*
X660641Y193784D01*
X660470Y193785D01*
Y195785D01*
X661417Y195835D01*
Y193735D01*
D02*
G37*
G36*
X657585Y196595D02*
X657650Y196425D01*
X657755Y196275D01*
X657899Y196145D01*
X658082Y196035D01*
X658305Y195945D01*
X658567Y195875D01*
X658868Y195825D01*
X659209Y195795D01*
X659590Y195785D01*
Y193785D01*
X659209Y193775D01*
X658868Y193745D01*
X658567Y193695D01*
X658305Y193625D01*
X658082Y193535D01*
X657899Y193425D01*
X657755Y193295D01*
X657650Y193145D01*
X657585Y192975D01*
X657559Y192785D01*
Y196785D01*
X657585Y196595D01*
D02*
G37*
G36*
X642151Y192310D02*
X640151Y193310D01*
Y195310D01*
X642151Y196310D01*
Y192310D01*
D02*
G37*
G36*
X657580Y185747D02*
X657630Y185620D01*
X657710Y185507D01*
X657819Y185410D01*
X657957Y185327D01*
X658125Y185260D01*
X658322Y185207D01*
X658549Y185170D01*
X658804Y185147D01*
X659090Y185140D01*
Y183640D01*
X658804Y183632D01*
X658549Y183610D01*
X658322Y183572D01*
X658125Y183520D01*
X657957Y183452D01*
X657819Y183370D01*
X657710Y183272D01*
X657630Y183160D01*
X657580Y183032D01*
X657559Y182890D01*
Y185890D01*
X657580Y185747D01*
D02*
G37*
G36*
X651228Y181430D02*
X651100Y181380D01*
X650988Y181300D01*
X650890Y181191D01*
X650808Y181053D01*
X650740Y180885D01*
X650688Y180688D01*
X650650Y180462D01*
X650628Y180206D01*
X650620Y179920D01*
X649120D01*
X649113Y180206D01*
X649090Y180462D01*
X649053Y180688D01*
X649000Y180885D01*
X648933Y181053D01*
X648850Y181191D01*
X648753Y181300D01*
X648640Y181380D01*
X648513Y181430D01*
X648370Y181451D01*
X651370D01*
X651228Y181430D01*
D02*
G37*
G36*
X629006Y120190D02*
X629024Y119929D01*
X629050D01*
X629040Y119910D01*
X629032Y119875D01*
X629029Y119857D01*
X629051Y119550D01*
X629091Y119290D01*
X629142Y119069D01*
X629205Y118890D01*
X629279Y118750D01*
X629365Y118650D01*
X629461Y118589D01*
X629570Y118569D01*
X626431D01*
X626539Y118589D01*
X626636Y118650D01*
X626721Y118750D01*
X626795Y118890D01*
X626858Y119069D01*
X626909Y119290D01*
X626949Y119550D01*
X626962Y119694D01*
X626950Y119929D01*
X626980D01*
X627000Y120569D01*
X629000D01*
X629006Y120190D01*
D02*
G37*
G36*
X629590Y112823D02*
X629650Y112692D01*
X629749Y112577D01*
X629889Y112477D01*
X630070Y112392D01*
X630289Y112323D01*
X630550Y112269D01*
X630849Y112231D01*
X631189Y112208D01*
X631570Y112200D01*
Y110200D01*
X631189Y110192D01*
X630550Y110131D01*
X630289Y110077D01*
X630070Y110008D01*
X629889Y109923D01*
X629749Y109823D01*
X629650Y109707D01*
X629590Y109577D01*
X629570Y109431D01*
Y112970D01*
X629590Y112823D01*
D02*
G37*
G36*
X626431Y109431D02*
X624431Y110000D01*
Y112000D01*
X626431Y112970D01*
Y109431D01*
D02*
G37*
G36*
X641047Y109200D02*
X639047Y110200D01*
Y112200D01*
X641047Y113200D01*
Y109200D01*
D02*
G37*
G36*
X657994Y100518D02*
X658044Y100390D01*
X658124Y100278D01*
X658232Y100180D01*
X658371Y100098D01*
X658539Y100030D01*
X658736Y99978D01*
X658962Y99940D01*
X659218Y99917D01*
X659503Y99910D01*
Y98410D01*
X659218Y98403D01*
X658962Y98380D01*
X658736Y98343D01*
X658539Y98290D01*
X658371Y98223D01*
X658232Y98140D01*
X658124Y98042D01*
X658044Y97930D01*
X657994Y97802D01*
X657973Y97660D01*
Y100660D01*
X657994Y100518D01*
D02*
G37*
G36*
X629590Y100423D02*
X629650Y100293D01*
X629749Y100177D01*
X629889Y100077D01*
X630070Y99992D01*
X630289Y99923D01*
X630550Y99869D01*
X630849Y99831D01*
X631189Y99808D01*
X631570Y99800D01*
Y97800D01*
X631189Y97792D01*
X630550Y97731D01*
X630289Y97677D01*
X630070Y97608D01*
X629889Y97523D01*
X629749Y97423D01*
X629650Y97308D01*
X629590Y97177D01*
X629570Y97030D01*
Y100569D01*
X629590Y100423D01*
D02*
G37*
G36*
X641047Y96800D02*
X639047Y97800D01*
Y99800D01*
X641047Y100800D01*
Y96800D01*
D02*
G37*
G36*
X629000Y89431D02*
X627000D01*
X626431Y91431D01*
X629570D01*
X629000Y89431D01*
D02*
G37*
G36*
X607429Y203715D02*
X607489Y203550D01*
X607589Y203405D01*
X607729Y203279D01*
X607909Y203172D01*
X608129Y203085D01*
X608389Y203017D01*
X608689Y202969D01*
X609029Y202940D01*
X609409Y202930D01*
Y200930D01*
X609029Y200920D01*
X608689Y200891D01*
X608389Y200843D01*
X608129Y200775D01*
X607909Y200688D01*
X607729Y200581D01*
X607589Y200455D01*
X607489Y200310D01*
X607429Y200145D01*
X607409Y199960D01*
Y203899D01*
X607429Y203715D01*
D02*
G37*
G36*
X617205Y200890D02*
X615720Y199405D01*
X615714Y199425D01*
X615695Y199456D01*
X615663Y199498D01*
X615562Y199616D01*
X615206Y199988D01*
X615086Y200110D01*
X616500Y201524D01*
X617205Y200890D01*
D02*
G37*
G36*
X541857Y199734D02*
X541232Y199158D01*
X540012Y200867D01*
X540043Y200869D01*
X540083Y200884D01*
X540134Y200912D01*
X540195Y200954D01*
X540266Y201008D01*
X540438Y201156D01*
X540772Y201476D01*
X541857Y199734D01*
D02*
G37*
G36*
X540670Y187260D02*
X538670Y188230D01*
Y190230D01*
X540670Y191199D01*
Y187260D01*
D02*
G37*
G36*
X24487Y208249D02*
X24118Y208103D01*
X23793Y207865D01*
X23511Y207535D01*
X23273Y207111D01*
X23078Y206595D01*
X22926Y205986D01*
X22818Y205284D01*
X22752Y204490D01*
X22731Y203603D01*
X17731D01*
X17709Y204490D01*
X17644Y205284D01*
X17536Y205986D01*
X17384Y206595D01*
X17189Y207111D01*
X16951Y207535D01*
X16669Y207865D01*
X16343Y208103D01*
X15975Y208249D01*
X15563Y208301D01*
X24899D01*
X24487Y208249D01*
D02*
G37*
G36*
X536693Y160695D02*
X536976Y160455D01*
X537259Y160243D01*
X537542Y160059D01*
X537825Y159903D01*
X538107Y159776D01*
X538390Y159677D01*
X538673Y159606D01*
X538956Y159564D01*
X539239Y159550D01*
X536311Y156821D01*
X536296Y157104D01*
X536254Y157387D01*
X536183Y157670D01*
X536084Y157952D01*
X535957Y158235D01*
X535801Y158518D01*
X535617Y158801D01*
X535405Y159084D01*
X535165Y159367D01*
X534896Y159649D01*
X536410Y160964D01*
X536693Y160695D01*
D02*
G37*
G36*
X540290Y155415D02*
X540120Y155350D01*
X539970Y155245D01*
X539840Y155101D01*
X539730Y154918D01*
X539640Y154695D01*
X539570Y154433D01*
X539520Y154132D01*
X539490Y153791D01*
X539480Y153411D01*
X537480D01*
X537470Y153791D01*
X537440Y154132D01*
X537390Y154433D01*
X537320Y154695D01*
X537230Y154918D01*
X537120Y155101D01*
X536990Y155245D01*
X536840Y155350D01*
X536670Y155415D01*
X536480Y155441D01*
X540480D01*
X540290Y155415D01*
D02*
G37*
G36*
X539488Y152050D02*
X539553Y151410D01*
X539610Y151150D01*
X539684Y150930D01*
X539773Y150750D01*
X539879Y150610D01*
X540001Y150510D01*
X540140Y150450D01*
X540295Y150430D01*
X536480D01*
X536670Y150450D01*
X536840Y150510D01*
X536990Y150610D01*
X537120Y150750D01*
X537230Y150930D01*
X537320Y151150D01*
X537390Y151410D01*
X537440Y151710D01*
X537470Y152050D01*
X537480Y152430D01*
X539480D01*
X539488Y152050D01*
D02*
G37*
G36*
X548555Y150246D02*
X548615Y150081D01*
X548715Y149936D01*
X548855Y149810D01*
X549035Y149703D01*
X549255Y149616D01*
X549515Y149548D01*
X549815Y149499D01*
X550155Y149470D01*
X550535Y149461D01*
Y147461D01*
X550155Y147451D01*
X549815Y147422D01*
X549515Y147373D01*
X549255Y147305D01*
X549035Y147218D01*
X548855Y147112D01*
X548715Y146986D01*
X548615Y146840D01*
X548555Y146675D01*
X548535Y146491D01*
Y150430D01*
X548555Y150246D01*
D02*
G37*
G36*
X557651Y146461D02*
X557626Y146651D01*
X557560Y146821D01*
X557456Y146971D01*
X557312Y147101D01*
X557128Y147211D01*
X556906Y147301D01*
X556643Y147371D01*
X556342Y147421D01*
X556001Y147451D01*
X555621Y147461D01*
Y149461D01*
X556001Y149471D01*
X556342Y149501D01*
X556643Y149551D01*
X556906Y149621D01*
X557128Y149711D01*
X557312Y149821D01*
X557456Y149951D01*
X557560Y150101D01*
X557626Y150271D01*
X557651Y150461D01*
Y146461D01*
D02*
G37*
G36*
X391447Y222099D02*
X391356Y222094D01*
X391263Y222077D01*
X391167Y222048D01*
X391069Y222008D01*
X390967Y221956D01*
X390863Y221892D01*
X390756Y221816D01*
X390646Y221729D01*
X390418Y221519D01*
X389382Y222554D01*
X389493Y222670D01*
X389679Y222892D01*
X389755Y222999D01*
X389819Y223104D01*
X389871Y223205D01*
X389911Y223304D01*
X389940Y223400D01*
X389957Y223493D01*
X389962Y223584D01*
X391447Y222099D01*
D02*
G37*
G36*
X356999Y150434D02*
X355963Y149398D01*
X355761Y149590D01*
X355568Y149751D01*
X355386Y149881D01*
X355214Y149981D01*
X355051Y150050D01*
X354899Y150089D01*
X354756Y150097D01*
X354623Y150075D01*
X354501Y150021D01*
X354388Y149937D01*
X355941Y151448D01*
X356999Y150434D01*
D02*
G37*
G36*
X585840Y153041D02*
X583840D01*
X582840Y155041D01*
X586840D01*
X585840Y153041D01*
D02*
G37*
G36*
X580010Y138470D02*
X580040Y138130D01*
X580090Y137830D01*
X580160Y137570D01*
X580250Y137350D01*
X580360Y137170D01*
X580490Y137030D01*
X580640Y136930D01*
X580810Y136870D01*
X581000Y136850D01*
X577000D01*
X577190Y136870D01*
X577360Y136930D01*
X577510Y137030D01*
X577640Y137170D01*
X577750Y137350D01*
X577840Y137570D01*
X577910Y137830D01*
X577960Y138130D01*
X577990Y138470D01*
X578000Y138850D01*
X580000D01*
X580010Y138470D01*
D02*
G37*
G36*
X578109Y130941D02*
X577826Y130921D01*
X577543Y130873D01*
X577260Y130798D01*
X576978Y130695D01*
X576695Y130565D01*
X576412Y130406D01*
X576129Y130220D01*
X575846Y130007D01*
X575563Y129765D01*
X575280Y129496D01*
X573866Y130911D01*
X574135Y131193D01*
X574377Y131476D01*
X574590Y131759D01*
X574776Y132042D01*
X574935Y132325D01*
X575065Y132608D01*
X575168Y132891D01*
X575243Y133173D01*
X575291Y133456D01*
X575311Y133739D01*
X578109Y130941D01*
D02*
G37*
G36*
X593720Y130911D02*
X593532Y130881D01*
X593364Y130791D01*
X593215Y130641D01*
X593087Y130431D01*
X592978Y130161D01*
X592889Y129831D01*
X592820Y129441D01*
X592771Y128991D01*
X592731Y127911D01*
X589731D01*
X589716Y128481D01*
X589671Y128992D01*
X589596Y129443D01*
X589491Y129836D01*
X589356Y130168D01*
X589191Y130442D01*
X588996Y130655D01*
X588771Y130810D01*
X588516Y130905D01*
X588231Y130941D01*
X593720Y130911D01*
D02*
G37*
G36*
X592746Y126360D02*
X592791Y125849D01*
X592866Y125397D01*
X592971Y125005D01*
X593106Y124672D01*
X593271Y124399D01*
X593466Y124185D01*
X593691Y124030D01*
X593946Y123935D01*
X594231Y123899D01*
X588591Y123930D01*
X588807Y123960D01*
X589001Y124050D01*
X589172Y124200D01*
X589321Y124410D01*
X589446Y124680D01*
X589549Y125010D01*
X589628Y125400D01*
X589685Y125850D01*
X589720Y126360D01*
X589731Y126930D01*
X592731D01*
X592746Y126360D01*
D02*
G37*
G36*
X573370Y125549D02*
X573400Y125209D01*
X573450Y124907D01*
X573520Y124645D01*
X573610Y124422D01*
X573720Y124239D01*
X573850Y124095D01*
X574000Y123990D01*
X574170Y123925D01*
X574360Y123899D01*
X570360D01*
X570550Y123925D01*
X570720Y123990D01*
X570870Y124095D01*
X571000Y124239D01*
X571110Y124422D01*
X571200Y124645D01*
X571270Y124907D01*
X571320Y125209D01*
X571350Y125549D01*
X571360Y125930D01*
X573360D01*
X573370Y125549D01*
D02*
G37*
G36*
X594526Y116309D02*
X594595Y115885D01*
X594706Y115461D01*
X594858Y115036D01*
X595053Y114612D01*
X595289Y114188D01*
X595567Y113764D01*
X595886Y113339D01*
X596248Y112915D01*
X596651Y112491D01*
X594530Y110370D01*
X594106Y110773D01*
X593681Y111134D01*
X593257Y111454D01*
X592833Y111732D01*
X592408Y111968D01*
X591984Y112162D01*
X591560Y112315D01*
X591136Y112425D01*
X590712Y112494D01*
X590287Y112521D01*
X594499Y116733D01*
X594526Y116309D01*
D02*
G37*
G36*
X557215Y92880D02*
X557280Y92710D01*
X557385Y92560D01*
X557529Y92430D01*
X557712Y92320D01*
X557935Y92230D01*
X558197Y92160D01*
X558498Y92110D01*
X558839Y92080D01*
X559220Y92070D01*
Y90070D01*
X558839Y90060D01*
X558498Y90030D01*
X558197Y89980D01*
X557935Y89910D01*
X557712Y89820D01*
X557529Y89710D01*
X557385Y89580D01*
X557280Y89430D01*
X557215Y89260D01*
X557189Y89070D01*
Y93070D01*
X557215Y92880D01*
D02*
G37*
G36*
X548311Y88492D02*
X548285Y88682D01*
X548220Y88852D01*
X548116Y89002D01*
X547972Y89132D01*
X547788Y89242D01*
X547565Y89332D01*
X547303Y89402D01*
X547002Y89452D01*
X546661Y89482D01*
X546281Y89492D01*
Y91492D01*
X546661Y91502D01*
X547002Y91532D01*
X547303Y91582D01*
X547565Y91652D01*
X547788Y91742D01*
X547972Y91852D01*
X548116Y91982D01*
X548220Y92132D01*
X548285Y92302D01*
X548311Y92492D01*
Y88492D01*
D02*
G37*
G36*
X537123Y74509D02*
X537153Y74168D01*
X537203Y73867D01*
X537273Y73605D01*
X537363Y73382D01*
X537473Y73199D01*
X537603Y73055D01*
X537753Y72950D01*
X537923Y72885D01*
X538113Y72859D01*
X534113D01*
X534303Y72885D01*
X534473Y72950D01*
X534623Y73055D01*
X534753Y73199D01*
X534863Y73382D01*
X534953Y73605D01*
X535023Y73867D01*
X535073Y74168D01*
X535103Y74509D01*
X535113Y74890D01*
X537113D01*
X537123Y74509D01*
D02*
G37*
G36*
X578860Y73899D02*
X578890Y73559D01*
X578940Y73260D01*
X579010Y73000D01*
X579100Y72779D01*
X579210Y72600D01*
X579340Y72460D01*
X579490Y72359D01*
X579660Y72299D01*
X579850Y72280D01*
X575850D01*
X576040Y72299D01*
X576210Y72359D01*
X576360Y72460D01*
X576490Y72600D01*
X576600Y72779D01*
X576690Y73000D01*
X576760Y73260D01*
X576810Y73559D01*
X576840Y73899D01*
X576850Y74279D01*
X578850D01*
X578860Y73899D01*
D02*
G37*
G36*
X567596Y73319D02*
X567638Y72741D01*
X567664Y72600D01*
X567695Y72485D01*
X567732Y72395D01*
X567774Y72331D01*
X567822Y72292D01*
X567876Y72280D01*
X565310D01*
X565364Y72292D01*
X565412Y72331D01*
X565454Y72395D01*
X565491Y72485D01*
X565522Y72600D01*
X565548Y72741D01*
X565568Y72908D01*
X565590Y73319D01*
X565593Y73562D01*
X567593D01*
X567596Y73319D01*
D02*
G37*
G36*
X557515Y69620D02*
X557495Y69614D01*
X557464Y69595D01*
X557422Y69563D01*
X557304Y69462D01*
X556931Y69106D01*
X556810Y68986D01*
X555396Y70400D01*
X556030Y71105D01*
X557515Y69620D01*
D02*
G37*
G36*
X549785Y67627D02*
X549822Y67615D01*
X549880Y67604D01*
X549959Y67595D01*
X550320Y67576D01*
X550869Y67570D01*
Y65570D01*
X550665Y65569D01*
X549785Y65513D01*
X549768Y65500D01*
Y67640D01*
X549785Y67627D01*
D02*
G37*
G36*
X548369Y65237D02*
X534272D01*
Y67904D01*
X548369D01*
Y65237D01*
D02*
G37*
G36*
X579968Y64886D02*
X580016Y64603D01*
X580091Y64320D01*
X580194Y64037D01*
X580324Y63755D01*
X580483Y63472D01*
X580669Y63189D01*
X580882Y62906D01*
X581124Y62623D01*
X581393Y62340D01*
X579978Y60926D01*
X579696Y61195D01*
X579413Y61437D01*
X579130Y61650D01*
X578847Y61836D01*
X578564Y61995D01*
X578282Y62125D01*
X577999Y62228D01*
X577716Y62303D01*
X577433Y62351D01*
X577150Y62371D01*
X579948Y65169D01*
X579968Y64886D01*
D02*
G37*
G36*
X591491Y58510D02*
X591465Y58700D01*
X591400Y58870D01*
X591296Y59020D01*
X591152Y59150D01*
X590968Y59260D01*
X590746Y59350D01*
X590483Y59420D01*
X590182Y59470D01*
X589841Y59500D01*
X589461Y59510D01*
Y61510D01*
X589841Y61520D01*
X590182Y61550D01*
X590483Y61600D01*
X590746Y61670D01*
X590968Y61760D01*
X591152Y61870D01*
X591296Y62000D01*
X591400Y62150D01*
X591465Y62320D01*
X591491Y62510D01*
Y58510D01*
D02*
G37*
G36*
X637690Y87838D02*
X637726Y87829D01*
X637778Y87822D01*
X637933Y87810D01*
X638448Y87798D01*
X638619Y87797D01*
Y85797D01*
X637672Y85747D01*
Y87847D01*
X637690Y87838D01*
D02*
G37*
G36*
X657999Y88470D02*
X658064Y88300D01*
X658169Y88150D01*
X658313Y88020D01*
X658496Y87910D01*
X658719Y87820D01*
X658981Y87750D01*
X659282Y87700D01*
X659284Y87700D01*
X659476Y87710D01*
Y87683D01*
X659623Y87670D01*
X660004Y87660D01*
Y85660D01*
X659623Y85650D01*
X659476Y85637D01*
Y85610D01*
X659458Y85619D01*
X659423Y85628D01*
X659404Y85631D01*
X659282Y85620D01*
X658981Y85570D01*
X658719Y85500D01*
X658496Y85410D01*
X658313Y85300D01*
X658169Y85170D01*
X658064Y85020D01*
X657999Y84850D01*
X657973Y84660D01*
Y88660D01*
X657999Y88470D01*
D02*
G37*
G36*
X641047Y84797D02*
X639047Y85797D01*
Y87797D01*
X641047Y88797D01*
Y84797D01*
D02*
G37*
G36*
X151779Y88524D02*
X151664Y88610D01*
X151538Y88664D01*
X151402Y88688D01*
X151256Y88680D01*
X151100Y88640D01*
X150934Y88569D01*
X150757Y88467D01*
X150571Y88333D01*
X150374Y88168D01*
X150167Y87972D01*
X149106Y89032D01*
X149303Y89239D01*
X149468Y89436D01*
X149601Y89623D01*
X149704Y89799D01*
X149774Y89966D01*
X149814Y90122D01*
X149822Y90268D01*
X149799Y90404D01*
X149744Y90529D01*
X149658Y90645D01*
X151779Y88524D01*
D02*
G37*
G36*
X147787Y85592D02*
X147655Y85450D01*
X147536Y85304D01*
X147432Y85154D01*
X147341Y84999D01*
X147265Y84840D01*
X147203Y84677D01*
X147156Y84510D01*
X147122Y84339D01*
X147103Y84163D01*
X147097Y83983D01*
X145118Y85963D01*
X145297Y85968D01*
X145473Y85988D01*
X145645Y86021D01*
X145812Y86069D01*
X145975Y86131D01*
X146134Y86207D01*
X146288Y86297D01*
X146439Y86402D01*
X146585Y86520D01*
X146727Y86653D01*
X147787Y85592D01*
D02*
G37*
G36*
X584925Y98020D02*
X584990Y97850D01*
X585095Y97700D01*
X585239Y97570D01*
X585422Y97460D01*
X585645Y97370D01*
X585907Y97300D01*
X586208Y97250D01*
X586549Y97220D01*
X586930Y97210D01*
Y95210D01*
X586549Y95200D01*
X586208Y95170D01*
X585907Y95120D01*
X585645Y95050D01*
X585422Y94960D01*
X585239Y94850D01*
X585095Y94720D01*
X584990Y94570D01*
X584925Y94400D01*
X584899Y94210D01*
Y98210D01*
X584925Y98020D01*
D02*
G37*
G36*
X596940Y79930D02*
X596970Y79590D01*
X597020Y79290D01*
X597090Y79030D01*
X597180Y78810D01*
X597290Y78630D01*
X597420Y78490D01*
X597570Y78390D01*
X597740Y78330D01*
X597930Y78310D01*
X593930D01*
X594120Y78330D01*
X594290Y78390D01*
X594440Y78490D01*
X594570Y78630D01*
X594680Y78810D01*
X594770Y79030D01*
X594840Y79290D01*
X594890Y79590D01*
X594920Y79930D01*
X594930Y80310D01*
X596930D01*
X596940Y79930D01*
D02*
G37*
G36*
X166360Y73943D02*
X166207Y74059D01*
X166041Y74134D01*
X165861Y74166D01*
X165667Y74156D01*
X165459Y74104D01*
X165238Y74010D01*
X165004Y73874D01*
X164755Y73696D01*
X164493Y73477D01*
X164217Y73215D01*
X162802Y74629D01*
X163064Y74905D01*
X163284Y75167D01*
X163462Y75416D01*
X163598Y75651D01*
X163692Y75872D01*
X163744Y76079D01*
X163753Y76273D01*
X163721Y76453D01*
X163647Y76619D01*
X163531Y76772D01*
X166360Y73943D01*
D02*
G37*
G36*
X162180Y71178D02*
X161545Y70473D01*
X160061Y71958D01*
X160080Y71964D01*
X160111Y71983D01*
X160153Y72014D01*
X160272Y72116D01*
X160644Y72471D01*
X160765Y72592D01*
X162180Y71178D01*
D02*
G37*
G36*
X209066Y31237D02*
X208913Y31353D01*
X208747Y31427D01*
X208567Y31460D01*
X208373Y31450D01*
X208166Y31398D01*
X207944Y31304D01*
X207710Y31168D01*
X207461Y30990D01*
X207199Y30770D01*
X206923Y30508D01*
X205509Y31923D01*
X205770Y32199D01*
X205990Y32461D01*
X206168Y32710D01*
X206304Y32944D01*
X206398Y33166D01*
X206450Y33373D01*
X206460Y33567D01*
X206427Y33747D01*
X206353Y33913D01*
X206237Y34066D01*
X209066Y31237D01*
D02*
G37*
G36*
X203134Y26720D02*
X202500Y26015D01*
X201015Y27500D01*
X201035Y27506D01*
X201066Y27525D01*
X201108Y27557D01*
X201226Y27658D01*
X201598Y28014D01*
X201720Y28134D01*
X203134Y26720D01*
D02*
G37*
G36*
X560926Y38698D02*
X560947Y38307D01*
X561087Y37498D01*
X561320Y36748D01*
X561646Y36057D01*
X562066Y35426D01*
X562579Y34854D01*
X563186Y34341D01*
X563885Y33888D01*
X564678Y33494D01*
X565565Y33159D01*
X553710Y27452D01*
X554126Y28617D01*
X555112Y32012D01*
X555352Y33110D01*
X555703Y35255D01*
X555812Y36302D01*
X555900Y38346D01*
X556952Y38521D01*
X555900D01*
X555181Y43520D01*
X561619D01*
X560926Y38698D01*
D02*
G37*
G36*
X562089Y14644D02*
X561640Y14635D01*
X561171Y14558D01*
X560680Y14414D01*
X560169Y14203D01*
X559636Y13925D01*
X559083Y13580D01*
X558509Y13168D01*
X557914Y12688D01*
X556660Y11527D01*
X553125Y15063D01*
X553565Y15534D01*
X553936Y15996D01*
X554236Y16450D01*
X554467Y16895D01*
X554627Y17331D01*
X554718Y17759D01*
X554739Y18178D01*
X554689Y18588D01*
X554570Y18990D01*
X554381Y19383D01*
X562089Y14644D01*
D02*
G37*
G36*
X542934Y11555D02*
X542983Y11508D01*
X544063Y10603D01*
X544583Y10235D01*
X545091Y9924D01*
X545586Y9669D01*
X546068Y9471D01*
X546537Y9330D01*
X546993Y9245D01*
X547436Y9217D01*
X543174Y3454D01*
X543134Y3908D01*
X543017Y4397D01*
X542821Y4921D01*
X542546Y5479D01*
X542193Y6072D01*
X541762Y6700D01*
X541253Y7363D01*
X539998Y8792D01*
X539253Y9559D01*
X541057Y10973D01*
X538667D01*
X536980Y14661D01*
X544355D01*
X542934Y11555D01*
D02*
G37*
G36*
X148738Y16930D02*
X148656Y16848D01*
X148582Y16751D01*
X148517Y16639D01*
X148460Y16513D01*
X148412Y16372D01*
X148373Y16216D01*
X148343Y16046D01*
X148321Y15861D01*
X148303Y15446D01*
X146304Y15600D01*
X146300Y15816D01*
X146271Y16204D01*
X146246Y16377D01*
X146214Y16536D01*
X146174Y16681D01*
X146128Y16811D01*
X146074Y16927D01*
X146013Y17028D01*
X145945Y17116D01*
X148738Y16930D01*
D02*
G37*
G36*
X148291Y8238D02*
X148268Y8349D01*
X148213Y8484D01*
X148126Y8642D01*
X148005Y8824D01*
X147852Y9029D01*
X147448Y9508D01*
X146596Y10402D01*
X148011Y11816D01*
X148058Y11773D01*
X148102Y11746D01*
X148141Y11733D01*
X148175Y11736D01*
X148206Y11753D01*
X148231Y11786D01*
X148253Y11833D01*
X148270Y11896D01*
X148283Y11973D01*
X148291Y12066D01*
Y8238D01*
D02*
G37*
%LPC*%
G36*
X487840Y336990D02*
X482320D01*
Y331470D01*
X487840D01*
Y336990D01*
D02*
G37*
G36*
X495900D02*
X490380D01*
Y330200D01*
Y323410D01*
X495900D01*
Y323865D01*
X496731Y324420D01*
X497867Y323950D01*
X500353D01*
X502650Y324902D01*
X504408Y326660D01*
X505360Y328957D01*
Y331443D01*
X504408Y333740D01*
X502650Y335499D01*
X500353Y336450D01*
X497867D01*
X496731Y335980D01*
X495900Y336535D01*
Y336990D01*
D02*
G37*
G36*
X487840Y328930D02*
X482320D01*
Y323410D01*
X487840D01*
Y328930D01*
D02*
G37*
%LPD*%
G36*
X493337Y327253D02*
X493358Y327112D01*
X493393Y326970D01*
X493443Y326829D01*
X493506Y326688D01*
X493584Y326546D01*
X493676Y326405D01*
X493782Y326263D01*
X493902Y326122D01*
X494037Y325980D01*
X493330Y325273D01*
X493188Y325408D01*
X493047Y325528D01*
X492905Y325634D01*
X492764Y325726D01*
X492622Y325804D01*
X492481Y325867D01*
X492340Y325917D01*
X492198Y325952D01*
X492057Y325973D01*
X491915Y325980D01*
X493330Y327395D01*
X493337Y327253D01*
D02*
G37*
%LPC*%
G36*
X642180Y250215D02*
X639450D01*
Y248063D01*
X639540Y247913D01*
X639670Y247769D01*
X639820Y247664D01*
X639990Y247599D01*
X640180Y247573D01*
X639450D01*
Y243880D01*
X649618D01*
X649526Y244578D01*
X648766Y246413D01*
X647558Y247988D01*
X645983Y249196D01*
X644148Y249956D01*
X642180Y250215D01*
D02*
G37*
%LPD*%
D10*
X536889Y299720D02*
X563871D01*
X566258Y297333D01*
X521705Y297605D02*
X534774D01*
X536889Y299720D01*
X489110Y330200D02*
X521705Y297605D01*
X572965Y267622D02*
X574600Y265988D01*
X596900Y242570D02*
X601912D01*
X607114Y237368D01*
X612852D01*
X618368Y231853D01*
X650509D01*
X673753Y269158D02*
X674660Y270064D01*
X670041Y269158D02*
X673753D01*
X669467Y268584D02*
X670041Y269158D01*
X663803Y268696D02*
X669355D01*
X669467Y268584D01*
X657860Y262753D02*
X663803Y268696D01*
X657860Y239204D02*
Y262753D01*
X650509Y231853D02*
X657860Y239204D01*
X581493Y251460D02*
X584022Y253989D01*
X596692D01*
X589180Y251430D02*
X602434D01*
X580320Y242570D02*
X589180Y251430D01*
X592966Y247890D02*
X603900D01*
X581296Y236220D02*
X592966Y247890D01*
X596692Y253989D02*
X603100Y260396D01*
Y263988D01*
X602434Y251430D02*
X603734Y252730D01*
X603900Y247890D02*
X603920Y247910D01*
X609600D01*
X609600D01*
D11*
X474158Y325162D02*
G03*
X474738Y323764I2000J10D01*
G01*
X271584Y315180D02*
X271775Y314989D01*
X273110D02*
X273785Y314314D01*
X271775Y314989D02*
X273110D01*
X219000Y323400D02*
X256600D01*
X272315Y307685D01*
X612140Y117724D02*
Y157689D01*
Y117724D02*
X618864Y111000D01*
X628000D01*
X401320Y61959D02*
Y62230D01*
X474158Y325162D02*
Y338642D01*
X213678Y322989D02*
X218589D01*
X219000Y323400D01*
X210211Y319521D02*
X213678Y322989D01*
X194299Y319521D02*
X210211D01*
X179822Y305044D02*
X194299Y319521D01*
X179822Y289136D02*
Y305044D01*
Y289136D02*
X193249Y275709D01*
X193867D01*
X464845Y227435D02*
X464950Y227540D01*
X15250Y121010D02*
X21000Y115260D01*
X15250Y121010D02*
Y129010D01*
X15240Y129020D02*
X15250Y129010D01*
Y166010D02*
X21000Y171760D01*
X15250Y158530D02*
Y166010D01*
X15240Y158520D02*
X15250Y158530D01*
X644600Y257250D02*
Y265988D01*
X638180Y250830D02*
X644600Y257250D01*
X638180Y242610D02*
Y250830D01*
X634180Y242610D02*
X638180D01*
X628370Y236800D02*
X634180Y242610D01*
X617896Y236800D02*
X628370D01*
X615260Y239436D02*
X617896Y236800D01*
X615260Y239436D02*
Y240720D01*
X613670Y242310D02*
X615260Y240720D01*
X609600Y242310D02*
X613670D01*
X636649Y244141D02*
X638180Y242610D01*
X627421Y244141D02*
X636649D01*
X624044Y247518D02*
X627421Y244141D01*
X623844Y247518D02*
X624044D01*
X642600Y298987D02*
X644600Y296987D01*
X635600Y298987D02*
X642600D01*
X644600Y296987D02*
X647299Y294288D01*
X640100Y292487D02*
X644600Y296987D01*
X632350Y292487D02*
X640100D01*
X625850D02*
X632350D01*
X603100Y298987D02*
X609600D01*
X379242Y243085D02*
X483116D01*
X497477Y257447D02*
X501650Y261620D01*
X483116Y243085D02*
X497477Y257447D01*
X366378Y230221D02*
X379242Y243085D01*
X495428Y119508D02*
Y195708D01*
X479933Y104013D02*
X495428Y119508D01*
Y195708D02*
X542290Y242570D01*
X391539Y91749D02*
X401840Y102050D01*
X411480D01*
X242148Y342769D02*
X385949D01*
X239222Y339843D02*
X242148Y342769D01*
X279193Y247402D02*
X299904Y268114D01*
Y268904D02*
X300000Y269000D01*
X299904Y268114D02*
Y268904D01*
X628000Y116800D02*
Y121000D01*
X649065Y111200D02*
X649525Y111660D01*
X628000Y111200D02*
X649065D01*
X628000Y89000D02*
Y93200D01*
X649165Y98800D02*
X649525Y99160D01*
X628000Y98800D02*
X649165D01*
X649525Y86660D02*
X660547D01*
X649388Y86797D02*
X649525Y86660D01*
X636601Y86797D02*
X649388D01*
X207965Y32965D02*
X209373D01*
X201000Y26000D02*
X207965Y32965D01*
X187000Y39324D02*
X195007Y47331D01*
X187000Y28000D02*
Y39324D01*
Y28000D02*
X200000Y15000D01*
X209000D01*
X218920Y5080D01*
X635000Y180549D02*
Y189230D01*
X612140Y157689D02*
X635000Y180549D01*
X431800Y114427D02*
X431816Y114443D01*
Y121640D01*
X452120Y314880D02*
Y328930D01*
X461010Y305990D02*
X469900D01*
X461010D02*
Y306940D01*
X459460Y307540D02*
X460410D01*
X469900Y305990D02*
X475060D01*
X452120Y314880D02*
X459460Y307540D01*
X460410D02*
X461010Y306940D01*
X487060Y302553D02*
X492899D01*
X478518D02*
X487060D01*
X492899D02*
X501990Y293462D01*
X506638D02*
X518612Y281488D01*
X501990Y293462D02*
X506638D01*
X475060Y305990D02*
X478361Y302689D01*
X518612Y281488D02*
X572600D01*
X401770Y336550D02*
X402510Y335810D01*
Y326390D02*
Y335810D01*
Y326390D02*
X411205D01*
X413075Y328260D01*
X426050D01*
X426720Y328930D01*
X649790Y194310D02*
X649870Y194390D01*
X640080Y194310D02*
X649790D01*
X635000Y189230D02*
X640080Y194310D01*
X577019Y65300D02*
X581809Y60510D01*
X595850D01*
X577850Y71677D02*
Y76200D01*
X562980Y91070D02*
X577850Y76200D01*
X552750Y91070D02*
X562980D01*
X566593Y67610D02*
Y73562D01*
X566293Y67310D02*
X566593Y67610D01*
X567690Y74659D02*
Y74930D01*
X566593Y73562D02*
X567690Y74659D01*
X529590Y173990D02*
X534550Y169030D01*
Y161410D02*
Y169030D01*
X537280Y158580D02*
Y158680D01*
X538380Y157480D02*
X538480D01*
X534550Y161410D02*
X537280Y158680D01*
Y158580D02*
X538380Y157480D01*
X537200Y148461D02*
X537480D01*
X538480Y149461D01*
Y157480D01*
X545440Y148461D02*
X563840D01*
X563840Y148460D01*
X542954Y90492D02*
X552172D01*
X536113Y66570D02*
Y83651D01*
X542954Y90492D01*
X552172D02*
X552750Y91070D01*
X552980Y66570D02*
X557530Y71120D01*
X550869Y66570D02*
X552980D01*
X546527D02*
X550869D01*
X595930Y75090D02*
Y89870D01*
X589590Y96210D02*
X595930Y89870D01*
X581960Y96210D02*
X589590D01*
X579000Y133880D02*
Y143390D01*
X584840Y149230D01*
Y158010D01*
X578250Y133880D02*
X579000D01*
X572360Y127990D02*
X578250Y133880D01*
X572360Y118210D02*
Y127990D01*
X382905Y27940D02*
Y29746D01*
X379222Y33430D02*
X382905Y29746D01*
X379222Y33430D02*
Y52070D01*
X165656Y76068D02*
X166270D01*
X160046Y70458D02*
X165656Y76068D01*
X218920Y5080D02*
X392430Y5080D01*
X366378Y219640D02*
Y230221D01*
X336666Y189929D02*
X366378Y219640D01*
X346710Y228709D02*
Y259080D01*
X322298Y204297D02*
X346710Y228709D01*
X307929Y218665D02*
X332740Y243476D01*
Y255270D01*
X314960Y254433D02*
Y260350D01*
X293561Y233034D02*
X314960Y254433D01*
X201425Y297473D02*
X205528Y293370D01*
X212090D01*
X325120Y275590D02*
X330200D01*
X346710Y259080D01*
X559402Y261620D02*
X561340Y259682D01*
X501650Y261620D02*
X559402D01*
X392430Y5080D02*
X396240Y8890D01*
Y15240D01*
X311017Y276993D02*
X332740Y255270D01*
X304789Y276993D02*
X311017D01*
X436150Y23400D02*
Y42030D01*
X432926Y20176D02*
X436150Y23400D01*
X413876Y20176D02*
X432926D01*
X436150Y42030D02*
X438150Y44030D01*
X408940Y15240D02*
X413876Y20176D01*
X316540Y331470D02*
X322580D01*
X253197Y315410D02*
X256597Y312010D01*
X241300Y315410D02*
X253197D01*
X256597Y312010D02*
X262030D01*
X269855Y304185D01*
X259080Y303530D02*
X265434D01*
X268279Y300685D01*
X259080Y302570D02*
Y303530D01*
X431800Y104013D02*
X479933D01*
X413343D02*
X431800D01*
X411480Y102150D02*
X413343Y104013D01*
X542290Y242570D02*
X580320D01*
X395799Y84747D02*
Y85461D01*
X391610Y87749D02*
X393898Y85461D01*
X391539Y87749D02*
X391610D01*
X524830Y247970D02*
X578004D01*
X511810Y234950D02*
X524830Y247970D01*
X462471Y281749D02*
X479282D01*
X462280Y281940D02*
X462471Y281749D01*
X486283Y273050D02*
Y274748D01*
X479282Y281749D02*
X486283Y274748D01*
X502015Y273050D02*
X506939Y277974D01*
X496697Y273050D02*
X502015D01*
X506914Y277974D02*
X507197Y278257D01*
X382905Y27940D02*
X383540D01*
X481753Y316749D02*
X495781D01*
X228760Y334267D02*
X229006Y334514D01*
X542640Y201930D02*
X545640D01*
X539750Y199390D02*
X540100D01*
X542640Y201930D01*
X538840Y219170D02*
X539223Y218787D01*
Y218047D02*
Y218787D01*
Y218047D02*
X542640Y214630D01*
X545640D01*
X602440Y201930D02*
X614680D01*
X617220Y199390D01*
X683565Y291803D02*
X683632D01*
X687292Y295464D01*
X687359D01*
X385949Y342769D02*
X388893Y345713D01*
X515720Y269950D02*
X541923D01*
X509460Y276210D02*
X515720Y269950D01*
X546961Y274987D02*
X572600D01*
X541923Y269950D02*
X546961Y274987D01*
X474738Y323764D02*
X481753Y316749D01*
X495781D02*
X519160Y293370D01*
X561204D01*
X147303Y11109D02*
X148475Y9937D01*
X153257D01*
X147303Y11109D02*
Y18315D01*
X153257Y9937D02*
X153480Y10160D01*
X650265Y194785D02*
X662488D01*
X649870Y194390D02*
X650265Y194785D01*
X388893Y345713D02*
X467087D01*
X507197Y278257D02*
X509244Y276210D01*
X467087Y345713D02*
X474158Y338642D01*
X561204Y293370D02*
X566587Y287987D01*
X572600D01*
X239222Y334729D02*
Y339843D01*
X673536Y281641D02*
X674660Y282764D01*
X670480Y281641D02*
X673536D01*
X663827Y274987D02*
X670480Y281641D01*
X659534Y281488D02*
X673511Y295464D01*
X674660D01*
X646600Y281488D02*
X659534D01*
X646600Y274987D02*
X663827D01*
X578004Y247970D02*
X581493Y251460D01*
X618244Y247518D02*
Y252217D01*
X609600Y247910D02*
Y263988D01*
X618244Y243357D02*
X619760Y241841D01*
X618244Y243357D02*
Y247518D01*
X619760Y241300D02*
Y241841D01*
X478361Y302689D02*
X478365Y302685D01*
X622600Y263988D02*
X623570Y263018D01*
X616100Y254361D02*
X618244Y252217D01*
X616100Y254361D02*
Y263988D01*
X564164Y236220D02*
X581296D01*
X603734Y252730D02*
X604520D01*
X509244Y276210D02*
X509460D01*
X598170Y217170D02*
X598440Y216900D01*
Y215630D02*
Y216900D01*
Y215630D02*
X599440Y214630D01*
X602440D01*
X538479Y189230D02*
X545640D01*
X609600Y263987D02*
X609600Y263988D01*
D13*
X555751Y266276D02*
X574311D01*
X552763Y267622D02*
X555751D01*
X552763D02*
X554116D01*
X555751Y265988D01*
D15*
X609600Y298987D02*
D03*
X616100D02*
D03*
X593350Y292487D02*
D03*
X586850Y270487D02*
D03*
X612850Y292487D02*
D03*
X583600Y298987D02*
D03*
X590100D02*
D03*
X593350Y278237D02*
D03*
X599850Y270487D02*
D03*
X612610Y270601D02*
D03*
X619350Y292487D02*
D03*
X593350Y270487D02*
D03*
X606350Y284737D02*
D03*
X619350Y270736D02*
D03*
X586809Y292395D02*
D03*
X596600Y298987D02*
D03*
X599850Y292487D02*
D03*
X625850Y278237D02*
D03*
X612850D02*
D03*
X599850D02*
D03*
X586850D02*
D03*
X632350D02*
D03*
X619350D02*
D03*
X612850Y284737D02*
D03*
X606350Y278237D02*
D03*
X599850Y284737D02*
D03*
X625850Y270487D02*
D03*
X579100Y278237D02*
D03*
Y284737D02*
D03*
D17*
X283950Y307649D02*
X289500D01*
X289564Y307713D01*
X293713D02*
X294000Y308000D01*
X289564Y307713D02*
X293713D01*
X283950Y304221D02*
X289754D01*
X289943Y304410D01*
X283914Y307685D02*
X283950Y307649D01*
X283914Y304185D02*
X283950Y304221D01*
X272315Y307685D02*
X276914D01*
X308261Y331431D02*
X308300Y331470D01*
X292294Y326733D02*
X292590Y327029D01*
X375920Y222250D02*
X386080Y232410D01*
X495750D01*
X496570Y231590D01*
X655320Y139680D02*
Y168910D01*
X668020Y102020D02*
Y126980D01*
X655320Y139680D02*
X668020Y126980D01*
X649525Y99160D02*
X665160D01*
X668020Y102020D01*
X608456Y226164D02*
X614910Y219710D01*
X627380D01*
X602440Y227330D02*
X603606Y226164D01*
X608456D01*
X604675Y233173D02*
X610066D01*
X615909Y227330D01*
X601706Y236142D02*
X604675Y233173D01*
X363295Y186690D02*
X375920Y199315D01*
X358140Y186690D02*
X363295D01*
X375920Y199315D02*
Y222250D01*
X151571Y90436D02*
X151902D01*
X145098Y83963D02*
X151571Y90436D01*
X145098Y83963D02*
X145098D01*
X269855Y304185D02*
X276914D01*
X273785Y314314D02*
X276914Y311185D01*
X268279Y300685D02*
X276914D01*
X496570Y231590D02*
Y240811D01*
X540144Y252730D02*
X574038D01*
X540014Y252860D02*
X540144Y252730D01*
X508619Y252860D02*
X540014D01*
X496570Y240811D02*
X508619Y252860D01*
X595240Y236142D02*
X601706D01*
X627380Y219710D02*
X629632Y221962D01*
X627380Y227330D02*
X629632Y225078D01*
X615909Y227330D02*
X627380D01*
X629632Y221962D02*
Y225078D01*
X684530Y278130D02*
Y278806D01*
X687359Y281636D01*
X649870Y174360D02*
Y184390D01*
Y174360D02*
X655320Y168910D01*
X673693Y185420D02*
X674370D01*
X672663Y184390D02*
X673693Y185420D01*
X649870Y184390D02*
X672663D01*
X687359Y281636D02*
Y282764D01*
X596417Y263804D02*
X596600Y263988D01*
D18*
X574038Y252730D02*
X578258Y256950D01*
X593463D01*
X590100Y260540D02*
Y263988D01*
X589242Y259682D02*
X590100Y260540D01*
X561340Y259682D02*
X589242D01*
X593463Y256950D02*
X596417Y259904D01*
Y263804D01*
D21*
X21000Y115260D02*
D03*
Y171760D02*
D03*
D25*
X354420Y307340D02*
D03*
X340920D02*
D03*
X292294Y326733D02*
D03*
X278794D02*
D03*
X275190Y285750D02*
D03*
X288690D02*
D03*
X571900Y46990D02*
D03*
X558400D02*
D03*
D26*
X537200Y148461D02*
D03*
X545440D02*
D03*
X308300Y331470D02*
D03*
X316540D02*
D03*
D27*
X272000Y274000D02*
D03*
X288000D02*
D03*
D30*
X219000Y323400D02*
D03*
Y316600D02*
D03*
X259080Y301850D02*
D03*
Y295050D02*
D03*
X469900Y299190D02*
D03*
Y305990D02*
D03*
X496570Y224790D02*
D03*
Y231590D02*
D03*
X241300Y308610D02*
D03*
Y315410D02*
D03*
X411480Y102050D02*
D03*
Y95250D02*
D03*
D33*
X431800Y114427D02*
D03*
Y104013D02*
D03*
D35*
X538480Y157480D02*
D03*
X545280D02*
D03*
X401770Y336550D02*
D03*
X394970D02*
D03*
D36*
X623844Y247518D02*
D03*
X618244D02*
D03*
D38*
X628000Y111200D02*
D03*
Y116800D02*
D03*
Y93200D02*
D03*
Y98800D02*
D03*
X609600Y242310D02*
D03*
Y247910D02*
D03*
D39*
X372290Y82759D02*
D03*
Y73559D02*
D03*
X78919Y132706D02*
D03*
Y141906D02*
D03*
X45550Y132706D02*
D03*
Y141906D02*
D03*
D40*
X162980Y10160D02*
D03*
X151980D02*
D03*
X579000Y133880D02*
D03*
X590000D02*
D03*
X72791Y210740D02*
D03*
X61791D02*
D03*
D43*
X438150Y55030D02*
D03*
Y44030D02*
D03*
D53*
X387539Y87749D02*
D03*
X391539D02*
D03*
X387539Y91749D02*
D03*
X391539D02*
D03*
D54*
X545393Y6247D02*
D03*
X554893D02*
D03*
D59*
X401800Y74930D02*
D03*
X411000D02*
D03*
D62*
X361000Y71000D02*
D03*
Y82979D02*
D03*
D65*
X486283Y273050D02*
D03*
X496697D02*
D03*
X536113Y66570D02*
D03*
X546527D02*
D03*
D66*
X566293Y67310D02*
D03*
X576707D02*
D03*
X379222Y52070D02*
D03*
X389636D02*
D03*
X400050D02*
D03*
X322326Y54610D02*
D03*
X332740D02*
D03*
X343154D02*
D03*
D67*
X315270Y316970D02*
D03*
Y296470D02*
D03*
D71*
X614760Y185420D02*
D03*
X624760D02*
D03*
D79*
X283914Y311185D02*
D03*
X280414D02*
D03*
X276914D02*
D03*
X283914Y307685D02*
D03*
X280414D02*
D03*
X276914D02*
D03*
X283914Y304185D02*
D03*
X280414D02*
D03*
X276914D02*
D03*
X283914Y300685D02*
D03*
X280414D02*
D03*
X276914D02*
D03*
X280414Y307685D02*
D03*
D160*
X666750Y323850D02*
D03*
D163*
X619761Y185419D02*
D03*
D164*
X284000Y277000D02*
X289000D01*
X267095Y323320D02*
X275101D01*
Y323286D02*
X277048Y325233D01*
X277544D01*
X278794Y326483D02*
Y326733D01*
X277544Y325233D02*
X278794Y326483D01*
X401320Y55000D02*
Y61959D01*
Y62230D02*
Y66040D01*
X290000Y286000D02*
X294030D01*
X241300Y308510D02*
X241400Y308410D01*
X241300Y308510D02*
Y308610D01*
X241500Y308410D02*
X254910Y295000D01*
X241400Y308410D02*
X241500D01*
X259030Y290970D02*
Y295000D01*
X259080Y295050D02*
X263110D01*
X259030Y295000D02*
X259080Y295050D01*
X255000Y295000D02*
X259030D01*
X476040Y227540D02*
X476250Y227330D01*
X348036Y50532D02*
X355600D01*
X343154Y52912D02*
Y54610D01*
Y52912D02*
X344456Y51610D01*
X346958D01*
X348036Y50532D01*
X614260Y185920D02*
X614760Y185420D01*
X614260Y185920D02*
Y186887D01*
X611917Y189230D02*
X614260Y186887D01*
X602440Y189230D02*
X611917D01*
X625260Y193460D02*
X635190Y203390D01*
X625260Y185920D02*
Y193460D01*
X624760Y185420D02*
X625260Y185920D01*
X648870Y203390D02*
X649870Y204390D01*
X635190Y203390D02*
X648870D01*
X401320Y75410D02*
Y79940D01*
Y75410D02*
X401800Y74930D01*
X401320Y66040D02*
Y69794D01*
Y74450D01*
X395799Y85461D02*
X401320Y79940D01*
Y74450D02*
X401800Y74930D01*
X393898Y85461D02*
X395799D01*
X382340Y82550D02*
X385909Y86119D01*
X545393Y6247D02*
Y6997D01*
X544393Y7247D02*
X545143D01*
X545393Y6997D01*
X540667Y10973D02*
Y20673D01*
Y10973D02*
X544393Y7247D01*
X537210Y24130D02*
X540667Y20673D01*
X43231Y210740D02*
X61791D01*
D166*
X51952Y233600D02*
X56470Y229082D01*
X66828D01*
X72011Y223899D01*
Y211240D02*
Y223899D01*
X558400Y32128D02*
X562610Y27918D01*
Y24130D02*
Y27918D01*
X558400Y32128D02*
Y46740D01*
X554893Y6747D02*
Y13295D01*
X562610Y21012D01*
X20231Y203603D02*
X26712Y197121D01*
X33799D01*
X33990Y196930D01*
X72066Y211186D02*
X72858D01*
X72011Y211240D02*
X72066Y211186D01*
X20231Y203603D02*
Y210740D01*
X71912Y202819D02*
Y210240D01*
X68674Y199581D02*
X71912Y202819D01*
X67501Y199581D02*
X68674D01*
X67310Y199390D02*
X67501Y199581D01*
X71912Y210240D02*
X72412Y210740D01*
X72791D01*
D169*
X328696Y334500D02*
X339170Y324026D01*
Y309090D02*
Y324026D01*
X292000Y327620D02*
X292590Y327029D01*
X292000Y327620D02*
Y333000D01*
X307722Y331970D02*
X308261Y331431D01*
X301771Y331970D02*
X307722D01*
X301010Y332730D02*
X301771Y331970D01*
X339170Y309090D02*
X340920Y307340D01*
X218797Y311815D02*
Y316397D01*
X219000Y316600D01*
X566258Y297333D02*
X574255D01*
X574600Y296987D01*
X591231Y119730D02*
Y132649D01*
Y119730D02*
X591560Y119400D01*
X590000Y133880D02*
X591231Y132649D01*
X596804Y109316D02*
Y110216D01*
X591560Y115460D02*
X596804Y110216D01*
Y109316D02*
X596900Y109220D01*
X591560Y115460D02*
Y118210D01*
X382340Y82550D02*
X389636Y75254D01*
Y52070D02*
Y75254D01*
X655290Y292821D02*
Y295460D01*
X646600Y287987D02*
X646853Y288241D01*
X655290Y295460D02*
X655864Y296034D01*
X650710Y288241D02*
X655290Y292821D01*
X646853Y288241D02*
X650710D01*
D170*
X319500Y68692D02*
X328368Y77560D01*
X306000Y82000D02*
Y82242D01*
X305692Y82550D02*
X306000Y82242D01*
X278132Y72868D02*
Y72888D01*
X275657Y76070D02*
X277425Y77838D01*
X278132Y72868D02*
X317000Y34000D01*
X275657Y75363D02*
Y76070D01*
Y75363D02*
X278132Y72888D01*
X317000Y34000D02*
X327000D01*
X332740Y39740D02*
Y54610D01*
X327000Y34000D02*
X332740Y39740D01*
X305692Y82550D02*
X328368D01*
Y77560D02*
Y82550D01*
X319500Y57436D02*
Y68692D01*
Y57436D02*
X322326Y54610D01*
X328368Y84368D02*
X330186Y82550D01*
X308283Y104453D02*
X328368Y84368D01*
X330186Y82550D02*
X360570D01*
X372849Y82200D02*
X381990D01*
X369215D02*
X371631D01*
X372190Y82759D01*
X372290D01*
X368935Y82479D02*
X369215Y82200D01*
X361500Y82479D02*
X368935D01*
X361000Y82979D02*
X361500Y82479D01*
X372290Y82759D02*
X372849Y82200D01*
X381990D02*
X382340Y82550D01*
X360570D02*
X361000Y82979D01*
X649870Y204390D02*
X665793D01*
X298157Y90085D02*
X305692Y82550D01*
X293915Y90085D02*
X298157D01*
D175*
X478365Y302685D02*
G03*
X478518Y302553I1032J1040D01*
G01*
X369516Y147673D02*
X386080Y164237D01*
X358952Y147673D02*
X369516D01*
X358838Y147559D02*
X358952Y147673D01*
X355252Y151145D02*
X358838Y147559D01*
X350731Y151145D02*
X355252D01*
X386080Y218217D02*
X391462Y223598D01*
X386080Y164237D02*
Y218217D01*
X396240Y27085D02*
Y27940D01*
X393700Y24130D02*
Y24545D01*
X396240Y27085D01*
D178*
X509000Y42000D02*
D03*
D179*
X459050D02*
D03*
D180*
X421640Y31750D02*
D03*
Y11430D02*
D03*
X370840Y21590D02*
D03*
X681010Y308164D02*
D03*
X670850Y257364D02*
D03*
X691170D02*
D03*
D181*
X278450Y19050D02*
D03*
X288450D02*
D03*
X298450D02*
D03*
X229006Y334514D02*
D03*
X239006D02*
D03*
X249006D02*
D03*
D182*
X438330Y221160D02*
D03*
X397330Y180160D02*
D03*
D183*
X426720Y328930D02*
D03*
X622097Y24986D02*
D03*
X562610Y24130D02*
D03*
D184*
X452120Y328930D02*
D03*
X596697Y24986D02*
D03*
X537210Y24130D02*
D03*
D185*
X467920Y25010D02*
D03*
D186*
X492920D02*
D03*
D187*
X638180Y156210D02*
D03*
Y242610D02*
D03*
D188*
X678180Y156210D02*
D03*
Y242610D02*
D03*
D189*
X489110Y330200D02*
D03*
D190*
X499110D02*
D03*
D191*
X33020Y33020D02*
D03*
Y317500D02*
D03*
X666750Y33020D02*
D03*
D192*
X294000Y308000D02*
D03*
X289943Y304410D02*
D03*
X292000Y333000D02*
D03*
X301010Y332730D02*
D03*
X328696Y334500D02*
D03*
X284000Y277000D02*
D03*
X271584Y315180D02*
D03*
X271098Y323286D02*
D03*
X267095D02*
D03*
X275101D02*
D03*
X401320Y62230D02*
D03*
X294030Y286000D02*
D03*
X259030Y290970D02*
D03*
X263110Y295050D02*
D03*
X255000Y295000D02*
D03*
X306000Y82000D02*
D03*
X218797Y311815D02*
D03*
X49365Y152881D02*
D03*
X268750Y250976D02*
D03*
X90276Y157937D02*
D03*
X38228Y160715D02*
D03*
X31501Y158404D02*
D03*
X31442Y152964D02*
D03*
X38374Y152876D02*
D03*
X30974Y128981D02*
D03*
X36590Y128805D02*
D03*
X45511Y126465D02*
D03*
X53466Y128717D02*
D03*
X70869Y129390D02*
D03*
X78678Y126056D02*
D03*
X86809Y129595D02*
D03*
X101454Y140924D02*
D03*
X54925Y152829D02*
D03*
X44094Y151645D02*
D03*
X34828Y134951D02*
D03*
X56574Y134191D02*
D03*
X87288Y154302D02*
D03*
X72231Y152829D02*
D03*
X64142Y153022D02*
D03*
X67434Y134191D02*
D03*
X89302Y135025D02*
D03*
X94710Y135912D02*
D03*
X106368Y147335D02*
D03*
X103731Y152139D02*
D03*
X99856Y156014D02*
D03*
X95794Y159692D02*
D03*
X108969Y119059D02*
D03*
X123466Y105295D02*
D03*
X153780Y235999D02*
D03*
X140329Y220887D02*
D03*
X125930Y206645D02*
D03*
X111609Y192562D02*
D03*
X96949Y178575D02*
D03*
X284001Y264581D02*
D03*
X81835Y152206D02*
D03*
X90731Y29015D02*
D03*
X567747Y57913D02*
D03*
X579716Y84370D02*
D03*
X584361Y82323D02*
D03*
X587432Y76890D02*
D03*
X462280Y267970D02*
D03*
X476250Y227330D02*
D03*
X348036Y50532D02*
D03*
X628000Y121000D02*
D03*
Y89000D02*
D03*
X660547Y86660D02*
D03*
X636601Y86797D02*
D03*
X201000Y26000D02*
D03*
X431816Y121640D02*
D03*
X557530Y71120D02*
D03*
X567690Y74930D02*
D03*
X596900Y109220D02*
D03*
X351793Y50510D02*
D03*
X355600Y50532D02*
D03*
X358140Y186690D02*
D03*
X160046Y70458D02*
D03*
X322580Y331470D02*
D03*
X176739Y61543D02*
D03*
X401320Y66040D02*
D03*
Y69794D02*
D03*
X212090Y293370D02*
D03*
X462280Y281940D02*
D03*
X379149Y13085D02*
D03*
X393700Y24130D02*
D03*
X391462Y223598D02*
D03*
X595240Y236142D02*
D03*
X539750Y199390D02*
D03*
X538840Y219170D02*
D03*
X617220Y199390D02*
D03*
X665793Y204421D02*
D03*
X511810Y234950D02*
D03*
X662488Y194785D02*
D03*
X674370Y185420D02*
D03*
X669467Y268584D02*
D03*
X684530Y278130D02*
D03*
X683565Y291803D02*
D03*
X619760Y241300D02*
D03*
X506939Y277974D02*
D03*
X596900Y242570D02*
D03*
X660400Y204470D02*
D03*
X598170Y217170D02*
D03*
X538479Y189230D02*
D03*
X604520Y252730D02*
D03*
D193*
X511000Y56000D02*
D03*
X686001Y206000D02*
D03*
Y186000D02*
D03*
X691001Y116000D02*
D03*
Y96000D02*
D03*
X676001Y106000D02*
D03*
Y86000D02*
D03*
X631001Y56000D02*
D03*
X626001Y6000D02*
D03*
X621001Y96000D02*
D03*
Y76000D02*
D03*
X606001Y166000D02*
D03*
Y6000D02*
D03*
X586001D02*
D03*
X551000Y36000D02*
D03*
X531000Y216000D02*
D03*
X526000Y46000D02*
D03*
X516000Y306000D02*
D03*
X521000Y116000D02*
D03*
Y16000D02*
D03*
X511000Y336000D02*
D03*
Y156000D02*
D03*
X496000Y306000D02*
D03*
X491000Y56000D02*
D03*
X466000Y326000D02*
D03*
X471000Y56000D02*
D03*
X451000Y96000D02*
D03*
X436000Y186000D02*
D03*
Y86000D02*
D03*
X441000Y16000D02*
D03*
X431000Y36000D02*
D03*
X421000Y216000D02*
D03*
X406000Y6000D02*
D03*
X391000Y216000D02*
D03*
X386000Y106000D02*
D03*
X371000Y96000D02*
D03*
X356000Y246000D02*
D03*
X361000Y196000D02*
D03*
X351000Y96000D02*
D03*
X346000Y66000D02*
D03*
X336000Y286000D02*
D03*
Y226000D02*
D03*
X341000Y116000D02*
D03*
X326000Y66000D02*
D03*
X306000Y286000D02*
D03*
X291000Y36000D02*
D03*
X271000Y16000D02*
D03*
X211000Y336000D02*
D03*
X191000D02*
D03*
X171000Y256000D02*
D03*
Y56000D02*
D03*
X131000Y336000D02*
D03*
X121000Y256000D02*
D03*
Y56000D02*
D03*
X101000Y336000D02*
D03*
X91000Y236000D02*
D03*
X81000Y216000D02*
D03*
X76000Y186000D02*
D03*
Y46000D02*
D03*
X71000Y336000D02*
D03*
X66000Y6000D02*
D03*
X61000Y196000D02*
D03*
X41000Y96000D02*
D03*
X21000D02*
D03*
X6000Y246000D02*
D03*
X11000Y216000D02*
D03*
Y196000D02*
D03*
X6000Y86000D02*
D03*
Y66000D02*
D03*
X166000Y326000D02*
D03*
X146000D02*
D03*
X136000Y286000D02*
D03*
X131000Y316000D02*
D03*
X116000Y326000D02*
D03*
X121000Y276000D02*
D03*
X106000Y286000D02*
D03*
Y266000D02*
D03*
Y246000D02*
D03*
X101000Y316000D02*
D03*
Y96000D02*
D03*
X91000Y296000D02*
D03*
Y276000D02*
D03*
Y256000D02*
D03*
X81000Y316000D02*
D03*
X76000Y266000D02*
D03*
Y246000D02*
D03*
X81000Y96000D02*
D03*
X76000Y66000D02*
D03*
X71000Y296000D02*
D03*
X61000Y176000D02*
D03*
Y116000D02*
D03*
Y96000D02*
D03*
Y76000D02*
D03*
X41000D02*
D03*
X21000Y236000D02*
D03*
Y76000D02*
D03*
X413481Y337972D02*
D03*
X384836Y336754D02*
D03*
X437082Y317466D02*
D03*
X145098Y83963D02*
D03*
X325120Y275590D02*
D03*
X304789Y276993D02*
D03*
X147437Y18448D02*
D03*
X563880Y236220D02*
D03*
D194*
X584040Y223280D02*
D03*
X574040D02*
D03*
X564040D02*
D03*
X584040Y213280D02*
D03*
X574040D02*
D03*
X564040D02*
D03*
X584040Y203280D02*
D03*
X574040D02*
D03*
X564040D02*
D03*
X584040Y193280D02*
D03*
X574040D02*
D03*
X564040D02*
D03*
D195*
X143687Y66871D02*
D03*
X156179Y302271D02*
D03*
X118555Y302271D02*
D03*
X86349Y167609D02*
D03*
Y116809D02*
D03*
X86319Y78679D02*
D03*
X156210Y51240D02*
D03*
X467360Y167640D02*
D03*
X462280Y190500D02*
D03*
X552763Y267622D02*
D03*
X93900Y53065D02*
D03*
X33990Y196930D02*
D03*
X655864Y296034D02*
D03*
X67310Y199390D02*
D03*
D196*
X647543Y299715D02*
D03*
X642203Y299653D02*
D03*
X300000Y269000D02*
D03*
X529590Y173990D02*
D03*
X314960Y260350D02*
D03*
X632350Y284737D02*
D03*
X629100Y263988D02*
D03*
X635600D02*
D03*
X640100Y278237D02*
D03*
X586850Y284737D02*
D03*
X583600Y263988D02*
D03*
X622600Y298987D02*
D03*
X629100D02*
D03*
X593350Y284737D02*
D03*
X625850D02*
D03*
X640100D02*
D03*
X632350Y270487D02*
D03*
D223*
X15240Y129020D02*
D03*
Y158520D02*
D03*
D224*
X30490Y143770D02*
D03*
D225*
X593350Y270487D02*
D03*
X599850D02*
D03*
X606350D02*
D03*
X612850D02*
D03*
X619350D02*
D03*
X625850D02*
D03*
X632350D02*
D03*
X640100Y284737D02*
D03*
Y278237D02*
D03*
X632350Y292487D02*
D03*
X625850D02*
D03*
X619350D02*
D03*
X606350D02*
D03*
X599850D02*
D03*
X586850D02*
D03*
X579100Y284737D02*
D03*
Y278237D02*
D03*
X646600Y306487D02*
D03*
Y316487D02*
D03*
Y326487D02*
D03*
X634600Y337993D02*
D03*
X624600D02*
D03*
X614600D02*
D03*
X604600D02*
D03*
X594600D02*
D03*
X584600D02*
D03*
X572600Y326487D02*
D03*
Y316487D02*
D03*
Y306487D02*
D03*
X583600Y263988D02*
D03*
X590100D02*
D03*
X596600D02*
D03*
X603100D02*
D03*
X609600D02*
D03*
X616100D02*
D03*
X622600D02*
D03*
X629100D02*
D03*
X635600D02*
D03*
X646600Y274987D02*
D03*
Y281488D02*
D03*
Y287987D02*
D03*
X635600Y298987D02*
D03*
X629100D02*
D03*
X622600D02*
D03*
X616100D02*
D03*
X609600D02*
D03*
X603100D02*
D03*
X596600D02*
D03*
X590100D02*
D03*
X583600D02*
D03*
X572600Y287987D02*
D03*
Y281488D02*
D03*
Y274987D02*
D03*
X632350Y278237D02*
D03*
X625850D02*
D03*
X619350D02*
D03*
X612850D02*
D03*
X606350D02*
D03*
X599850D02*
D03*
X593350D02*
D03*
X586850D02*
D03*
Y284737D02*
D03*
X593350D02*
D03*
X599850D02*
D03*
X606350D02*
D03*
X612850D02*
D03*
X619350D02*
D03*
X625850D02*
D03*
X632350D02*
D03*
X612850Y292487D02*
D03*
X586850Y270487D02*
D03*
X593350Y292487D02*
D03*
D226*
X644600Y335987D02*
D03*
X574600D02*
D03*
X644600Y265988D02*
D03*
Y296987D02*
D03*
X574600D02*
D03*
Y265988D02*
D03*
D227*
X95410Y173009D02*
D03*
X109778Y187377D02*
D03*
X124147Y201746D02*
D03*
X138515Y216114D02*
D03*
X181620Y259219D02*
D03*
X167252Y244851D02*
D03*
X152884Y230483D02*
D03*
X349267Y149680D02*
D03*
X334898Y135312D02*
D03*
X320530Y120943D02*
D03*
X306162Y106575D02*
D03*
X291793Y92206D02*
D03*
X277425Y77838D02*
D03*
X263056Y63470D02*
D03*
X248688Y49101D02*
D03*
X234320Y34733D02*
D03*
X210357Y287956D02*
D03*
X195989Y273588D02*
D03*
D228*
X95842Y149324D02*
D03*
X233966Y288386D02*
D03*
X320177Y202176D02*
D03*
X248335Y274018D02*
D03*
X305808Y216544D02*
D03*
X262703Y259649D02*
D03*
X277071Y245281D02*
D03*
X291440Y230912D02*
D03*
X334545Y187807D02*
D03*
X348913Y173439D02*
D03*
X210789Y34377D02*
D03*
X196421Y48745D02*
D03*
X182053Y63114D02*
D03*
X167684Y77482D02*
D03*
X153316Y91851D02*
D03*
X138947Y106219D02*
D03*
X124579Y120587D02*
D03*
X110211Y134956D02*
D03*
D229*
X552750Y91070D02*
D03*
Y105570D02*
D03*
X595930Y60590D02*
D03*
Y75090D02*
D03*
D230*
X241003Y27867D02*
D03*
X255806Y42144D02*
D03*
X329370Y112215D02*
D03*
X343200Y127089D02*
D03*
D231*
X584840Y158010D02*
D03*
X563840Y167560D02*
D03*
Y148460D02*
D03*
D232*
X581960Y96210D02*
D03*
X591560Y118210D02*
D03*
X572360D02*
D03*
D233*
X201425Y297473D02*
D03*
X196617Y302281D02*
D03*
D234*
X408940Y15240D02*
D03*
Y27940D02*
D03*
X396240Y15240D02*
D03*
Y27940D02*
D03*
X383540Y15240D02*
D03*
Y27940D02*
D03*
X687359Y295464D02*
D03*
X674660D02*
D03*
X687359Y282764D02*
D03*
X674660D02*
D03*
X687360Y270064D02*
D03*
X674660D02*
D03*
D235*
X55320Y143510D02*
D03*
X69620D02*
D03*
D236*
X602440Y227330D02*
D03*
X545640Y201930D02*
D03*
Y214630D02*
D03*
X602440Y201930D02*
D03*
Y214630D02*
D03*
Y189230D02*
D03*
X545640Y227330D02*
D03*
Y189230D02*
D03*
D237*
X574040Y208280D02*
D03*
D238*
X51952Y233600D02*
D03*
D239*
X37730Y272419D02*
D03*
D240*
X20231Y210740D02*
D03*
X43231D02*
D03*
D241*
X683025Y68160D02*
D03*
Y142660D02*
D03*
D242*
X649525Y86660D02*
D03*
Y99160D02*
D03*
Y111660D02*
D03*
Y124160D02*
D03*
D243*
X649870Y214390D02*
D03*
Y204390D02*
D03*
Y194390D02*
D03*
Y184390D02*
D03*
D244*
X688620Y227390D02*
D03*
Y171390D02*
D03*
D245*
X392510Y326390D02*
D03*
X402510D02*
D03*
D246*
X461010Y295990D02*
D03*
Y305990D02*
D03*
D247*
X30620Y143640D02*
X53340D01*
X90784Y143030D02*
X93275Y145521D01*
X78919Y143030D02*
X90784D01*
X78740D02*
X78919D01*
X72390D02*
X78740D01*
D248*
X385909Y86119D02*
X387539Y87749D01*
D249*
X574038Y208286D02*
D03*
D250*
X37674Y143785D02*
D03*
M02*
