*
%FSLAX26Y26*%
%MOIN*%
%ADD10C,0.005906*%
%IPPOS*%
%LNc303357c06a0.gko*%
%LPD*%
G75*
G54D10*
X275602Y123055D02*
Y129945D01*
X275591Y130012D01*
X275602Y1254933D01*
X276183Y1265978D01*
X277746Y1276928D01*
X280277Y1287694D01*
X283758Y1298193D01*
X288160Y1308340D01*
X293449Y1318054D01*
X299582Y1327258D01*
X306511Y1335879D01*
X314180Y1343849D01*
X322528Y1351104D01*
X331490Y1357586D01*
X340994Y1363245D01*
X350963Y1368034D01*
X361320Y1371916D01*
X371982Y1374859D01*
X382863Y1376842D01*
X393878Y1377847D01*
X398646Y1377976D01*
Y1377965D01*
X2908476D01*
Y1377976D01*
X2919522Y1377396D01*
X2930471Y1375833D01*
X2941238Y1373301D01*
X2951736Y1369821D01*
X2961883Y1365418D01*
X2971597Y1360130D01*
X2980801Y1353997D01*
X2989423Y1347068D01*
X2997392Y1339399D01*
X3004647Y1331050D01*
X3011130Y1322089D01*
X3016788Y1312585D01*
X3021577Y1302615D01*
X3025459Y1292259D01*
X3028403Y1281597D01*
X3030385Y1270716D01*
X3031390Y1259701D01*
X3031520Y1254933D01*
X3031508D01*
Y123043D01*
X3031520D01*
X3030939Y111998D01*
X3029376Y101049D01*
X3026845Y90282D01*
X3023364Y79783D01*
X3018962Y69637D01*
X3013673Y59923D01*
X3007540Y50718D01*
X3000611Y42097D01*
X2992942Y34127D01*
X2984594Y26872D01*
X2975632Y20390D01*
X2966129Y14732D01*
X2956159Y9943D01*
X2945802Y6061D01*
X2935140Y3117D01*
X2924259Y1135D01*
X2913244Y130D01*
X2908476Y0D01*
X398646Y12D01*
X387600Y593D01*
X376651Y2155D01*
X365884Y4687D01*
X355386Y8168D01*
X345239Y12570D01*
X335525Y17858D01*
X326321Y23992D01*
X317700Y30920D01*
X309730Y38589D01*
X302475Y46938D01*
X295992Y55899D01*
X290334Y65403D01*
X285545Y75373D01*
X281663Y85730D01*
X278719Y96391D01*
X276737Y107272D01*
X275732Y118287D01*
X275602Y123055D01*
Y1579772D02*
Y1586661D01*
X275591Y1586728D01*
X275602Y2711650D01*
X276183Y2722695D01*
X277746Y2733644D01*
X280277Y2744411D01*
X283758Y2754909D01*
X288160Y2765056D01*
X293449Y2774770D01*
X299582Y2783975D01*
X306511Y2792596D01*
X314180Y2800566D01*
X322528Y2807821D01*
X331490Y2814303D01*
X340994Y2819961D01*
X350963Y2824750D01*
X361320Y2828632D01*
X371982Y2831576D01*
X382863Y2833558D01*
X393878Y2834563D01*
X398646Y2834693D01*
Y2834681D01*
X2908476D01*
Y2834693D01*
X2919522Y2834112D01*
X2930471Y2832550D01*
X2941238Y2830018D01*
X2951736Y2826537D01*
X2961883Y2822135D01*
X2971597Y2816846D01*
X2980801Y2810713D01*
X2989423Y2803785D01*
X2997392Y2796116D01*
X3004647Y2787767D01*
X3011130Y2778805D01*
X3016788Y2769302D01*
X3021577Y2759332D01*
X3025459Y2748975D01*
X3028403Y2738314D01*
X3030385Y2727432D01*
X3031390Y2716418D01*
X3031520Y2711650D01*
X3031508D01*
Y1579760D01*
X3031520D01*
X3030939Y1568715D01*
X3029376Y1557765D01*
X3026845Y1546998D01*
X3023364Y1536500D01*
X3018962Y1526353D01*
X3013673Y1516639D01*
X3007540Y1507435D01*
X3000611Y1498814D01*
X2992942Y1490844D01*
X2984594Y1483589D01*
X2975632Y1477106D01*
X2966129Y1471448D01*
X2956159Y1466659D01*
X2945802Y1462777D01*
X2935140Y1459833D01*
X2924259Y1457851D01*
X2913244Y1456846D01*
X2908476Y1456717D01*
X398646Y1456728D01*
X387600Y1457309D01*
X376651Y1458872D01*
X365884Y1461403D01*
X355386Y1464884D01*
X345239Y1469286D01*
X335525Y1474575D01*
X326321Y1480708D01*
X317700Y1487637D01*
X309730Y1495306D01*
X302475Y1503654D01*
X295992Y1512616D01*
X290334Y1522119D01*
X285545Y1532089D01*
X281663Y1542446D01*
X278719Y1553108D01*
X276737Y1563989D01*
X275732Y1575004D01*
X275602Y1579772D01*
Y3036488D02*
Y3043378D01*
X275591Y3043445D01*
X275602Y4168366D01*
X276183Y4179411D01*
X277746Y4190361D01*
X280277Y4201128D01*
X283758Y4211626D01*
X288160Y4221773D01*
X293449Y4231487D01*
X299582Y4240691D01*
X306511Y4249312D01*
X314180Y4257282D01*
X322528Y4264537D01*
X331490Y4271019D01*
X340994Y4276678D01*
X350963Y4281467D01*
X361320Y4285349D01*
X371982Y4288293D01*
X382863Y4290275D01*
X393878Y4291280D01*
X398646Y4291409D01*
Y4291398D01*
X2908476D01*
Y4291409D01*
X2919522Y4290829D01*
X2930471Y4289266D01*
X2941238Y4286734D01*
X2951736Y4283254D01*
X2961883Y4278851D01*
X2971597Y4273563D01*
X2980801Y4267430D01*
X2989423Y4260501D01*
X2997392Y4252832D01*
X3004647Y4244484D01*
X3011130Y4235522D01*
X3016788Y4226018D01*
X3021577Y4216048D01*
X3025459Y4205692D01*
X3028403Y4195030D01*
X3030385Y4184149D01*
X3031390Y4173134D01*
X3031520Y4168366D01*
X3031508D01*
Y3036476D01*
X3031520D01*
X3030939Y3025431D01*
X3029376Y3014482D01*
X3026845Y3003715D01*
X3023364Y2993217D01*
X3018962Y2983070D01*
X3013673Y2973356D01*
X3007540Y2964151D01*
X3000611Y2955530D01*
X2992942Y2947560D01*
X2984594Y2940305D01*
X2975632Y2933823D01*
X2966129Y2928165D01*
X2956159Y2923376D01*
X2945802Y2919494D01*
X2935140Y2916550D01*
X2924259Y2914568D01*
X2913244Y2913563D01*
X2908476Y2913433D01*
X398646Y2913445D01*
X387600Y2914026D01*
X376651Y2915588D01*
X365884Y2918120D01*
X355386Y2921601D01*
X345239Y2926003D01*
X335525Y2931292D01*
X326321Y2937425D01*
X317700Y2944353D01*
X309730Y2952022D01*
X302475Y2960371D01*
X295992Y2969332D01*
X290334Y2978836D01*
X285545Y2988806D01*
X281663Y2999163D01*
X278719Y3009824D01*
X276737Y3020706D01*
X275732Y3031720D01*
X275602Y3036488D01*
Y4493205D02*
Y4500094D01*
X275591Y4500161D01*
X275602Y5625083D01*
X276183Y5636128D01*
X277746Y5647077D01*
X280277Y5657844D01*
X283758Y5668343D01*
X288160Y5678489D01*
X293449Y5688203D01*
X299582Y5697408D01*
X306511Y5706029D01*
X314180Y5713999D01*
X322528Y5721254D01*
X331490Y5727736D01*
X340994Y5733394D01*
X350963Y5738183D01*
X361320Y5742065D01*
X371982Y5745009D01*
X382863Y5746991D01*
X393878Y5747996D01*
X398646Y5748126D01*
Y5748114D01*
X2908476D01*
Y5748126D01*
X2919522Y5747545D01*
X2930471Y5745983D01*
X2941238Y5743451D01*
X2951736Y5739970D01*
X2961883Y5735568D01*
X2971597Y5730279D01*
X2980801Y5724146D01*
X2989423Y5717218D01*
X2997392Y5709549D01*
X3004647Y5701200D01*
X3011130Y5692238D01*
X3016788Y5682735D01*
X3021577Y5672765D01*
X3025459Y5662408D01*
X3028403Y5651747D01*
X3030385Y5640865D01*
X3031390Y5629851D01*
X3031520Y5625083D01*
X3031508D01*
Y4493193D01*
X3031520D01*
X3030939Y4482148D01*
X3029376Y4471198D01*
X3026845Y4460431D01*
X3023364Y4449933D01*
X3018962Y4439786D01*
X3013673Y4430072D01*
X3007540Y4420868D01*
X3000611Y4412247D01*
X2992942Y4404277D01*
X2984594Y4397022D01*
X2975632Y4390540D01*
X2966129Y4384881D01*
X2956159Y4380092D01*
X2945802Y4376210D01*
X2935140Y4373267D01*
X2924259Y4371284D01*
X2913244Y4370279D01*
X2908476Y4370150D01*
X398646Y4370161D01*
X387600Y4370742D01*
X376651Y4372305D01*
X365884Y4374836D01*
X355386Y4378317D01*
X345239Y4382719D01*
X335525Y4388008D01*
X326321Y4394141D01*
X317700Y4401070D01*
X309730Y4408739D01*
X302475Y4417087D01*
X295992Y4426049D01*
X290334Y4435553D01*
X285545Y4445522D01*
X281663Y4455879D01*
X278719Y4466541D01*
X276737Y4477422D01*
X275732Y4488437D01*
X275602Y4493205D01*
Y5949921D02*
Y5956811D01*
X275591Y5956878D01*
X275602Y7081799D01*
X276183Y7092844D01*
X277746Y7103794D01*
X280277Y7114561D01*
X283758Y7125059D01*
X288160Y7135206D01*
X293449Y7144920D01*
X299582Y7154124D01*
X306511Y7162745D01*
X314180Y7170715D01*
X322528Y7177970D01*
X331490Y7184453D01*
X340994Y7190111D01*
X350963Y7194900D01*
X361320Y7198782D01*
X371982Y7201726D01*
X382863Y7203708D01*
X393878Y7204713D01*
X398646Y7204843D01*
Y7204831D01*
X2908476D01*
Y7204843D01*
X2919522Y7204262D01*
X2930471Y7202699D01*
X2941238Y7200168D01*
X2951736Y7196687D01*
X2961883Y7192284D01*
X2971597Y7186996D01*
X2980801Y7180863D01*
X2989423Y7173934D01*
X2997392Y7166265D01*
X3004647Y7157917D01*
X3011130Y7148955D01*
X3016788Y7139451D01*
X3021577Y7129481D01*
X3025459Y7119125D01*
X3028403Y7108463D01*
X3030385Y7097582D01*
X3031390Y7086567D01*
X3031520Y7081799D01*
X3031508D01*
Y5949909D01*
X3031520D01*
X3030939Y5938864D01*
X3029376Y5927915D01*
X3026845Y5917148D01*
X3023364Y5906650D01*
X3018962Y5896503D01*
X3013673Y5886789D01*
X3007540Y5877585D01*
X3000611Y5868963D01*
X2992942Y5860993D01*
X2984594Y5853738D01*
X2975632Y5847256D01*
X2966129Y5841598D01*
X2956159Y5836809D01*
X2945802Y5832927D01*
X2935140Y5829983D01*
X2924259Y5828001D01*
X2913244Y5826996D01*
X2908476Y5826866D01*
X398646Y5826878D01*
X387600Y5827459D01*
X376651Y5829021D01*
X365884Y5831553D01*
X355386Y5835034D01*
X345239Y5839436D01*
X335525Y5844725D01*
X326321Y5850858D01*
X317700Y5857786D01*
X309730Y5865455D01*
X302475Y5873804D01*
X295992Y5882766D01*
X290334Y5892269D01*
X285545Y5902239D01*
X281663Y5912596D01*
X278719Y5923257D01*
X276737Y5934139D01*
X275732Y5945153D01*
X275602Y5949921D01*
X196850Y7204724D02*
X39370D01*
X33163Y7204232D01*
X27110Y7202767D01*
X21365Y7200366D01*
X16070Y7197089D01*
X11358Y7193018D01*
X7346Y7188256D01*
X4136Y7182920D01*
X1807Y7177145D01*
X418Y7171075D01*
X0Y7165354D01*
Y39370D01*
X492Y33163D01*
X1957Y27110D01*
X4358Y21365D01*
X7635Y16070D01*
X11706Y11358D01*
X16469Y7346D01*
X21804Y4136D01*
X27580Y1807D01*
X33650Y418D01*
X39370Y0D01*
X196850D01*
X3110236Y7204724D02*
X3267717D01*
X3273924Y7204232D01*
X3279976Y7202767D01*
X3285722Y7200366D01*
X3291017Y7197089D01*
X3295729Y7193018D01*
X3299740Y7188256D01*
X3302951Y7182920D01*
X3305280Y7177145D01*
X3306669Y7171075D01*
X3307087Y7165354D01*
Y39370D01*
X3306594Y33163D01*
X3305129Y27110D01*
X3302728Y21365D01*
X3299451Y16070D01*
X3295381Y11358D01*
X3290618Y7346D01*
X3285282Y4136D01*
X3279507Y1807D01*
X3273437Y418D01*
X3267717Y0D01*
X3110236D01*
X196850Y7204724D02*
Y0D01*
X3110236Y7204724D02*
Y0D01*
X275596Y7026225D02*
X275104Y7020017D01*
X273639Y7013965D01*
X271238Y7008219D01*
X267961Y7002924D01*
X263890Y6998211D01*
X259128Y6994199D01*
X253792Y6990989D01*
X248017Y6988660D01*
X241946Y6987270D01*
X235733Y6986855D01*
X229532Y6987425D01*
X223498Y6988965D01*
X217783Y6991437D01*
X212529Y6994780D01*
X207867Y6998909D01*
X203915Y7003721D01*
X200771Y7009097D01*
X198514Y7014901D01*
X197200Y7020988D01*
X196850Y7026225D01*
X275596Y6837249D02*
X275104Y6843456D01*
X273639Y6849509D01*
X271238Y6855255D01*
X267961Y6860550D01*
X263890Y6865262D01*
X259128Y6869274D01*
X253792Y6872485D01*
X248017Y6874814D01*
X241946Y6876203D01*
X235733Y6876619D01*
X229532Y6876049D01*
X223498Y6874508D01*
X217783Y6872036D01*
X212529Y6868694D01*
X207867Y6864564D01*
X203915Y6859752D01*
X200771Y6854377D01*
X198514Y6848573D01*
X197200Y6842486D01*
X196850Y6837249D01*
X275596Y6212665D02*
X275104Y6206458D01*
X273639Y6200405D01*
X271238Y6194659D01*
X267961Y6189364D01*
X263890Y6184652D01*
X259128Y6180640D01*
X253792Y6177429D01*
X248017Y6175100D01*
X241946Y6173710D01*
X235733Y6173295D01*
X229532Y6173865D01*
X223498Y6175405D01*
X217783Y6177878D01*
X212529Y6181220D01*
X207867Y6185350D01*
X203915Y6190162D01*
X200771Y6195537D01*
X198514Y6201341D01*
X197200Y6207428D01*
X196850Y6212665D01*
X275596Y6023689D02*
X275104Y6029897D01*
X273639Y6035949D01*
X271238Y6041695D01*
X267961Y6046990D01*
X263890Y6051703D01*
X259128Y6055714D01*
X253792Y6058925D01*
X248017Y6061254D01*
X241946Y6062644D01*
X235733Y6063059D01*
X229532Y6062489D01*
X223498Y6060949D01*
X217783Y6058477D01*
X212529Y6055134D01*
X207867Y6051005D01*
X203915Y6046192D01*
X200771Y6040817D01*
X198514Y6035013D01*
X197200Y6028926D01*
X196850Y6023689D01*
X3110242Y7050558D02*
X3109750Y7044350D01*
X3108285Y7038298D01*
X3105884Y7032552D01*
X3102607Y7027257D01*
X3098536Y7022544D01*
X3093773Y7018532D01*
X3088438Y7015322D01*
X3082662Y7012993D01*
X3076592Y7011603D01*
X3070379Y7011188D01*
X3064178Y7011758D01*
X3058144Y7013298D01*
X3052428Y7015770D01*
X3047174Y7019113D01*
X3042513Y7023242D01*
X3038561Y7028054D01*
X3035417Y7033430D01*
X3033160Y7039234D01*
X3031846Y7045321D01*
X3031496Y7050558D01*
X3110242Y6861581D02*
X3109750Y6867789D01*
X3108285Y6873842D01*
X3105884Y6879588D01*
X3102607Y6884883D01*
X3098536Y6889595D01*
X3093773Y6893607D01*
X3088438Y6896818D01*
X3082662Y6899147D01*
X3076592Y6900536D01*
X3070379Y6900951D01*
X3064178Y6900382D01*
X3058144Y6898841D01*
X3052428Y6896369D01*
X3047174Y6893026D01*
X3042513Y6888897D01*
X3038561Y6884085D01*
X3035417Y6878710D01*
X3033160Y6872906D01*
X3031846Y6866819D01*
X3031496Y6861581D01*
X3110242Y6212665D02*
X3109750Y6206458D01*
X3108285Y6200405D01*
X3105884Y6194659D01*
X3102607Y6189364D01*
X3098536Y6184652D01*
X3093773Y6180640D01*
X3088438Y6177429D01*
X3082662Y6175100D01*
X3076592Y6173710D01*
X3070379Y6173295D01*
X3064178Y6173865D01*
X3058144Y6175405D01*
X3052428Y6177878D01*
X3047174Y6181220D01*
X3042513Y6185350D01*
X3038561Y6190162D01*
X3035417Y6195537D01*
X3033160Y6201341D01*
X3031846Y6207428D01*
X3031496Y6212665D01*
X3110242Y6023689D02*
X3109750Y6029897D01*
X3108285Y6035949D01*
X3105884Y6041695D01*
X3102607Y6046990D01*
X3098536Y6051703D01*
X3093773Y6055714D01*
X3088438Y6058925D01*
X3082662Y6061254D01*
X3076592Y6062644D01*
X3070379Y6063059D01*
X3064178Y6062489D01*
X3058144Y6060949D01*
X3052428Y6058477D01*
X3047174Y6055134D01*
X3042513Y6051005D01*
X3038561Y6046192D01*
X3035417Y6040817D01*
X3033160Y6035013D01*
X3031846Y6028926D01*
X3031496Y6023689D01*
X275596Y5569532D02*
X275104Y5563324D01*
X273639Y5557272D01*
X271238Y5551526D01*
X267961Y5546231D01*
X263890Y5541518D01*
X259128Y5537506D01*
X253792Y5534296D01*
X248017Y5531967D01*
X241946Y5530577D01*
X235733Y5530162D01*
X229532Y5530732D01*
X223498Y5532272D01*
X217783Y5534744D01*
X212529Y5538087D01*
X207867Y5542216D01*
X203915Y5547029D01*
X200771Y5552404D01*
X198514Y5558208D01*
X197200Y5564295D01*
X196850Y5569532D01*
X275596Y5380556D02*
X275104Y5386763D01*
X273639Y5392816D01*
X271238Y5398562D01*
X267961Y5403857D01*
X263890Y5408569D01*
X259128Y5412581D01*
X253792Y5415792D01*
X248017Y5418121D01*
X241946Y5419511D01*
X235733Y5419926D01*
X229532Y5419356D01*
X223498Y5417816D01*
X217783Y5415343D01*
X212529Y5412001D01*
X207867Y5407871D01*
X203915Y5403059D01*
X200771Y5397684D01*
X198514Y5391880D01*
X197200Y5385793D01*
X196850Y5380556D01*
X275596Y4755972D02*
X275104Y4749765D01*
X273639Y4743712D01*
X271238Y4737966D01*
X267961Y4732671D01*
X263890Y4727959D01*
X259128Y4723947D01*
X253792Y4720736D01*
X248017Y4718407D01*
X241946Y4717018D01*
X235733Y4716602D01*
X229532Y4717172D01*
X223498Y4718713D01*
X217783Y4721185D01*
X212529Y4724527D01*
X207867Y4728657D01*
X203915Y4733469D01*
X200771Y4738844D01*
X198514Y4744648D01*
X197200Y4750735D01*
X196850Y4755972D01*
X275596Y4566996D02*
X275104Y4573204D01*
X273639Y4579256D01*
X271238Y4585002D01*
X267961Y4590297D01*
X263890Y4595010D01*
X259128Y4599022D01*
X253792Y4602232D01*
X248017Y4604561D01*
X241946Y4605951D01*
X235733Y4606366D01*
X229532Y4605796D01*
X223498Y4604256D01*
X217783Y4601784D01*
X212529Y4598441D01*
X207867Y4594312D01*
X203915Y4589500D01*
X200771Y4584124D01*
X198514Y4578320D01*
X197200Y4572233D01*
X196850Y4566996D01*
X3110242Y5593865D02*
X3109750Y5587657D01*
X3108285Y5581605D01*
X3105884Y5575859D01*
X3102607Y5570564D01*
X3098536Y5565851D01*
X3093773Y5561839D01*
X3088438Y5558629D01*
X3082662Y5556300D01*
X3076592Y5554910D01*
X3070379Y5554495D01*
X3064178Y5555065D01*
X3058144Y5556605D01*
X3052428Y5559077D01*
X3047174Y5562420D01*
X3042513Y5566549D01*
X3038561Y5571362D01*
X3035417Y5576737D01*
X3033160Y5582541D01*
X3031846Y5588628D01*
X3031496Y5593865D01*
X3110242Y5404889D02*
X3109750Y5411096D01*
X3108285Y5417149D01*
X3105884Y5422895D01*
X3102607Y5428190D01*
X3098536Y5432902D01*
X3093773Y5436914D01*
X3088438Y5440125D01*
X3082662Y5442454D01*
X3076592Y5443844D01*
X3070379Y5444259D01*
X3064178Y5443689D01*
X3058144Y5442149D01*
X3052428Y5439676D01*
X3047174Y5436334D01*
X3042513Y5432204D01*
X3038561Y5427392D01*
X3035417Y5422017D01*
X3033160Y5416213D01*
X3031846Y5410126D01*
X3031496Y5404889D01*
X3110242Y4755972D02*
X3109750Y4749765D01*
X3108285Y4743712D01*
X3105884Y4737966D01*
X3102607Y4732671D01*
X3098536Y4727959D01*
X3093773Y4723947D01*
X3088438Y4720736D01*
X3082662Y4718407D01*
X3076592Y4717018D01*
X3070379Y4716602D01*
X3064178Y4717172D01*
X3058144Y4718713D01*
X3052428Y4721185D01*
X3047174Y4724527D01*
X3042513Y4728657D01*
X3038561Y4733469D01*
X3035417Y4738844D01*
X3033160Y4744648D01*
X3031846Y4750735D01*
X3031496Y4755972D01*
X3110242Y4566996D02*
X3109750Y4573204D01*
X3108285Y4579256D01*
X3105884Y4585002D01*
X3102607Y4590297D01*
X3098536Y4595010D01*
X3093773Y4599022D01*
X3088438Y4602232D01*
X3082662Y4604561D01*
X3076592Y4605951D01*
X3070379Y4606366D01*
X3064178Y4605796D01*
X3058144Y4604256D01*
X3052428Y4601784D01*
X3047174Y4598441D01*
X3042513Y4594312D01*
X3038561Y4589500D01*
X3035417Y4584124D01*
X3033160Y4578320D01*
X3031846Y4572233D01*
X3031496Y4566996D01*
X275596Y4112839D02*
X275104Y4106631D01*
X273639Y4100579D01*
X271238Y4094833D01*
X267961Y4089538D01*
X263890Y4084825D01*
X259128Y4080814D01*
X253792Y4077603D01*
X248017Y4075274D01*
X241946Y4073884D01*
X235733Y4073469D01*
X229532Y4074039D01*
X223498Y4075579D01*
X217783Y4078051D01*
X212529Y4081394D01*
X207867Y4085523D01*
X203915Y4090336D01*
X200771Y4095711D01*
X198514Y4101515D01*
X197200Y4107602D01*
X196850Y4112839D01*
X275596Y3923863D02*
X275104Y3930070D01*
X273639Y3936123D01*
X271238Y3941869D01*
X267961Y3947164D01*
X263890Y3951876D01*
X259128Y3955888D01*
X253792Y3959099D01*
X248017Y3961428D01*
X241946Y3962818D01*
X235733Y3963233D01*
X229532Y3962663D01*
X223498Y3961123D01*
X217783Y3958650D01*
X212529Y3955308D01*
X207867Y3951179D01*
X203915Y3946366D01*
X200771Y3940991D01*
X198514Y3935187D01*
X197200Y3929100D01*
X196850Y3923863D01*
X275596Y3299280D02*
X275104Y3293072D01*
X273639Y3287019D01*
X271238Y3281274D01*
X267961Y3275978D01*
X263890Y3271266D01*
X259128Y3267254D01*
X253792Y3264043D01*
X248017Y3261714D01*
X241946Y3260325D01*
X235733Y3259910D01*
X229532Y3260479D01*
X223498Y3262020D01*
X217783Y3264492D01*
X212529Y3267835D01*
X207867Y3271964D01*
X203915Y3276776D01*
X200771Y3282151D01*
X198514Y3287955D01*
X197200Y3294042D01*
X196850Y3299280D01*
X275596Y3110303D02*
X275104Y3116511D01*
X273639Y3122563D01*
X271238Y3128309D01*
X267961Y3133604D01*
X263890Y3138317D01*
X259128Y3142329D01*
X253792Y3145539D01*
X248017Y3147869D01*
X241946Y3149258D01*
X235733Y3149673D01*
X229532Y3149103D01*
X223498Y3147563D01*
X217783Y3145091D01*
X212529Y3141748D01*
X207867Y3137619D01*
X203915Y3132807D01*
X200771Y3127431D01*
X198514Y3121627D01*
X197200Y3115540D01*
X196850Y3110303D01*
X3110242Y4137172D02*
X3109750Y4130964D01*
X3108285Y4124912D01*
X3105884Y4119166D01*
X3102607Y4113871D01*
X3098536Y4109158D01*
X3093773Y4105147D01*
X3088438Y4101936D01*
X3082662Y4099607D01*
X3076592Y4098217D01*
X3070379Y4097802D01*
X3064178Y4098372D01*
X3058144Y4099912D01*
X3052428Y4102384D01*
X3047174Y4105727D01*
X3042513Y4109856D01*
X3038561Y4114669D01*
X3035417Y4120044D01*
X3033160Y4125848D01*
X3031846Y4131935D01*
X3031496Y4137172D01*
X3110242Y3948196D02*
X3109750Y3954403D01*
X3108285Y3960456D01*
X3105884Y3966202D01*
X3102607Y3971497D01*
X3098536Y3976209D01*
X3093773Y3980221D01*
X3088438Y3983432D01*
X3082662Y3985761D01*
X3076592Y3987151D01*
X3070379Y3987566D01*
X3064178Y3986996D01*
X3058144Y3985456D01*
X3052428Y3982983D01*
X3047174Y3979641D01*
X3042513Y3975512D01*
X3038561Y3970699D01*
X3035417Y3965324D01*
X3033160Y3959520D01*
X3031846Y3953433D01*
X3031496Y3948196D01*
X3110242Y3299280D02*
X3109750Y3293072D01*
X3108285Y3287019D01*
X3105884Y3281274D01*
X3102607Y3275978D01*
X3098536Y3271266D01*
X3093773Y3267254D01*
X3088438Y3264043D01*
X3082662Y3261714D01*
X3076592Y3260325D01*
X3070379Y3259910D01*
X3064178Y3260479D01*
X3058144Y3262020D01*
X3052428Y3264492D01*
X3047174Y3267835D01*
X3042513Y3271964D01*
X3038561Y3276776D01*
X3035417Y3282151D01*
X3033160Y3287955D01*
X3031846Y3294042D01*
X3031496Y3299280D01*
X3110242Y3110303D02*
X3109750Y3116511D01*
X3108285Y3122563D01*
X3105884Y3128309D01*
X3102607Y3133604D01*
X3098536Y3138317D01*
X3093773Y3142329D01*
X3088438Y3145539D01*
X3082662Y3147869D01*
X3076592Y3149258D01*
X3070379Y3149673D01*
X3064178Y3149103D01*
X3058144Y3147563D01*
X3052428Y3145091D01*
X3047174Y3141748D01*
X3042513Y3137619D01*
X3038561Y3132807D01*
X3035417Y3127431D01*
X3033160Y3121627D01*
X3031846Y3115540D01*
X3031496Y3110303D01*
X275596Y2656146D02*
X275104Y2649938D01*
X273639Y2643886D01*
X271238Y2638140D01*
X267961Y2632845D01*
X263890Y2628132D01*
X259128Y2624121D01*
X253792Y2620910D01*
X248017Y2618581D01*
X241946Y2617191D01*
X235733Y2616776D01*
X229532Y2617346D01*
X223498Y2618886D01*
X217783Y2621359D01*
X212529Y2624701D01*
X207867Y2628830D01*
X203915Y2633643D01*
X200771Y2639018D01*
X198514Y2644822D01*
X197200Y2650909D01*
X196850Y2656146D01*
X275596Y2467170D02*
X275104Y2473378D01*
X273639Y2479430D01*
X271238Y2485176D01*
X267961Y2490471D01*
X263890Y2495184D01*
X259128Y2499195D01*
X253792Y2502406D01*
X248017Y2504735D01*
X241946Y2506125D01*
X235733Y2506540D01*
X229532Y2505970D01*
X223498Y2504430D01*
X217783Y2501957D01*
X212529Y2498615D01*
X207867Y2494486D01*
X203915Y2489673D01*
X200771Y2484298D01*
X198514Y2478494D01*
X197200Y2472407D01*
X196850Y2467170D01*
X275596Y1842587D02*
X275104Y1836379D01*
X273639Y1830326D01*
X271238Y1824581D01*
X267961Y1819285D01*
X263890Y1814573D01*
X259128Y1810561D01*
X253792Y1807350D01*
X248017Y1805021D01*
X241946Y1803632D01*
X235733Y1803217D01*
X229532Y1803786D01*
X223498Y1805327D01*
X217783Y1807799D01*
X212529Y1811142D01*
X207867Y1815271D01*
X203915Y1820083D01*
X200771Y1825458D01*
X198514Y1831262D01*
X197200Y1837349D01*
X196850Y1842587D01*
X275596Y1653610D02*
X275104Y1659818D01*
X273639Y1665870D01*
X271238Y1671616D01*
X267961Y1676912D01*
X263890Y1681624D01*
X259128Y1685636D01*
X253792Y1688846D01*
X248017Y1691176D01*
X241946Y1692565D01*
X235733Y1692980D01*
X229532Y1692410D01*
X223498Y1690870D01*
X217783Y1688398D01*
X212529Y1685055D01*
X207867Y1680926D01*
X203915Y1676114D01*
X200771Y1670738D01*
X198514Y1664935D01*
X197200Y1658847D01*
X196850Y1653610D01*
X3110242Y2680479D02*
X3109750Y2674271D01*
X3108285Y2668219D01*
X3105884Y2662473D01*
X3102607Y2657178D01*
X3098536Y2652465D01*
X3093773Y2648454D01*
X3088438Y2645243D01*
X3082662Y2642914D01*
X3076592Y2641524D01*
X3070379Y2641109D01*
X3064178Y2641679D01*
X3058144Y2643219D01*
X3052428Y2645692D01*
X3047174Y2649034D01*
X3042513Y2653163D01*
X3038561Y2657976D01*
X3035417Y2663351D01*
X3033160Y2669155D01*
X3031846Y2675242D01*
X3031496Y2680479D01*
X3110242Y2491503D02*
X3109750Y2497711D01*
X3108285Y2503763D01*
X3105884Y2509509D01*
X3102607Y2514804D01*
X3098536Y2519517D01*
X3093773Y2523528D01*
X3088438Y2526739D01*
X3082662Y2529068D01*
X3076592Y2530458D01*
X3070379Y2530873D01*
X3064178Y2530303D01*
X3058144Y2528763D01*
X3052428Y2526290D01*
X3047174Y2522948D01*
X3042513Y2518819D01*
X3038561Y2514006D01*
X3035417Y2508631D01*
X3033160Y2502827D01*
X3031846Y2496740D01*
X3031496Y2491503D01*
X3110242Y1842587D02*
X3109750Y1836379D01*
X3108285Y1830326D01*
X3105884Y1824581D01*
X3102607Y1819285D01*
X3098536Y1814573D01*
X3093773Y1810561D01*
X3088438Y1807350D01*
X3082662Y1805021D01*
X3076592Y1803632D01*
X3070379Y1803217D01*
X3064178Y1803786D01*
X3058144Y1805327D01*
X3052428Y1807799D01*
X3047174Y1811142D01*
X3042513Y1815271D01*
X3038561Y1820083D01*
X3035417Y1825458D01*
X3033160Y1831262D01*
X3031846Y1837349D01*
X3031496Y1842587D01*
X3110242Y1653610D02*
X3109750Y1659818D01*
X3108285Y1665870D01*
X3105884Y1671616D01*
X3102607Y1676912D01*
X3098536Y1681624D01*
X3093773Y1685636D01*
X3088438Y1688846D01*
X3082662Y1691176D01*
X3076592Y1692565D01*
X3070379Y1692980D01*
X3064178Y1692410D01*
X3058144Y1690870D01*
X3052428Y1688398D01*
X3047174Y1685055D01*
X3042513Y1680926D01*
X3038561Y1676114D01*
X3035417Y1670738D01*
X3033160Y1664935D01*
X3031846Y1658847D01*
X3031496Y1653610D01*
X275596Y1199453D02*
X275104Y1193245D01*
X273639Y1187193D01*
X271238Y1181447D01*
X267961Y1176152D01*
X263890Y1171439D01*
X259128Y1167428D01*
X253792Y1164217D01*
X248017Y1161888D01*
X241946Y1160498D01*
X235733Y1160083D01*
X229532Y1160653D01*
X223498Y1162193D01*
X217783Y1164666D01*
X212529Y1168008D01*
X207867Y1172137D01*
X203915Y1176950D01*
X200771Y1182325D01*
X198514Y1188129D01*
X197200Y1194216D01*
X196850Y1199453D01*
X275596Y1010477D02*
X275104Y1016685D01*
X273639Y1022737D01*
X271238Y1028483D01*
X267961Y1033778D01*
X263890Y1038491D01*
X259128Y1042502D01*
X253792Y1045713D01*
X248017Y1048042D01*
X241946Y1049432D01*
X235733Y1049847D01*
X229532Y1049277D01*
X223498Y1047737D01*
X217783Y1045264D01*
X212529Y1041922D01*
X207867Y1037793D01*
X203915Y1032980D01*
X200771Y1027605D01*
X198514Y1021801D01*
X197200Y1015714D01*
X196850Y1010477D01*
X275596Y385894D02*
X275104Y379686D01*
X273639Y373633D01*
X271238Y367888D01*
X267961Y362592D01*
X263890Y357880D01*
X259128Y353868D01*
X253792Y350658D01*
X248017Y348328D01*
X241946Y346939D01*
X235733Y346524D01*
X229532Y347094D01*
X223498Y348634D01*
X217783Y351106D01*
X212529Y354449D01*
X207867Y358578D01*
X203915Y363390D01*
X200771Y368766D01*
X198514Y374569D01*
X197200Y380656D01*
X196850Y385894D01*
X275596Y196917D02*
X275104Y203125D01*
X273639Y209178D01*
X271238Y214923D01*
X267961Y220219D01*
X263890Y224931D01*
X259128Y228943D01*
X253792Y232153D01*
X248017Y234483D01*
X241946Y235872D01*
X235733Y236287D01*
X229532Y235718D01*
X223498Y234177D01*
X217783Y231705D01*
X212529Y228362D01*
X207867Y224233D01*
X203915Y219421D01*
X200771Y214045D01*
X198514Y208242D01*
X197200Y202155D01*
X196850Y196917D01*
X3110242Y1223786D02*
X3109750Y1217578D01*
X3108285Y1211526D01*
X3105884Y1205780D01*
X3102607Y1200485D01*
X3098536Y1195772D01*
X3093773Y1191761D01*
X3088438Y1188550D01*
X3082662Y1186221D01*
X3076592Y1184831D01*
X3070379Y1184416D01*
X3064178Y1184986D01*
X3058144Y1186526D01*
X3052428Y1188999D01*
X3047174Y1192341D01*
X3042513Y1196470D01*
X3038561Y1201283D01*
X3035417Y1206658D01*
X3033160Y1212462D01*
X3031846Y1218549D01*
X3031496Y1223786D01*
X3110242Y1034810D02*
X3109750Y1041018D01*
X3108285Y1047070D01*
X3105884Y1052816D01*
X3102607Y1058111D01*
X3098536Y1062824D01*
X3093773Y1066835D01*
X3088438Y1070046D01*
X3082662Y1072375D01*
X3076592Y1073765D01*
X3070379Y1074180D01*
X3064178Y1073610D01*
X3058144Y1072070D01*
X3052428Y1069597D01*
X3047174Y1066255D01*
X3042513Y1062126D01*
X3038561Y1057313D01*
X3035417Y1051938D01*
X3033160Y1046134D01*
X3031846Y1040047D01*
X3031496Y1034810D01*
X3110242Y385894D02*
X3109750Y379686D01*
X3108285Y373633D01*
X3105884Y367888D01*
X3102607Y362592D01*
X3098536Y357880D01*
X3093773Y353868D01*
X3088438Y350658D01*
X3082662Y348328D01*
X3076592Y346939D01*
X3070379Y346524D01*
X3064178Y347094D01*
X3058144Y348634D01*
X3052428Y351106D01*
X3047174Y354449D01*
X3042513Y358578D01*
X3038561Y363390D01*
X3035417Y368766D01*
X3033160Y374569D01*
X3031846Y380656D01*
X3031496Y385894D01*
X3110242Y196917D02*
X3109750Y203125D01*
X3108285Y209178D01*
X3105884Y214923D01*
X3102607Y220219D01*
X3098536Y224931D01*
X3093773Y228943D01*
X3088438Y232153D01*
X3082662Y234483D01*
X3076592Y235872D01*
X3070379Y236287D01*
X3064178Y235718D01*
X3058144Y234177D01*
X3052428Y231705D01*
X3047174Y228362D01*
X3042513Y224233D01*
X3038561Y219421D01*
X3035417Y214045D01*
X3033160Y208242D01*
X3031846Y202155D01*
X3031496Y196917D01*
M02*
