M48
;Layer_Color=9474304
;FILE_FORMAT=4:4
METRIC,LZ
;TYPE=PLATED
T03F00S00C0.1500
T04F00S00C0.2000
;TYPE=NON_PLATED
%
T03
X0013874Y000189
X00124171Y0003445
X00253222Y00037847
Y00054224
Y00070602
Y00086979
X00256759Y00103777
X00285627Y00132555
X00315651Y00094866
X00303446Y00049577
X0036449Y001143
X00380157Y0013806
X00415078Y00135255
X00520868Y00138792
X00501771Y00096926
X00553284Y00072969
X00576919Y00087268
X00581747Y0008255
X00586692Y00087268
X00604624Y00068676
X00613995Y00056352
X00603049Y00039963
X00604526Y00125655
X00594814Y00177055
X00576022Y00170568
X00557888Y00156281
X00559244Y00230105
X0057023Y0023114
X00560875Y00242822
X0058547Y0025146
X0059944Y0028448
X00599358Y00290175
X00615961Y0026857
X0061341Y0022352
X00610707Y00210446
X0061849Y0021209
X00654999Y00278862
X00561474Y00280096
X00546966Y00268456
X00516Y00263
X00513489Y00252902
X00509Y00232
X00512Y00215
X00518Y00209
X00469629Y0020898
X0046602Y0021498
X00469368Y00221772
X00465702Y00237088
X00466661Y00254893
X00476861Y00254884
X0047267Y00260884
X0047779Y00269648
X0047179Y00275648
X00490535Y00280411
X00498783Y00286779
X00507605Y00293044
X0050038Y0031877
X004743Y00297324
X00462453Y00291107
X0042418Y0028321
X0041275Y0027178
X00413841Y00254868
X00403274Y00243453
X0043434Y0022987
X00392732Y0020142
X00390775Y00187326
X00403927Y00186757
X00403599Y00173547
X00341569Y00169359
X0034914Y00152194
X00340777Y00143796
X00324597Y00149249
X0029972Y0014732
X00298282Y00174372
X00283338Y00174654
X00266961
X00250584
Y00193992
X00266961
X00283338
X00299716
X00320987Y00190413
X00313866Y00180943
X0033274Y0018529
X00329621Y00201033
X003429Y0020574
X0034935Y00231499
X00351307Y00259378
X0037084Y002667
X0038227Y0027633
X0038654Y0028194
X00375244Y00285127
X0036957Y0028956
X00343857Y0030592
X0029474Y00254359
X00373102Y00217864
X00470598Y00161812
X00531296Y00168008
X00087901Y00193378
T04
X00031Y00086
X00051
X00071
Y00106
X00241
X00261Y00126
Y00026
X00306Y00036
X00321Y00046
X00341
Y00026
X00321
X00356Y00036
X00371Y00046
X00391
Y00026
X00401Y00066
X00381
X00416Y00056
X00411Y00086
X00311Y00066
X00676001Y00136
Y00176
Y00196
Y00216
X00541Y00206
X00261Y00226
X00231Y00246
X00201Y00226
Y00206
X00186Y00196
X00171Y00206
Y00186
Y00166
X00191
X00211
Y00146
X00191
X00171
X00151
Y00166
Y00186
X00181Y00226
Y00326
X00201
X0022Y00318
X00231Y00306
X00261Y00146
X00141Y00206
X00071Y00226
X00051
Y00246
X00031
Y00226
X00021Y00206
X00036Y00196
X00051Y00206
X00061Y00266
Y00286
X00081
X00091Y00326
X00141Y00306
X00041Y00266
X00021
M30
