M48
;Layer_Color=9474304
;FILE_FORMAT=4:4
METRIC,LZ
;TYPE=PLATED
T02F00S00C0.1270
T03F00S00C0.1500
T04F00S00C0.2000
;TYPE=NON_PLATED
%
T02
X00016Y00066
X00056
X00066Y00046
X00086
X00106
X00116Y00066
X00096
X00106Y00086
X00126
X00136Y00106
X00126Y00126
X00096Y00106
X00016
X00076Y00026
X00086Y00006
X00106
X00126
X00136Y00026
X00116
X00146Y00046
X00166
X00176Y00026
X00196
X00216
X00236
X00206Y00006
X00186
X00166
X00156Y00066
X00166Y00086
X00156Y00106
X00146Y00126
X00226
X00246
Y00086
X00266
X00286
X00296Y00066
X00276
X00216
X00196
X00226Y00086
X00346
X00356Y00066
X00416
X00426Y00046
X00436Y00026
X00446Y00006
X00466
X00486
X00506
X00526
X00516Y00026
X00506Y00086
X00466
X00446
X00396Y00106
X00386Y00126
X00346
X00336Y00106
X00346Y00006
X00366
X00386
X00546
X00566
X00576Y00026
X00556Y00066
X00546Y00086
X00626001
X00656001Y00066
X00676001
X00696001
X00686001Y00086
X00696001Y00106
X00686001Y00126
X00646001Y00006
X00696001Y00146
Y00186
Y00266
X00546Y00246
X00526Y00206
X00506
X00496Y00226
Y00186
X00476
X00416
X00426Y00246
X00446
X00466
X00366
X00346
X00356Y00266
Y00226
X00296
X00286Y00206
X00276Y00186
X00286Y00166
X00276Y00146
X00316
X00236
Y00186
X00216
X00196
X00226Y00206
X00236Y00226
X00216
X00206Y00246
X00216Y00266
X00236
X00246Y00246
X00276Y00266
X00266Y00326
X00196Y00306
Y00266
X00166Y00286
X00146
Y00246
X00166
X00156Y00226
X00516Y00146
X00506Y00326
X00126
X00106
X00096Y00306
X00076
X00066Y00326
X00046Y00286
X00066Y00246
X00086
X00096Y00266
X00116
X00136
X00126Y00286
Y00246
X00116Y00226
X00096
X00106Y00206
Y00166
X00126
X00136Y00186
Y00146
X00116
X00066Y00166
X00026
X00036Y00186
X00016
X00006Y00206
X00016Y00226
T03
X00383668Y00136019
X00392996Y00136559
X0048514Y0013589
X0049276Y0013843
X0049911Y0013335
X0049149Y0012319
X00546869Y00132821
X00381003Y00143222
T04
X00006Y00106
Y00126
X00021Y00116
X00146Y00106
X00161Y00076
X00201Y00036
X00231
X00226Y00006
X00266Y00066
X00286
X00296Y00086
X00326
Y00106
Y00126
X00306Y00106
X00386Y00086
X00401Y00096
X00426Y00066
X00401Y00036
X00376Y00006
X00356
X00336
X00366Y00066
X00551Y00096
X00571Y00036
X00551Y00016
X00636001Y00086
X00651001Y00076
X00691001
Y00136
X00616001Y00146
Y00186
X00646001
Y00206
X00676001Y00266
X00691001Y00276
Y00296
X00666001Y00286
X00526Y00246
X00491Y00196
X00436Y00246
X00376
X00336
Y00266
X00321Y00316
X00246Y00306
X00236Y00286
X00206
Y00306
X00191Y00316
Y00296
X00251Y00256
X00291Y00236
X00311Y00216
X00346Y00186
X00361Y00176
X00396Y00326
X00051Y00276
X00031
X00006Y00286
Y00266
X00041Y00236
X00061
Y00216
X00041
Y00176
X00021
X00006Y00166
M30
