M48
;Layer_Color=9474304
;FILE_FORMAT=4:4
METRIC,LZ
;TYPE=PLATED
T01F00S00C0.1000
T03F00S00C0.1500
T04F00S00C0.2000
T05F00S00C0.3000
T06F00S00C0.5000
T07F00S00C0.6000
T09F00S00C0.7620
T11F00S00C1.0000
T12F00S00C2.2000
;TYPE=NON_PLATED
T13F00S00C0.6200
T14F00S00C0.9910
T15F00S00C2.0000
%
T01
X005836Y00298987
X005901
X006096
X006226
X006291
X0063235Y00270487
X006291Y00263988
X006356
T03
X00090731Y00029015
X00108969Y00119059
X00123466Y00105295
X00669467Y00268584
X0068453Y0027813
T04
X00021Y00076
X00041
X00061
Y00096
X00081
X00101
X00076Y00066
X00061Y00116
X00147437Y00018448
X0056404Y0019328
Y0020328
Y0021328
X0057404
X0058404
Y0020328
X0057404
Y0019328
X0058404
Y0022328
X0057404
X0056404
X0056388Y0023622
X00437082Y00317466
X00413481Y00337972
X00384836Y00336754
X0032512Y0027559
X00304789Y00276993
X00166Y00326
X00146
X00131Y00316
X00116Y00326
X00101Y00316
X00081
X00091Y00296
Y00276
Y00256
X00076Y00266
Y00246
X00106
Y00266
Y00286
X00121Y00276
X00136Y00286
X00071Y00296
X00021Y00236
X00061Y00176
T05
X000939Y00053065
X00655864Y00296034
X0006731Y0019939
T06
X0027845Y0001905
X0028845
X0029845
X00249006Y00334514
X00239006
X00229006
T07
X0048911Y003302
X0049911
T09
X0045905Y00042
T11
X0046792Y0002501
X0049292
X0053721Y0002413
X0056261
X00596697Y00024986
X00622097
X0045212Y0032893
X0042672
T12
X0003302Y0003302
X0066675
X0003302Y003175
T13
X0039733Y0018016
X0043833Y0022116
T14
X0037084Y0002159
X0042164Y0003175
Y0001143
X0067085Y00257364
X0069117
X0068101Y00308164
T15
X0066675Y0032385
M30
