M48
;Layer_Color=9474304
;FILE_FORMAT=4:4
METRIC,LZ
;TYPE=PLATED
T01F00S00C0.1000
T03F00S00C0.1500
T04F00S00C0.2000
;TYPE=NON_PLATED
%
T01
X005966Y00298987
X006161
X00642203Y00299653
X00647543Y00299715
T03
X00030974Y00128981
X0003659Y00128805
X00034828Y00134951
X00045511Y00126465
X00053466Y00128717
X00056574Y00134191
X00067434
X00070869Y0012939
X00078678Y00126056
X00086809Y00129595
X00089302Y00135025
X0009471Y00135912
X00101454Y00140924
X00086349Y00116809
X00086319Y00078679
X00143687Y00066871
X0015621Y0005124
X00552763Y00267622
X00294Y00278
X0029403Y00286
X00294Y00308
X00289943Y0030441
X00292Y00333
X0030101Y0033273
X00328696Y003345
X0026311Y0029505
X0025903Y0029097
X00255Y00295
X0026875Y00250976
X00284001Y00264581
X0015378Y00235999
X00156179Y00302271
X00118555Y00302271
X0012593Y00206645
X00111609Y00192562
X00096949Y00178575
X00095794Y00159692
X00090276Y00157937
X00087288Y00154302
X00081835Y00152206
X00072231Y00152829
X00064142Y00153022
X00054925Y00152829
X00049365Y00152881
X00044094Y00151645
X00038374Y00152876
X00031442Y00152964
X00031501Y00158404
X00038228Y00160715
X00086349Y00167609
X00099856Y00156014
X00103731Y00152139
X00106368Y00147335
X00140329Y00220887
T04
X00066Y00006
X00076Y00046
X00121Y00056
X00041Y00096
X00021
X00006Y00086
Y00066
X00171Y00056
X00291Y00036
X00271Y00016
X00326Y00066
X00346
X00351Y00096
X00371
X00386Y00106
X00341Y00116
X00436Y00086
X00451Y00096
X00471Y00056
X00491
X00511
X00526Y00046
X00521Y00016
X00441
X00431Y00036
X00406Y00006
X00521Y00116
X00551Y00036
X00586001Y00006
X00606001
X00626001
X00631001Y00056
X00621001Y00076
Y00096
X00676001Y00106
Y00086
X00691001Y00096
Y00116
X00686001Y00186
Y00206
X00606001Y00166
X00511Y00156
X00531Y00216
X00516Y00306
X00496
X00511Y00336
X00466Y00326
X00421Y00216
X00391
X00361Y00196
X00356Y00246
X00336Y00226
Y00286
X00306
X00211Y00336
X00191
X00171Y00256
X00436Y00186
X00076
X00061Y00196
X00081Y00216
X00091Y00236
X00121Y00256
X00131Y00336
X00101
X00071
X00006Y00246
X00011Y00216
Y00196
M30
