M48
;Layer_Color=9474304
;FILE_FORMAT=4:4
METRIC,LZ
;TYPE=PLATED
T01F00S00C0.1000
T03F00S00C0.1500
T04F00S00C0.2000
;TYPE=NON_PLATED
%
T01
X005791Y00278237
X0058685
X0059335Y00284737
X0059985Y00278237
X0061285
Y00292487
X0061935
X0062585Y00284737
X0063235
Y00278237
X006401
Y00284737
X0059985Y00292487
X00586809Y00292395
X0059335Y00270487
T03
X00201Y00026
X00176739Y00061543
X00160046Y00070458
X00306Y00082
X00379149Y00013085
X0055753Y0007112
X0056769Y0007493
X0053975Y0019939
X0059817Y0021717
X0061722Y0019939
X00538479Y0018923
X0053884Y0021917
X0046228Y0026797
Y0028194
X00271584Y0031518
X0021209Y0029337
T04
X00145098Y00083963
M30
